solid OpenSCAD_Model
  facet normal -1 0 0
    outer loop
      vertex 1.6 1.6 0
      vertex 1.6 1.6 0.3
      vertex 1.6 11.6 0
    endloop
  endfacet
  facet normal -1 0 0
    outer loop
      vertex 1.6 11.6 0
      vertex 1.6 1.6 0.3
      vertex 1.6 11.6 0.3
    endloop
  endfacet
  facet normal 0 -1 0
    outer loop
      vertex 1.6 1.6 0.3
      vertex 1.6 1.6 0
      vertex 11.6 1.6 0
    endloop
  endfacet
  facet normal 0 -1 0
    outer loop
      vertex 11.6 1.6 0.3
      vertex 1.6 1.6 0.3
      vertex 11.6 1.6 0
    endloop
  endfacet
  facet normal 0 0 -1
    outer loop
      vertex 1.6 1.6 0
      vertex 1.6 11.6 0
      vertex 11.6 1.6 0
    endloop
  endfacet
  facet normal 0 0 -1
    outer loop
      vertex 11.6 1.6 0
      vertex 1.6 11.6 0
      vertex 11.6 11.6 0
    endloop
  endfacet
  facet normal 0 1 0
    outer loop
      vertex 1.6 11.6 0
      vertex 1.6 11.6 0.3
      vertex 11.6 11.6 0
    endloop
  endfacet
  facet normal 0 1 0
    outer loop
      vertex 11.6 11.6 0
      vertex 1.6 11.6 0.3
      vertex 11.6 11.6 0.3
    endloop
  endfacet
  facet normal 0 0 1
    outer loop
      vertex 1.6 11.6 0.3
      vertex 1.6 1.6 0.3
      vertex 11.6 1.6 0.3
    endloop
  endfacet
  facet normal 0 0 1
    outer loop
      vertex 11.6 11.6 0.3
      vertex 1.6 11.6 0.3
      vertex 11.6 1.6 0.3
    endloop
  endfacet
  facet normal 1 0 0
    outer loop
      vertex 11.6 1.6 0.3
      vertex 11.6 1.6 0
      vertex 11.6 11.6 0
    endloop
  endfacet
  facet normal 1 0 0
    outer loop
      vertex 11.6 11.6 0.3
      vertex 11.6 1.6 0.3
      vertex 11.6 11.6 0
    endloop
  endfacet
  facet normal -1 0 0
    outer loop
      vertex 0 0 0
      vertex 0 0 0.3
      vertex 0 13.2 0
    endloop
  endfacet
  facet normal -1 0 0
    outer loop
      vertex 0 13.2 0
      vertex 0 0 0.3
      vertex 0 13.2 0.3
    endloop
  endfacet
  facet normal 0 -1 0
    outer loop
      vertex 0 0 0.3
      vertex 0 0 0
      vertex 13.2 0 0
    endloop
  endfacet
  facet normal 0 -1 0
    outer loop
      vertex 13.2 0 0.3
      vertex 0 0 0.3
      vertex 13.2 0 0
    endloop
  endfacet
  facet normal 0 0 -1
    outer loop
      vertex 12.8 12.8 0
      vertex 13.2 0 0
      vertex 12.8 0.4 0
    endloop
  endfacet
  facet normal 0 0 -1
    outer loop
      vertex 12.8 12.8 0
      vertex 0 13.2 0
      vertex 13.2 13.2 0
    endloop
  endfacet
  facet normal 0 0 -1
    outer loop
      vertex 0 0 0
      vertex 0 13.2 0
      vertex 0.4 12.8 0
    endloop
  endfacet
  facet normal 0 0 -1
    outer loop
      vertex 0 0 0
      vertex 0.4 12.8 0
      vertex 0.4 0.4 0
    endloop
  endfacet
  facet normal 0 0 -1
    outer loop
      vertex 0 0 0
      vertex 0.4 0.4 0
      vertex 13.2 0 0
    endloop
  endfacet
  facet normal 0 0 -1
    outer loop
      vertex 0.4 0.4 0
      vertex 12.8 0.4 0
      vertex 13.2 0 0
    endloop
  endfacet
  facet normal 0 0 -1
    outer loop
      vertex 13.2 0 0
      vertex 12.8 12.8 0
      vertex 13.2 13.2 0
    endloop
  endfacet
  facet normal 0 0 -1
    outer loop
      vertex 0.4 12.8 0
      vertex 0 13.2 0
      vertex 12.8 12.8 0
    endloop
  endfacet
  facet normal 0 1 0
    outer loop
      vertex 0 13.2 0
      vertex 0 13.2 0.3
      vertex 13.2 13.2 0
    endloop
  endfacet
  facet normal 0 1 0
    outer loop
      vertex 13.2 13.2 0
      vertex 0 13.2 0.3
      vertex 13.2 13.2 0.3
    endloop
  endfacet
  facet normal 0 0 1
    outer loop
      vertex 0.4 0.4 0.3
      vertex 0 0 0.3
      vertex 13.2 0 0.3
    endloop
  endfacet
  facet normal 0 0 1
    outer loop
      vertex 12.8 0.4 0.3
      vertex 0.4 0.4 0.3
      vertex 13.2 0 0.3
    endloop
  endfacet
  facet normal 0 0 1
    outer loop
      vertex 0 13.2 0.3
      vertex 0 0 0.3
      vertex 0.4 0.4 0.3
    endloop
  endfacet
  facet normal 0 0 1
    outer loop
      vertex 12.8 12.8 0.3
      vertex 12.8 0.4 0.3
      vertex 13.2 0 0.3
    endloop
  endfacet
  facet normal 0 0 1
    outer loop
      vertex 0 13.2 0.3
      vertex 0.4 0.4 0.3
      vertex 0.4 12.8 0.3
    endloop
  endfacet
  facet normal 0 0 1
    outer loop
      vertex 13.2 13.2 0.3
      vertex 12.8 12.8 0.3
      vertex 13.2 0 0.3
    endloop
  endfacet
  facet normal 0 0 1
    outer loop
      vertex 13.2 13.2 0.3
      vertex 0 13.2 0.3
      vertex 12.8 12.8 0.3
    endloop
  endfacet
  facet normal 0 0 1
    outer loop
      vertex 0.4 12.8 0.3
      vertex 12.8 12.8 0.3
      vertex 0 13.2 0.3
    endloop
  endfacet
  facet normal 1 0 0
    outer loop
      vertex 13.2 0 0.3
      vertex 13.2 0 0
      vertex 13.2 13.2 0
    endloop
  endfacet
  facet normal 1 0 0
    outer loop
      vertex 13.2 13.2 0.3
      vertex 13.2 0 0.3
      vertex 13.2 13.2 0
    endloop
  endfacet
  facet normal 1 0 0
    outer loop
      vertex 0.4 12.8 0
      vertex 0.4 12.8 0.3
      vertex 0.4 0.4 0.3
    endloop
  endfacet
  facet normal 1 0 0
    outer loop
      vertex 0.4 0.4 0
      vertex 0.4 12.8 0
      vertex 0.4 0.4 0.3
    endloop
  endfacet
  facet normal 0 -1 0
    outer loop
      vertex 12.8 12.8 0
      vertex 12.8 12.8 0.3
      vertex 0.4 12.8 0.3
    endloop
  endfacet
  facet normal 0 -1 0
    outer loop
      vertex 0.4 12.8 0
      vertex 12.8 12.8 0
      vertex 0.4 12.8 0.3
    endloop
  endfacet
  facet normal -1 0 0
    outer loop
      vertex 12.8 12.8 0.3
      vertex 12.8 12.8 0
      vertex 12.8 0.4 0.3
    endloop
  endfacet
  facet normal -1 0 0
    outer loop
      vertex 12.8 0.4 0.3
      vertex 12.8 12.8 0
      vertex 12.8 0.4 0
    endloop
  endfacet
  facet normal 0 1 0
    outer loop
      vertex 12.8 0.4 0.3
      vertex 12.8 0.4 0
      vertex 0.4 0.4 0.3
    endloop
  endfacet
  facet normal 0 1 0
    outer loop
      vertex 0.4 0.4 0.3
      vertex 12.8 0.4 0
      vertex 0.4 0.4 0
    endloop
  endfacet
  facet normal -1 0 0
    outer loop
      vertex 46.6 1.6 0
      vertex 46.6 1.6 0.3
      vertex 46.6 11.6 0
    endloop
  endfacet
  facet normal -1 0 0
    outer loop
      vertex 46.6 11.6 0
      vertex 46.6 1.6 0.3
      vertex 46.6 11.6 0.3
    endloop
  endfacet
  facet normal 0 -1 0
    outer loop
      vertex 46.6 1.6 0.3
      vertex 46.6 1.6 0
      vertex 56.6 1.6 0
    endloop
  endfacet
  facet normal 0 -1 0
    outer loop
      vertex 56.6 1.6 0.3
      vertex 46.6 1.6 0.3
      vertex 56.6 1.6 0
    endloop
  endfacet
  facet normal 0 0 -1
    outer loop
      vertex 46.6 1.6 0
      vertex 46.6 11.6 0
      vertex 56.6 1.6 0
    endloop
  endfacet
  facet normal 0 0 -1
    outer loop
      vertex 56.6 1.6 0
      vertex 46.6 11.6 0
      vertex 56.6 11.6 0
    endloop
  endfacet
  facet normal 0 1 0
    outer loop
      vertex 46.6 11.6 0
      vertex 46.6 11.6 0.3
      vertex 56.6 11.6 0
    endloop
  endfacet
  facet normal 0 1 0
    outer loop
      vertex 56.6 11.6 0
      vertex 46.6 11.6 0.3
      vertex 56.6 11.6 0.3
    endloop
  endfacet
  facet normal 0 0 1
    outer loop
      vertex 46.6 11.6 0.3
      vertex 46.6 1.6 0.3
      vertex 56.6 1.6 0.3
    endloop
  endfacet
  facet normal 0 0 1
    outer loop
      vertex 56.6 11.6 0.3
      vertex 46.6 11.6 0.3
      vertex 56.6 1.6 0.3
    endloop
  endfacet
  facet normal 1 0 0
    outer loop
      vertex 56.6 1.6 0.3
      vertex 56.6 1.6 0
      vertex 56.6 11.6 0
    endloop
  endfacet
  facet normal 1 0 0
    outer loop
      vertex 56.6 11.6 0.3
      vertex 56.6 1.6 0.3
      vertex 56.6 11.6 0
    endloop
  endfacet
  facet normal -1 0 0
    outer loop
      vertex 45 0 0
      vertex 45 0 0.3
      vertex 45 13.2 0
    endloop
  endfacet
  facet normal -1 0 0
    outer loop
      vertex 45 13.2 0
      vertex 45 0 0.3
      vertex 45 13.2 0.3
    endloop
  endfacet
  facet normal 0 -1 0
    outer loop
      vertex 45 0 0.3
      vertex 45 0 0
      vertex 58.2 0 0
    endloop
  endfacet
  facet normal 0 -1 0
    outer loop
      vertex 58.2 0 0.3
      vertex 45 0 0.3
      vertex 58.2 0 0
    endloop
  endfacet
  facet normal 0 0 -1
    outer loop
      vertex 57.8 12.8 0
      vertex 58.2 0 0
      vertex 57.8 0.4 0
    endloop
  endfacet
  facet normal 0 0 -1
    outer loop
      vertex 57.8 12.8 0
      vertex 45 13.2 0
      vertex 58.2 13.2 0
    endloop
  endfacet
  facet normal 0 0 -1
    outer loop
      vertex 45 0 0
      vertex 45 13.2 0
      vertex 45.4 12.8 0
    endloop
  endfacet
  facet normal 0 0 -1
    outer loop
      vertex 45 0 0
      vertex 45.4 12.8 0
      vertex 45.4 0.4 0
    endloop
  endfacet
  facet normal 0 0 -1
    outer loop
      vertex 45 0 0
      vertex 45.4 0.4 0
      vertex 58.2 0 0
    endloop
  endfacet
  facet normal 0 0 -1
    outer loop
      vertex 45.4 0.4 0
      vertex 57.8 0.4 0
      vertex 58.2 0 0
    endloop
  endfacet
  facet normal 0 0 -1
    outer loop
      vertex 58.2 0 0
      vertex 57.8 12.8 0
      vertex 58.2 13.2 0
    endloop
  endfacet
  facet normal 0 0 -1
    outer loop
      vertex 45.4 12.8 0
      vertex 45 13.2 0
      vertex 57.8 12.8 0
    endloop
  endfacet
  facet normal 0 1 0
    outer loop
      vertex 45 13.2 0
      vertex 45 13.2 0.3
      vertex 58.2 13.2 0
    endloop
  endfacet
  facet normal 0 1 0
    outer loop
      vertex 58.2 13.2 0
      vertex 45 13.2 0.3
      vertex 58.2 13.2 0.3
    endloop
  endfacet
  facet normal 0 0 1
    outer loop
      vertex 45.4 0.4 0.3
      vertex 45 0 0.3
      vertex 58.2 0 0.3
    endloop
  endfacet
  facet normal 0 0 1
    outer loop
      vertex 57.8 0.4 0.3
      vertex 45.4 0.4 0.3
      vertex 58.2 0 0.3
    endloop
  endfacet
  facet normal 0 0 1
    outer loop
      vertex 45 13.2 0.3
      vertex 45 0 0.3
      vertex 45.4 0.4 0.3
    endloop
  endfacet
  facet normal 0 0 1
    outer loop
      vertex 57.8 12.8 0.3
      vertex 57.8 0.4 0.3
      vertex 58.2 0 0.3
    endloop
  endfacet
  facet normal 0 0 1
    outer loop
      vertex 45 13.2 0.3
      vertex 45.4 0.4 0.3
      vertex 45.4 12.8 0.3
    endloop
  endfacet
  facet normal 0 0 1
    outer loop
      vertex 58.2 13.2 0.3
      vertex 57.8 12.8 0.3
      vertex 58.2 0 0.3
    endloop
  endfacet
  facet normal 0 0 1
    outer loop
      vertex 58.2 13.2 0.3
      vertex 45 13.2 0.3
      vertex 57.8 12.8 0.3
    endloop
  endfacet
  facet normal 0 0 1
    outer loop
      vertex 45.4 12.8 0.3
      vertex 57.8 12.8 0.3
      vertex 45 13.2 0.3
    endloop
  endfacet
  facet normal 1 0 0
    outer loop
      vertex 58.2 0 0.3
      vertex 58.2 0 0
      vertex 58.2 13.2 0
    endloop
  endfacet
  facet normal 1 0 0
    outer loop
      vertex 58.2 13.2 0.3
      vertex 58.2 0 0.3
      vertex 58.2 13.2 0
    endloop
  endfacet
  facet normal 1 0 0
    outer loop
      vertex 45.4 12.8 0
      vertex 45.4 12.8 0.3
      vertex 45.4 0.4 0.3
    endloop
  endfacet
  facet normal 1 0 0
    outer loop
      vertex 45.4 0.4 0
      vertex 45.4 12.8 0
      vertex 45.4 0.4 0.3
    endloop
  endfacet
  facet normal 0 -1 0
    outer loop
      vertex 57.8 12.8 0
      vertex 57.8 12.8 0.3
      vertex 45.4 12.8 0.3
    endloop
  endfacet
  facet normal 0 -1 0
    outer loop
      vertex 45.4 12.8 0
      vertex 57.8 12.8 0
      vertex 45.4 12.8 0.3
    endloop
  endfacet
  facet normal -1 0 0
    outer loop
      vertex 57.8 12.8 0.3
      vertex 57.8 12.8 0
      vertex 57.8 0.4 0.3
    endloop
  endfacet
  facet normal -1 0 0
    outer loop
      vertex 57.8 0.4 0.3
      vertex 57.8 12.8 0
      vertex 57.8 0.4 0
    endloop
  endfacet
  facet normal 0 1 0
    outer loop
      vertex 57.8 0.4 0.3
      vertex 57.8 0.4 0
      vertex 45.4 0.4 0.3
    endloop
  endfacet
  facet normal 0 1 0
    outer loop
      vertex 45.4 0.4 0.3
      vertex 57.8 0.4 0
      vertex 45.4 0.4 0
    endloop
  endfacet
  facet normal -1 0 0
    outer loop
      vertex 91.6 1.6 0
      vertex 91.6 1.6 0.3
      vertex 91.6 11.6 0
    endloop
  endfacet
  facet normal -1 0 0
    outer loop
      vertex 91.6 11.6 0
      vertex 91.6 1.6 0.3
      vertex 91.6 11.6 0.3
    endloop
  endfacet
  facet normal 0 -1 0
    outer loop
      vertex 91.6 1.6 0.3
      vertex 91.6 1.6 0
      vertex 101.6 1.6 0
    endloop
  endfacet
  facet normal 0 -1 0
    outer loop
      vertex 101.6 1.6 0.3
      vertex 91.6 1.6 0.3
      vertex 101.6 1.6 0
    endloop
  endfacet
  facet normal 0 0 -1
    outer loop
      vertex 91.6 1.6 0
      vertex 91.6 11.6 0
      vertex 101.6 1.6 0
    endloop
  endfacet
  facet normal 0 0 -1
    outer loop
      vertex 101.6 1.6 0
      vertex 91.6 11.6 0
      vertex 101.6 11.6 0
    endloop
  endfacet
  facet normal 0 1 0
    outer loop
      vertex 91.6 11.6 0
      vertex 91.6 11.6 0.3
      vertex 101.6 11.6 0
    endloop
  endfacet
  facet normal 0 1 0
    outer loop
      vertex 101.6 11.6 0
      vertex 91.6 11.6 0.3
      vertex 101.6 11.6 0.3
    endloop
  endfacet
  facet normal 0 0 1
    outer loop
      vertex 91.6 11.6 0.3
      vertex 91.6 1.6 0.3
      vertex 101.6 1.6 0.3
    endloop
  endfacet
  facet normal 0 0 1
    outer loop
      vertex 101.6 11.6 0.3
      vertex 91.6 11.6 0.3
      vertex 101.6 1.6 0.3
    endloop
  endfacet
  facet normal 1 0 0
    outer loop
      vertex 101.6 1.6 0.3
      vertex 101.6 1.6 0
      vertex 101.6 11.6 0
    endloop
  endfacet
  facet normal 1 0 0
    outer loop
      vertex 101.6 11.6 0.3
      vertex 101.6 1.6 0.3
      vertex 101.6 11.6 0
    endloop
  endfacet
  facet normal -1 0 0
    outer loop
      vertex 90 0 0
      vertex 90 0 0.3
      vertex 90 13.2 0
    endloop
  endfacet
  facet normal -1 0 0
    outer loop
      vertex 90 13.2 0
      vertex 90 0 0.3
      vertex 90 13.2 0.3
    endloop
  endfacet
  facet normal 0 -1 0
    outer loop
      vertex 90 0 0.3
      vertex 90 0 0
      vertex 103.2 0 0
    endloop
  endfacet
  facet normal 0 -1 0
    outer loop
      vertex 103.2 0 0.3
      vertex 90 0 0.3
      vertex 103.2 0 0
    endloop
  endfacet
  facet normal 0 0 -1
    outer loop
      vertex 102.8 12.8 0
      vertex 103.2 0 0
      vertex 102.8 0.4 0
    endloop
  endfacet
  facet normal 0 0 -1
    outer loop
      vertex 102.8 12.8 0
      vertex 90 13.2 0
      vertex 103.2 13.2 0
    endloop
  endfacet
  facet normal 0 0 -1
    outer loop
      vertex 90 0 0
      vertex 90 13.2 0
      vertex 90.4 12.8 0
    endloop
  endfacet
  facet normal 0 0 -1
    outer loop
      vertex 90 0 0
      vertex 90.4 12.8 0
      vertex 90.4 0.4 0
    endloop
  endfacet
  facet normal 0 0 -1
    outer loop
      vertex 90 0 0
      vertex 90.4 0.4 0
      vertex 103.2 0 0
    endloop
  endfacet
  facet normal 0 0 -1
    outer loop
      vertex 90.4 0.4 0
      vertex 102.8 0.4 0
      vertex 103.2 0 0
    endloop
  endfacet
  facet normal 0 0 -1
    outer loop
      vertex 103.2 0 0
      vertex 102.8 12.8 0
      vertex 103.2 13.2 0
    endloop
  endfacet
  facet normal 0 0 -1
    outer loop
      vertex 90.4 12.8 0
      vertex 90 13.2 0
      vertex 102.8 12.8 0
    endloop
  endfacet
  facet normal 0 1 0
    outer loop
      vertex 90 13.2 0
      vertex 90 13.2 0.3
      vertex 103.2 13.2 0
    endloop
  endfacet
  facet normal 0 1 0
    outer loop
      vertex 103.2 13.2 0
      vertex 90 13.2 0.3
      vertex 103.2 13.2 0.3
    endloop
  endfacet
  facet normal 0 0 1
    outer loop
      vertex 90.4 0.4 0.3
      vertex 90 0 0.3
      vertex 103.2 0 0.3
    endloop
  endfacet
  facet normal 0 0 1
    outer loop
      vertex 102.8 0.4 0.3
      vertex 90.4 0.4 0.3
      vertex 103.2 0 0.3
    endloop
  endfacet
  facet normal 0 0 1
    outer loop
      vertex 90 13.2 0.3
      vertex 90 0 0.3
      vertex 90.4 0.4 0.3
    endloop
  endfacet
  facet normal 0 0 1
    outer loop
      vertex 102.8 12.8 0.3
      vertex 102.8 0.4 0.3
      vertex 103.2 0 0.3
    endloop
  endfacet
  facet normal 0 0 1
    outer loop
      vertex 90 13.2 0.3
      vertex 90.4 0.4 0.3
      vertex 90.4 12.8 0.3
    endloop
  endfacet
  facet normal 0 0 1
    outer loop
      vertex 103.2 13.2 0.3
      vertex 102.8 12.8 0.3
      vertex 103.2 0 0.3
    endloop
  endfacet
  facet normal 0 0 1
    outer loop
      vertex 103.2 13.2 0.3
      vertex 90 13.2 0.3
      vertex 102.8 12.8 0.3
    endloop
  endfacet
  facet normal 0 0 1
    outer loop
      vertex 90.4 12.8 0.3
      vertex 102.8 12.8 0.3
      vertex 90 13.2 0.3
    endloop
  endfacet
  facet normal 1 0 0
    outer loop
      vertex 103.2 0 0.3
      vertex 103.2 0 0
      vertex 103.2 13.2 0
    endloop
  endfacet
  facet normal 1 0 0
    outer loop
      vertex 103.2 13.2 0.3
      vertex 103.2 0 0.3
      vertex 103.2 13.2 0
    endloop
  endfacet
  facet normal 1 0 0
    outer loop
      vertex 90.4 12.8 0
      vertex 90.4 12.8 0.3
      vertex 90.4 0.4 0.3
    endloop
  endfacet
  facet normal 1 0 0
    outer loop
      vertex 90.4 0.4 0
      vertex 90.4 12.8 0
      vertex 90.4 0.4 0.3
    endloop
  endfacet
  facet normal 0 -1 0
    outer loop
      vertex 102.8 12.8 0
      vertex 102.8 12.8 0.3
      vertex 90.4 12.8 0.3
    endloop
  endfacet
  facet normal 0 -1 0
    outer loop
      vertex 90.4 12.8 0
      vertex 102.8 12.8 0
      vertex 90.4 12.8 0.3
    endloop
  endfacet
  facet normal -1 0 0
    outer loop
      vertex 102.8 12.8 0.3
      vertex 102.8 12.8 0
      vertex 102.8 0.4 0.3
    endloop
  endfacet
  facet normal -1 0 0
    outer loop
      vertex 102.8 0.4 0.3
      vertex 102.8 12.8 0
      vertex 102.8 0.4 0
    endloop
  endfacet
  facet normal 0 1 0
    outer loop
      vertex 102.8 0.4 0.3
      vertex 102.8 0.4 0
      vertex 90.4 0.4 0.3
    endloop
  endfacet
  facet normal 0 1 0
    outer loop
      vertex 90.4 0.4 0.3
      vertex 102.8 0.4 0
      vertex 90.4 0.4 0
    endloop
  endfacet
  facet normal -1 0 0
    outer loop
      vertex 1.6 46.6 0
      vertex 1.6 46.6 0.3
      vertex 1.6 56.6 0
    endloop
  endfacet
  facet normal -1 0 0
    outer loop
      vertex 1.6 56.6 0
      vertex 1.6 46.6 0.3
      vertex 1.6 56.6 0.3
    endloop
  endfacet
  facet normal 0 -1 0
    outer loop
      vertex 1.6 46.6 0.3
      vertex 1.6 46.6 0
      vertex 11.6 46.6 0
    endloop
  endfacet
  facet normal 0 -1 0
    outer loop
      vertex 11.6 46.6 0.3
      vertex 1.6 46.6 0.3
      vertex 11.6 46.6 0
    endloop
  endfacet
  facet normal 0 0 -1
    outer loop
      vertex 1.6 46.6 0
      vertex 1.6 56.6 0
      vertex 11.6 46.6 0
    endloop
  endfacet
  facet normal 0 0 -1
    outer loop
      vertex 11.6 46.6 0
      vertex 1.6 56.6 0
      vertex 11.6 56.6 0
    endloop
  endfacet
  facet normal 0 1 0
    outer loop
      vertex 1.6 56.6 0
      vertex 1.6 56.6 0.3
      vertex 11.6 56.6 0
    endloop
  endfacet
  facet normal 0 1 0
    outer loop
      vertex 11.6 56.6 0
      vertex 1.6 56.6 0.3
      vertex 11.6 56.6 0.3
    endloop
  endfacet
  facet normal 0 0 1
    outer loop
      vertex 1.6 56.6 0.3
      vertex 1.6 46.6 0.3
      vertex 11.6 46.6 0.3
    endloop
  endfacet
  facet normal 0 0 1
    outer loop
      vertex 11.6 56.6 0.3
      vertex 1.6 56.6 0.3
      vertex 11.6 46.6 0.3
    endloop
  endfacet
  facet normal 1 0 0
    outer loop
      vertex 11.6 46.6 0.3
      vertex 11.6 46.6 0
      vertex 11.6 56.6 0
    endloop
  endfacet
  facet normal 1 0 0
    outer loop
      vertex 11.6 56.6 0.3
      vertex 11.6 46.6 0.3
      vertex 11.6 56.6 0
    endloop
  endfacet
  facet normal -1 0 0
    outer loop
      vertex 0 45 0
      vertex 0 45 0.3
      vertex 0 58.2 0
    endloop
  endfacet
  facet normal -1 0 0
    outer loop
      vertex 0 58.2 0
      vertex 0 45 0.3
      vertex 0 58.2 0.3
    endloop
  endfacet
  facet normal 0 -1 0
    outer loop
      vertex 0 45 0.3
      vertex 0 45 0
      vertex 13.2 45 0
    endloop
  endfacet
  facet normal 0 -1 0
    outer loop
      vertex 13.2 45 0.3
      vertex 0 45 0.3
      vertex 13.2 45 0
    endloop
  endfacet
  facet normal 0 0 -1
    outer loop
      vertex 12.8 57.8 0
      vertex 13.2 45 0
      vertex 12.8 45.4 0
    endloop
  endfacet
  facet normal 0 0 -1
    outer loop
      vertex 12.8 57.8 0
      vertex 0 58.2 0
      vertex 13.2 58.2 0
    endloop
  endfacet
  facet normal 0 0 -1
    outer loop
      vertex 0 45 0
      vertex 0 58.2 0
      vertex 0.4 57.8 0
    endloop
  endfacet
  facet normal 0 0 -1
    outer loop
      vertex 0 45 0
      vertex 0.4 57.8 0
      vertex 0.4 45.4 0
    endloop
  endfacet
  facet normal 0 0 -1
    outer loop
      vertex 0 45 0
      vertex 0.4 45.4 0
      vertex 13.2 45 0
    endloop
  endfacet
  facet normal 0 0 -1
    outer loop
      vertex 0.4 45.4 0
      vertex 12.8 45.4 0
      vertex 13.2 45 0
    endloop
  endfacet
  facet normal 0 0 -1
    outer loop
      vertex 13.2 45 0
      vertex 12.8 57.8 0
      vertex 13.2 58.2 0
    endloop
  endfacet
  facet normal 0 0 -1
    outer loop
      vertex 0.4 57.8 0
      vertex 0 58.2 0
      vertex 12.8 57.8 0
    endloop
  endfacet
  facet normal 0 1 0
    outer loop
      vertex 0 58.2 0
      vertex 0 58.2 0.3
      vertex 13.2 58.2 0
    endloop
  endfacet
  facet normal 0 1 0
    outer loop
      vertex 13.2 58.2 0
      vertex 0 58.2 0.3
      vertex 13.2 58.2 0.3
    endloop
  endfacet
  facet normal 0 0 1
    outer loop
      vertex 0.4 45.4 0.3
      vertex 0 45 0.3
      vertex 13.2 45 0.3
    endloop
  endfacet
  facet normal 0 0 1
    outer loop
      vertex 12.8 45.4 0.3
      vertex 0.4 45.4 0.3
      vertex 13.2 45 0.3
    endloop
  endfacet
  facet normal 0 0 1
    outer loop
      vertex 0 58.2 0.3
      vertex 0 45 0.3
      vertex 0.4 45.4 0.3
    endloop
  endfacet
  facet normal 0 0 1
    outer loop
      vertex 12.8 57.8 0.3
      vertex 12.8 45.4 0.3
      vertex 13.2 45 0.3
    endloop
  endfacet
  facet normal 0 0 1
    outer loop
      vertex 0 58.2 0.3
      vertex 0.4 45.4 0.3
      vertex 0.4 57.8 0.3
    endloop
  endfacet
  facet normal 0 0 1
    outer loop
      vertex 13.2 58.2 0.3
      vertex 12.8 57.8 0.3
      vertex 13.2 45 0.3
    endloop
  endfacet
  facet normal 0 0 1
    outer loop
      vertex 13.2 58.2 0.3
      vertex 0 58.2 0.3
      vertex 12.8 57.8 0.3
    endloop
  endfacet
  facet normal 0 0 1
    outer loop
      vertex 0.4 57.8 0.3
      vertex 12.8 57.8 0.3
      vertex 0 58.2 0.3
    endloop
  endfacet
  facet normal 1 0 0
    outer loop
      vertex 13.2 45 0.3
      vertex 13.2 45 0
      vertex 13.2 58.2 0
    endloop
  endfacet
  facet normal 1 0 0
    outer loop
      vertex 13.2 58.2 0.3
      vertex 13.2 45 0.3
      vertex 13.2 58.2 0
    endloop
  endfacet
  facet normal 1 0 0
    outer loop
      vertex 0.4 57.8 0
      vertex 0.4 57.8 0.3
      vertex 0.4 45.4 0.3
    endloop
  endfacet
  facet normal 1 0 0
    outer loop
      vertex 0.4 45.4 0
      vertex 0.4 57.8 0
      vertex 0.4 45.4 0.3
    endloop
  endfacet
  facet normal 0 -1 0
    outer loop
      vertex 12.8 57.8 0
      vertex 12.8 57.8 0.3
      vertex 0.4 57.8 0.3
    endloop
  endfacet
  facet normal 0 -1 0
    outer loop
      vertex 0.4 57.8 0
      vertex 12.8 57.8 0
      vertex 0.4 57.8 0.3
    endloop
  endfacet
  facet normal -1 0 0
    outer loop
      vertex 12.8 57.8 0.3
      vertex 12.8 57.8 0
      vertex 12.8 45.4 0.3
    endloop
  endfacet
  facet normal -1 0 0
    outer loop
      vertex 12.8 45.4 0.3
      vertex 12.8 57.8 0
      vertex 12.8 45.4 0
    endloop
  endfacet
  facet normal 0 1 0
    outer loop
      vertex 12.8 45.4 0.3
      vertex 12.8 45.4 0
      vertex 0.4 45.4 0.3
    endloop
  endfacet
  facet normal 0 1 0
    outer loop
      vertex 0.4 45.4 0.3
      vertex 12.8 45.4 0
      vertex 0.4 45.4 0
    endloop
  endfacet
  facet normal -1 0 0
    outer loop
      vertex 46.6 46.6 0
      vertex 46.6 46.6 0.3
      vertex 46.6 56.6 0
    endloop
  endfacet
  facet normal -1 0 0
    outer loop
      vertex 46.6 56.6 0
      vertex 46.6 46.6 0.3
      vertex 46.6 56.6 0.3
    endloop
  endfacet
  facet normal 0 -1 0
    outer loop
      vertex 46.6 46.6 0.3
      vertex 46.6 46.6 0
      vertex 56.6 46.6 0
    endloop
  endfacet
  facet normal 0 -1 0
    outer loop
      vertex 56.6 46.6 0.3
      vertex 46.6 46.6 0.3
      vertex 56.6 46.6 0
    endloop
  endfacet
  facet normal 0 0 -1
    outer loop
      vertex 46.6 46.6 0
      vertex 46.6 56.6 0
      vertex 56.6 46.6 0
    endloop
  endfacet
  facet normal 0 0 -1
    outer loop
      vertex 56.6 46.6 0
      vertex 46.6 56.6 0
      vertex 56.6 56.6 0
    endloop
  endfacet
  facet normal 0 1 0
    outer loop
      vertex 46.6 56.6 0
      vertex 46.6 56.6 0.3
      vertex 56.6 56.6 0
    endloop
  endfacet
  facet normal 0 1 0
    outer loop
      vertex 56.6 56.6 0
      vertex 46.6 56.6 0.3
      vertex 56.6 56.6 0.3
    endloop
  endfacet
  facet normal 0 0 1
    outer loop
      vertex 46.6 56.6 0.3
      vertex 46.6 46.6 0.3
      vertex 56.6 46.6 0.3
    endloop
  endfacet
  facet normal 0 0 1
    outer loop
      vertex 56.6 56.6 0.3
      vertex 46.6 56.6 0.3
      vertex 56.6 46.6 0.3
    endloop
  endfacet
  facet normal 1 0 0
    outer loop
      vertex 56.6 46.6 0.3
      vertex 56.6 46.6 0
      vertex 56.6 56.6 0
    endloop
  endfacet
  facet normal 1 0 0
    outer loop
      vertex 56.6 56.6 0.3
      vertex 56.6 46.6 0.3
      vertex 56.6 56.6 0
    endloop
  endfacet
  facet normal -1 0 0
    outer loop
      vertex 45 45 0
      vertex 45 45 0.3
      vertex 45 58.2 0
    endloop
  endfacet
  facet normal -1 0 0
    outer loop
      vertex 45 58.2 0
      vertex 45 45 0.3
      vertex 45 58.2 0.3
    endloop
  endfacet
  facet normal 0 -1 0
    outer loop
      vertex 45 45 0.3
      vertex 45 45 0
      vertex 58.2 45 0
    endloop
  endfacet
  facet normal 0 -1 0
    outer loop
      vertex 58.2 45 0.3
      vertex 45 45 0.3
      vertex 58.2 45 0
    endloop
  endfacet
  facet normal 0 0 -1
    outer loop
      vertex 57.8 57.8 0
      vertex 58.2 45 0
      vertex 57.8 45.4 0
    endloop
  endfacet
  facet normal 0 0 -1
    outer loop
      vertex 57.8 57.8 0
      vertex 45 58.2 0
      vertex 58.2 58.2 0
    endloop
  endfacet
  facet normal 0 0 -1
    outer loop
      vertex 45 45 0
      vertex 45 58.2 0
      vertex 45.4 57.8 0
    endloop
  endfacet
  facet normal 0 0 -1
    outer loop
      vertex 45 45 0
      vertex 45.4 57.8 0
      vertex 45.4 45.4 0
    endloop
  endfacet
  facet normal 0 0 -1
    outer loop
      vertex 45 45 0
      vertex 45.4 45.4 0
      vertex 58.2 45 0
    endloop
  endfacet
  facet normal 0 0 -1
    outer loop
      vertex 45.4 45.4 0
      vertex 57.8 45.4 0
      vertex 58.2 45 0
    endloop
  endfacet
  facet normal 0 0 -1
    outer loop
      vertex 58.2 45 0
      vertex 57.8 57.8 0
      vertex 58.2 58.2 0
    endloop
  endfacet
  facet normal 0 0 -1
    outer loop
      vertex 45.4 57.8 0
      vertex 45 58.2 0
      vertex 57.8 57.8 0
    endloop
  endfacet
  facet normal 0 1 0
    outer loop
      vertex 45 58.2 0
      vertex 45 58.2 0.3
      vertex 58.2 58.2 0
    endloop
  endfacet
  facet normal 0 1 0
    outer loop
      vertex 58.2 58.2 0
      vertex 45 58.2 0.3
      vertex 58.2 58.2 0.3
    endloop
  endfacet
  facet normal 0 0 1
    outer loop
      vertex 45.4 45.4 0.3
      vertex 45 45 0.3
      vertex 58.2 45 0.3
    endloop
  endfacet
  facet normal 0 0 1
    outer loop
      vertex 57.8 45.4 0.3
      vertex 45.4 45.4 0.3
      vertex 58.2 45 0.3
    endloop
  endfacet
  facet normal 0 0 1
    outer loop
      vertex 45 58.2 0.3
      vertex 45 45 0.3
      vertex 45.4 45.4 0.3
    endloop
  endfacet
  facet normal 0 0 1
    outer loop
      vertex 57.8 57.8 0.3
      vertex 57.8 45.4 0.3
      vertex 58.2 45 0.3
    endloop
  endfacet
  facet normal 0 0 1
    outer loop
      vertex 45 58.2 0.3
      vertex 45.4 45.4 0.3
      vertex 45.4 57.8 0.3
    endloop
  endfacet
  facet normal 0 0 1
    outer loop
      vertex 58.2 58.2 0.3
      vertex 57.8 57.8 0.3
      vertex 58.2 45 0.3
    endloop
  endfacet
  facet normal 0 0 1
    outer loop
      vertex 58.2 58.2 0.3
      vertex 45 58.2 0.3
      vertex 57.8 57.8 0.3
    endloop
  endfacet
  facet normal 0 0 1
    outer loop
      vertex 45.4 57.8 0.3
      vertex 57.8 57.8 0.3
      vertex 45 58.2 0.3
    endloop
  endfacet
  facet normal 1 0 0
    outer loop
      vertex 58.2 45 0.3
      vertex 58.2 45 0
      vertex 58.2 58.2 0
    endloop
  endfacet
  facet normal 1 0 0
    outer loop
      vertex 58.2 58.2 0.3
      vertex 58.2 45 0.3
      vertex 58.2 58.2 0
    endloop
  endfacet
  facet normal 1 0 0
    outer loop
      vertex 45.4 57.8 0
      vertex 45.4 57.8 0.3
      vertex 45.4 45.4 0.3
    endloop
  endfacet
  facet normal 1 0 0
    outer loop
      vertex 45.4 45.4 0
      vertex 45.4 57.8 0
      vertex 45.4 45.4 0.3
    endloop
  endfacet
  facet normal 0 -1 0
    outer loop
      vertex 57.8 57.8 0
      vertex 57.8 57.8 0.3
      vertex 45.4 57.8 0.3
    endloop
  endfacet
  facet normal 0 -1 0
    outer loop
      vertex 45.4 57.8 0
      vertex 57.8 57.8 0
      vertex 45.4 57.8 0.3
    endloop
  endfacet
  facet normal -1 0 0
    outer loop
      vertex 57.8 57.8 0.3
      vertex 57.8 57.8 0
      vertex 57.8 45.4 0.3
    endloop
  endfacet
  facet normal -1 0 0
    outer loop
      vertex 57.8 45.4 0.3
      vertex 57.8 57.8 0
      vertex 57.8 45.4 0
    endloop
  endfacet
  facet normal 0 1 0
    outer loop
      vertex 57.8 45.4 0.3
      vertex 57.8 45.4 0
      vertex 45.4 45.4 0.3
    endloop
  endfacet
  facet normal 0 1 0
    outer loop
      vertex 45.4 45.4 0.3
      vertex 57.8 45.4 0
      vertex 45.4 45.4 0
    endloop
  endfacet
  facet normal -1 0 0
    outer loop
      vertex 91.6 46.6 0
      vertex 91.6 46.6 0.3
      vertex 91.6 56.6 0
    endloop
  endfacet
  facet normal -1 0 0
    outer loop
      vertex 91.6 56.6 0
      vertex 91.6 46.6 0.3
      vertex 91.6 56.6 0.3
    endloop
  endfacet
  facet normal 0 -1 0
    outer loop
      vertex 91.6 46.6 0.3
      vertex 91.6 46.6 0
      vertex 101.6 46.6 0
    endloop
  endfacet
  facet normal 0 -1 0
    outer loop
      vertex 101.6 46.6 0.3
      vertex 91.6 46.6 0.3
      vertex 101.6 46.6 0
    endloop
  endfacet
  facet normal 0 0 -1
    outer loop
      vertex 91.6 46.6 0
      vertex 91.6 56.6 0
      vertex 101.6 46.6 0
    endloop
  endfacet
  facet normal 0 0 -1
    outer loop
      vertex 101.6 46.6 0
      vertex 91.6 56.6 0
      vertex 101.6 56.6 0
    endloop
  endfacet
  facet normal 0 1 0
    outer loop
      vertex 91.6 56.6 0
      vertex 91.6 56.6 0.3
      vertex 101.6 56.6 0
    endloop
  endfacet
  facet normal 0 1 0
    outer loop
      vertex 101.6 56.6 0
      vertex 91.6 56.6 0.3
      vertex 101.6 56.6 0.3
    endloop
  endfacet
  facet normal 0 0 1
    outer loop
      vertex 91.6 56.6 0.3
      vertex 91.6 46.6 0.3
      vertex 101.6 46.6 0.3
    endloop
  endfacet
  facet normal 0 0 1
    outer loop
      vertex 101.6 56.6 0.3
      vertex 91.6 56.6 0.3
      vertex 101.6 46.6 0.3
    endloop
  endfacet
  facet normal 1 0 0
    outer loop
      vertex 101.6 46.6 0.3
      vertex 101.6 46.6 0
      vertex 101.6 56.6 0
    endloop
  endfacet
  facet normal 1 0 0
    outer loop
      vertex 101.6 56.6 0.3
      vertex 101.6 46.6 0.3
      vertex 101.6 56.6 0
    endloop
  endfacet
  facet normal -1 0 0
    outer loop
      vertex 90 45 0
      vertex 90 45 0.3
      vertex 90 58.2 0
    endloop
  endfacet
  facet normal -1 0 0
    outer loop
      vertex 90 58.2 0
      vertex 90 45 0.3
      vertex 90 58.2 0.3
    endloop
  endfacet
  facet normal 0 -1 0
    outer loop
      vertex 90 45 0.3
      vertex 90 45 0
      vertex 103.2 45 0
    endloop
  endfacet
  facet normal 0 -1 0
    outer loop
      vertex 103.2 45 0.3
      vertex 90 45 0.3
      vertex 103.2 45 0
    endloop
  endfacet
  facet normal 0 0 -1
    outer loop
      vertex 102.8 57.8 0
      vertex 103.2 45 0
      vertex 102.8 45.4 0
    endloop
  endfacet
  facet normal 0 0 -1
    outer loop
      vertex 102.8 57.8 0
      vertex 90 58.2 0
      vertex 103.2 58.2 0
    endloop
  endfacet
  facet normal 0 0 -1
    outer loop
      vertex 90 45 0
      vertex 90 58.2 0
      vertex 90.4 57.8 0
    endloop
  endfacet
  facet normal 0 0 -1
    outer loop
      vertex 90 45 0
      vertex 90.4 57.8 0
      vertex 90.4 45.4 0
    endloop
  endfacet
  facet normal 0 0 -1
    outer loop
      vertex 90 45 0
      vertex 90.4 45.4 0
      vertex 103.2 45 0
    endloop
  endfacet
  facet normal 0 0 -1
    outer loop
      vertex 90.4 45.4 0
      vertex 102.8 45.4 0
      vertex 103.2 45 0
    endloop
  endfacet
  facet normal 0 0 -1
    outer loop
      vertex 103.2 45 0
      vertex 102.8 57.8 0
      vertex 103.2 58.2 0
    endloop
  endfacet
  facet normal 0 0 -1
    outer loop
      vertex 90.4 57.8 0
      vertex 90 58.2 0
      vertex 102.8 57.8 0
    endloop
  endfacet
  facet normal 0 1 0
    outer loop
      vertex 90 58.2 0
      vertex 90 58.2 0.3
      vertex 103.2 58.2 0
    endloop
  endfacet
  facet normal 0 1 0
    outer loop
      vertex 103.2 58.2 0
      vertex 90 58.2 0.3
      vertex 103.2 58.2 0.3
    endloop
  endfacet
  facet normal 0 0 1
    outer loop
      vertex 90.4 45.4 0.3
      vertex 90 45 0.3
      vertex 103.2 45 0.3
    endloop
  endfacet
  facet normal 0 0 1
    outer loop
      vertex 102.8 45.4 0.3
      vertex 90.4 45.4 0.3
      vertex 103.2 45 0.3
    endloop
  endfacet
  facet normal 0 0 1
    outer loop
      vertex 90 58.2 0.3
      vertex 90 45 0.3
      vertex 90.4 45.4 0.3
    endloop
  endfacet
  facet normal 0 0 1
    outer loop
      vertex 102.8 57.8 0.3
      vertex 102.8 45.4 0.3
      vertex 103.2 45 0.3
    endloop
  endfacet
  facet normal 0 0 1
    outer loop
      vertex 90 58.2 0.3
      vertex 90.4 45.4 0.3
      vertex 90.4 57.8 0.3
    endloop
  endfacet
  facet normal 0 0 1
    outer loop
      vertex 103.2 58.2 0.3
      vertex 102.8 57.8 0.3
      vertex 103.2 45 0.3
    endloop
  endfacet
  facet normal 0 0 1
    outer loop
      vertex 103.2 58.2 0.3
      vertex 90 58.2 0.3
      vertex 102.8 57.8 0.3
    endloop
  endfacet
  facet normal 0 0 1
    outer loop
      vertex 90.4 57.8 0.3
      vertex 102.8 57.8 0.3
      vertex 90 58.2 0.3
    endloop
  endfacet
  facet normal 1 0 0
    outer loop
      vertex 103.2 45 0.3
      vertex 103.2 45 0
      vertex 103.2 58.2 0
    endloop
  endfacet
  facet normal 1 0 0
    outer loop
      vertex 103.2 58.2 0.3
      vertex 103.2 45 0.3
      vertex 103.2 58.2 0
    endloop
  endfacet
  facet normal 1 0 0
    outer loop
      vertex 90.4 57.8 0
      vertex 90.4 57.8 0.3
      vertex 90.4 45.4 0.3
    endloop
  endfacet
  facet normal 1 0 0
    outer loop
      vertex 90.4 45.4 0
      vertex 90.4 57.8 0
      vertex 90.4 45.4 0.3
    endloop
  endfacet
  facet normal 0 -1 0
    outer loop
      vertex 102.8 57.8 0
      vertex 102.8 57.8 0.3
      vertex 90.4 57.8 0.3
    endloop
  endfacet
  facet normal 0 -1 0
    outer loop
      vertex 90.4 57.8 0
      vertex 102.8 57.8 0
      vertex 90.4 57.8 0.3
    endloop
  endfacet
  facet normal -1 0 0
    outer loop
      vertex 102.8 57.8 0.3
      vertex 102.8 57.8 0
      vertex 102.8 45.4 0.3
    endloop
  endfacet
  facet normal -1 0 0
    outer loop
      vertex 102.8 45.4 0.3
      vertex 102.8 57.8 0
      vertex 102.8 45.4 0
    endloop
  endfacet
  facet normal 0 1 0
    outer loop
      vertex 102.8 45.4 0.3
      vertex 102.8 45.4 0
      vertex 90.4 45.4 0.3
    endloop
  endfacet
  facet normal 0 1 0
    outer loop
      vertex 90.4 45.4 0.3
      vertex 102.8 45.4 0
      vertex 90.4 45.4 0
    endloop
  endfacet
  facet normal -1 0 0
    outer loop
      vertex 1.6 91.6 0
      vertex 1.6 91.6 0.3
      vertex 1.6 101.6 0
    endloop
  endfacet
  facet normal -1 0 0
    outer loop
      vertex 1.6 101.6 0
      vertex 1.6 91.6 0.3
      vertex 1.6 101.6 0.3
    endloop
  endfacet
  facet normal 0 -1 0
    outer loop
      vertex 1.6 91.6 0.3
      vertex 1.6 91.6 0
      vertex 11.6 91.6 0
    endloop
  endfacet
  facet normal 0 -1 0
    outer loop
      vertex 11.6 91.6 0.3
      vertex 1.6 91.6 0.3
      vertex 11.6 91.6 0
    endloop
  endfacet
  facet normal 0 0 -1
    outer loop
      vertex 1.6 91.6 0
      vertex 1.6 101.6 0
      vertex 11.6 91.6 0
    endloop
  endfacet
  facet normal 0 0 -1
    outer loop
      vertex 11.6 91.6 0
      vertex 1.6 101.6 0
      vertex 11.6 101.6 0
    endloop
  endfacet
  facet normal 0 1 0
    outer loop
      vertex 1.6 101.6 0
      vertex 1.6 101.6 0.3
      vertex 11.6 101.6 0
    endloop
  endfacet
  facet normal 0 1 0
    outer loop
      vertex 11.6 101.6 0
      vertex 1.6 101.6 0.3
      vertex 11.6 101.6 0.3
    endloop
  endfacet
  facet normal 0 0 1
    outer loop
      vertex 1.6 101.6 0.3
      vertex 1.6 91.6 0.3
      vertex 11.6 91.6 0.3
    endloop
  endfacet
  facet normal 0 0 1
    outer loop
      vertex 11.6 101.6 0.3
      vertex 1.6 101.6 0.3
      vertex 11.6 91.6 0.3
    endloop
  endfacet
  facet normal 1 0 0
    outer loop
      vertex 11.6 91.6 0.3
      vertex 11.6 91.6 0
      vertex 11.6 101.6 0
    endloop
  endfacet
  facet normal 1 0 0
    outer loop
      vertex 11.6 101.6 0.3
      vertex 11.6 91.6 0.3
      vertex 11.6 101.6 0
    endloop
  endfacet
  facet normal -1 0 0
    outer loop
      vertex 0 90 0
      vertex 0 90 0.3
      vertex 0 103.2 0
    endloop
  endfacet
  facet normal -1 0 0
    outer loop
      vertex 0 103.2 0
      vertex 0 90 0.3
      vertex 0 103.2 0.3
    endloop
  endfacet
  facet normal 0 -1 0
    outer loop
      vertex 0 90 0.3
      vertex 0 90 0
      vertex 13.2 90 0
    endloop
  endfacet
  facet normal 0 -1 0
    outer loop
      vertex 13.2 90 0.3
      vertex 0 90 0.3
      vertex 13.2 90 0
    endloop
  endfacet
  facet normal 0 0 -1
    outer loop
      vertex 12.8 102.8 0
      vertex 13.2 90 0
      vertex 12.8 90.4 0
    endloop
  endfacet
  facet normal 0 0 -1
    outer loop
      vertex 12.8 102.8 0
      vertex 0 103.2 0
      vertex 13.2 103.2 0
    endloop
  endfacet
  facet normal 0 0 -1
    outer loop
      vertex 0 90 0
      vertex 0 103.2 0
      vertex 0.4 102.8 0
    endloop
  endfacet
  facet normal 0 0 -1
    outer loop
      vertex 0 90 0
      vertex 0.4 102.8 0
      vertex 0.4 90.4 0
    endloop
  endfacet
  facet normal 0 0 -1
    outer loop
      vertex 0 90 0
      vertex 0.4 90.4 0
      vertex 13.2 90 0
    endloop
  endfacet
  facet normal 0 0 -1
    outer loop
      vertex 0.4 90.4 0
      vertex 12.8 90.4 0
      vertex 13.2 90 0
    endloop
  endfacet
  facet normal 0 0 -1
    outer loop
      vertex 13.2 90 0
      vertex 12.8 102.8 0
      vertex 13.2 103.2 0
    endloop
  endfacet
  facet normal 0 0 -1
    outer loop
      vertex 0.4 102.8 0
      vertex 0 103.2 0
      vertex 12.8 102.8 0
    endloop
  endfacet
  facet normal 0 1 0
    outer loop
      vertex 0 103.2 0
      vertex 0 103.2 0.3
      vertex 13.2 103.2 0
    endloop
  endfacet
  facet normal 0 1 0
    outer loop
      vertex 13.2 103.2 0
      vertex 0 103.2 0.3
      vertex 13.2 103.2 0.3
    endloop
  endfacet
  facet normal 0 0 1
    outer loop
      vertex 0.4 90.4 0.3
      vertex 0 90 0.3
      vertex 13.2 90 0.3
    endloop
  endfacet
  facet normal 0 0 1
    outer loop
      vertex 12.8 90.4 0.3
      vertex 0.4 90.4 0.3
      vertex 13.2 90 0.3
    endloop
  endfacet
  facet normal 0 0 1
    outer loop
      vertex 0 103.2 0.3
      vertex 0 90 0.3
      vertex 0.4 90.4 0.3
    endloop
  endfacet
  facet normal 0 0 1
    outer loop
      vertex 12.8 102.8 0.3
      vertex 12.8 90.4 0.3
      vertex 13.2 90 0.3
    endloop
  endfacet
  facet normal 0 0 1
    outer loop
      vertex 0 103.2 0.3
      vertex 0.4 90.4 0.3
      vertex 0.4 102.8 0.3
    endloop
  endfacet
  facet normal 0 0 1
    outer loop
      vertex 13.2 103.2 0.3
      vertex 12.8 102.8 0.3
      vertex 13.2 90 0.3
    endloop
  endfacet
  facet normal 0 0 1
    outer loop
      vertex 13.2 103.2 0.3
      vertex 0 103.2 0.3
      vertex 12.8 102.8 0.3
    endloop
  endfacet
  facet normal 0 0 1
    outer loop
      vertex 0.4 102.8 0.3
      vertex 12.8 102.8 0.3
      vertex 0 103.2 0.3
    endloop
  endfacet
  facet normal 1 0 0
    outer loop
      vertex 13.2 90 0.3
      vertex 13.2 90 0
      vertex 13.2 103.2 0
    endloop
  endfacet
  facet normal 1 0 0
    outer loop
      vertex 13.2 103.2 0.3
      vertex 13.2 90 0.3
      vertex 13.2 103.2 0
    endloop
  endfacet
  facet normal 1 0 0
    outer loop
      vertex 0.4 102.8 0
      vertex 0.4 102.8 0.3
      vertex 0.4 90.4 0.3
    endloop
  endfacet
  facet normal 1 0 0
    outer loop
      vertex 0.4 90.4 0
      vertex 0.4 102.8 0
      vertex 0.4 90.4 0.3
    endloop
  endfacet
  facet normal 0 -1 0
    outer loop
      vertex 12.8 102.8 0
      vertex 12.8 102.8 0.3
      vertex 0.4 102.8 0.3
    endloop
  endfacet
  facet normal 0 -1 0
    outer loop
      vertex 0.4 102.8 0
      vertex 12.8 102.8 0
      vertex 0.4 102.8 0.3
    endloop
  endfacet
  facet normal -1 0 0
    outer loop
      vertex 12.8 102.8 0.3
      vertex 12.8 102.8 0
      vertex 12.8 90.4 0.3
    endloop
  endfacet
  facet normal -1 0 0
    outer loop
      vertex 12.8 90.4 0.3
      vertex 12.8 102.8 0
      vertex 12.8 90.4 0
    endloop
  endfacet
  facet normal 0 1 0
    outer loop
      vertex 12.8 90.4 0.3
      vertex 12.8 90.4 0
      vertex 0.4 90.4 0.3
    endloop
  endfacet
  facet normal 0 1 0
    outer loop
      vertex 0.4 90.4 0.3
      vertex 12.8 90.4 0
      vertex 0.4 90.4 0
    endloop
  endfacet
  facet normal -1 0 0
    outer loop
      vertex 46.6 91.6 0
      vertex 46.6 91.6 0.3
      vertex 46.6 101.6 0
    endloop
  endfacet
  facet normal -1 0 0
    outer loop
      vertex 46.6 101.6 0
      vertex 46.6 91.6 0.3
      vertex 46.6 101.6 0.3
    endloop
  endfacet
  facet normal 0 -1 0
    outer loop
      vertex 46.6 91.6 0.3
      vertex 46.6 91.6 0
      vertex 56.6 91.6 0
    endloop
  endfacet
  facet normal 0 -1 0
    outer loop
      vertex 56.6 91.6 0.3
      vertex 46.6 91.6 0.3
      vertex 56.6 91.6 0
    endloop
  endfacet
  facet normal 0 0 -1
    outer loop
      vertex 46.6 91.6 0
      vertex 46.6 101.6 0
      vertex 56.6 91.6 0
    endloop
  endfacet
  facet normal 0 0 -1
    outer loop
      vertex 56.6 91.6 0
      vertex 46.6 101.6 0
      vertex 56.6 101.6 0
    endloop
  endfacet
  facet normal 0 1 0
    outer loop
      vertex 46.6 101.6 0
      vertex 46.6 101.6 0.3
      vertex 56.6 101.6 0
    endloop
  endfacet
  facet normal 0 1 0
    outer loop
      vertex 56.6 101.6 0
      vertex 46.6 101.6 0.3
      vertex 56.6 101.6 0.3
    endloop
  endfacet
  facet normal 0 0 1
    outer loop
      vertex 46.6 101.6 0.3
      vertex 46.6 91.6 0.3
      vertex 56.6 91.6 0.3
    endloop
  endfacet
  facet normal 0 0 1
    outer loop
      vertex 56.6 101.6 0.3
      vertex 46.6 101.6 0.3
      vertex 56.6 91.6 0.3
    endloop
  endfacet
  facet normal 1 0 0
    outer loop
      vertex 56.6 91.6 0.3
      vertex 56.6 91.6 0
      vertex 56.6 101.6 0
    endloop
  endfacet
  facet normal 1 0 0
    outer loop
      vertex 56.6 101.6 0.3
      vertex 56.6 91.6 0.3
      vertex 56.6 101.6 0
    endloop
  endfacet
  facet normal -1 0 0
    outer loop
      vertex 45 90 0
      vertex 45 90 0.3
      vertex 45 103.2 0
    endloop
  endfacet
  facet normal -1 0 0
    outer loop
      vertex 45 103.2 0
      vertex 45 90 0.3
      vertex 45 103.2 0.3
    endloop
  endfacet
  facet normal 0 -1 0
    outer loop
      vertex 45 90 0.3
      vertex 45 90 0
      vertex 58.2 90 0
    endloop
  endfacet
  facet normal 0 -1 0
    outer loop
      vertex 58.2 90 0.3
      vertex 45 90 0.3
      vertex 58.2 90 0
    endloop
  endfacet
  facet normal 0 0 -1
    outer loop
      vertex 57.8 102.8 0
      vertex 58.2 90 0
      vertex 57.8 90.4 0
    endloop
  endfacet
  facet normal 0 0 -1
    outer loop
      vertex 57.8 102.8 0
      vertex 45 103.2 0
      vertex 58.2 103.2 0
    endloop
  endfacet
  facet normal 0 0 -1
    outer loop
      vertex 45 90 0
      vertex 45 103.2 0
      vertex 45.4 102.8 0
    endloop
  endfacet
  facet normal 0 0 -1
    outer loop
      vertex 45 90 0
      vertex 45.4 102.8 0
      vertex 45.4 90.4 0
    endloop
  endfacet
  facet normal 0 0 -1
    outer loop
      vertex 45 90 0
      vertex 45.4 90.4 0
      vertex 58.2 90 0
    endloop
  endfacet
  facet normal 0 0 -1
    outer loop
      vertex 45.4 90.4 0
      vertex 57.8 90.4 0
      vertex 58.2 90 0
    endloop
  endfacet
  facet normal 0 0 -1
    outer loop
      vertex 58.2 90 0
      vertex 57.8 102.8 0
      vertex 58.2 103.2 0
    endloop
  endfacet
  facet normal 0 0 -1
    outer loop
      vertex 45.4 102.8 0
      vertex 45 103.2 0
      vertex 57.8 102.8 0
    endloop
  endfacet
  facet normal 0 1 0
    outer loop
      vertex 45 103.2 0
      vertex 45 103.2 0.3
      vertex 58.2 103.2 0
    endloop
  endfacet
  facet normal 0 1 0
    outer loop
      vertex 58.2 103.2 0
      vertex 45 103.2 0.3
      vertex 58.2 103.2 0.3
    endloop
  endfacet
  facet normal 0 0 1
    outer loop
      vertex 45.4 90.4 0.3
      vertex 45 90 0.3
      vertex 58.2 90 0.3
    endloop
  endfacet
  facet normal 0 0 1
    outer loop
      vertex 57.8 90.4 0.3
      vertex 45.4 90.4 0.3
      vertex 58.2 90 0.3
    endloop
  endfacet
  facet normal 0 0 1
    outer loop
      vertex 45 103.2 0.3
      vertex 45 90 0.3
      vertex 45.4 90.4 0.3
    endloop
  endfacet
  facet normal 0 0 1
    outer loop
      vertex 57.8 102.8 0.3
      vertex 57.8 90.4 0.3
      vertex 58.2 90 0.3
    endloop
  endfacet
  facet normal 0 0 1
    outer loop
      vertex 45 103.2 0.3
      vertex 45.4 90.4 0.3
      vertex 45.4 102.8 0.3
    endloop
  endfacet
  facet normal 0 0 1
    outer loop
      vertex 58.2 103.2 0.3
      vertex 57.8 102.8 0.3
      vertex 58.2 90 0.3
    endloop
  endfacet
  facet normal 0 0 1
    outer loop
      vertex 58.2 103.2 0.3
      vertex 45 103.2 0.3
      vertex 57.8 102.8 0.3
    endloop
  endfacet
  facet normal 0 0 1
    outer loop
      vertex 45.4 102.8 0.3
      vertex 57.8 102.8 0.3
      vertex 45 103.2 0.3
    endloop
  endfacet
  facet normal 1 0 0
    outer loop
      vertex 58.2 90 0.3
      vertex 58.2 90 0
      vertex 58.2 103.2 0
    endloop
  endfacet
  facet normal 1 0 0
    outer loop
      vertex 58.2 103.2 0.3
      vertex 58.2 90 0.3
      vertex 58.2 103.2 0
    endloop
  endfacet
  facet normal 1 0 0
    outer loop
      vertex 45.4 102.8 0
      vertex 45.4 102.8 0.3
      vertex 45.4 90.4 0.3
    endloop
  endfacet
  facet normal 1 0 0
    outer loop
      vertex 45.4 90.4 0
      vertex 45.4 102.8 0
      vertex 45.4 90.4 0.3
    endloop
  endfacet
  facet normal 0 -1 0
    outer loop
      vertex 57.8 102.8 0
      vertex 57.8 102.8 0.3
      vertex 45.4 102.8 0.3
    endloop
  endfacet
  facet normal 0 -1 0
    outer loop
      vertex 45.4 102.8 0
      vertex 57.8 102.8 0
      vertex 45.4 102.8 0.3
    endloop
  endfacet
  facet normal -1 0 0
    outer loop
      vertex 57.8 102.8 0.3
      vertex 57.8 102.8 0
      vertex 57.8 90.4 0.3
    endloop
  endfacet
  facet normal -1 0 0
    outer loop
      vertex 57.8 90.4 0.3
      vertex 57.8 102.8 0
      vertex 57.8 90.4 0
    endloop
  endfacet
  facet normal 0 1 0
    outer loop
      vertex 57.8 90.4 0.3
      vertex 57.8 90.4 0
      vertex 45.4 90.4 0.3
    endloop
  endfacet
  facet normal 0 1 0
    outer loop
      vertex 45.4 90.4 0.3
      vertex 57.8 90.4 0
      vertex 45.4 90.4 0
    endloop
  endfacet
  facet normal -1 0 0
    outer loop
      vertex 91.6 91.6 0
      vertex 91.6 91.6 0.3
      vertex 91.6 101.6 0
    endloop
  endfacet
  facet normal -1 0 0
    outer loop
      vertex 91.6 101.6 0
      vertex 91.6 91.6 0.3
      vertex 91.6 101.6 0.3
    endloop
  endfacet
  facet normal 0 -1 0
    outer loop
      vertex 91.6 91.6 0.3
      vertex 91.6 91.6 0
      vertex 101.6 91.6 0
    endloop
  endfacet
  facet normal 0 -1 0
    outer loop
      vertex 101.6 91.6 0.3
      vertex 91.6 91.6 0.3
      vertex 101.6 91.6 0
    endloop
  endfacet
  facet normal 0 0 -1
    outer loop
      vertex 91.6 91.6 0
      vertex 91.6 101.6 0
      vertex 101.6 91.6 0
    endloop
  endfacet
  facet normal 0 0 -1
    outer loop
      vertex 101.6 91.6 0
      vertex 91.6 101.6 0
      vertex 101.6 101.6 0
    endloop
  endfacet
  facet normal 0 1 0
    outer loop
      vertex 91.6 101.6 0
      vertex 91.6 101.6 0.3
      vertex 101.6 101.6 0
    endloop
  endfacet
  facet normal 0 1 0
    outer loop
      vertex 101.6 101.6 0
      vertex 91.6 101.6 0.3
      vertex 101.6 101.6 0.3
    endloop
  endfacet
  facet normal 0 0 1
    outer loop
      vertex 91.6 101.6 0.3
      vertex 91.6 91.6 0.3
      vertex 101.6 91.6 0.3
    endloop
  endfacet
  facet normal 0 0 1
    outer loop
      vertex 101.6 101.6 0.3
      vertex 91.6 101.6 0.3
      vertex 101.6 91.6 0.3
    endloop
  endfacet
  facet normal 1 0 0
    outer loop
      vertex 101.6 91.6 0.3
      vertex 101.6 91.6 0
      vertex 101.6 101.6 0
    endloop
  endfacet
  facet normal 1 0 0
    outer loop
      vertex 101.6 101.6 0.3
      vertex 101.6 91.6 0.3
      vertex 101.6 101.6 0
    endloop
  endfacet
  facet normal -1 0 0
    outer loop
      vertex 90 90 0
      vertex 90 90 0.3
      vertex 90 103.2 0
    endloop
  endfacet
  facet normal -1 0 0
    outer loop
      vertex 90 103.2 0
      vertex 90 90 0.3
      vertex 90 103.2 0.3
    endloop
  endfacet
  facet normal 0 -1 0
    outer loop
      vertex 90 90 0.3
      vertex 90 90 0
      vertex 103.2 90 0
    endloop
  endfacet
  facet normal 0 -1 0
    outer loop
      vertex 103.2 90 0.3
      vertex 90 90 0.3
      vertex 103.2 90 0
    endloop
  endfacet
  facet normal 0 0 -1
    outer loop
      vertex 102.8 102.8 0
      vertex 103.2 90 0
      vertex 102.8 90.4 0
    endloop
  endfacet
  facet normal 0 0 -1
    outer loop
      vertex 102.8 102.8 0
      vertex 90 103.2 0
      vertex 103.2 103.2 0
    endloop
  endfacet
  facet normal 0 0 -1
    outer loop
      vertex 90 90 0
      vertex 90 103.2 0
      vertex 90.4 102.8 0
    endloop
  endfacet
  facet normal 0 0 -1
    outer loop
      vertex 90 90 0
      vertex 90.4 102.8 0
      vertex 90.4 90.4 0
    endloop
  endfacet
  facet normal 0 0 -1
    outer loop
      vertex 90 90 0
      vertex 90.4 90.4 0
      vertex 103.2 90 0
    endloop
  endfacet
  facet normal 0 0 -1
    outer loop
      vertex 90.4 90.4 0
      vertex 102.8 90.4 0
      vertex 103.2 90 0
    endloop
  endfacet
  facet normal 0 0 -1
    outer loop
      vertex 103.2 90 0
      vertex 102.8 102.8 0
      vertex 103.2 103.2 0
    endloop
  endfacet
  facet normal 0 0 -1
    outer loop
      vertex 90.4 102.8 0
      vertex 90 103.2 0
      vertex 102.8 102.8 0
    endloop
  endfacet
  facet normal 0 1 0
    outer loop
      vertex 90 103.2 0
      vertex 90 103.2 0.3
      vertex 103.2 103.2 0
    endloop
  endfacet
  facet normal 0 1 0
    outer loop
      vertex 103.2 103.2 0
      vertex 90 103.2 0.3
      vertex 103.2 103.2 0.3
    endloop
  endfacet
  facet normal 0 0 1
    outer loop
      vertex 90.4 90.4 0.3
      vertex 90 90 0.3
      vertex 103.2 90 0.3
    endloop
  endfacet
  facet normal 0 0 1
    outer loop
      vertex 102.8 90.4 0.3
      vertex 90.4 90.4 0.3
      vertex 103.2 90 0.3
    endloop
  endfacet
  facet normal 0 0 1
    outer loop
      vertex 90 103.2 0.3
      vertex 90 90 0.3
      vertex 90.4 90.4 0.3
    endloop
  endfacet
  facet normal 0 0 1
    outer loop
      vertex 102.8 102.8 0.3
      vertex 102.8 90.4 0.3
      vertex 103.2 90 0.3
    endloop
  endfacet
  facet normal 0 0 1
    outer loop
      vertex 90 103.2 0.3
      vertex 90.4 90.4 0.3
      vertex 90.4 102.8 0.3
    endloop
  endfacet
  facet normal 0 0 1
    outer loop
      vertex 103.2 103.2 0.3
      vertex 102.8 102.8 0.3
      vertex 103.2 90 0.3
    endloop
  endfacet
  facet normal 0 0 1
    outer loop
      vertex 103.2 103.2 0.3
      vertex 90 103.2 0.3
      vertex 102.8 102.8 0.3
    endloop
  endfacet
  facet normal 0 0 1
    outer loop
      vertex 90.4 102.8 0.3
      vertex 102.8 102.8 0.3
      vertex 90 103.2 0.3
    endloop
  endfacet
  facet normal 1 0 0
    outer loop
      vertex 103.2 90 0.3
      vertex 103.2 90 0
      vertex 103.2 103.2 0
    endloop
  endfacet
  facet normal 1 0 0
    outer loop
      vertex 103.2 103.2 0.3
      vertex 103.2 90 0.3
      vertex 103.2 103.2 0
    endloop
  endfacet
  facet normal 1 0 0
    outer loop
      vertex 90.4 102.8 0
      vertex 90.4 102.8 0.3
      vertex 90.4 90.4 0.3
    endloop
  endfacet
  facet normal 1 0 0
    outer loop
      vertex 90.4 90.4 0
      vertex 90.4 102.8 0
      vertex 90.4 90.4 0.3
    endloop
  endfacet
  facet normal 0 -1 0
    outer loop
      vertex 102.8 102.8 0
      vertex 102.8 102.8 0.3
      vertex 90.4 102.8 0.3
    endloop
  endfacet
  facet normal 0 -1 0
    outer loop
      vertex 90.4 102.8 0
      vertex 102.8 102.8 0
      vertex 90.4 102.8 0.3
    endloop
  endfacet
  facet normal -1 0 0
    outer loop
      vertex 102.8 102.8 0.3
      vertex 102.8 102.8 0
      vertex 102.8 90.4 0.3
    endloop
  endfacet
  facet normal -1 0 0
    outer loop
      vertex 102.8 90.4 0.3
      vertex 102.8 102.8 0
      vertex 102.8 90.4 0
    endloop
  endfacet
  facet normal 0 1 0
    outer loop
      vertex 102.8 90.4 0.3
      vertex 102.8 90.4 0
      vertex 90.4 90.4 0.3
    endloop
  endfacet
  facet normal 0 1 0
    outer loop
      vertex 90.4 90.4 0.3
      vertex 102.8 90.4 0
      vertex 90.4 90.4 0
    endloop
  endfacet
endsolid OpenSCAD_Model
