solid OpenSCAD_Model
  facet normal -0 0 -1
    outer loop
      vertex -32.0039 0 0
      vertex -31.9654 1.57036 0
      vertex -31.9654 -1.57036 0
    endloop
  endfacet
  facet normal 0 -0 -1
    outer loop
      vertex -31.9654 -1.57036 0
      vertex -31.9654 1.57036 0
      vertex -31.8498 3.13693 0
    endloop
  endfacet
  facet normal 0 0 -1
    outer loop
      vertex -31.9654 -1.57036 0
      vertex -31.8498 3.13693 0
      vertex -31.6575 4.69595 0
    endloop
  endfacet
  facet normal 0 0 -1
    outer loop
      vertex -31.9654 -1.57036 0
      vertex -31.6575 4.69595 0
      vertex -31.389 6.24365 0
    endloop
  endfacet
  facet normal 0 0 -1
    outer loop
      vertex -31.9654 -1.57036 0
      vertex -31.389 6.24365 0
      vertex -31.0448 7.77631 0
    endloop
  endfacet
  facet normal 0 0 -1
    outer loop
      vertex -31.9654 -1.57036 0
      vertex -31.0448 7.77631 0
      vertex -30.6258 9.29024 0
    endloop
  endfacet
  facet normal 0 0 -1
    outer loop
      vertex -31.9654 -1.57036 0
      vertex -30.6258 9.29024 0
      vertex -30.1331 10.7818 0
    endloop
  endfacet
  facet normal 0 0 -1
    outer loop
      vertex -31.9654 -1.57036 0
      vertex -30.1331 10.7818 0
      vertex -29.5678 12.2474 0
    endloop
  endfacet
  facet normal 0 0 -1
    outer loop
      vertex -31.9654 -1.57036 0
      vertex -29.5678 12.2474 0
      vertex -28.9312 13.6834 0
    endloop
  endfacet
  facet normal 0 0 -1
    outer loop
      vertex -31.9654 -1.57036 0
      vertex -28.9312 13.6834 0
      vertex -28.2249 15.0865 0
    endloop
  endfacet
  facet normal 0 0 -1
    outer loop
      vertex -31.9654 -1.57036 0
      vertex -28.2249 15.0865 0
      vertex -28 15.4836 0
    endloop
  endfacet
  facet normal 0 -0 -1
    outer loop
      vertex -28 15.4836 0
      vertex -28 15.5 0
      vertex -27.9907 15.5 0
    endloop
  endfacet
  facet normal -0 0 -1
    outer loop
      vertex -28 15.4836 0
      vertex -27.9907 15.5 0
      vertex -31.9654 -1.57036 0
    endloop
  endfacet
  facet normal -0 0 -1
    outer loop
      vertex -27.9907 15.5 0
      vertex -27.4507 16.4533 0
      vertex -31.9654 -1.57036 0
    endloop
  endfacet
  facet normal 0 0 -1
    outer loop
      vertex -31.9654 -1.57036 0
      vertex -27.4507 16.4533 0
      vertex -26.6103 17.7804 0
    endloop
  endfacet
  facet normal 0 0 -1
    outer loop
      vertex -31.9654 -1.57036 0
      vertex -26.6103 17.7804 0
      vertex -25.7058 19.0647 0
    endloop
  endfacet
  facet normal 0 0 -1
    outer loop
      vertex -31.9654 -1.57036 0
      vertex -25.7058 19.0647 0
      vertex -24.7394 20.3031 0
    endloop
  endfacet
  facet normal 0 0 -1
    outer loop
      vertex -31.9654 -1.57036 0
      vertex -24.7394 20.3031 0
      vertex -23.7133 21.4925 0
    endloop
  endfacet
  facet normal 0 0 -1
    outer loop
      vertex -31.9654 -1.57036 0
      vertex -23.7133 21.4925 0
      vertex -22.6302 22.6302 0
    endloop
  endfacet
  facet normal 0 0 -1
    outer loop
      vertex -26 13.5 0
      vertex -22.6302 22.6302 0
      vertex -21.4925 23.7133 0
    endloop
  endfacet
  facet normal -0 0 -1
    outer loop
      vertex 26 13.5 0
      vertex 28.9312 13.6834 0
      vertex 29.5678 12.2474 0
    endloop
  endfacet
  facet normal 0 0 -1
    outer loop
      vertex 26 13.5 0
      vertex 29.5678 12.2474 0
      vertex 30.1331 10.7818 0
    endloop
  endfacet
  facet normal 0 0 -1
    outer loop
      vertex 26 13.5 0
      vertex 30.1331 10.7818 0
      vertex 30.6258 9.29024 0
    endloop
  endfacet
  facet normal 0 0 -1
    outer loop
      vertex 26 13.5 0
      vertex 30.6258 9.29024 0
      vertex 31.0448 7.77631 0
    endloop
  endfacet
  facet normal 0 0 -1
    outer loop
      vertex 26 13.5 0
      vertex 31.0448 7.77631 0
      vertex 31.389 6.24365 0
    endloop
  endfacet
  facet normal 0 0 -1
    outer loop
      vertex 26 13.5 0
      vertex 31.389 6.24365 0
      vertex 31.6575 4.69595 0
    endloop
  endfacet
  facet normal 0 0 -1
    outer loop
      vertex 26 13.5 0
      vertex 31.6575 4.69595 0
      vertex 31.8498 3.13693 0
    endloop
  endfacet
  facet normal 0 0 -1
    outer loop
      vertex 26 13.5 0
      vertex 31.8498 3.13693 0
      vertex 31.9654 1.57036 0
    endloop
  endfacet
  facet normal 0 0 -1
    outer loop
      vertex 26 13.5 0
      vertex 31.9654 1.57036 0
      vertex 32.0039 0 0
    endloop
  endfacet
  facet normal 0 0 -1
    outer loop
      vertex 26 13.5 0
      vertex 32.0039 0 0
      vertex 31.9654 -1.57036 0
    endloop
  endfacet
  facet normal 0 0 -1
    outer loop
      vertex 26 13.5 0
      vertex 31.9654 -1.57036 0
      vertex 31.8498 -3.13693 0
    endloop
  endfacet
  facet normal 0 0 -1
    outer loop
      vertex 26 13.5 0
      vertex 31.8498 -3.13693 0
      vertex 31.6575 -4.69595 0
    endloop
  endfacet
  facet normal 0 0 -1
    outer loop
      vertex 26 13.5 0
      vertex 31.6575 -4.69595 0
      vertex 31.389 -6.24365 0
    endloop
  endfacet
  facet normal 0 0 -1
    outer loop
      vertex 26 13.5 0
      vertex 31.389 -6.24365 0
      vertex 31.0448 -7.77631 0
    endloop
  endfacet
  facet normal 0 0 -1
    outer loop
      vertex 26 13.5 0
      vertex 31.0448 -7.77631 0
      vertex 30.6258 -9.29024 0
    endloop
  endfacet
  facet normal 0 0 -1
    outer loop
      vertex 26 13.5 0
      vertex 30.6258 -9.29024 0
      vertex 30.1331 -10.7818 0
    endloop
  endfacet
  facet normal 0 0 -1
    outer loop
      vertex 26 13.5 0
      vertex 30.1331 -10.7818 0
      vertex 29.5678 -12.2474 0
    endloop
  endfacet
  facet normal 0 0 -1
    outer loop
      vertex 26 13.5 0
      vertex 29.5678 -12.2474 0
      vertex 28.9312 -13.6834 0
    endloop
  endfacet
  facet normal 0 0 -1
    outer loop
      vertex 26 13.5 0
      vertex 28.9312 -13.6834 0
      vertex 26 -13.5 0
    endloop
  endfacet
  facet normal 0 0 -1
    outer loop
      vertex 26 13.5 0
      vertex 28.2249 15.0865 0
      vertex 28.9312 13.6834 0
    endloop
  endfacet
  facet normal 0 0 -1
    outer loop
      vertex 26 -13.5 0
      vertex 28.9312 -13.6834 0
      vertex 28.2249 -15.0865 0
    endloop
  endfacet
  facet normal 0 0 -1
    outer loop
      vertex 26 -13.5 0
      vertex -20.3031 -24.7394 0
      vertex -26 -13.5 0
    endloop
  endfacet
  facet normal 0 0 -1
    outer loop
      vertex 26 -13.5 0
      vertex -19.0647 -25.7058 0
      vertex -20.3031 -24.7394 0
    endloop
  endfacet
  facet normal 0 0 -1
    outer loop
      vertex 26 -13.5 0
      vertex -17.7804 -26.6103 0
      vertex -19.0647 -25.7058 0
    endloop
  endfacet
  facet normal 0 0 -1
    outer loop
      vertex 26 -13.5 0
      vertex -16.4533 -27.4507 0
      vertex -17.7804 -26.6103 0
    endloop
  endfacet
  facet normal 0 0 -1
    outer loop
      vertex 26 -13.5 0
      vertex -15.0865 -28.2249 0
      vertex -16.4533 -27.4507 0
    endloop
  endfacet
  facet normal 0 0 -1
    outer loop
      vertex 26 -13.5 0
      vertex -13.6834 -28.9312 0
      vertex -15.0865 -28.2249 0
    endloop
  endfacet
  facet normal 0 0 -1
    outer loop
      vertex 26 -13.5 0
      vertex -12.2474 -29.5678 0
      vertex -13.6834 -28.9312 0
    endloop
  endfacet
  facet normal 0 0 -1
    outer loop
      vertex 26 -13.5 0
      vertex -10.7818 -30.1331 0
      vertex -12.2474 -29.5678 0
    endloop
  endfacet
  facet normal 0 0 -1
    outer loop
      vertex 26 -13.5 0
      vertex -9.29024 -30.6258 0
      vertex -10.7818 -30.1331 0
    endloop
  endfacet
  facet normal 0 0 -1
    outer loop
      vertex 26 -13.5 0
      vertex -7.77631 -31.0448 0
      vertex -9.29024 -30.6258 0
    endloop
  endfacet
  facet normal 0 0 -1
    outer loop
      vertex 26 -13.5 0
      vertex -6.24365 -31.389 0
      vertex -7.77631 -31.0448 0
    endloop
  endfacet
  facet normal 0 0 -1
    outer loop
      vertex 26 -13.5 0
      vertex -4.69595 -31.6575 0
      vertex -6.24365 -31.389 0
    endloop
  endfacet
  facet normal 0 0 -1
    outer loop
      vertex 26 -13.5 0
      vertex -3.13693 -31.8498 0
      vertex -4.69595 -31.6575 0
    endloop
  endfacet
  facet normal 0 0 -1
    outer loop
      vertex 26 -13.5 0
      vertex -1.57036 -31.9654 0
      vertex -3.13693 -31.8498 0
    endloop
  endfacet
  facet normal 0 0 -1
    outer loop
      vertex 26 -13.5 0
      vertex 0 -32.0039 0
      vertex -1.57036 -31.9654 0
    endloop
  endfacet
  facet normal 0 0 -1
    outer loop
      vertex 26 -13.5 0
      vertex 1.57036 -31.9654 0
      vertex 0 -32.0039 0
    endloop
  endfacet
  facet normal 0 0 -1
    outer loop
      vertex 26 -13.5 0
      vertex 3.13693 -31.8498 0
      vertex 1.57036 -31.9654 0
    endloop
  endfacet
  facet normal 0 0 -1
    outer loop
      vertex 26 -13.5 0
      vertex 4.69595 -31.6575 0
      vertex 3.13693 -31.8498 0
    endloop
  endfacet
  facet normal 0 0 -1
    outer loop
      vertex 26 -13.5 0
      vertex 6.24365 -31.389 0
      vertex 4.69595 -31.6575 0
    endloop
  endfacet
  facet normal 0 0 -1
    outer loop
      vertex 26 -13.5 0
      vertex 7.77631 -31.0448 0
      vertex 6.24365 -31.389 0
    endloop
  endfacet
  facet normal 0 0 -1
    outer loop
      vertex 26 -13.5 0
      vertex 9.29024 -30.6258 0
      vertex 7.77631 -31.0448 0
    endloop
  endfacet
  facet normal 0 0 -1
    outer loop
      vertex 26 -13.5 0
      vertex 10.7818 -30.1331 0
      vertex 9.29024 -30.6258 0
    endloop
  endfacet
  facet normal 0 0 -1
    outer loop
      vertex 26 -13.5 0
      vertex 12.2474 -29.5678 0
      vertex 10.7818 -30.1331 0
    endloop
  endfacet
  facet normal 0 0 -1
    outer loop
      vertex 26 -13.5 0
      vertex 13.6834 -28.9312 0
      vertex 12.2474 -29.5678 0
    endloop
  endfacet
  facet normal 0 0 -1
    outer loop
      vertex 26 -13.5 0
      vertex 15.0865 -28.2249 0
      vertex 13.6834 -28.9312 0
    endloop
  endfacet
  facet normal 0 0 -1
    outer loop
      vertex 26 -13.5 0
      vertex 16.4533 -27.4507 0
      vertex 15.0865 -28.2249 0
    endloop
  endfacet
  facet normal 0 0 -1
    outer loop
      vertex 26 -13.5 0
      vertex 17.7804 -26.6103 0
      vertex 16.4533 -27.4507 0
    endloop
  endfacet
  facet normal 0 0 -1
    outer loop
      vertex 26 -13.5 0
      vertex 19.0647 -25.7058 0
      vertex 17.7804 -26.6103 0
    endloop
  endfacet
  facet normal 0 0 -1
    outer loop
      vertex 26 -13.5 0
      vertex 20.3031 -24.7394 0
      vertex 19.0647 -25.7058 0
    endloop
  endfacet
  facet normal 0 0 -1
    outer loop
      vertex 26 -13.5 0
      vertex 21.4925 -23.7133 0
      vertex 20.3031 -24.7394 0
    endloop
  endfacet
  facet normal 0 0 -1
    outer loop
      vertex 26 -13.5 0
      vertex 22.6302 -22.6302 0
      vertex 21.4925 -23.7133 0
    endloop
  endfacet
  facet normal 0 0 -1
    outer loop
      vertex 26 -13.5 0
      vertex 23.7133 -21.4925 0
      vertex 22.6302 -22.6302 0
    endloop
  endfacet
  facet normal 0 0 -1
    outer loop
      vertex 26 -13.5 0
      vertex 24.7394 -20.3031 0
      vertex 23.7133 -21.4925 0
    endloop
  endfacet
  facet normal 0 0 -1
    outer loop
      vertex 26 -13.5 0
      vertex 25.7058 -19.0647 0
      vertex 24.7394 -20.3031 0
    endloop
  endfacet
  facet normal 0 0 -1
    outer loop
      vertex 26 -13.5 0
      vertex 26.6103 -17.7804 0
      vertex 25.7058 -19.0647 0
    endloop
  endfacet
  facet normal 0 0 -1
    outer loop
      vertex 26 -13.5 0
      vertex 27.4507 -16.4533 0
      vertex 26.6103 -17.7804 0
    endloop
  endfacet
  facet normal 0 0 -1
    outer loop
      vertex 26 -13.5 0
      vertex 27.9907 -15.5 0
      vertex 27.4507 -16.4533 0
    endloop
  endfacet
  facet normal 0 0 -1
    outer loop
      vertex 26 -13.5 0
      vertex 28 -15.5 0
      vertex 27.9907 -15.5 0
    endloop
  endfacet
  facet normal 0 0 -1
    outer loop
      vertex 26 -13.5 0
      vertex 28 -15.4836 0
      vertex 28 -15.5 0
    endloop
  endfacet
  facet normal 0 0 -1
    outer loop
      vertex -26 -13.5 0
      vertex -20.3031 -24.7394 0
      vertex -21.4925 -23.7133 0
    endloop
  endfacet
  facet normal 0 0 -1
    outer loop
      vertex -31.9654 -1.57036 0
      vertex -21.4925 -23.7133 0
      vertex -22.6302 -22.6302 0
    endloop
  endfacet
  facet normal 0 0 -1
    outer loop
      vertex -31.9654 -1.57036 0
      vertex -22.6302 -22.6302 0
      vertex -23.7133 -21.4925 0
    endloop
  endfacet
  facet normal 0 0 -1
    outer loop
      vertex -31.9654 -1.57036 0
      vertex -23.7133 -21.4925 0
      vertex -24.7394 -20.3031 0
    endloop
  endfacet
  facet normal 0 0 -1
    outer loop
      vertex -31.9654 -1.57036 0
      vertex -24.7394 -20.3031 0
      vertex -25.7058 -19.0647 0
    endloop
  endfacet
  facet normal 0 0 -1
    outer loop
      vertex -31.9654 -1.57036 0
      vertex -25.7058 -19.0647 0
      vertex -26.6103 -17.7804 0
    endloop
  endfacet
  facet normal 0 0 -1
    outer loop
      vertex -31.9654 -1.57036 0
      vertex -26.6103 -17.7804 0
      vertex -27.4507 -16.4533 0
    endloop
  endfacet
  facet normal 0 0 -1
    outer loop
      vertex -31.9654 -1.57036 0
      vertex -27.4507 -16.4533 0
      vertex -27.9907 -15.5 0
    endloop
  endfacet
  facet normal 0 0 -1
    outer loop
      vertex -28 -15.4836 0
      vertex -27.9907 -15.5 0
      vertex -28 -15.5 0
    endloop
  endfacet
  facet normal 0 0 -1
    outer loop
      vertex -31.9654 -1.57036 0
      vertex -27.9907 -15.5 0
      vertex -28 -15.4836 0
    endloop
  endfacet
  facet normal 0 0 -1
    outer loop
      vertex -26 13.5 0
      vertex -20.3031 24.7394 0
      vertex -19.0647 25.7058 0
    endloop
  endfacet
  facet normal 0 0 -1
    outer loop
      vertex -26 13.5 0
      vertex -21.4925 23.7133 0
      vertex -20.3031 24.7394 0
    endloop
  endfacet
  facet normal 0 0 -1
    outer loop
      vertex -31.9654 -1.57036 0
      vertex -28.2249 -15.0865 0
      vertex -28.9312 -13.6834 0
    endloop
  endfacet
  facet normal 0 0 -1
    outer loop
      vertex -31.9654 -1.57036 0
      vertex -28.9312 -13.6834 0
      vertex -29.5678 -12.2474 0
    endloop
  endfacet
  facet normal 0 0 -1
    outer loop
      vertex -31.9654 -1.57036 0
      vertex -29.5678 -12.2474 0
      vertex -30.1331 -10.7818 0
    endloop
  endfacet
  facet normal 0 0 -1
    outer loop
      vertex -31.9654 -1.57036 0
      vertex -30.1331 -10.7818 0
      vertex -30.6258 -9.29024 0
    endloop
  endfacet
  facet normal 0 0 -1
    outer loop
      vertex -31.9654 -1.57036 0
      vertex -30.6258 -9.29024 0
      vertex -31.0448 -7.77631 0
    endloop
  endfacet
  facet normal 0 0 -1
    outer loop
      vertex -31.9654 -1.57036 0
      vertex -31.0448 -7.77631 0
      vertex -31.389 -6.24365 0
    endloop
  endfacet
  facet normal 0 0 -1
    outer loop
      vertex -31.9654 -1.57036 0
      vertex -31.389 -6.24365 0
      vertex -31.6575 -4.69595 0
    endloop
  endfacet
  facet normal 0 0 -1
    outer loop
      vertex -31.9654 -1.57036 0
      vertex -31.6575 -4.69595 0
      vertex -31.8498 -3.13693 0
    endloop
  endfacet
  facet normal 0 0 -1
    outer loop
      vertex -31.9654 -1.57036 0
      vertex -22.6302 22.6302 0
      vertex -26 13.5 0
    endloop
  endfacet
  facet normal 0 0 -1
    outer loop
      vertex -26 -13.5 0
      vertex -31.9654 -1.57036 0
      vertex -26 13.5 0
    endloop
  endfacet
  facet normal 0 0 -1
    outer loop
      vertex 26 -13.5 0
      vertex 28.2249 -15.0865 0
      vertex 28 -15.4836 0
    endloop
  endfacet
  facet normal 0 0 -1
    outer loop
      vertex -31.9654 -1.57036 0
      vertex -26 -13.5 0
      vertex -21.4925 -23.7133 0
    endloop
  endfacet
  facet normal -0 -0 -1
    outer loop
      vertex -28.2249 -15.0865 0
      vertex -31.9654 -1.57036 0
      vertex -28 -15.4836 0
    endloop
  endfacet
  facet normal 0 0 -1
    outer loop
      vertex -26 13.5 0
      vertex -19.0647 25.7058 0
      vertex -17.7804 26.6103 0
    endloop
  endfacet
  facet normal 0 0 -1
    outer loop
      vertex -26 13.5 0
      vertex -17.7804 26.6103 0
      vertex -16.4533 27.4507 0
    endloop
  endfacet
  facet normal 0 0 -1
    outer loop
      vertex -26 13.5 0
      vertex -16.4533 27.4507 0
      vertex -15.0865 28.2249 0
    endloop
  endfacet
  facet normal 0 0 -1
    outer loop
      vertex -26 13.5 0
      vertex -15.0865 28.2249 0
      vertex -13.6834 28.9312 0
    endloop
  endfacet
  facet normal 0 0 -1
    outer loop
      vertex -26 13.5 0
      vertex -13.6834 28.9312 0
      vertex -12.2474 29.5678 0
    endloop
  endfacet
  facet normal 0 0 -1
    outer loop
      vertex -26 13.5 0
      vertex -12.2474 29.5678 0
      vertex -10.7818 30.1331 0
    endloop
  endfacet
  facet normal 0 0 -1
    outer loop
      vertex -26 13.5 0
      vertex -10.7818 30.1331 0
      vertex -9.29024 30.6258 0
    endloop
  endfacet
  facet normal 0 0 -1
    outer loop
      vertex -26 13.5 0
      vertex -9.29024 30.6258 0
      vertex -7.77631 31.0448 0
    endloop
  endfacet
  facet normal 0 0 -1
    outer loop
      vertex -26 13.5 0
      vertex -7.77631 31.0448 0
      vertex -6.24365 31.389 0
    endloop
  endfacet
  facet normal 0 0 -1
    outer loop
      vertex -26 13.5 0
      vertex -6.24365 31.389 0
      vertex -4.69595 31.6575 0
    endloop
  endfacet
  facet normal 0 0 -1
    outer loop
      vertex -26 13.5 0
      vertex -4.69595 31.6575 0
      vertex -3.13693 31.8498 0
    endloop
  endfacet
  facet normal 0 0 -1
    outer loop
      vertex -26 13.5 0
      vertex -3.13693 31.8498 0
      vertex -1.57036 31.9654 0
    endloop
  endfacet
  facet normal 0 0 -1
    outer loop
      vertex -26 13.5 0
      vertex -1.57036 31.9654 0
      vertex 0 32.0039 0
    endloop
  endfacet
  facet normal 0 0 -1
    outer loop
      vertex -26 13.5 0
      vertex 0 32.0039 0
      vertex 1.57036 31.9654 0
    endloop
  endfacet
  facet normal 0 0 -1
    outer loop
      vertex -26 13.5 0
      vertex 1.57036 31.9654 0
      vertex 3.13693 31.8498 0
    endloop
  endfacet
  facet normal 0 0 -1
    outer loop
      vertex -26 13.5 0
      vertex 3.13693 31.8498 0
      vertex 4.69595 31.6575 0
    endloop
  endfacet
  facet normal 0 0 -1
    outer loop
      vertex -26 13.5 0
      vertex 4.69595 31.6575 0
      vertex 6.24365 31.389 0
    endloop
  endfacet
  facet normal 0 0 -1
    outer loop
      vertex -26 13.5 0
      vertex 6.24365 31.389 0
      vertex 7.77631 31.0448 0
    endloop
  endfacet
  facet normal 0 0 -1
    outer loop
      vertex -26 13.5 0
      vertex 7.77631 31.0448 0
      vertex 9.29024 30.6258 0
    endloop
  endfacet
  facet normal 0 0 -1
    outer loop
      vertex -26 13.5 0
      vertex 9.29024 30.6258 0
      vertex 10.7818 30.1331 0
    endloop
  endfacet
  facet normal 0 0 -1
    outer loop
      vertex -26 13.5 0
      vertex 10.7818 30.1331 0
      vertex 12.2474 29.5678 0
    endloop
  endfacet
  facet normal 0 0 -1
    outer loop
      vertex -26 13.5 0
      vertex 12.2474 29.5678 0
      vertex 13.6834 28.9312 0
    endloop
  endfacet
  facet normal 0 0 -1
    outer loop
      vertex -26 13.5 0
      vertex 13.6834 28.9312 0
      vertex 15.0865 28.2249 0
    endloop
  endfacet
  facet normal 0 0 -1
    outer loop
      vertex -26 13.5 0
      vertex 15.0865 28.2249 0
      vertex 16.4533 27.4507 0
    endloop
  endfacet
  facet normal 0 0 -1
    outer loop
      vertex -26 13.5 0
      vertex 16.4533 27.4507 0
      vertex 17.7804 26.6103 0
    endloop
  endfacet
  facet normal 0 0 -1
    outer loop
      vertex -26 13.5 0
      vertex 17.7804 26.6103 0
      vertex 19.0647 25.7058 0
    endloop
  endfacet
  facet normal 0 0 -1
    outer loop
      vertex -26 13.5 0
      vertex 19.0647 25.7058 0
      vertex 20.3031 24.7394 0
    endloop
  endfacet
  facet normal 0 0 -1
    outer loop
      vertex -26 13.5 0
      vertex 20.3031 24.7394 0
      vertex 21.4925 23.7133 0
    endloop
  endfacet
  facet normal 0 0 -1
    outer loop
      vertex -26 13.5 0
      vertex 21.4925 23.7133 0
      vertex 22.6302 22.6302 0
    endloop
  endfacet
  facet normal 0 0 -1
    outer loop
      vertex -26 13.5 0
      vertex 22.6302 22.6302 0
      vertex 23.7133 21.4925 0
    endloop
  endfacet
  facet normal 0 0 -1
    outer loop
      vertex -26 13.5 0
      vertex 23.7133 21.4925 0
      vertex 24.7394 20.3031 0
    endloop
  endfacet
  facet normal 0 0 -1
    outer loop
      vertex -26 13.5 0
      vertex 24.7394 20.3031 0
      vertex 25.7058 19.0647 0
    endloop
  endfacet
  facet normal 0 0 -1
    outer loop
      vertex -26 13.5 0
      vertex 25.7058 19.0647 0
      vertex 26.6103 17.7804 0
    endloop
  endfacet
  facet normal 0 0 -1
    outer loop
      vertex -26 13.5 0
      vertex 26.6103 17.7804 0
      vertex 27.4507 16.4533 0
    endloop
  endfacet
  facet normal 0 0 -1
    outer loop
      vertex -26 13.5 0
      vertex 27.4507 16.4533 0
      vertex 27.9907 15.5 0
    endloop
  endfacet
  facet normal 0 0 -1
    outer loop
      vertex -26 13.5 0
      vertex 27.9907 15.5 0
      vertex 28 15.5 0
    endloop
  endfacet
  facet normal 0 0 -1
    outer loop
      vertex -26 13.5 0
      vertex 28 15.5 0
      vertex 28 15.4836 0
    endloop
  endfacet
  facet normal 0 0 -1
    outer loop
      vertex -26 13.5 0
      vertex 28 15.4836 0
      vertex 28.2249 15.0865 0
    endloop
  endfacet
  facet normal -0 0 -1
    outer loop
      vertex -26 13.5 0
      vertex 28.2249 15.0865 0
      vertex 26 13.5 0
    endloop
  endfacet
  facet normal -0.999699 0.0245412 0
    outer loop
      vertex -32.0039 0 0
      vertex -32.0039 0 2
      vertex -31.9654 1.57036 0
    endloop
  endfacet
  facet normal -0.999699 0.0245412 0
    outer loop
      vertex -31.9654 1.57036 0
      vertex -32.0039 0 2
      vertex -31.9654 1.57036 2
    endloop
  endfacet
  facet normal -0.999699 -0.0245412 -0
    outer loop
      vertex -32.0039 0 0
      vertex -31.9654 -1.57036 0
      vertex -32.0039 0 2
    endloop
  endfacet
  facet normal -0.999699 -0.0245412 0
    outer loop
      vertex -32.0039 0 2
      vertex -31.9654 -1.57036 0
      vertex -31.9654 -1.57036 2
    endloop
  endfacet
  facet normal -0.99729 -0.0735649 -0
    outer loop
      vertex -31.9654 -1.57036 0
      vertex -31.8498 -3.13693 0
      vertex -31.9654 -1.57036 2
    endloop
  endfacet
  facet normal -0.99729 -0.0735649 0
    outer loop
      vertex -31.9654 -1.57036 2
      vertex -31.8498 -3.13693 0
      vertex -31.8498 -3.13693 2
    endloop
  endfacet
  facet normal -0.99248 -0.12241 -0
    outer loop
      vertex -31.8498 -3.13693 0
      vertex -31.6575 -4.69595 0
      vertex -31.8498 -3.13693 2
    endloop
  endfacet
  facet normal -0.99248 -0.12241 0
    outer loop
      vertex -31.8498 -3.13693 2
      vertex -31.6575 -4.69595 0
      vertex -31.6575 -4.69595 2
    endloop
  endfacet
  facet normal -0.985278 -0.170962 -0
    outer loop
      vertex -31.6575 -4.69595 0
      vertex -31.389 -6.24365 0
      vertex -31.6575 -4.69595 2
    endloop
  endfacet
  facet normal -0.985278 -0.170962 0
    outer loop
      vertex -31.6575 -4.69595 2
      vertex -31.389 -6.24365 0
      vertex -31.389 -6.24365 2
    endloop
  endfacet
  facet normal -0.975702 -0.219101 -0
    outer loop
      vertex -31.389 -6.24365 0
      vertex -31.0448 -7.77631 0
      vertex -31.389 -6.24365 2
    endloop
  endfacet
  facet normal -0.975702 -0.219101 0
    outer loop
      vertex -31.389 -6.24365 2
      vertex -31.0448 -7.77631 0
      vertex -31.0448 -7.77631 2
    endloop
  endfacet
  facet normal -0.963776 -0.266712 -0
    outer loop
      vertex -31.0448 -7.77631 0
      vertex -30.6258 -9.29024 0
      vertex -31.0448 -7.77631 2
    endloop
  endfacet
  facet normal -0.963776 -0.266712 0
    outer loop
      vertex -31.0448 -7.77631 2
      vertex -30.6258 -9.29024 0
      vertex -30.6258 -9.29024 2
    endloop
  endfacet
  facet normal -0.949528 -0.313682 -0
    outer loop
      vertex -30.6258 -9.29024 0
      vertex -30.1331 -10.7818 0
      vertex -30.6258 -9.29024 2
    endloop
  endfacet
  facet normal -0.949528 -0.313682 0
    outer loop
      vertex -30.6258 -9.29024 2
      vertex -30.1331 -10.7818 0
      vertex -30.1331 -10.7818 2
    endloop
  endfacet
  facet normal -0.932993 -0.359895 -0
    outer loop
      vertex -30.1331 -10.7818 0
      vertex -29.5678 -12.2474 0
      vertex -30.1331 -10.7818 2
    endloop
  endfacet
  facet normal -0.932993 -0.359895 0
    outer loop
      vertex -30.1331 -10.7818 2
      vertex -29.5678 -12.2474 0
      vertex -29.5678 -12.2474 2
    endloop
  endfacet
  facet normal -0.91421 -0.405242 -0
    outer loop
      vertex -29.5678 -12.2474 0
      vertex -28.9312 -13.6834 0
      vertex -29.5678 -12.2474 2
    endloop
  endfacet
  facet normal -0.91421 -0.405242 0
    outer loop
      vertex -29.5678 -12.2474 2
      vertex -28.9312 -13.6834 0
      vertex -28.9312 -13.6834 2
    endloop
  endfacet
  facet normal -0.893224 -0.449611 -0
    outer loop
      vertex -28.9312 -13.6834 0
      vertex -28.2249 -15.0865 0
      vertex -28.9312 -13.6834 2
    endloop
  endfacet
  facet normal -0.893224 -0.449611 0
    outer loop
      vertex -28.9312 -13.6834 2
      vertex -28.2249 -15.0865 0
      vertex -28.2249 -15.0865 2
    endloop
  endfacet
  facet normal -0.870087 -0.492898 -0
    outer loop
      vertex -28.2249 -15.0865 0
      vertex -28 -15.4836 0
      vertex -28.2249 -15.0865 2
    endloop
  endfacet
  facet normal -0.870087 -0.492898 0
    outer loop
      vertex -28.2249 -15.0865 2
      vertex -28 -15.4836 0
      vertex -28 -15.4836 2
    endloop
  endfacet
  facet normal -1 -0 -0
    outer loop
      vertex -28 -15.5 0
      vertex -28 -15.5 49.6
      vertex -28 -15.4836 0
    endloop
  endfacet
  facet normal -1 0 -0
    outer loop
      vertex -28 -15.4836 2
      vertex -28 -15.5 49.6
      vertex -28 15.5 49.6
    endloop
  endfacet
  facet normal -1 -0 0
    outer loop
      vertex -28 15.4836 0
      vertex -28 15.5 49.6
      vertex -28 15.5 0
    endloop
  endfacet
  facet normal -1 -0 0
    outer loop
      vertex -28 15.4836 2
      vertex -28 15.5 49.6
      vertex -28 15.4836 0
    endloop
  endfacet
  facet normal -1 0 0
    outer loop
      vertex -28 -15.4836 0
      vertex -28 -15.5 49.6
      vertex -28 -15.4836 2
    endloop
  endfacet
  facet normal -1 -0 0
    outer loop
      vertex -28 -15.4836 2
      vertex -28 15.5 49.6
      vertex -28 15.4836 2
    endloop
  endfacet
  facet normal 0 -1 0
    outer loop
      vertex -28 -15.5 49.6
      vertex -28 -15.5 0
      vertex -27.9907 -15.5 0
    endloop
  endfacet
  facet normal 0 -1 0
    outer loop
      vertex 27.9907 -15.5 2
      vertex -28 -15.5 49.6
      vertex -27.9907 -15.5 2
    endloop
  endfacet
  facet normal 0 -1 0
    outer loop
      vertex -27.9907 -15.5 2
      vertex -28 -15.5 49.6
      vertex -27.9907 -15.5 0
    endloop
  endfacet
  facet normal 0 -1 0
    outer loop
      vertex 28 -15.5 49.6
      vertex -28 -15.5 49.6
      vertex 27.9907 -15.5 2
    endloop
  endfacet
  facet normal 0 -1 0
    outer loop
      vertex 28 -15.5 0
      vertex 27.9907 -15.5 2
      vertex 27.9907 -15.5 0
    endloop
  endfacet
  facet normal 0 -1 0
    outer loop
      vertex 28 -15.5 49.6
      vertex 27.9907 -15.5 2
      vertex 28 -15.5 0
    endloop
  endfacet
  facet normal -0.870087 -0.492898 -0
    outer loop
      vertex -27.9907 -15.5 0
      vertex -27.4507 -16.4533 0
      vertex -27.9907 -15.5 2
    endloop
  endfacet
  facet normal -0.870087 -0.492898 0
    outer loop
      vertex -27.9907 -15.5 2
      vertex -27.4507 -16.4533 0
      vertex -27.4507 -16.4533 2
    endloop
  endfacet
  facet normal -0.844853 -0.534998 -0
    outer loop
      vertex -27.4507 -16.4533 0
      vertex -26.6103 -17.7804 0
      vertex -27.4507 -16.4533 2
    endloop
  endfacet
  facet normal -0.844853 -0.534998 0
    outer loop
      vertex -27.4507 -16.4533 2
      vertex -26.6103 -17.7804 0
      vertex -26.6103 -17.7804 2
    endloop
  endfacet
  facet normal -0.817585 -0.575808 -0
    outer loop
      vertex -26.6103 -17.7804 0
      vertex -25.7058 -19.0647 0
      vertex -26.6103 -17.7804 2
    endloop
  endfacet
  facet normal -0.817585 -0.575808 0
    outer loop
      vertex -26.6103 -17.7804 2
      vertex -25.7058 -19.0647 0
      vertex -25.7058 -19.0647 2
    endloop
  endfacet
  facet normal -0.788346 -0.615232 -0
    outer loop
      vertex -25.7058 -19.0647 0
      vertex -24.7394 -20.3031 0
      vertex -25.7058 -19.0647 2
    endloop
  endfacet
  facet normal -0.788346 -0.615232 0
    outer loop
      vertex -25.7058 -19.0647 2
      vertex -24.7394 -20.3031 0
      vertex -24.7394 -20.3031 2
    endloop
  endfacet
  facet normal -0.757209 -0.653173 -0
    outer loop
      vertex -24.7394 -20.3031 0
      vertex -23.7133 -21.4925 0
      vertex -24.7394 -20.3031 2
    endloop
  endfacet
  facet normal -0.757209 -0.653173 0
    outer loop
      vertex -24.7394 -20.3031 2
      vertex -23.7133 -21.4925 0
      vertex -23.7133 -21.4925 2
    endloop
  endfacet
  facet normal -0.724247 -0.689541 -0
    outer loop
      vertex -23.7133 -21.4925 0
      vertex -22.6302 -22.6302 0
      vertex -23.7133 -21.4925 2
    endloop
  endfacet
  facet normal -0.724247 -0.689541 0
    outer loop
      vertex -23.7133 -21.4925 2
      vertex -22.6302 -22.6302 0
      vertex -22.6302 -22.6302 2
    endloop
  endfacet
  facet normal -0.689541 -0.724247 0
    outer loop
      vertex -22.6302 -22.6302 2
      vertex -22.6302 -22.6302 0
      vertex -21.4925 -23.7133 0
    endloop
  endfacet
  facet normal -0.689541 -0.724247 0
    outer loop
      vertex -21.4925 -23.7133 2
      vertex -22.6302 -22.6302 2
      vertex -21.4925 -23.7133 0
    endloop
  endfacet
  facet normal -0.653173 -0.757209 0
    outer loop
      vertex -21.4925 -23.7133 2
      vertex -21.4925 -23.7133 0
      vertex -20.3031 -24.7394 0
    endloop
  endfacet
  facet normal -0.653173 -0.757209 0
    outer loop
      vertex -20.3031 -24.7394 2
      vertex -21.4925 -23.7133 2
      vertex -20.3031 -24.7394 0
    endloop
  endfacet
  facet normal -0.615232 -0.788346 0
    outer loop
      vertex -20.3031 -24.7394 2
      vertex -20.3031 -24.7394 0
      vertex -19.0647 -25.7058 0
    endloop
  endfacet
  facet normal -0.615232 -0.788346 0
    outer loop
      vertex -19.0647 -25.7058 2
      vertex -20.3031 -24.7394 2
      vertex -19.0647 -25.7058 0
    endloop
  endfacet
  facet normal -0.575808 -0.817585 0
    outer loop
      vertex -19.0647 -25.7058 2
      vertex -19.0647 -25.7058 0
      vertex -17.7804 -26.6103 0
    endloop
  endfacet
  facet normal -0.575808 -0.817585 0
    outer loop
      vertex -17.7804 -26.6103 2
      vertex -19.0647 -25.7058 2
      vertex -17.7804 -26.6103 0
    endloop
  endfacet
  facet normal -0.534998 -0.844853 0
    outer loop
      vertex -17.7804 -26.6103 2
      vertex -17.7804 -26.6103 0
      vertex -16.4533 -27.4507 0
    endloop
  endfacet
  facet normal -0.534998 -0.844853 0
    outer loop
      vertex -16.4533 -27.4507 2
      vertex -17.7804 -26.6103 2
      vertex -16.4533 -27.4507 0
    endloop
  endfacet
  facet normal -0.492898 -0.870087 0
    outer loop
      vertex -16.4533 -27.4507 2
      vertex -16.4533 -27.4507 0
      vertex -15.0865 -28.2249 0
    endloop
  endfacet
  facet normal -0.492898 -0.870087 0
    outer loop
      vertex -15.0865 -28.2249 2
      vertex -16.4533 -27.4507 2
      vertex -15.0865 -28.2249 0
    endloop
  endfacet
  facet normal -0.449611 -0.893224 0
    outer loop
      vertex -15.0865 -28.2249 2
      vertex -15.0865 -28.2249 0
      vertex -13.6834 -28.9312 0
    endloop
  endfacet
  facet normal -0.449611 -0.893224 0
    outer loop
      vertex -13.6834 -28.9312 2
      vertex -15.0865 -28.2249 2
      vertex -13.6834 -28.9312 0
    endloop
  endfacet
  facet normal -0.405242 -0.91421 0
    outer loop
      vertex -13.6834 -28.9312 2
      vertex -13.6834 -28.9312 0
      vertex -12.2474 -29.5678 0
    endloop
  endfacet
  facet normal -0.405242 -0.91421 0
    outer loop
      vertex -12.2474 -29.5678 2
      vertex -13.6834 -28.9312 2
      vertex -12.2474 -29.5678 0
    endloop
  endfacet
  facet normal -0.359895 -0.932993 0
    outer loop
      vertex -12.2474 -29.5678 2
      vertex -12.2474 -29.5678 0
      vertex -10.7818 -30.1331 0
    endloop
  endfacet
  facet normal -0.359895 -0.932993 0
    outer loop
      vertex -10.7818 -30.1331 2
      vertex -12.2474 -29.5678 2
      vertex -10.7818 -30.1331 0
    endloop
  endfacet
  facet normal -0.313682 -0.949528 0
    outer loop
      vertex -10.7818 -30.1331 2
      vertex -10.7818 -30.1331 0
      vertex -9.29024 -30.6258 0
    endloop
  endfacet
  facet normal -0.313682 -0.949528 0
    outer loop
      vertex -9.29024 -30.6258 2
      vertex -10.7818 -30.1331 2
      vertex -9.29024 -30.6258 0
    endloop
  endfacet
  facet normal -0.266712 -0.963776 0
    outer loop
      vertex -9.29024 -30.6258 2
      vertex -9.29024 -30.6258 0
      vertex -7.77631 -31.0448 0
    endloop
  endfacet
  facet normal -0.266712 -0.963776 0
    outer loop
      vertex -7.77631 -31.0448 2
      vertex -9.29024 -30.6258 2
      vertex -7.77631 -31.0448 0
    endloop
  endfacet
  facet normal -0.219101 -0.975702 0
    outer loop
      vertex -7.77631 -31.0448 2
      vertex -7.77631 -31.0448 0
      vertex -6.24365 -31.389 0
    endloop
  endfacet
  facet normal -0.219101 -0.975702 0
    outer loop
      vertex -6.24365 -31.389 2
      vertex -7.77631 -31.0448 2
      vertex -6.24365 -31.389 0
    endloop
  endfacet
  facet normal -0.170962 -0.985278 0
    outer loop
      vertex -6.24365 -31.389 2
      vertex -6.24365 -31.389 0
      vertex -4.69595 -31.6575 0
    endloop
  endfacet
  facet normal -0.170962 -0.985278 0
    outer loop
      vertex -4.69595 -31.6575 2
      vertex -6.24365 -31.389 2
      vertex -4.69595 -31.6575 0
    endloop
  endfacet
  facet normal -0.12241 -0.99248 0
    outer loop
      vertex -4.69595 -31.6575 2
      vertex -4.69595 -31.6575 0
      vertex -3.13693 -31.8498 0
    endloop
  endfacet
  facet normal -0.12241 -0.99248 0
    outer loop
      vertex -3.13693 -31.8498 2
      vertex -4.69595 -31.6575 2
      vertex -3.13693 -31.8498 0
    endloop
  endfacet
  facet normal -0.0735649 -0.99729 0
    outer loop
      vertex -3.13693 -31.8498 2
      vertex -3.13693 -31.8498 0
      vertex -1.57036 -31.9654 0
    endloop
  endfacet
  facet normal -0.0735649 -0.99729 0
    outer loop
      vertex -1.57036 -31.9654 2
      vertex -3.13693 -31.8498 2
      vertex -1.57036 -31.9654 0
    endloop
  endfacet
  facet normal -0.0245412 -0.999699 0
    outer loop
      vertex -1.57036 -31.9654 2
      vertex -1.57036 -31.9654 0
      vertex 0 -32.0039 0
    endloop
  endfacet
  facet normal -0.0245412 -0.999699 0
    outer loop
      vertex 0 -32.0039 2
      vertex -1.57036 -31.9654 2
      vertex 0 -32.0039 0
    endloop
  endfacet
  facet normal 0.0245412 -0.999699 0
    outer loop
      vertex 0 -32.0039 2
      vertex 0 -32.0039 0
      vertex 1.57036 -31.9654 0
    endloop
  endfacet
  facet normal 0.0245412 -0.999699 0
    outer loop
      vertex 1.57036 -31.9654 2
      vertex 0 -32.0039 2
      vertex 1.57036 -31.9654 0
    endloop
  endfacet
  facet normal 0.0735649 -0.99729 0
    outer loop
      vertex 1.57036 -31.9654 2
      vertex 1.57036 -31.9654 0
      vertex 3.13693 -31.8498 0
    endloop
  endfacet
  facet normal 0.0735649 -0.99729 0
    outer loop
      vertex 3.13693 -31.8498 2
      vertex 1.57036 -31.9654 2
      vertex 3.13693 -31.8498 0
    endloop
  endfacet
  facet normal 0.12241 -0.99248 0
    outer loop
      vertex 3.13693 -31.8498 2
      vertex 3.13693 -31.8498 0
      vertex 4.69595 -31.6575 0
    endloop
  endfacet
  facet normal 0.12241 -0.99248 0
    outer loop
      vertex 4.69595 -31.6575 2
      vertex 3.13693 -31.8498 2
      vertex 4.69595 -31.6575 0
    endloop
  endfacet
  facet normal 0.170962 -0.985278 0
    outer loop
      vertex 4.69595 -31.6575 2
      vertex 4.69595 -31.6575 0
      vertex 6.24365 -31.389 0
    endloop
  endfacet
  facet normal 0.170962 -0.985278 0
    outer loop
      vertex 6.24365 -31.389 2
      vertex 4.69595 -31.6575 2
      vertex 6.24365 -31.389 0
    endloop
  endfacet
  facet normal 0.219101 -0.975702 0
    outer loop
      vertex 6.24365 -31.389 2
      vertex 6.24365 -31.389 0
      vertex 7.77631 -31.0448 0
    endloop
  endfacet
  facet normal 0.219101 -0.975702 0
    outer loop
      vertex 7.77631 -31.0448 2
      vertex 6.24365 -31.389 2
      vertex 7.77631 -31.0448 0
    endloop
  endfacet
  facet normal 0.266712 -0.963776 0
    outer loop
      vertex 7.77631 -31.0448 2
      vertex 7.77631 -31.0448 0
      vertex 9.29024 -30.6258 0
    endloop
  endfacet
  facet normal 0.266712 -0.963776 0
    outer loop
      vertex 9.29024 -30.6258 2
      vertex 7.77631 -31.0448 2
      vertex 9.29024 -30.6258 0
    endloop
  endfacet
  facet normal 0.313682 -0.949528 0
    outer loop
      vertex 9.29024 -30.6258 2
      vertex 9.29024 -30.6258 0
      vertex 10.7818 -30.1331 0
    endloop
  endfacet
  facet normal 0.313682 -0.949528 0
    outer loop
      vertex 10.7818 -30.1331 2
      vertex 9.29024 -30.6258 2
      vertex 10.7818 -30.1331 0
    endloop
  endfacet
  facet normal 0.359895 -0.932993 0
    outer loop
      vertex 10.7818 -30.1331 2
      vertex 10.7818 -30.1331 0
      vertex 12.2474 -29.5678 0
    endloop
  endfacet
  facet normal 0.359895 -0.932993 0
    outer loop
      vertex 12.2474 -29.5678 2
      vertex 10.7818 -30.1331 2
      vertex 12.2474 -29.5678 0
    endloop
  endfacet
  facet normal 0.405242 -0.91421 0
    outer loop
      vertex 12.2474 -29.5678 2
      vertex 12.2474 -29.5678 0
      vertex 13.6834 -28.9312 0
    endloop
  endfacet
  facet normal 0.405242 -0.91421 0
    outer loop
      vertex 13.6834 -28.9312 2
      vertex 12.2474 -29.5678 2
      vertex 13.6834 -28.9312 0
    endloop
  endfacet
  facet normal 0.449611 -0.893224 0
    outer loop
      vertex 13.6834 -28.9312 2
      vertex 13.6834 -28.9312 0
      vertex 15.0865 -28.2249 0
    endloop
  endfacet
  facet normal 0.449611 -0.893224 0
    outer loop
      vertex 15.0865 -28.2249 2
      vertex 13.6834 -28.9312 2
      vertex 15.0865 -28.2249 0
    endloop
  endfacet
  facet normal 0.492898 -0.870087 0
    outer loop
      vertex 15.0865 -28.2249 2
      vertex 15.0865 -28.2249 0
      vertex 16.4533 -27.4507 0
    endloop
  endfacet
  facet normal 0.492898 -0.870087 0
    outer loop
      vertex 16.4533 -27.4507 2
      vertex 15.0865 -28.2249 2
      vertex 16.4533 -27.4507 0
    endloop
  endfacet
  facet normal 0.534998 -0.844853 0
    outer loop
      vertex 16.4533 -27.4507 2
      vertex 16.4533 -27.4507 0
      vertex 17.7804 -26.6103 0
    endloop
  endfacet
  facet normal 0.534998 -0.844853 0
    outer loop
      vertex 17.7804 -26.6103 2
      vertex 16.4533 -27.4507 2
      vertex 17.7804 -26.6103 0
    endloop
  endfacet
  facet normal 0.575808 -0.817585 0
    outer loop
      vertex 17.7804 -26.6103 2
      vertex 17.7804 -26.6103 0
      vertex 19.0647 -25.7058 0
    endloop
  endfacet
  facet normal 0.575808 -0.817585 0
    outer loop
      vertex 19.0647 -25.7058 2
      vertex 17.7804 -26.6103 2
      vertex 19.0647 -25.7058 0
    endloop
  endfacet
  facet normal 0.615232 -0.788346 0
    outer loop
      vertex 19.0647 -25.7058 2
      vertex 19.0647 -25.7058 0
      vertex 20.3031 -24.7394 0
    endloop
  endfacet
  facet normal 0.615232 -0.788346 0
    outer loop
      vertex 20.3031 -24.7394 2
      vertex 19.0647 -25.7058 2
      vertex 20.3031 -24.7394 0
    endloop
  endfacet
  facet normal 0.653173 -0.757209 0
    outer loop
      vertex 20.3031 -24.7394 2
      vertex 20.3031 -24.7394 0
      vertex 21.4925 -23.7133 0
    endloop
  endfacet
  facet normal 0.653173 -0.757209 0
    outer loop
      vertex 21.4925 -23.7133 2
      vertex 20.3031 -24.7394 2
      vertex 21.4925 -23.7133 0
    endloop
  endfacet
  facet normal 0.689541 -0.724247 0
    outer loop
      vertex 21.4925 -23.7133 2
      vertex 21.4925 -23.7133 0
      vertex 22.6302 -22.6302 0
    endloop
  endfacet
  facet normal 0.689541 -0.724247 0
    outer loop
      vertex 22.6302 -22.6302 2
      vertex 21.4925 -23.7133 2
      vertex 22.6302 -22.6302 0
    endloop
  endfacet
  facet normal 0.724247 -0.689541 0
    outer loop
      vertex 22.6302 -22.6302 2
      vertex 22.6302 -22.6302 0
      vertex 23.7133 -21.4925 0
    endloop
  endfacet
  facet normal 0.724247 -0.689541 0
    outer loop
      vertex 23.7133 -21.4925 2
      vertex 22.6302 -22.6302 2
      vertex 23.7133 -21.4925 0
    endloop
  endfacet
  facet normal 0.757209 -0.653173 0
    outer loop
      vertex 23.7133 -21.4925 2
      vertex 23.7133 -21.4925 0
      vertex 24.7394 -20.3031 0
    endloop
  endfacet
  facet normal 0.757209 -0.653173 0
    outer loop
      vertex 24.7394 -20.3031 2
      vertex 23.7133 -21.4925 2
      vertex 24.7394 -20.3031 0
    endloop
  endfacet
  facet normal 0.788346 -0.615232 0
    outer loop
      vertex 24.7394 -20.3031 2
      vertex 24.7394 -20.3031 0
      vertex 25.7058 -19.0647 0
    endloop
  endfacet
  facet normal 0.788346 -0.615232 0
    outer loop
      vertex 25.7058 -19.0647 2
      vertex 24.7394 -20.3031 2
      vertex 25.7058 -19.0647 0
    endloop
  endfacet
  facet normal 0.817585 -0.575808 0
    outer loop
      vertex 25.7058 -19.0647 2
      vertex 25.7058 -19.0647 0
      vertex 26.6103 -17.7804 0
    endloop
  endfacet
  facet normal 0.817585 -0.575808 0
    outer loop
      vertex 26.6103 -17.7804 2
      vertex 25.7058 -19.0647 2
      vertex 26.6103 -17.7804 0
    endloop
  endfacet
  facet normal 0.844853 -0.534998 0
    outer loop
      vertex 26.6103 -17.7804 2
      vertex 26.6103 -17.7804 0
      vertex 27.4507 -16.4533 0
    endloop
  endfacet
  facet normal 0.844853 -0.534998 0
    outer loop
      vertex 27.4507 -16.4533 2
      vertex 26.6103 -17.7804 2
      vertex 27.4507 -16.4533 0
    endloop
  endfacet
  facet normal 0.870087 -0.492898 0
    outer loop
      vertex 27.4507 -16.4533 2
      vertex 27.4507 -16.4533 0
      vertex 27.9907 -15.5 0
    endloop
  endfacet
  facet normal 0.870087 -0.492898 0
    outer loop
      vertex 27.9907 -15.5 2
      vertex 27.4507 -16.4533 2
      vertex 27.9907 -15.5 0
    endloop
  endfacet
  facet normal 1 0 -0
    outer loop
      vertex 28 -15.5 49.6
      vertex 28 -15.5 0
      vertex 28 -15.4836 0
    endloop
  endfacet
  facet normal 1 -0 0
    outer loop
      vertex 28 15.4836 2
      vertex 28 -15.5 49.6
      vertex 28 -15.4836 2
    endloop
  endfacet
  facet normal 1 -0 0
    outer loop
      vertex 28 -15.4836 2
      vertex 28 -15.5 49.6
      vertex 28 -15.4836 0
    endloop
  endfacet
  facet normal 1 0 0
    outer loop
      vertex 28 15.5 49.6
      vertex 28 -15.5 49.6
      vertex 28 15.4836 2
    endloop
  endfacet
  facet normal 1 -0 0
    outer loop
      vertex 28 15.5 0
      vertex 28 15.4836 2
      vertex 28 15.4836 0
    endloop
  endfacet
  facet normal 1 0 0
    outer loop
      vertex 28 15.5 49.6
      vertex 28 15.4836 2
      vertex 28 15.5 0
    endloop
  endfacet
  facet normal 0.870087 -0.492898 0
    outer loop
      vertex 28 -15.4836 2
      vertex 28 -15.4836 0
      vertex 28.2249 -15.0865 0
    endloop
  endfacet
  facet normal 0.870087 -0.492898 0
    outer loop
      vertex 28.2249 -15.0865 2
      vertex 28 -15.4836 2
      vertex 28.2249 -15.0865 0
    endloop
  endfacet
  facet normal 0.893224 -0.449611 0
    outer loop
      vertex 28.2249 -15.0865 2
      vertex 28.2249 -15.0865 0
      vertex 28.9312 -13.6834 0
    endloop
  endfacet
  facet normal 0.893224 -0.449611 0
    outer loop
      vertex 28.9312 -13.6834 2
      vertex 28.2249 -15.0865 2
      vertex 28.9312 -13.6834 0
    endloop
  endfacet
  facet normal 0.91421 -0.405242 0
    outer loop
      vertex 28.9312 -13.6834 2
      vertex 28.9312 -13.6834 0
      vertex 29.5678 -12.2474 0
    endloop
  endfacet
  facet normal 0.91421 -0.405242 0
    outer loop
      vertex 29.5678 -12.2474 2
      vertex 28.9312 -13.6834 2
      vertex 29.5678 -12.2474 0
    endloop
  endfacet
  facet normal 0.932993 -0.359895 0
    outer loop
      vertex 29.5678 -12.2474 2
      vertex 29.5678 -12.2474 0
      vertex 30.1331 -10.7818 0
    endloop
  endfacet
  facet normal 0.932993 -0.359895 0
    outer loop
      vertex 30.1331 -10.7818 2
      vertex 29.5678 -12.2474 2
      vertex 30.1331 -10.7818 0
    endloop
  endfacet
  facet normal 0.949528 -0.313682 0
    outer loop
      vertex 30.1331 -10.7818 2
      vertex 30.1331 -10.7818 0
      vertex 30.6258 -9.29024 0
    endloop
  endfacet
  facet normal 0.949528 -0.313682 0
    outer loop
      vertex 30.6258 -9.29024 2
      vertex 30.1331 -10.7818 2
      vertex 30.6258 -9.29024 0
    endloop
  endfacet
  facet normal 0.963776 -0.266712 0
    outer loop
      vertex 30.6258 -9.29024 2
      vertex 30.6258 -9.29024 0
      vertex 31.0448 -7.77631 0
    endloop
  endfacet
  facet normal 0.963776 -0.266712 0
    outer loop
      vertex 31.0448 -7.77631 2
      vertex 30.6258 -9.29024 2
      vertex 31.0448 -7.77631 0
    endloop
  endfacet
  facet normal 0.975702 -0.219101 0
    outer loop
      vertex 31.0448 -7.77631 2
      vertex 31.0448 -7.77631 0
      vertex 31.389 -6.24365 0
    endloop
  endfacet
  facet normal 0.975702 -0.219101 0
    outer loop
      vertex 31.389 -6.24365 2
      vertex 31.0448 -7.77631 2
      vertex 31.389 -6.24365 0
    endloop
  endfacet
  facet normal 0.985278 -0.170962 0
    outer loop
      vertex 31.389 -6.24365 2
      vertex 31.389 -6.24365 0
      vertex 31.6575 -4.69595 0
    endloop
  endfacet
  facet normal 0.985278 -0.170962 0
    outer loop
      vertex 31.6575 -4.69595 2
      vertex 31.389 -6.24365 2
      vertex 31.6575 -4.69595 0
    endloop
  endfacet
  facet normal 0.99248 -0.12241 0
    outer loop
      vertex 31.6575 -4.69595 2
      vertex 31.6575 -4.69595 0
      vertex 31.8498 -3.13693 0
    endloop
  endfacet
  facet normal 0.99248 -0.12241 0
    outer loop
      vertex 31.8498 -3.13693 2
      vertex 31.6575 -4.69595 2
      vertex 31.8498 -3.13693 0
    endloop
  endfacet
  facet normal 0.99729 -0.0735649 0
    outer loop
      vertex 31.8498 -3.13693 2
      vertex 31.8498 -3.13693 0
      vertex 31.9654 -1.57036 0
    endloop
  endfacet
  facet normal 0.99729 -0.0735649 0
    outer loop
      vertex 31.9654 -1.57036 2
      vertex 31.8498 -3.13693 2
      vertex 31.9654 -1.57036 0
    endloop
  endfacet
  facet normal 0.999699 -0.0245412 0
    outer loop
      vertex 31.9654 -1.57036 2
      vertex 31.9654 -1.57036 0
      vertex 32.0039 0 0
    endloop
  endfacet
  facet normal 0.999699 -0.0245412 0
    outer loop
      vertex 32.0039 0 2
      vertex 31.9654 -1.57036 2
      vertex 32.0039 0 0
    endloop
  endfacet
  facet normal 0.999699 0.0245412 0
    outer loop
      vertex 32.0039 0 0
      vertex 31.9654 1.57036 0
      vertex 31.9654 1.57036 2
    endloop
  endfacet
  facet normal 0.999699 0.0245412 -0
    outer loop
      vertex 32.0039 0 2
      vertex 32.0039 0 0
      vertex 31.9654 1.57036 2
    endloop
  endfacet
  facet normal 0.99729 0.0735649 0
    outer loop
      vertex 31.9654 1.57036 0
      vertex 31.8498 3.13693 0
      vertex 31.8498 3.13693 2
    endloop
  endfacet
  facet normal 0.99729 0.0735649 -0
    outer loop
      vertex 31.9654 1.57036 2
      vertex 31.9654 1.57036 0
      vertex 31.8498 3.13693 2
    endloop
  endfacet
  facet normal 0.99248 0.12241 0
    outer loop
      vertex 31.8498 3.13693 0
      vertex 31.6575 4.69595 0
      vertex 31.6575 4.69595 2
    endloop
  endfacet
  facet normal 0.99248 0.12241 -0
    outer loop
      vertex 31.8498 3.13693 2
      vertex 31.8498 3.13693 0
      vertex 31.6575 4.69595 2
    endloop
  endfacet
  facet normal 0.985278 0.170962 0
    outer loop
      vertex 31.6575 4.69595 0
      vertex 31.389 6.24365 0
      vertex 31.389 6.24365 2
    endloop
  endfacet
  facet normal 0.985278 0.170962 -0
    outer loop
      vertex 31.6575 4.69595 2
      vertex 31.6575 4.69595 0
      vertex 31.389 6.24365 2
    endloop
  endfacet
  facet normal 0.975702 0.219101 0
    outer loop
      vertex 31.389 6.24365 0
      vertex 31.0448 7.77631 0
      vertex 31.0448 7.77631 2
    endloop
  endfacet
  facet normal 0.975702 0.219101 -0
    outer loop
      vertex 31.389 6.24365 2
      vertex 31.389 6.24365 0
      vertex 31.0448 7.77631 2
    endloop
  endfacet
  facet normal 0.963776 0.266712 0
    outer loop
      vertex 31.0448 7.77631 0
      vertex 30.6258 9.29024 0
      vertex 30.6258 9.29024 2
    endloop
  endfacet
  facet normal 0.963776 0.266712 -0
    outer loop
      vertex 31.0448 7.77631 2
      vertex 31.0448 7.77631 0
      vertex 30.6258 9.29024 2
    endloop
  endfacet
  facet normal 0.949528 0.313682 0
    outer loop
      vertex 30.6258 9.29024 0
      vertex 30.1331 10.7818 0
      vertex 30.1331 10.7818 2
    endloop
  endfacet
  facet normal 0.949528 0.313682 -0
    outer loop
      vertex 30.6258 9.29024 2
      vertex 30.6258 9.29024 0
      vertex 30.1331 10.7818 2
    endloop
  endfacet
  facet normal 0.932993 0.359895 0
    outer loop
      vertex 30.1331 10.7818 0
      vertex 29.5678 12.2474 0
      vertex 29.5678 12.2474 2
    endloop
  endfacet
  facet normal 0.932993 0.359895 -0
    outer loop
      vertex 30.1331 10.7818 2
      vertex 30.1331 10.7818 0
      vertex 29.5678 12.2474 2
    endloop
  endfacet
  facet normal 0.91421 0.405242 0
    outer loop
      vertex 29.5678 12.2474 0
      vertex 28.9312 13.6834 0
      vertex 28.9312 13.6834 2
    endloop
  endfacet
  facet normal 0.91421 0.405242 -0
    outer loop
      vertex 29.5678 12.2474 2
      vertex 29.5678 12.2474 0
      vertex 28.9312 13.6834 2
    endloop
  endfacet
  facet normal 0.893224 0.449611 0
    outer loop
      vertex 28.9312 13.6834 0
      vertex 28.2249 15.0865 0
      vertex 28.2249 15.0865 2
    endloop
  endfacet
  facet normal 0.893224 0.449611 -0
    outer loop
      vertex 28.9312 13.6834 2
      vertex 28.9312 13.6834 0
      vertex 28.2249 15.0865 2
    endloop
  endfacet
  facet normal 0.870087 0.492898 0
    outer loop
      vertex 28.2249 15.0865 0
      vertex 28 15.4836 0
      vertex 28 15.4836 2
    endloop
  endfacet
  facet normal 0.870087 0.492898 -0
    outer loop
      vertex 28.2249 15.0865 2
      vertex 28.2249 15.0865 0
      vertex 28 15.4836 2
    endloop
  endfacet
  facet normal 0 1 0
    outer loop
      vertex -28 15.5 0
      vertex -28 15.5 49.6
      vertex -27.9907 15.5 0
    endloop
  endfacet
  facet normal 0 1 0
    outer loop
      vertex -27.9907 15.5 2
      vertex -28 15.5 49.6
      vertex 28 15.5 49.6
    endloop
  endfacet
  facet normal 0 1 0
    outer loop
      vertex 27.9907 15.5 0
      vertex 28 15.5 49.6
      vertex 28 15.5 0
    endloop
  endfacet
  facet normal 0 1 -0
    outer loop
      vertex 27.9907 15.5 2
      vertex 28 15.5 49.6
      vertex 27.9907 15.5 0
    endloop
  endfacet
  facet normal 0 1 0
    outer loop
      vertex -27.9907 15.5 0
      vertex -28 15.5 49.6
      vertex -27.9907 15.5 2
    endloop
  endfacet
  facet normal 0 1 0
    outer loop
      vertex -27.9907 15.5 2
      vertex 28 15.5 49.6
      vertex 27.9907 15.5 2
    endloop
  endfacet
  facet normal 0.870087 0.492898 0
    outer loop
      vertex 27.9907 15.5 0
      vertex 27.4507 16.4533 0
      vertex 27.4507 16.4533 2
    endloop
  endfacet
  facet normal 0.870087 0.492898 -0
    outer loop
      vertex 27.9907 15.5 2
      vertex 27.9907 15.5 0
      vertex 27.4507 16.4533 2
    endloop
  endfacet
  facet normal 0.844853 0.534998 0
    outer loop
      vertex 27.4507 16.4533 0
      vertex 26.6103 17.7804 0
      vertex 26.6103 17.7804 2
    endloop
  endfacet
  facet normal 0.844853 0.534998 -0
    outer loop
      vertex 27.4507 16.4533 2
      vertex 27.4507 16.4533 0
      vertex 26.6103 17.7804 2
    endloop
  endfacet
  facet normal 0.817585 0.575808 0
    outer loop
      vertex 26.6103 17.7804 0
      vertex 25.7058 19.0647 0
      vertex 25.7058 19.0647 2
    endloop
  endfacet
  facet normal 0.817585 0.575808 -0
    outer loop
      vertex 26.6103 17.7804 2
      vertex 26.6103 17.7804 0
      vertex 25.7058 19.0647 2
    endloop
  endfacet
  facet normal 0.788346 0.615232 0
    outer loop
      vertex 25.7058 19.0647 0
      vertex 24.7394 20.3031 0
      vertex 24.7394 20.3031 2
    endloop
  endfacet
  facet normal 0.788346 0.615232 -0
    outer loop
      vertex 25.7058 19.0647 2
      vertex 25.7058 19.0647 0
      vertex 24.7394 20.3031 2
    endloop
  endfacet
  facet normal 0.757209 0.653173 0
    outer loop
      vertex 24.7394 20.3031 0
      vertex 23.7133 21.4925 0
      vertex 23.7133 21.4925 2
    endloop
  endfacet
  facet normal 0.757209 0.653173 -0
    outer loop
      vertex 24.7394 20.3031 2
      vertex 24.7394 20.3031 0
      vertex 23.7133 21.4925 2
    endloop
  endfacet
  facet normal 0.724247 0.689541 0
    outer loop
      vertex 23.7133 21.4925 0
      vertex 22.6302 22.6302 0
      vertex 22.6302 22.6302 2
    endloop
  endfacet
  facet normal 0.724247 0.689541 -0
    outer loop
      vertex 23.7133 21.4925 2
      vertex 23.7133 21.4925 0
      vertex 22.6302 22.6302 2
    endloop
  endfacet
  facet normal 0.689541 0.724247 0
    outer loop
      vertex 21.4925 23.7133 0
      vertex 21.4925 23.7133 2
      vertex 22.6302 22.6302 0
    endloop
  endfacet
  facet normal 0.689541 0.724247 0
    outer loop
      vertex 22.6302 22.6302 0
      vertex 21.4925 23.7133 2
      vertex 22.6302 22.6302 2
    endloop
  endfacet
  facet normal 0.653173 0.757209 0
    outer loop
      vertex 20.3031 24.7394 0
      vertex 20.3031 24.7394 2
      vertex 21.4925 23.7133 0
    endloop
  endfacet
  facet normal 0.653173 0.757209 0
    outer loop
      vertex 21.4925 23.7133 0
      vertex 20.3031 24.7394 2
      vertex 21.4925 23.7133 2
    endloop
  endfacet
  facet normal 0.615232 0.788346 0
    outer loop
      vertex 19.0647 25.7058 0
      vertex 19.0647 25.7058 2
      vertex 20.3031 24.7394 0
    endloop
  endfacet
  facet normal 0.615232 0.788346 0
    outer loop
      vertex 20.3031 24.7394 0
      vertex 19.0647 25.7058 2
      vertex 20.3031 24.7394 2
    endloop
  endfacet
  facet normal 0.575808 0.817585 0
    outer loop
      vertex 17.7804 26.6103 0
      vertex 17.7804 26.6103 2
      vertex 19.0647 25.7058 0
    endloop
  endfacet
  facet normal 0.575808 0.817585 0
    outer loop
      vertex 19.0647 25.7058 0
      vertex 17.7804 26.6103 2
      vertex 19.0647 25.7058 2
    endloop
  endfacet
  facet normal 0.534998 0.844853 0
    outer loop
      vertex 16.4533 27.4507 0
      vertex 16.4533 27.4507 2
      vertex 17.7804 26.6103 0
    endloop
  endfacet
  facet normal 0.534998 0.844853 0
    outer loop
      vertex 17.7804 26.6103 0
      vertex 16.4533 27.4507 2
      vertex 17.7804 26.6103 2
    endloop
  endfacet
  facet normal 0.492898 0.870087 0
    outer loop
      vertex 15.0865 28.2249 0
      vertex 15.0865 28.2249 2
      vertex 16.4533 27.4507 0
    endloop
  endfacet
  facet normal 0.492898 0.870087 0
    outer loop
      vertex 16.4533 27.4507 0
      vertex 15.0865 28.2249 2
      vertex 16.4533 27.4507 2
    endloop
  endfacet
  facet normal 0.449611 0.893224 0
    outer loop
      vertex 13.6834 28.9312 0
      vertex 13.6834 28.9312 2
      vertex 15.0865 28.2249 0
    endloop
  endfacet
  facet normal 0.449611 0.893224 0
    outer loop
      vertex 15.0865 28.2249 0
      vertex 13.6834 28.9312 2
      vertex 15.0865 28.2249 2
    endloop
  endfacet
  facet normal 0.405242 0.91421 0
    outer loop
      vertex 12.2474 29.5678 0
      vertex 12.2474 29.5678 2
      vertex 13.6834 28.9312 0
    endloop
  endfacet
  facet normal 0.405242 0.91421 0
    outer loop
      vertex 13.6834 28.9312 0
      vertex 12.2474 29.5678 2
      vertex 13.6834 28.9312 2
    endloop
  endfacet
  facet normal 0.359895 0.932993 0
    outer loop
      vertex 10.7818 30.1331 0
      vertex 10.7818 30.1331 2
      vertex 12.2474 29.5678 0
    endloop
  endfacet
  facet normal 0.359895 0.932993 0
    outer loop
      vertex 12.2474 29.5678 0
      vertex 10.7818 30.1331 2
      vertex 12.2474 29.5678 2
    endloop
  endfacet
  facet normal 0.313682 0.949528 0
    outer loop
      vertex 9.29024 30.6258 0
      vertex 9.29024 30.6258 2
      vertex 10.7818 30.1331 0
    endloop
  endfacet
  facet normal 0.313682 0.949528 0
    outer loop
      vertex 10.7818 30.1331 0
      vertex 9.29024 30.6258 2
      vertex 10.7818 30.1331 2
    endloop
  endfacet
  facet normal 0.266712 0.963776 0
    outer loop
      vertex 7.77631 31.0448 0
      vertex 7.77631 31.0448 2
      vertex 9.29024 30.6258 0
    endloop
  endfacet
  facet normal 0.266712 0.963776 0
    outer loop
      vertex 9.29024 30.6258 0
      vertex 7.77631 31.0448 2
      vertex 9.29024 30.6258 2
    endloop
  endfacet
  facet normal 0.219101 0.975702 0
    outer loop
      vertex 6.24365 31.389 0
      vertex 6.24365 31.389 2
      vertex 7.77631 31.0448 0
    endloop
  endfacet
  facet normal 0.219101 0.975702 0
    outer loop
      vertex 7.77631 31.0448 0
      vertex 6.24365 31.389 2
      vertex 7.77631 31.0448 2
    endloop
  endfacet
  facet normal 0.170962 0.985278 0
    outer loop
      vertex 4.69595 31.6575 0
      vertex 4.69595 31.6575 2
      vertex 6.24365 31.389 0
    endloop
  endfacet
  facet normal 0.170962 0.985278 0
    outer loop
      vertex 6.24365 31.389 0
      vertex 4.69595 31.6575 2
      vertex 6.24365 31.389 2
    endloop
  endfacet
  facet normal 0.12241 0.99248 0
    outer loop
      vertex 3.13693 31.8498 0
      vertex 3.13693 31.8498 2
      vertex 4.69595 31.6575 0
    endloop
  endfacet
  facet normal 0.12241 0.99248 0
    outer loop
      vertex 4.69595 31.6575 0
      vertex 3.13693 31.8498 2
      vertex 4.69595 31.6575 2
    endloop
  endfacet
  facet normal 0.0735649 0.99729 0
    outer loop
      vertex 1.57036 31.9654 0
      vertex 1.57036 31.9654 2
      vertex 3.13693 31.8498 0
    endloop
  endfacet
  facet normal 0.0735649 0.99729 0
    outer loop
      vertex 3.13693 31.8498 0
      vertex 1.57036 31.9654 2
      vertex 3.13693 31.8498 2
    endloop
  endfacet
  facet normal 0.0245412 0.999699 0
    outer loop
      vertex 0 32.0039 0
      vertex 0 32.0039 2
      vertex 1.57036 31.9654 0
    endloop
  endfacet
  facet normal 0.0245412 0.999699 0
    outer loop
      vertex 1.57036 31.9654 0
      vertex 0 32.0039 2
      vertex 1.57036 31.9654 2
    endloop
  endfacet
  facet normal -0.0245412 0.999699 0
    outer loop
      vertex -1.57036 31.9654 0
      vertex -1.57036 31.9654 2
      vertex 0 32.0039 0
    endloop
  endfacet
  facet normal -0.0245412 0.999699 0
    outer loop
      vertex 0 32.0039 0
      vertex -1.57036 31.9654 2
      vertex 0 32.0039 2
    endloop
  endfacet
  facet normal -0.0735649 0.99729 0
    outer loop
      vertex -3.13693 31.8498 0
      vertex -3.13693 31.8498 2
      vertex -1.57036 31.9654 0
    endloop
  endfacet
  facet normal -0.0735649 0.99729 0
    outer loop
      vertex -1.57036 31.9654 0
      vertex -3.13693 31.8498 2
      vertex -1.57036 31.9654 2
    endloop
  endfacet
  facet normal -0.12241 0.99248 0
    outer loop
      vertex -4.69595 31.6575 0
      vertex -4.69595 31.6575 2
      vertex -3.13693 31.8498 0
    endloop
  endfacet
  facet normal -0.12241 0.99248 0
    outer loop
      vertex -3.13693 31.8498 0
      vertex -4.69595 31.6575 2
      vertex -3.13693 31.8498 2
    endloop
  endfacet
  facet normal -0.170962 0.985278 0
    outer loop
      vertex -6.24365 31.389 0
      vertex -6.24365 31.389 2
      vertex -4.69595 31.6575 0
    endloop
  endfacet
  facet normal -0.170962 0.985278 0
    outer loop
      vertex -4.69595 31.6575 0
      vertex -6.24365 31.389 2
      vertex -4.69595 31.6575 2
    endloop
  endfacet
  facet normal -0.219101 0.975702 0
    outer loop
      vertex -7.77631 31.0448 0
      vertex -7.77631 31.0448 2
      vertex -6.24365 31.389 0
    endloop
  endfacet
  facet normal -0.219101 0.975702 0
    outer loop
      vertex -6.24365 31.389 0
      vertex -7.77631 31.0448 2
      vertex -6.24365 31.389 2
    endloop
  endfacet
  facet normal -0.266712 0.963776 0
    outer loop
      vertex -9.29024 30.6258 0
      vertex -9.29024 30.6258 2
      vertex -7.77631 31.0448 0
    endloop
  endfacet
  facet normal -0.266712 0.963776 0
    outer loop
      vertex -7.77631 31.0448 0
      vertex -9.29024 30.6258 2
      vertex -7.77631 31.0448 2
    endloop
  endfacet
  facet normal -0.313682 0.949528 0
    outer loop
      vertex -10.7818 30.1331 0
      vertex -10.7818 30.1331 2
      vertex -9.29024 30.6258 0
    endloop
  endfacet
  facet normal -0.313682 0.949528 0
    outer loop
      vertex -9.29024 30.6258 0
      vertex -10.7818 30.1331 2
      vertex -9.29024 30.6258 2
    endloop
  endfacet
  facet normal -0.359895 0.932993 0
    outer loop
      vertex -12.2474 29.5678 0
      vertex -12.2474 29.5678 2
      vertex -10.7818 30.1331 0
    endloop
  endfacet
  facet normal -0.359895 0.932993 0
    outer loop
      vertex -10.7818 30.1331 0
      vertex -12.2474 29.5678 2
      vertex -10.7818 30.1331 2
    endloop
  endfacet
  facet normal -0.405242 0.91421 0
    outer loop
      vertex -13.6834 28.9312 0
      vertex -13.6834 28.9312 2
      vertex -12.2474 29.5678 0
    endloop
  endfacet
  facet normal -0.405242 0.91421 0
    outer loop
      vertex -12.2474 29.5678 0
      vertex -13.6834 28.9312 2
      vertex -12.2474 29.5678 2
    endloop
  endfacet
  facet normal -0.449611 0.893224 0
    outer loop
      vertex -15.0865 28.2249 0
      vertex -15.0865 28.2249 2
      vertex -13.6834 28.9312 0
    endloop
  endfacet
  facet normal -0.449611 0.893224 0
    outer loop
      vertex -13.6834 28.9312 0
      vertex -15.0865 28.2249 2
      vertex -13.6834 28.9312 2
    endloop
  endfacet
  facet normal -0.492898 0.870087 0
    outer loop
      vertex -16.4533 27.4507 0
      vertex -16.4533 27.4507 2
      vertex -15.0865 28.2249 0
    endloop
  endfacet
  facet normal -0.492898 0.870087 0
    outer loop
      vertex -15.0865 28.2249 0
      vertex -16.4533 27.4507 2
      vertex -15.0865 28.2249 2
    endloop
  endfacet
  facet normal -0.534998 0.844853 0
    outer loop
      vertex -17.7804 26.6103 0
      vertex -17.7804 26.6103 2
      vertex -16.4533 27.4507 0
    endloop
  endfacet
  facet normal -0.534998 0.844853 0
    outer loop
      vertex -16.4533 27.4507 0
      vertex -17.7804 26.6103 2
      vertex -16.4533 27.4507 2
    endloop
  endfacet
  facet normal -0.575808 0.817585 0
    outer loop
      vertex -19.0647 25.7058 0
      vertex -19.0647 25.7058 2
      vertex -17.7804 26.6103 0
    endloop
  endfacet
  facet normal -0.575808 0.817585 0
    outer loop
      vertex -17.7804 26.6103 0
      vertex -19.0647 25.7058 2
      vertex -17.7804 26.6103 2
    endloop
  endfacet
  facet normal -0.615232 0.788346 0
    outer loop
      vertex -20.3031 24.7394 0
      vertex -20.3031 24.7394 2
      vertex -19.0647 25.7058 0
    endloop
  endfacet
  facet normal -0.615232 0.788346 0
    outer loop
      vertex -19.0647 25.7058 0
      vertex -20.3031 24.7394 2
      vertex -19.0647 25.7058 2
    endloop
  endfacet
  facet normal -0.653173 0.757209 0
    outer loop
      vertex -21.4925 23.7133 0
      vertex -21.4925 23.7133 2
      vertex -20.3031 24.7394 0
    endloop
  endfacet
  facet normal -0.653173 0.757209 0
    outer loop
      vertex -20.3031 24.7394 0
      vertex -21.4925 23.7133 2
      vertex -20.3031 24.7394 2
    endloop
  endfacet
  facet normal -0.689541 0.724247 0
    outer loop
      vertex -22.6302 22.6302 0
      vertex -22.6302 22.6302 2
      vertex -21.4925 23.7133 0
    endloop
  endfacet
  facet normal -0.689541 0.724247 0
    outer loop
      vertex -21.4925 23.7133 0
      vertex -22.6302 22.6302 2
      vertex -21.4925 23.7133 2
    endloop
  endfacet
  facet normal -0.724247 0.689541 0
    outer loop
      vertex -23.7133 21.4925 0
      vertex -23.7133 21.4925 2
      vertex -22.6302 22.6302 0
    endloop
  endfacet
  facet normal -0.724247 0.689541 0
    outer loop
      vertex -22.6302 22.6302 0
      vertex -23.7133 21.4925 2
      vertex -22.6302 22.6302 2
    endloop
  endfacet
  facet normal -0.757209 0.653173 0
    outer loop
      vertex -24.7394 20.3031 0
      vertex -24.7394 20.3031 2
      vertex -23.7133 21.4925 0
    endloop
  endfacet
  facet normal -0.757209 0.653173 0
    outer loop
      vertex -23.7133 21.4925 0
      vertex -24.7394 20.3031 2
      vertex -23.7133 21.4925 2
    endloop
  endfacet
  facet normal -0.788346 0.615232 0
    outer loop
      vertex -25.7058 19.0647 0
      vertex -25.7058 19.0647 2
      vertex -24.7394 20.3031 0
    endloop
  endfacet
  facet normal -0.788346 0.615232 0
    outer loop
      vertex -24.7394 20.3031 0
      vertex -25.7058 19.0647 2
      vertex -24.7394 20.3031 2
    endloop
  endfacet
  facet normal -0.817585 0.575808 0
    outer loop
      vertex -26.6103 17.7804 0
      vertex -26.6103 17.7804 2
      vertex -25.7058 19.0647 0
    endloop
  endfacet
  facet normal -0.817585 0.575808 0
    outer loop
      vertex -25.7058 19.0647 0
      vertex -26.6103 17.7804 2
      vertex -25.7058 19.0647 2
    endloop
  endfacet
  facet normal -0.844853 0.534998 0
    outer loop
      vertex -27.4507 16.4533 0
      vertex -27.4507 16.4533 2
      vertex -26.6103 17.7804 0
    endloop
  endfacet
  facet normal -0.844853 0.534998 0
    outer loop
      vertex -26.6103 17.7804 0
      vertex -27.4507 16.4533 2
      vertex -26.6103 17.7804 2
    endloop
  endfacet
  facet normal -0.870087 0.492898 0
    outer loop
      vertex -27.9907 15.5 0
      vertex -27.9907 15.5 2
      vertex -27.4507 16.4533 0
    endloop
  endfacet
  facet normal -0.870087 0.492898 0
    outer loop
      vertex -27.4507 16.4533 0
      vertex -27.9907 15.5 2
      vertex -27.4507 16.4533 2
    endloop
  endfacet
  facet normal -0.870087 0.492898 0
    outer loop
      vertex -28.2249 15.0865 0
      vertex -28.2249 15.0865 2
      vertex -28 15.4836 0
    endloop
  endfacet
  facet normal -0.870087 0.492898 0
    outer loop
      vertex -28 15.4836 0
      vertex -28.2249 15.0865 2
      vertex -28 15.4836 2
    endloop
  endfacet
  facet normal -0.893224 0.449611 0
    outer loop
      vertex -28.9312 13.6834 0
      vertex -28.9312 13.6834 2
      vertex -28.2249 15.0865 0
    endloop
  endfacet
  facet normal -0.893224 0.449611 0
    outer loop
      vertex -28.2249 15.0865 0
      vertex -28.9312 13.6834 2
      vertex -28.2249 15.0865 2
    endloop
  endfacet
  facet normal -0.91421 0.405242 0
    outer loop
      vertex -29.5678 12.2474 0
      vertex -29.5678 12.2474 2
      vertex -28.9312 13.6834 0
    endloop
  endfacet
  facet normal -0.91421 0.405242 0
    outer loop
      vertex -28.9312 13.6834 0
      vertex -29.5678 12.2474 2
      vertex -28.9312 13.6834 2
    endloop
  endfacet
  facet normal -0.932993 0.359895 0
    outer loop
      vertex -30.1331 10.7818 0
      vertex -30.1331 10.7818 2
      vertex -29.5678 12.2474 0
    endloop
  endfacet
  facet normal -0.932993 0.359895 0
    outer loop
      vertex -29.5678 12.2474 0
      vertex -30.1331 10.7818 2
      vertex -29.5678 12.2474 2
    endloop
  endfacet
  facet normal -0.949528 0.313682 0
    outer loop
      vertex -30.6258 9.29024 0
      vertex -30.6258 9.29024 2
      vertex -30.1331 10.7818 0
    endloop
  endfacet
  facet normal -0.949528 0.313682 0
    outer loop
      vertex -30.1331 10.7818 0
      vertex -30.6258 9.29024 2
      vertex -30.1331 10.7818 2
    endloop
  endfacet
  facet normal -0.963776 0.266712 0
    outer loop
      vertex -31.0448 7.77631 0
      vertex -31.0448 7.77631 2
      vertex -30.6258 9.29024 0
    endloop
  endfacet
  facet normal -0.963776 0.266712 0
    outer loop
      vertex -30.6258 9.29024 0
      vertex -31.0448 7.77631 2
      vertex -30.6258 9.29024 2
    endloop
  endfacet
  facet normal -0.975702 0.219101 0
    outer loop
      vertex -31.389 6.24365 0
      vertex -31.389 6.24365 2
      vertex -31.0448 7.77631 0
    endloop
  endfacet
  facet normal -0.975702 0.219101 0
    outer loop
      vertex -31.0448 7.77631 0
      vertex -31.389 6.24365 2
      vertex -31.0448 7.77631 2
    endloop
  endfacet
  facet normal -0.985278 0.170962 0
    outer loop
      vertex -31.6575 4.69595 0
      vertex -31.6575 4.69595 2
      vertex -31.389 6.24365 0
    endloop
  endfacet
  facet normal -0.985278 0.170962 0
    outer loop
      vertex -31.389 6.24365 0
      vertex -31.6575 4.69595 2
      vertex -31.389 6.24365 2
    endloop
  endfacet
  facet normal -0.99248 0.12241 0
    outer loop
      vertex -31.8498 3.13693 0
      vertex -31.8498 3.13693 2
      vertex -31.6575 4.69595 0
    endloop
  endfacet
  facet normal -0.99248 0.12241 0
    outer loop
      vertex -31.6575 4.69595 0
      vertex -31.8498 3.13693 2
      vertex -31.6575 4.69595 2
    endloop
  endfacet
  facet normal -0.99729 0.0735649 0
    outer loop
      vertex -31.9654 1.57036 0
      vertex -31.9654 1.57036 2
      vertex -31.8498 3.13693 0
    endloop
  endfacet
  facet normal -0.99729 0.0735649 0
    outer loop
      vertex -31.8498 3.13693 0
      vertex -31.9654 1.57036 2
      vertex -31.8498 3.13693 2
    endloop
  endfacet
  facet normal 1 0 0
    outer loop
      vertex -26 13.5 0
      vertex -26 13.5 49.6
      vertex -26 -13.5 49.6
    endloop
  endfacet
  facet normal 1 0 0
    outer loop
      vertex -26 -13.5 0
      vertex -26 13.5 0
      vertex -26 -13.5 49.6
    endloop
  endfacet
  facet normal 0 -1 0
    outer loop
      vertex 26 13.5 0
      vertex 26 13.5 49.6
      vertex -26 13.5 49.6
    endloop
  endfacet
  facet normal -0 -1 -0
    outer loop
      vertex -26 13.5 0
      vertex 26 13.5 0
      vertex -26 13.5 49.6
    endloop
  endfacet
  facet normal -1 0 0
    outer loop
      vertex 26 13.5 49.6
      vertex 26 13.5 0
      vertex 26 -13.5 49.6
    endloop
  endfacet
  facet normal -1 0 0
    outer loop
      vertex 26 -13.5 49.6
      vertex 26 13.5 0
      vertex 26 -13.5 0
    endloop
  endfacet
  facet normal 0 1 0
    outer loop
      vertex 26 -13.5 49.6
      vertex 26 -13.5 0
      vertex -26 -13.5 49.6
    endloop
  endfacet
  facet normal 0 1 -0
    outer loop
      vertex -26 -13.5 49.6
      vertex 26 -13.5 0
      vertex -26 -13.5 0
    endloop
  endfacet
  facet normal 0 0 1
    outer loop
      vertex -31.9654 1.57036 2
      vertex -32.0039 0 2
      vertex -31.9654 -1.57036 2
    endloop
  endfacet
  facet normal 0 0 1
    outer loop
      vertex -31.6575 -4.69595 2
      vertex -31.9654 1.57036 2
      vertex -31.8498 -3.13693 2
    endloop
  endfacet
  facet normal 0 0 1
    outer loop
      vertex -31.8498 -3.13693 2
      vertex -31.9654 1.57036 2
      vertex -31.9654 -1.57036 2
    endloop
  endfacet
  facet normal 0 0 1
    outer loop
      vertex -31.389 -6.24365 2
      vertex -31.9654 1.57036 2
      vertex -31.6575 -4.69595 2
    endloop
  endfacet
  facet normal 0 0 1
    outer loop
      vertex -31.0448 -7.77631 2
      vertex -31.9654 1.57036 2
      vertex -31.389 -6.24365 2
    endloop
  endfacet
  facet normal 0 0 1
    outer loop
      vertex -30.6258 -9.29024 2
      vertex -31.9654 1.57036 2
      vertex -31.0448 -7.77631 2
    endloop
  endfacet
  facet normal 0 0 1
    outer loop
      vertex -30.1331 -10.7818 2
      vertex -31.9654 1.57036 2
      vertex -30.6258 -9.29024 2
    endloop
  endfacet
  facet normal 0 0 1
    outer loop
      vertex -29.5678 -12.2474 2
      vertex -31.9654 1.57036 2
      vertex -30.1331 -10.7818 2
    endloop
  endfacet
  facet normal 0 0 1
    outer loop
      vertex -28.9312 -13.6834 2
      vertex -31.9654 1.57036 2
      vertex -29.5678 -12.2474 2
    endloop
  endfacet
  facet normal 0 0 1
    outer loop
      vertex -28.2249 -15.0865 2
      vertex -31.9654 1.57036 2
      vertex -28.9312 -13.6834 2
    endloop
  endfacet
  facet normal 0 0 1
    outer loop
      vertex -28 -15.4836 2
      vertex -31.9654 1.57036 2
      vertex -28.2249 -15.0865 2
    endloop
  endfacet
  facet normal 0 0 1
    outer loop
      vertex -28 15.4836 2
      vertex -31.9654 1.57036 2
      vertex -28 -15.4836 2
    endloop
  endfacet
  facet normal 0 -0 1
    outer loop
      vertex -28.2249 15.0865 2
      vertex -31.9654 1.57036 2
      vertex -28 15.4836 2
    endloop
  endfacet
  facet normal 0 -0 1
    outer loop
      vertex -28.9312 13.6834 2
      vertex -31.9654 1.57036 2
      vertex -28.2249 15.0865 2
    endloop
  endfacet
  facet normal 0 -0 1
    outer loop
      vertex -29.5678 12.2474 2
      vertex -31.9654 1.57036 2
      vertex -28.9312 13.6834 2
    endloop
  endfacet
  facet normal 0 -0 1
    outer loop
      vertex -30.1331 10.7818 2
      vertex -31.9654 1.57036 2
      vertex -29.5678 12.2474 2
    endloop
  endfacet
  facet normal 0 -0 1
    outer loop
      vertex -30.6258 9.29024 2
      vertex -31.9654 1.57036 2
      vertex -30.1331 10.7818 2
    endloop
  endfacet
  facet normal 0 -0 1
    outer loop
      vertex -31.0448 7.77631 2
      vertex -31.9654 1.57036 2
      vertex -30.6258 9.29024 2
    endloop
  endfacet
  facet normal 0 -0 1
    outer loop
      vertex -31.389 6.24365 2
      vertex -31.9654 1.57036 2
      vertex -31.0448 7.77631 2
    endloop
  endfacet
  facet normal 0 -0 1
    outer loop
      vertex -31.6575 4.69595 2
      vertex -31.9654 1.57036 2
      vertex -31.389 6.24365 2
    endloop
  endfacet
  facet normal 0 -0 1
    outer loop
      vertex -31.8498 3.13693 2
      vertex -31.9654 1.57036 2
      vertex -31.6575 4.69595 2
    endloop
  endfacet
  facet normal 0 -0 1
    outer loop
      vertex -26 -13.5 49.6
      vertex -28 -15.5 49.6
      vertex 28 -15.5 49.6
    endloop
  endfacet
  facet normal 0 -0 1
    outer loop
      vertex -28 15.5 49.6
      vertex -28 -15.5 49.6
      vertex -26 -13.5 49.6
    endloop
  endfacet
  facet normal 0 0 1
    outer loop
      vertex -26 13.5 49.6
      vertex 26 13.5 49.6
      vertex -28 15.5 49.6
    endloop
  endfacet
  facet normal 0 0 1
    outer loop
      vertex -28 15.5 49.6
      vertex -26 -13.5 49.6
      vertex -26 13.5 49.6
    endloop
  endfacet
  facet normal 0 0 1
    outer loop
      vertex 28 15.5 49.6
      vertex 26 13.5 49.6
      vertex 28 -15.5 49.6
    endloop
  endfacet
  facet normal 0 0 1
    outer loop
      vertex 28 15.5 49.6
      vertex -28 15.5 49.6
      vertex 26 13.5 49.6
    endloop
  endfacet
  facet normal 0 -0 1
    outer loop
      vertex 26 13.5 49.6
      vertex 26 -13.5 49.6
      vertex 28 -15.5 49.6
    endloop
  endfacet
  facet normal 0 -0 1
    outer loop
      vertex 26 -13.5 49.6
      vertex -26 -13.5 49.6
      vertex 28 -15.5 49.6
    endloop
  endfacet
  facet normal 0 0 1
    outer loop
      vertex 27.9907 -15.5 2
      vertex -27.9907 -15.5 2
      vertex -27.4507 -16.4533 2
    endloop
  endfacet
  facet normal 0 0 1
    outer loop
      vertex -25.7058 -19.0647 2
      vertex 27.9907 -15.5 2
      vertex -26.6103 -17.7804 2
    endloop
  endfacet
  facet normal 0 0 1
    outer loop
      vertex -26.6103 -17.7804 2
      vertex 27.9907 -15.5 2
      vertex -27.4507 -16.4533 2
    endloop
  endfacet
  facet normal 0 0 1
    outer loop
      vertex -24.7394 -20.3031 2
      vertex 27.9907 -15.5 2
      vertex -25.7058 -19.0647 2
    endloop
  endfacet
  facet normal 0 0 1
    outer loop
      vertex -23.7133 -21.4925 2
      vertex 27.9907 -15.5 2
      vertex -24.7394 -20.3031 2
    endloop
  endfacet
  facet normal 0 0 1
    outer loop
      vertex -22.6302 -22.6302 2
      vertex 27.9907 -15.5 2
      vertex -23.7133 -21.4925 2
    endloop
  endfacet
  facet normal 0 0 1
    outer loop
      vertex -21.4925 -23.7133 2
      vertex 27.9907 -15.5 2
      vertex -22.6302 -22.6302 2
    endloop
  endfacet
  facet normal 0 0 1
    outer loop
      vertex -20.3031 -24.7394 2
      vertex 27.9907 -15.5 2
      vertex -21.4925 -23.7133 2
    endloop
  endfacet
  facet normal 0 0 1
    outer loop
      vertex -19.0647 -25.7058 2
      vertex 27.9907 -15.5 2
      vertex -20.3031 -24.7394 2
    endloop
  endfacet
  facet normal 0 0 1
    outer loop
      vertex -17.7804 -26.6103 2
      vertex 27.9907 -15.5 2
      vertex -19.0647 -25.7058 2
    endloop
  endfacet
  facet normal 0 0 1
    outer loop
      vertex -16.4533 -27.4507 2
      vertex 27.9907 -15.5 2
      vertex -17.7804 -26.6103 2
    endloop
  endfacet
  facet normal 0 0 1
    outer loop
      vertex -15.0865 -28.2249 2
      vertex 27.9907 -15.5 2
      vertex -16.4533 -27.4507 2
    endloop
  endfacet
  facet normal 0 0 1
    outer loop
      vertex -13.6834 -28.9312 2
      vertex 27.9907 -15.5 2
      vertex -15.0865 -28.2249 2
    endloop
  endfacet
  facet normal 0 0 1
    outer loop
      vertex -12.2474 -29.5678 2
      vertex 27.9907 -15.5 2
      vertex -13.6834 -28.9312 2
    endloop
  endfacet
  facet normal 0 0 1
    outer loop
      vertex -10.7818 -30.1331 2
      vertex 27.9907 -15.5 2
      vertex -12.2474 -29.5678 2
    endloop
  endfacet
  facet normal 0 0 1
    outer loop
      vertex -9.29024 -30.6258 2
      vertex 27.9907 -15.5 2
      vertex -10.7818 -30.1331 2
    endloop
  endfacet
  facet normal 0 0 1
    outer loop
      vertex -7.77631 -31.0448 2
      vertex 27.9907 -15.5 2
      vertex -9.29024 -30.6258 2
    endloop
  endfacet
  facet normal 0 0 1
    outer loop
      vertex -6.24365 -31.389 2
      vertex 27.9907 -15.5 2
      vertex -7.77631 -31.0448 2
    endloop
  endfacet
  facet normal 0 0 1
    outer loop
      vertex -4.69595 -31.6575 2
      vertex 27.9907 -15.5 2
      vertex -6.24365 -31.389 2
    endloop
  endfacet
  facet normal 0 0 1
    outer loop
      vertex -3.13693 -31.8498 2
      vertex 27.9907 -15.5 2
      vertex -4.69595 -31.6575 2
    endloop
  endfacet
  facet normal 0 0 1
    outer loop
      vertex -1.57036 -31.9654 2
      vertex 27.9907 -15.5 2
      vertex -3.13693 -31.8498 2
    endloop
  endfacet
  facet normal 0 0 1
    outer loop
      vertex 0 -32.0039 2
      vertex 27.9907 -15.5 2
      vertex -1.57036 -31.9654 2
    endloop
  endfacet
  facet normal -0 0 1
    outer loop
      vertex 1.57036 -31.9654 2
      vertex 27.9907 -15.5 2
      vertex 0 -32.0039 2
    endloop
  endfacet
  facet normal -0 0 1
    outer loop
      vertex 3.13693 -31.8498 2
      vertex 27.9907 -15.5 2
      vertex 1.57036 -31.9654 2
    endloop
  endfacet
  facet normal -0 0 1
    outer loop
      vertex 4.69595 -31.6575 2
      vertex 27.9907 -15.5 2
      vertex 3.13693 -31.8498 2
    endloop
  endfacet
  facet normal -0 0 1
    outer loop
      vertex 6.24365 -31.389 2
      vertex 27.9907 -15.5 2
      vertex 4.69595 -31.6575 2
    endloop
  endfacet
  facet normal -0 0 1
    outer loop
      vertex 7.77631 -31.0448 2
      vertex 27.9907 -15.5 2
      vertex 6.24365 -31.389 2
    endloop
  endfacet
  facet normal -0 0 1
    outer loop
      vertex 9.29024 -30.6258 2
      vertex 27.9907 -15.5 2
      vertex 7.77631 -31.0448 2
    endloop
  endfacet
  facet normal -0 0 1
    outer loop
      vertex 10.7818 -30.1331 2
      vertex 27.9907 -15.5 2
      vertex 9.29024 -30.6258 2
    endloop
  endfacet
  facet normal -0 0 1
    outer loop
      vertex 12.2474 -29.5678 2
      vertex 27.9907 -15.5 2
      vertex 10.7818 -30.1331 2
    endloop
  endfacet
  facet normal -0 0 1
    outer loop
      vertex 13.6834 -28.9312 2
      vertex 27.9907 -15.5 2
      vertex 12.2474 -29.5678 2
    endloop
  endfacet
  facet normal -0 0 1
    outer loop
      vertex 15.0865 -28.2249 2
      vertex 27.9907 -15.5 2
      vertex 13.6834 -28.9312 2
    endloop
  endfacet
  facet normal -0 0 1
    outer loop
      vertex 16.4533 -27.4507 2
      vertex 27.9907 -15.5 2
      vertex 15.0865 -28.2249 2
    endloop
  endfacet
  facet normal -0 0 1
    outer loop
      vertex 17.7804 -26.6103 2
      vertex 27.9907 -15.5 2
      vertex 16.4533 -27.4507 2
    endloop
  endfacet
  facet normal -0 0 1
    outer loop
      vertex 19.0647 -25.7058 2
      vertex 27.9907 -15.5 2
      vertex 17.7804 -26.6103 2
    endloop
  endfacet
  facet normal -0 0 1
    outer loop
      vertex 20.3031 -24.7394 2
      vertex 27.9907 -15.5 2
      vertex 19.0647 -25.7058 2
    endloop
  endfacet
  facet normal -0 0 1
    outer loop
      vertex 21.4925 -23.7133 2
      vertex 27.9907 -15.5 2
      vertex 20.3031 -24.7394 2
    endloop
  endfacet
  facet normal -0 0 1
    outer loop
      vertex 22.6302 -22.6302 2
      vertex 27.9907 -15.5 2
      vertex 21.4925 -23.7133 2
    endloop
  endfacet
  facet normal -0 0 1
    outer loop
      vertex 23.7133 -21.4925 2
      vertex 27.9907 -15.5 2
      vertex 22.6302 -22.6302 2
    endloop
  endfacet
  facet normal -0 0 1
    outer loop
      vertex 24.7394 -20.3031 2
      vertex 27.9907 -15.5 2
      vertex 23.7133 -21.4925 2
    endloop
  endfacet
  facet normal -0 0 1
    outer loop
      vertex 25.7058 -19.0647 2
      vertex 27.9907 -15.5 2
      vertex 24.7394 -20.3031 2
    endloop
  endfacet
  facet normal -0 0 1
    outer loop
      vertex 26.6103 -17.7804 2
      vertex 27.9907 -15.5 2
      vertex 25.7058 -19.0647 2
    endloop
  endfacet
  facet normal -0 0 1
    outer loop
      vertex 27.4507 -16.4533 2
      vertex 27.9907 -15.5 2
      vertex 26.6103 -17.7804 2
    endloop
  endfacet
  facet normal 0 -0 1
    outer loop
      vertex 28 15.4836 2
      vertex 28 -15.4836 2
      vertex 28.2249 -15.0865 2
    endloop
  endfacet
  facet normal -0 0 1
    outer loop
      vertex 29.5678 -12.2474 2
      vertex 28 15.4836 2
      vertex 28.9312 -13.6834 2
    endloop
  endfacet
  facet normal -0 0 1
    outer loop
      vertex 28.9312 -13.6834 2
      vertex 28 15.4836 2
      vertex 28.2249 -15.0865 2
    endloop
  endfacet
  facet normal -0 0 1
    outer loop
      vertex 30.1331 -10.7818 2
      vertex 28 15.4836 2
      vertex 29.5678 -12.2474 2
    endloop
  endfacet
  facet normal -0 0 1
    outer loop
      vertex 30.6258 -9.29024 2
      vertex 28 15.4836 2
      vertex 30.1331 -10.7818 2
    endloop
  endfacet
  facet normal -0 0 1
    outer loop
      vertex 31.0448 -7.77631 2
      vertex 28 15.4836 2
      vertex 30.6258 -9.29024 2
    endloop
  endfacet
  facet normal -0 0 1
    outer loop
      vertex 31.389 -6.24365 2
      vertex 28 15.4836 2
      vertex 31.0448 -7.77631 2
    endloop
  endfacet
  facet normal -0 0 1
    outer loop
      vertex 31.6575 -4.69595 2
      vertex 28 15.4836 2
      vertex 31.389 -6.24365 2
    endloop
  endfacet
  facet normal -0 0 1
    outer loop
      vertex 31.8498 -3.13693 2
      vertex 28 15.4836 2
      vertex 31.6575 -4.69595 2
    endloop
  endfacet
  facet normal -0 0 1
    outer loop
      vertex 31.9654 -1.57036 2
      vertex 28 15.4836 2
      vertex 31.8498 -3.13693 2
    endloop
  endfacet
  facet normal -0 0 1
    outer loop
      vertex 32.0039 0 2
      vertex 28 15.4836 2
      vertex 31.9654 -1.57036 2
    endloop
  endfacet
  facet normal -0 -0 1
    outer loop
      vertex 31.9654 1.57036 2
      vertex 28 15.4836 2
      vertex 32.0039 0 2
    endloop
  endfacet
  facet normal -0 -0 1
    outer loop
      vertex 31.8498 3.13693 2
      vertex 28 15.4836 2
      vertex 31.9654 1.57036 2
    endloop
  endfacet
  facet normal -0 -0 1
    outer loop
      vertex 31.6575 4.69595 2
      vertex 28 15.4836 2
      vertex 31.8498 3.13693 2
    endloop
  endfacet
  facet normal -0 -0 1
    outer loop
      vertex 31.389 6.24365 2
      vertex 28 15.4836 2
      vertex 31.6575 4.69595 2
    endloop
  endfacet
  facet normal -0 -0 1
    outer loop
      vertex 31.0448 7.77631 2
      vertex 28 15.4836 2
      vertex 31.389 6.24365 2
    endloop
  endfacet
  facet normal -0 -0 1
    outer loop
      vertex 30.6258 9.29024 2
      vertex 28 15.4836 2
      vertex 31.0448 7.77631 2
    endloop
  endfacet
  facet normal -0 -0 1
    outer loop
      vertex 30.1331 10.7818 2
      vertex 28 15.4836 2
      vertex 30.6258 9.29024 2
    endloop
  endfacet
  facet normal -0 -0 1
    outer loop
      vertex 29.5678 12.2474 2
      vertex 28 15.4836 2
      vertex 30.1331 10.7818 2
    endloop
  endfacet
  facet normal -0 -0 1
    outer loop
      vertex 28.9312 13.6834 2
      vertex 28 15.4836 2
      vertex 29.5678 12.2474 2
    endloop
  endfacet
  facet normal -0 -0 1
    outer loop
      vertex 28.2249 15.0865 2
      vertex 28 15.4836 2
      vertex 28.9312 13.6834 2
    endloop
  endfacet
  facet normal 0 -0 1
    outer loop
      vertex -27.4507 16.4533 2
      vertex -27.9907 15.5 2
      vertex 27.9907 15.5 2
    endloop
  endfacet
  facet normal 0 -0 1
    outer loop
      vertex 26.6103 17.7804 2
      vertex -27.4507 16.4533 2
      vertex 27.4507 16.4533 2
    endloop
  endfacet
  facet normal 0 -0 1
    outer loop
      vertex 27.4507 16.4533 2
      vertex -27.4507 16.4533 2
      vertex 27.9907 15.5 2
    endloop
  endfacet
  facet normal 0 -0 1
    outer loop
      vertex 25.7058 19.0647 2
      vertex -27.4507 16.4533 2
      vertex 26.6103 17.7804 2
    endloop
  endfacet
  facet normal 0 -0 1
    outer loop
      vertex 24.7394 20.3031 2
      vertex -27.4507 16.4533 2
      vertex 25.7058 19.0647 2
    endloop
  endfacet
  facet normal 0 -0 1
    outer loop
      vertex 23.7133 21.4925 2
      vertex -27.4507 16.4533 2
      vertex 24.7394 20.3031 2
    endloop
  endfacet
  facet normal 0 -0 1
    outer loop
      vertex 22.6302 22.6302 2
      vertex -27.4507 16.4533 2
      vertex 23.7133 21.4925 2
    endloop
  endfacet
  facet normal 0 -0 1
    outer loop
      vertex 21.4925 23.7133 2
      vertex -27.4507 16.4533 2
      vertex 22.6302 22.6302 2
    endloop
  endfacet
  facet normal 0 -0 1
    outer loop
      vertex 20.3031 24.7394 2
      vertex -27.4507 16.4533 2
      vertex 21.4925 23.7133 2
    endloop
  endfacet
  facet normal 0 -0 1
    outer loop
      vertex 19.0647 25.7058 2
      vertex -27.4507 16.4533 2
      vertex 20.3031 24.7394 2
    endloop
  endfacet
  facet normal 0 -0 1
    outer loop
      vertex 17.7804 26.6103 2
      vertex -27.4507 16.4533 2
      vertex 19.0647 25.7058 2
    endloop
  endfacet
  facet normal 0 -0 1
    outer loop
      vertex 16.4533 27.4507 2
      vertex -27.4507 16.4533 2
      vertex 17.7804 26.6103 2
    endloop
  endfacet
  facet normal 0 -0 1
    outer loop
      vertex 15.0865 28.2249 2
      vertex -27.4507 16.4533 2
      vertex 16.4533 27.4507 2
    endloop
  endfacet
  facet normal 0 -0 1
    outer loop
      vertex 13.6834 28.9312 2
      vertex -27.4507 16.4533 2
      vertex 15.0865 28.2249 2
    endloop
  endfacet
  facet normal 0 -0 1
    outer loop
      vertex 12.2474 29.5678 2
      vertex -27.4507 16.4533 2
      vertex 13.6834 28.9312 2
    endloop
  endfacet
  facet normal 0 -0 1
    outer loop
      vertex 10.7818 30.1331 2
      vertex -27.4507 16.4533 2
      vertex 12.2474 29.5678 2
    endloop
  endfacet
  facet normal 0 -0 1
    outer loop
      vertex 9.29024 30.6258 2
      vertex -27.4507 16.4533 2
      vertex 10.7818 30.1331 2
    endloop
  endfacet
  facet normal 0 -0 1
    outer loop
      vertex 7.77631 31.0448 2
      vertex -27.4507 16.4533 2
      vertex 9.29024 30.6258 2
    endloop
  endfacet
  facet normal 0 -0 1
    outer loop
      vertex 6.24365 31.389 2
      vertex -27.4507 16.4533 2
      vertex 7.77631 31.0448 2
    endloop
  endfacet
  facet normal 0 -0 1
    outer loop
      vertex 4.69595 31.6575 2
      vertex -27.4507 16.4533 2
      vertex 6.24365 31.389 2
    endloop
  endfacet
  facet normal 0 -0 1
    outer loop
      vertex 3.13693 31.8498 2
      vertex -27.4507 16.4533 2
      vertex 4.69595 31.6575 2
    endloop
  endfacet
  facet normal 0 -0 1
    outer loop
      vertex 1.57036 31.9654 2
      vertex -27.4507 16.4533 2
      vertex 3.13693 31.8498 2
    endloop
  endfacet
  facet normal 0 -0 1
    outer loop
      vertex 0 32.0039 2
      vertex -27.4507 16.4533 2
      vertex 1.57036 31.9654 2
    endloop
  endfacet
  facet normal 0 -0 1
    outer loop
      vertex -1.57036 31.9654 2
      vertex -27.4507 16.4533 2
      vertex 0 32.0039 2
    endloop
  endfacet
  facet normal 0 -0 1
    outer loop
      vertex -3.13693 31.8498 2
      vertex -27.4507 16.4533 2
      vertex -1.57036 31.9654 2
    endloop
  endfacet
  facet normal 0 -0 1
    outer loop
      vertex -4.69595 31.6575 2
      vertex -27.4507 16.4533 2
      vertex -3.13693 31.8498 2
    endloop
  endfacet
  facet normal 0 -0 1
    outer loop
      vertex -6.24365 31.389 2
      vertex -27.4507 16.4533 2
      vertex -4.69595 31.6575 2
    endloop
  endfacet
  facet normal 0 -0 1
    outer loop
      vertex -7.77631 31.0448 2
      vertex -27.4507 16.4533 2
      vertex -6.24365 31.389 2
    endloop
  endfacet
  facet normal 0 -0 1
    outer loop
      vertex -9.29024 30.6258 2
      vertex -27.4507 16.4533 2
      vertex -7.77631 31.0448 2
    endloop
  endfacet
  facet normal 0 -0 1
    outer loop
      vertex -10.7818 30.1331 2
      vertex -27.4507 16.4533 2
      vertex -9.29024 30.6258 2
    endloop
  endfacet
  facet normal 0 -0 1
    outer loop
      vertex -12.2474 29.5678 2
      vertex -27.4507 16.4533 2
      vertex -10.7818 30.1331 2
    endloop
  endfacet
  facet normal 0 -0 1
    outer loop
      vertex -13.6834 28.9312 2
      vertex -27.4507 16.4533 2
      vertex -12.2474 29.5678 2
    endloop
  endfacet
  facet normal 0 -0 1
    outer loop
      vertex -15.0865 28.2249 2
      vertex -27.4507 16.4533 2
      vertex -13.6834 28.9312 2
    endloop
  endfacet
  facet normal 0 -0 1
    outer loop
      vertex -16.4533 27.4507 2
      vertex -27.4507 16.4533 2
      vertex -15.0865 28.2249 2
    endloop
  endfacet
  facet normal 0 -0 1
    outer loop
      vertex -17.7804 26.6103 2
      vertex -27.4507 16.4533 2
      vertex -16.4533 27.4507 2
    endloop
  endfacet
  facet normal 0 -0 1
    outer loop
      vertex -19.0647 25.7058 2
      vertex -27.4507 16.4533 2
      vertex -17.7804 26.6103 2
    endloop
  endfacet
  facet normal 0 -0 1
    outer loop
      vertex -20.3031 24.7394 2
      vertex -27.4507 16.4533 2
      vertex -19.0647 25.7058 2
    endloop
  endfacet
  facet normal 0 -0 1
    outer loop
      vertex -21.4925 23.7133 2
      vertex -27.4507 16.4533 2
      vertex -20.3031 24.7394 2
    endloop
  endfacet
  facet normal 0 -0 1
    outer loop
      vertex -22.6302 22.6302 2
      vertex -27.4507 16.4533 2
      vertex -21.4925 23.7133 2
    endloop
  endfacet
  facet normal 0 -0 1
    outer loop
      vertex -23.7133 21.4925 2
      vertex -27.4507 16.4533 2
      vertex -22.6302 22.6302 2
    endloop
  endfacet
  facet normal 0 -0 1
    outer loop
      vertex -24.7394 20.3031 2
      vertex -27.4507 16.4533 2
      vertex -23.7133 21.4925 2
    endloop
  endfacet
  facet normal 0 -0 1
    outer loop
      vertex -25.7058 19.0647 2
      vertex -27.4507 16.4533 2
      vertex -24.7394 20.3031 2
    endloop
  endfacet
  facet normal 0 -0 1
    outer loop
      vertex -26.6103 17.7804 2
      vertex -27.4507 16.4533 2
      vertex -25.7058 19.0647 2
    endloop
  endfacet
endsolid OpenSCAD_Model
