solid OpenSCAD_Model
  facet normal 1 -0 0
    outer loop
      vertex 132.5 -95 1.5
      vertex 132.5 95 -1.5
      vertex 132.5 95 1.5
    endloop
  endfacet
  facet normal 1 0 0
    outer loop
      vertex 132.5 95 -1.5
      vertex 132.5 -95 1.5
      vertex 132.5 -95 -1.5
    endloop
  endfacet
  facet normal 0 0 1
    outer loop
      vertex -1.95 -75.7892 1.5
      vertex 0 -81.4183 1.5
      vertex 0 -76.915 1.5
    endloop
  endfacet
  facet normal 0 0 1
    outer loop
      vertex 0 -81.4183 1.5
      vertex -1.95 -75.7892 1.5
      vertex -1.95 -82.5442 1.5
    endloop
  endfacet
  facet normal 0 0 1
    outer loop
      vertex -1.95 -44.1225 1.5
      vertex 0 -49.7517 1.5
      vertex 0 -45.2483 1.5
    endloop
  endfacet
  facet normal 0 0 1
    outer loop
      vertex 0 -49.7517 1.5
      vertex -1.95 -44.1225 1.5
      vertex -1.95 -50.8775 1.5
    endloop
  endfacet
  facet normal 0 0 1
    outer loop
      vertex -1.95 -12.4558 1.5
      vertex 0 -18.085 1.5
      vertex 0 -13.5817 1.5
    endloop
  endfacet
  facet normal 0 0 1
    outer loop
      vertex 0 -18.085 1.5
      vertex -1.95 -12.4558 1.5
      vertex -1.95 -19.2108 1.5
    endloop
  endfacet
  facet normal 0 0 1
    outer loop
      vertex -1.95 3.3775 1.5
      vertex 0 -2.25167 1.5
      vertex 0 2.25167 1.5
    endloop
  endfacet
  facet normal 0 0 1
    outer loop
      vertex 0 -2.25167 1.5
      vertex -1.95 3.3775 1.5
      vertex -1.95 -3.3775 1.5
    endloop
  endfacet
  facet normal 0 0 1
    outer loop
      vertex -1.95 19.2108 1.5
      vertex 0 13.5817 1.5
      vertex 0 18.085 1.5
    endloop
  endfacet
  facet normal 0 0 1
    outer loop
      vertex 0 13.5817 1.5
      vertex -1.95 19.2108 1.5
      vertex -1.95 12.4558 1.5
    endloop
  endfacet
  facet normal 0 0 1
    outer loop
      vertex -1.95 50.8775 1.5
      vertex 0 45.2483 1.5
      vertex 0 49.7517 1.5
    endloop
  endfacet
  facet normal 0 0 1
    outer loop
      vertex 0 45.2483 1.5
      vertex -1.95 50.8775 1.5
      vertex -1.95 44.1225 1.5
    endloop
  endfacet
  facet normal 0 0 1
    outer loop
      vertex -1.95 82.5442 1.5
      vertex 0 76.915 1.5
      vertex 0 81.4183 1.5
    endloop
  endfacet
  facet normal 0 0 1
    outer loop
      vertex 0 76.915 1.5
      vertex -1.95 82.5442 1.5
      vertex -1.95 75.7892 1.5
    endloop
  endfacet
  facet normal 0 0 1
    outer loop
      vertex 0 2.25167 1.5
      vertex 121 5.75 1.5
      vertex 0 5.75 1.5
    endloop
  endfacet
  facet normal 0 0 1
    outer loop
      vertex 121 5.75 1.5
      vertex 0 2.25167 1.5
      vertex 121 -5.75 1.5
    endloop
  endfacet
  facet normal -0 0 1
    outer loop
      vertex 0 -2.25167 1.5
      vertex 121 -5.75 1.5
      vertex 0 2.25167 1.5
    endloop
  endfacet
  facet normal 0 0 1
    outer loop
      vertex 121 -5.75 1.5
      vertex 0 -2.25167 1.5
      vertex 0 -5.75 1.5
    endloop
  endfacet
  facet normal 0 0 1
    outer loop
      vertex 121 5.75 1.5
      vertex 132.5 95 1.5
      vertex 121 6.25 1.5
    endloop
  endfacet
  facet normal 0 0 1
    outer loop
      vertex 0 81.4183 1.5
      vertex 132.5 95 1.5
      vertex 0 95 1.5
    endloop
  endfacet
  facet normal 0 0 1
    outer loop
      vertex 0 76.915 1.5
      vertex 132.5 95 1.5
      vertex 0 81.4183 1.5
    endloop
  endfacet
  facet normal 0 0 1
    outer loop
      vertex 0 49.7517 1.5
      vertex 132.5 95 1.5
      vertex 0 76.915 1.5
    endloop
  endfacet
  facet normal 0 0 1
    outer loop
      vertex 132.5 95 1.5
      vertex 0 49.7517 1.5
      vertex 121 6.25 1.5
    endloop
  endfacet
  facet normal -0 0 1
    outer loop
      vertex 0 45.2483 1.5
      vertex 121 6.25 1.5
      vertex 0 49.7517 1.5
    endloop
  endfacet
  facet normal -0 0 1
    outer loop
      vertex 0 18.085 1.5
      vertex 121 6.25 1.5
      vertex 0 45.2483 1.5
    endloop
  endfacet
  facet normal -0 0 1
    outer loop
      vertex 0 13.5817 1.5
      vertex 121 6.25 1.5
      vertex 0 18.085 1.5
    endloop
  endfacet
  facet normal 0 0 1
    outer loop
      vertex 121 6.25 1.5
      vertex 0 13.5817 1.5
      vertex 0 6.25 1.5
    endloop
  endfacet
  facet normal 0 0 1
    outer loop
      vertex 132.5 95 1.5
      vertex 121 5.75 1.5
      vertex 132.5 -95 1.5
    endloop
  endfacet
  facet normal -0 0 1
    outer loop
      vertex 121 -5.75 1.5
      vertex 132.5 -95 1.5
      vertex 121 5.75 1.5
    endloop
  endfacet
  facet normal -0 0 1
    outer loop
      vertex 121 -6.25 1.5
      vertex 132.5 -95 1.5
      vertex 121 -5.75 1.5
    endloop
  endfacet
  facet normal 0 0 1
    outer loop
      vertex 0 -13.5817 1.5
      vertex 121 -6.25 1.5
      vertex 0 -6.25 1.5
    endloop
  endfacet
  facet normal 0 0 1
    outer loop
      vertex 0 -18.085 1.5
      vertex 121 -6.25 1.5
      vertex 0 -13.5817 1.5
    endloop
  endfacet
  facet normal 0 0 1
    outer loop
      vertex 0 -45.2483 1.5
      vertex 121 -6.25 1.5
      vertex 0 -18.085 1.5
    endloop
  endfacet
  facet normal 0 0 1
    outer loop
      vertex 0 -49.7517 1.5
      vertex 121 -6.25 1.5
      vertex 0 -45.2483 1.5
    endloop
  endfacet
  facet normal 0 0 1
    outer loop
      vertex 121 -6.25 1.5
      vertex 0 -49.7517 1.5
      vertex 132.5 -95 1.5
    endloop
  endfacet
  facet normal -0 0 1
    outer loop
      vertex 0 -76.915 1.5
      vertex 132.5 -95 1.5
      vertex 0 -49.7517 1.5
    endloop
  endfacet
  facet normal -0 0 1
    outer loop
      vertex 0 -81.4183 1.5
      vertex 132.5 -95 1.5
      vertex 0 -76.915 1.5
    endloop
  endfacet
  facet normal 0 0 1
    outer loop
      vertex 132.5 -95 1.5
      vertex 0 -81.4183 1.5
      vertex 0 -95 1.5
    endloop
  endfacet
  facet normal 0 0 -1
    outer loop
      vertex -1.95 75.7892 -1.5
      vertex 0 81.4183 -1.5
      vertex 0 76.915 -1.5
    endloop
  endfacet
  facet normal -0 0 -1
    outer loop
      vertex 0 81.4183 -1.5
      vertex -1.95 75.7892 -1.5
      vertex -1.95 82.5442 -1.5
    endloop
  endfacet
  facet normal 0 0 -1
    outer loop
      vertex -1.95 44.1225 -1.5
      vertex 0 49.7517 -1.5
      vertex 0 45.2483 -1.5
    endloop
  endfacet
  facet normal -0 0 -1
    outer loop
      vertex 0 49.7517 -1.5
      vertex -1.95 44.1225 -1.5
      vertex -1.95 50.8775 -1.5
    endloop
  endfacet
  facet normal 0 0 -1
    outer loop
      vertex -1.95 12.4558 -1.5
      vertex 0 18.085 -1.5
      vertex 0 13.5817 -1.5
    endloop
  endfacet
  facet normal -0 0 -1
    outer loop
      vertex 0 18.085 -1.5
      vertex -1.95 12.4558 -1.5
      vertex -1.95 19.2108 -1.5
    endloop
  endfacet
  facet normal 0 0 -1
    outer loop
      vertex -1.95 -3.3775 -1.5
      vertex 0 2.25167 -1.5
      vertex 0 -2.25167 -1.5
    endloop
  endfacet
  facet normal -0 0 -1
    outer loop
      vertex 0 2.25167 -1.5
      vertex -1.95 -3.3775 -1.5
      vertex -1.95 3.3775 -1.5
    endloop
  endfacet
  facet normal 0 0 -1
    outer loop
      vertex -1.95 -19.2108 -1.5
      vertex 0 -13.5817 -1.5
      vertex 0 -18.085 -1.5
    endloop
  endfacet
  facet normal -0 0 -1
    outer loop
      vertex 0 -13.5817 -1.5
      vertex -1.95 -19.2108 -1.5
      vertex -1.95 -12.4558 -1.5
    endloop
  endfacet
  facet normal 0 0 -1
    outer loop
      vertex -1.95 -50.8775 -1.5
      vertex 0 -45.2483 -1.5
      vertex 0 -49.7517 -1.5
    endloop
  endfacet
  facet normal -0 0 -1
    outer loop
      vertex 0 -45.2483 -1.5
      vertex -1.95 -50.8775 -1.5
      vertex -1.95 -44.1225 -1.5
    endloop
  endfacet
  facet normal 0 0 -1
    outer loop
      vertex -1.95 -82.5442 -1.5
      vertex 0 -76.915 -1.5
      vertex 0 -81.4183 -1.5
    endloop
  endfacet
  facet normal -0 0 -1
    outer loop
      vertex 0 -76.915 -1.5
      vertex -1.95 -82.5442 -1.5
      vertex -1.95 -75.7892 -1.5
    endloop
  endfacet
  facet normal 0 0 -1
    outer loop
      vertex 0 -2.25167 -1.5
      vertex 121 -5.75 -1.5
      vertex 0 -5.75 -1.5
    endloop
  endfacet
  facet normal 0 0 -1
    outer loop
      vertex 121 -5.75 -1.5
      vertex 0 -2.25167 -1.5
      vertex 121 5.75 -1.5
    endloop
  endfacet
  facet normal 0 0 -1
    outer loop
      vertex 0 2.25167 -1.5
      vertex 121 5.75 -1.5
      vertex 0 -2.25167 -1.5
    endloop
  endfacet
  facet normal -0 0 -1
    outer loop
      vertex 121 5.75 -1.5
      vertex 0 2.25167 -1.5
      vertex 0 5.75 -1.5
    endloop
  endfacet
  facet normal 0 0 -1
    outer loop
      vertex 121 -5.75 -1.5
      vertex 132.5 -95 -1.5
      vertex 121 -6.25 -1.5
    endloop
  endfacet
  facet normal 0 0 -1
    outer loop
      vertex 0 -81.4183 -1.5
      vertex 132.5 -95 -1.5
      vertex 0 -95 -1.5
    endloop
  endfacet
  facet normal 0 0 -1
    outer loop
      vertex 0 -76.915 -1.5
      vertex 132.5 -95 -1.5
      vertex 0 -81.4183 -1.5
    endloop
  endfacet
  facet normal 0 0 -1
    outer loop
      vertex 0 -49.7517 -1.5
      vertex 132.5 -95 -1.5
      vertex 0 -76.915 -1.5
    endloop
  endfacet
  facet normal 0 0 -1
    outer loop
      vertex 132.5 -95 -1.5
      vertex 0 -49.7517 -1.5
      vertex 121 -6.25 -1.5
    endloop
  endfacet
  facet normal 0 0 -1
    outer loop
      vertex 0 -45.2483 -1.5
      vertex 121 -6.25 -1.5
      vertex 0 -49.7517 -1.5
    endloop
  endfacet
  facet normal 0 0 -1
    outer loop
      vertex 0 -18.085 -1.5
      vertex 121 -6.25 -1.5
      vertex 0 -45.2483 -1.5
    endloop
  endfacet
  facet normal 0 0 -1
    outer loop
      vertex 0 -13.5817 -1.5
      vertex 121 -6.25 -1.5
      vertex 0 -18.085 -1.5
    endloop
  endfacet
  facet normal -0 0 -1
    outer loop
      vertex 121 -6.25 -1.5
      vertex 0 -13.5817 -1.5
      vertex 0 -6.25 -1.5
    endloop
  endfacet
  facet normal 0 0 -1
    outer loop
      vertex 132.5 -95 -1.5
      vertex 121 -5.75 -1.5
      vertex 132.5 95 -1.5
    endloop
  endfacet
  facet normal 0 0 -1
    outer loop
      vertex 121 5.75 -1.5
      vertex 132.5 95 -1.5
      vertex 121 -5.75 -1.5
    endloop
  endfacet
  facet normal 0 0 -1
    outer loop
      vertex 121 6.25 -1.5
      vertex 132.5 95 -1.5
      vertex 121 5.75 -1.5
    endloop
  endfacet
  facet normal 0 0 -1
    outer loop
      vertex 0 13.5817 -1.5
      vertex 121 6.25 -1.5
      vertex 0 6.25 -1.5
    endloop
  endfacet
  facet normal 0 0 -1
    outer loop
      vertex 0 18.085 -1.5
      vertex 121 6.25 -1.5
      vertex 0 13.5817 -1.5
    endloop
  endfacet
  facet normal 0 0 -1
    outer loop
      vertex 0 45.2483 -1.5
      vertex 121 6.25 -1.5
      vertex 0 18.085 -1.5
    endloop
  endfacet
  facet normal 0 0 -1
    outer loop
      vertex 0 49.7517 -1.5
      vertex 121 6.25 -1.5
      vertex 0 45.2483 -1.5
    endloop
  endfacet
  facet normal 0 0 -1
    outer loop
      vertex 121 6.25 -1.5
      vertex 0 49.7517 -1.5
      vertex 132.5 95 -1.5
    endloop
  endfacet
  facet normal 0 0 -1
    outer loop
      vertex 0 76.915 -1.5
      vertex 132.5 95 -1.5
      vertex 0 49.7517 -1.5
    endloop
  endfacet
  facet normal 0 0 -1
    outer loop
      vertex 0 81.4183 -1.5
      vertex 132.5 95 -1.5
      vertex 0 76.915 -1.5
    endloop
  endfacet
  facet normal -0 0 -1
    outer loop
      vertex 132.5 95 -1.5
      vertex 0 81.4183 -1.5
      vertex 0 95 -1.5
    endloop
  endfacet
  facet normal 0 1 -0
    outer loop
      vertex 132.5 95 -1.5
      vertex 0 95 1.5
      vertex 132.5 95 1.5
    endloop
  endfacet
  facet normal 0 1 0
    outer loop
      vertex 0 95 1.5
      vertex 132.5 95 -1.5
      vertex 0 95 -1.5
    endloop
  endfacet
  facet normal 0 -1 0
    outer loop
      vertex 0 -95 -1.5
      vertex 132.5 -95 1.5
      vertex 0 -95 1.5
    endloop
  endfacet
  facet normal 0 -1 -0
    outer loop
      vertex 132.5 -95 1.5
      vertex 0 -95 -1.5
      vertex 132.5 -95 -1.5
    endloop
  endfacet
  facet normal -1 0 0
    outer loop
      vertex 121 -6.25 -1.5
      vertex 121 -5.75 1.5
      vertex 121 -5.75 -1.5
    endloop
  endfacet
  facet normal -1 -0 0
    outer loop
      vertex 121 -5.75 1.5
      vertex 121 -6.25 -1.5
      vertex 121 -6.25 1.5
    endloop
  endfacet
  facet normal 0 -1 0
    outer loop
      vertex 0 -5.75 -1.5
      vertex 121 -5.75 1.5
      vertex 0 -5.75 1.5
    endloop
  endfacet
  facet normal 0 -1 -0
    outer loop
      vertex 121 -5.75 1.5
      vertex 0 -5.75 -1.5
      vertex 121 -5.75 -1.5
    endloop
  endfacet
  facet normal 0 1 -0
    outer loop
      vertex 121 -6.25 -1.5
      vertex 0 -6.25 1.5
      vertex 121 -6.25 1.5
    endloop
  endfacet
  facet normal 0 1 0
    outer loop
      vertex 0 -6.25 1.5
      vertex 121 -6.25 -1.5
      vertex 0 -6.25 -1.5
    endloop
  endfacet
  facet normal -1 0 0
    outer loop
      vertex 121 5.75 -1.5
      vertex 121 6.25 1.5
      vertex 121 6.25 -1.5
    endloop
  endfacet
  facet normal -1 -0 0
    outer loop
      vertex 121 6.25 1.5
      vertex 121 5.75 -1.5
      vertex 121 5.75 1.5
    endloop
  endfacet
  facet normal 0 -1 0
    outer loop
      vertex 0 6.25 -1.5
      vertex 121 6.25 1.5
      vertex 0 6.25 1.5
    endloop
  endfacet
  facet normal 0 -1 -0
    outer loop
      vertex 121 6.25 1.5
      vertex 0 6.25 -1.5
      vertex 121 6.25 -1.5
    endloop
  endfacet
  facet normal 0 1 -0
    outer loop
      vertex 121 5.75 -1.5
      vertex 0 5.75 1.5
      vertex 121 5.75 1.5
    endloop
  endfacet
  facet normal 0 1 0
    outer loop
      vertex 0 5.75 1.5
      vertex 121 5.75 -1.5
      vertex 0 5.75 -1.5
    endloop
  endfacet
  facet normal -1 0 0
    outer loop
      vertex 0 81.4183 -1.5
      vertex 0 95 1.5
      vertex 0 95 -1.5
    endloop
  endfacet
  facet normal -1 -0 0
    outer loop
      vertex 0 95 1.5
      vertex 0 81.4183 -1.5
      vertex 0 81.4183 1.5
    endloop
  endfacet
  facet normal -1 0 0
    outer loop
      vertex 0 -95 -1.5
      vertex 0 -81.4183 1.5
      vertex 0 -81.4183 -1.5
    endloop
  endfacet
  facet normal -1 -0 0
    outer loop
      vertex 0 -81.4183 1.5
      vertex 0 -95 -1.5
      vertex 0 -95 1.5
    endloop
  endfacet
  facet normal -1 0 0
    outer loop
      vertex 0 -13.5817 -1.5
      vertex 0 -6.25 1.5
      vertex 0 -6.25 -1.5
    endloop
  endfacet
  facet normal -1 -0 0
    outer loop
      vertex 0 -6.25 1.5
      vertex 0 -13.5817 -1.5
      vertex 0 -13.5817 1.5
    endloop
  endfacet
  facet normal -1 0 0
    outer loop
      vertex 0 -5.75 -1.5
      vertex 0 -2.25167 1.5
      vertex 0 -2.25167 -1.5
    endloop
  endfacet
  facet normal -1 -0 0
    outer loop
      vertex 0 -2.25167 1.5
      vertex 0 -5.75 -1.5
      vertex 0 -5.75 1.5
    endloop
  endfacet
  facet normal -1 0 0
    outer loop
      vertex 0 6.25 -1.5
      vertex 0 13.5817 1.5
      vertex 0 13.5817 -1.5
    endloop
  endfacet
  facet normal -1 -0 0
    outer loop
      vertex 0 13.5817 1.5
      vertex 0 6.25 -1.5
      vertex 0 6.25 1.5
    endloop
  endfacet
  facet normal -1 0 0
    outer loop
      vertex 0 2.25167 -1.5
      vertex 0 5.75 1.5
      vertex 0 5.75 -1.5
    endloop
  endfacet
  facet normal -1 -0 0
    outer loop
      vertex 0 5.75 1.5
      vertex 0 2.25167 -1.5
      vertex 0 2.25167 1.5
    endloop
  endfacet
  facet normal -1 0 0
    outer loop
      vertex 0 -45.2483 -1.5
      vertex 0 -18.085 1.5
      vertex 0 -18.085 -1.5
    endloop
  endfacet
  facet normal -1 -0 0
    outer loop
      vertex 0 -18.085 1.5
      vertex 0 -45.2483 -1.5
      vertex 0 -45.2483 1.5
    endloop
  endfacet
  facet normal -1 0 0
    outer loop
      vertex 0 -76.915 -1.5
      vertex 0 -49.7517 1.5
      vertex 0 -49.7517 -1.5
    endloop
  endfacet
  facet normal -1 -0 0
    outer loop
      vertex 0 -49.7517 1.5
      vertex 0 -76.915 -1.5
      vertex 0 -76.915 1.5
    endloop
  endfacet
  facet normal -1 0 0
    outer loop
      vertex 0 49.7517 -1.5
      vertex 0 76.915 1.5
      vertex 0 76.915 -1.5
    endloop
  endfacet
  facet normal -1 -0 0
    outer loop
      vertex 0 76.915 1.5
      vertex 0 49.7517 -1.5
      vertex 0 49.7517 1.5
    endloop
  endfacet
  facet normal -1 0 0
    outer loop
      vertex 0 18.085 -1.5
      vertex 0 45.2483 1.5
      vertex 0 45.2483 -1.5
    endloop
  endfacet
  facet normal -1 -0 0
    outer loop
      vertex 0 45.2483 1.5
      vertex 0 18.085 -1.5
      vertex 0 18.085 1.5
    endloop
  endfacet
  facet normal -1 0 0
    outer loop
      vertex -1.95 -3.3775 -1.5
      vertex -1.95 3.3775 1.5
      vertex -1.95 3.3775 -1.5
    endloop
  endfacet
  facet normal -1 -0 0
    outer loop
      vertex -1.95 3.3775 1.5
      vertex -1.95 -3.3775 -1.5
      vertex -1.95 -3.3775 1.5
    endloop
  endfacet
  facet normal 0.499999 0.866026 -0
    outer loop
      vertex 0 2.25167 -1.5
      vertex -1.95 3.3775 1.5
      vertex 0 2.25167 1.5
    endloop
  endfacet
  facet normal 0.499999 0.866026 0
    outer loop
      vertex -1.95 3.3775 1.5
      vertex 0 2.25167 -1.5
      vertex -1.95 3.3775 -1.5
    endloop
  endfacet
  facet normal 0.499999 -0.866026 0
    outer loop
      vertex -1.95 -3.3775 -1.5
      vertex 0 -2.25167 1.5
      vertex -1.95 -3.3775 1.5
    endloop
  endfacet
  facet normal 0.499999 -0.866026 0
    outer loop
      vertex 0 -2.25167 1.5
      vertex -1.95 -3.3775 -1.5
      vertex 0 -2.25167 -1.5
    endloop
  endfacet
  facet normal -1 0 0
    outer loop
      vertex -1.95 -82.5442 -1.5
      vertex -1.95 -75.7892 1.5
      vertex -1.95 -75.7892 -1.5
    endloop
  endfacet
  facet normal -1 -0 0
    outer loop
      vertex -1.95 -75.7892 1.5
      vertex -1.95 -82.5442 -1.5
      vertex -1.95 -82.5442 1.5
    endloop
  endfacet
  facet normal 0.499989 0.866032 -0
    outer loop
      vertex 0 -76.915 -1.5
      vertex -1.95 -75.7892 1.5
      vertex 0 -76.915 1.5
    endloop
  endfacet
  facet normal 0.499989 0.866032 0
    outer loop
      vertex -1.95 -75.7892 1.5
      vertex 0 -76.915 -1.5
      vertex -1.95 -75.7892 -1.5
    endloop
  endfacet
  facet normal 0.500022 -0.866013 0
    outer loop
      vertex -1.95 -82.5442 -1.5
      vertex 0 -81.4183 1.5
      vertex -1.95 -82.5442 1.5
    endloop
  endfacet
  facet normal 0.500022 -0.866013 0
    outer loop
      vertex 0 -81.4183 1.5
      vertex -1.95 -82.5442 -1.5
      vertex 0 -81.4183 -1.5
    endloop
  endfacet
  facet normal -1 0 0
    outer loop
      vertex -1.95 -50.8775 -1.5
      vertex -1.95 -44.1225 1.5
      vertex -1.95 -44.1225 -1.5
    endloop
  endfacet
  facet normal -1 -0 0
    outer loop
      vertex -1.95 -44.1225 1.5
      vertex -1.95 -50.8775 -1.5
      vertex -1.95 -50.8775 1.5
    endloop
  endfacet
  facet normal 0.499989 0.866032 -0
    outer loop
      vertex 0 -45.2483 -1.5
      vertex -1.95 -44.1225 1.5
      vertex 0 -45.2483 1.5
    endloop
  endfacet
  facet normal 0.499989 0.866032 0
    outer loop
      vertex -1.95 -44.1225 1.5
      vertex 0 -45.2483 -1.5
      vertex -1.95 -44.1225 -1.5
    endloop
  endfacet
  facet normal 0.499989 -0.866032 0
    outer loop
      vertex -1.95 -50.8775 -1.5
      vertex 0 -49.7517 1.5
      vertex -1.95 -50.8775 1.5
    endloop
  endfacet
  facet normal 0.499989 -0.866032 0
    outer loop
      vertex 0 -49.7517 1.5
      vertex -1.95 -50.8775 -1.5
      vertex 0 -49.7517 -1.5
    endloop
  endfacet
  facet normal -1 0 0
    outer loop
      vertex -1.95 -19.2108 -1.5
      vertex -1.95 -12.4558 1.5
      vertex -1.95 -12.4558 -1.5
    endloop
  endfacet
  facet normal -1 -0 0
    outer loop
      vertex -1.95 -12.4558 1.5
      vertex -1.95 -19.2108 -1.5
      vertex -1.95 -19.2108 1.5
    endloop
  endfacet
  facet normal 0.500022 0.866013 -0
    outer loop
      vertex 0 -13.5817 -1.5
      vertex -1.95 -12.4558 1.5
      vertex 0 -13.5817 1.5
    endloop
  endfacet
  facet normal 0.500022 0.866013 0
    outer loop
      vertex -1.95 -12.4558 1.5
      vertex 0 -13.5817 -1.5
      vertex -1.95 -12.4558 -1.5
    endloop
  endfacet
  facet normal 0.499989 -0.866032 0
    outer loop
      vertex -1.95 -19.2108 -1.5
      vertex 0 -18.085 1.5
      vertex -1.95 -19.2108 1.5
    endloop
  endfacet
  facet normal 0.499989 -0.866032 0
    outer loop
      vertex 0 -18.085 1.5
      vertex -1.95 -19.2108 -1.5
      vertex 0 -18.085 -1.5
    endloop
  endfacet
  facet normal -1 0 0
    outer loop
      vertex -1.95 12.4558 -1.5
      vertex -1.95 19.2108 1.5
      vertex -1.95 19.2108 -1.5
    endloop
  endfacet
  facet normal -1 -0 0
    outer loop
      vertex -1.95 19.2108 1.5
      vertex -1.95 12.4558 -1.5
      vertex -1.95 12.4558 1.5
    endloop
  endfacet
  facet normal 0.499989 0.866032 -0
    outer loop
      vertex 0 18.085 -1.5
      vertex -1.95 19.2108 1.5
      vertex 0 18.085 1.5
    endloop
  endfacet
  facet normal 0.499989 0.866032 0
    outer loop
      vertex -1.95 19.2108 1.5
      vertex 0 18.085 -1.5
      vertex -1.95 19.2108 -1.5
    endloop
  endfacet
  facet normal 0.500022 -0.866013 0
    outer loop
      vertex -1.95 12.4558 -1.5
      vertex 0 13.5817 1.5
      vertex -1.95 12.4558 1.5
    endloop
  endfacet
  facet normal 0.500022 -0.866013 0
    outer loop
      vertex 0 13.5817 1.5
      vertex -1.95 12.4558 -1.5
      vertex 0 13.5817 -1.5
    endloop
  endfacet
  facet normal -1 0 0
    outer loop
      vertex -1.95 44.1225 -1.5
      vertex -1.95 50.8775 1.5
      vertex -1.95 50.8775 -1.5
    endloop
  endfacet
  facet normal -1 -0 0
    outer loop
      vertex -1.95 50.8775 1.5
      vertex -1.95 44.1225 -1.5
      vertex -1.95 44.1225 1.5
    endloop
  endfacet
  facet normal 0.499989 0.866032 -0
    outer loop
      vertex 0 49.7517 -1.5
      vertex -1.95 50.8775 1.5
      vertex 0 49.7517 1.5
    endloop
  endfacet
  facet normal 0.499989 0.866032 0
    outer loop
      vertex -1.95 50.8775 1.5
      vertex 0 49.7517 -1.5
      vertex -1.95 50.8775 -1.5
    endloop
  endfacet
  facet normal 0.499989 -0.866032 0
    outer loop
      vertex -1.95 44.1225 -1.5
      vertex 0 45.2483 1.5
      vertex -1.95 44.1225 1.5
    endloop
  endfacet
  facet normal 0.499989 -0.866032 0
    outer loop
      vertex 0 45.2483 1.5
      vertex -1.95 44.1225 -1.5
      vertex 0 45.2483 -1.5
    endloop
  endfacet
  facet normal -1 0 0
    outer loop
      vertex -1.95 75.7892 -1.5
      vertex -1.95 82.5442 1.5
      vertex -1.95 82.5442 -1.5
    endloop
  endfacet
  facet normal -1 -0 0
    outer loop
      vertex -1.95 82.5442 1.5
      vertex -1.95 75.7892 -1.5
      vertex -1.95 75.7892 1.5
    endloop
  endfacet
  facet normal 0.500022 0.866013 -0
    outer loop
      vertex 0 81.4183 -1.5
      vertex -1.95 82.5442 1.5
      vertex 0 81.4183 1.5
    endloop
  endfacet
  facet normal 0.500022 0.866013 0
    outer loop
      vertex -1.95 82.5442 1.5
      vertex 0 81.4183 -1.5
      vertex -1.95 82.5442 -1.5
    endloop
  endfacet
  facet normal 0.499989 -0.866032 0
    outer loop
      vertex -1.95 75.7892 -1.5
      vertex 0 76.915 1.5
      vertex -1.95 75.7892 1.5
    endloop
  endfacet
  facet normal 0.499989 -0.866032 0
    outer loop
      vertex 0 76.915 1.5
      vertex -1.95 75.7892 -1.5
      vertex 0 76.915 -1.5
    endloop
  endfacet
endsolid OpenSCAD_Model
