solid OpenSCAD_Model
  facet normal -1 -0 -0
    outer loop
      vertex -45.5 -45.5 8.88178e-16
      vertex -45.5 -45.5 11.8
      vertex -45.5 45.5 8.88178e-16
    endloop
  endfacet
  facet normal -1 0 0
    outer loop
      vertex -45.5 45.5 8.88178e-16
      vertex -45.5 -45.5 11.8
      vertex -45.5 45.5 11.8
    endloop
  endfacet
  facet normal 0 -1 0
    outer loop
      vertex -45.5 -45.5 11.8
      vertex -45.5 -45.5 8.88178e-16
      vertex 45.5 -45.5 8.88178e-16
    endloop
  endfacet
  facet normal 0 -1 0
    outer loop
      vertex 45.5 -45.5 11.8
      vertex -45.5 -45.5 11.8
      vertex 45.5 -45.5 8.88178e-16
    endloop
  endfacet
  facet normal 0 0 -1
    outer loop
      vertex -44 -44 8.88178e-16
      vertex 44 -44 8.88178e-16
      vertex 45.5 -45.5 8.88178e-16
    endloop
  endfacet
  facet normal 0 -0 -1
    outer loop
      vertex -44 44 8.88178e-16
      vertex -45.5 45.5 8.88178e-16
      vertex 45.5 45.5 8.88178e-16
    endloop
  endfacet
  facet normal 0 -0 -1
    outer loop
      vertex -45.5 -45.5 8.88178e-16
      vertex -45.5 45.5 8.88178e-16
      vertex -44 44 8.88178e-16
    endloop
  endfacet
  facet normal 0 -0 -1
    outer loop
      vertex 44 44 8.88178e-16
      vertex -44 44 8.88178e-16
      vertex 45.5 45.5 8.88178e-16
    endloop
  endfacet
  facet normal 0 0 -1
    outer loop
      vertex -45.5 -45.5 8.88178e-16
      vertex -44 44 8.88178e-16
      vertex -44 -44 8.88178e-16
    endloop
  endfacet
  facet normal -0 0 -1
    outer loop
      vertex -45.5 -45.5 8.88178e-16
      vertex -44 -44 8.88178e-16
      vertex 45.5 -45.5 8.88178e-16
    endloop
  endfacet
  facet normal 0 0 -1
    outer loop
      vertex 45.5 -45.5 8.88178e-16
      vertex 44 -44 8.88178e-16
      vertex 45.5 45.5 8.88178e-16
    endloop
  endfacet
  facet normal 0 -0 -1
    outer loop
      vertex 44 -44 8.88178e-16
      vertex 44 44 8.88178e-16
      vertex 45.5 45.5 8.88178e-16
    endloop
  endfacet
  facet normal 0 1 0
    outer loop
      vertex -45.5 45.5 8.88178e-16
      vertex -45.5 45.5 11.8
      vertex 45.5 45.5 8.88178e-16
    endloop
  endfacet
  facet normal 0 1 0
    outer loop
      vertex 45.5 45.5 8.88178e-16
      vertex -45.5 45.5 11.8
      vertex 45.5 45.5 11.8
    endloop
  endfacet
  facet normal 0 -0 1
    outer loop
      vertex -44.5 -44.5 11.8
      vertex -45.5 -45.5 11.8
      vertex 45.5 -45.5 11.8
    endloop
  endfacet
  facet normal -0 0 1
    outer loop
      vertex -44.5 44.5 11.8
      vertex -45.5 45.5 11.8
      vertex -44.5 -44.5 11.8
    endloop
  endfacet
  facet normal 0 -0 1
    outer loop
      vertex 44.5 -44.5 11.8
      vertex -44.5 -44.5 11.8
      vertex 45.5 -45.5 11.8
    endloop
  endfacet
  facet normal 0 -0 1
    outer loop
      vertex -45.5 45.5 11.8
      vertex -45.5 -45.5 11.8
      vertex -44.5 -44.5 11.8
    endloop
  endfacet
  facet normal 0 0 1
    outer loop
      vertex 45.5 45.5 11.8
      vertex -45.5 45.5 11.8
      vertex -44.5 44.5 11.8
    endloop
  endfacet
  facet normal 0 0 1
    outer loop
      vertex 45.5 45.5 11.8
      vertex 44.5 44.5 11.8
      vertex 45.5 -45.5 11.8
    endloop
  endfacet
  facet normal 0 0 1
    outer loop
      vertex 45.5 45.5 11.8
      vertex -44.5 44.5 11.8
      vertex 44.5 44.5 11.8
    endloop
  endfacet
  facet normal 0 -0 1
    outer loop
      vertex 44.5 44.5 11.8
      vertex 44.5 -44.5 11.8
      vertex 45.5 -45.5 11.8
    endloop
  endfacet
  facet normal 1 0 -0
    outer loop
      vertex 45.5 -45.5 11.8
      vertex 45.5 -45.5 8.88178e-16
      vertex 45.5 45.5 8.88178e-16
    endloop
  endfacet
  facet normal 1 0 0
    outer loop
      vertex 45.5 45.5 11.8
      vertex 45.5 -45.5 11.8
      vertex 45.5 45.5 8.88178e-16
    endloop
  endfacet
  facet normal -1 -0 -0
    outer loop
      vertex -44 -44 -2.19
      vertex -44 -44 8.88178e-16
      vertex -44 44 -2.19
    endloop
  endfacet
  facet normal -1 0 0
    outer loop
      vertex -44 44 -2.19
      vertex -44 -44 8.88178e-16
      vertex -44 44 8.88178e-16
    endloop
  endfacet
  facet normal 0 1 0
    outer loop
      vertex -44 44 -2.19
      vertex -44 44 8.88178e-16
      vertex 44 44 -2.19
    endloop
  endfacet
  facet normal 0 1 0
    outer loop
      vertex 44 44 -2.19
      vertex -44 44 8.88178e-16
      vertex 44 44 8.88178e-16
    endloop
  endfacet
  facet normal 1 0 -0
    outer loop
      vertex 44 -44 8.88178e-16
      vertex 44 -44 -2.19
      vertex 44 44 -2.19
    endloop
  endfacet
  facet normal 1 0 0
    outer loop
      vertex 44 44 8.88178e-16
      vertex 44 -44 8.88178e-16
      vertex 44 44 -2.19
    endloop
  endfacet
  facet normal 0 -1 0
    outer loop
      vertex -44 -44 8.88178e-16
      vertex -44 -44 -2.19
      vertex 44 -44 -2.19
    endloop
  endfacet
  facet normal 0 -1 0
    outer loop
      vertex 44 -44 8.88178e-16
      vertex -44 -44 8.88178e-16
      vertex 44 -44 -2.19
    endloop
  endfacet
  facet normal 1 0 0
    outer loop
      vertex -44.5 44.5 9.8
      vertex -44.5 44.5 11.8
      vertex -44.5 -44.5 11.8
    endloop
  endfacet
  facet normal 1 0 0
    outer loop
      vertex -44.5 -44.5 9.8
      vertex -44.5 44.5 9.8
      vertex -44.5 -44.5 11.8
    endloop
  endfacet
  facet normal 0 1 0
    outer loop
      vertex 44.5 -44.5 11.8
      vertex 44.5 -44.5 9.8
      vertex -44.5 -44.5 11.8
    endloop
  endfacet
  facet normal 0 1 -0
    outer loop
      vertex -44.5 -44.5 11.8
      vertex 44.5 -44.5 9.8
      vertex -44.5 -44.5 9.8
    endloop
  endfacet
  facet normal -1 0 0
    outer loop
      vertex 44.5 44.5 11.8
      vertex 44.5 44.5 9.8
      vertex 44.5 -44.5 11.8
    endloop
  endfacet
  facet normal -1 0 0
    outer loop
      vertex 44.5 -44.5 11.8
      vertex 44.5 44.5 9.8
      vertex 44.5 -44.5 9.8
    endloop
  endfacet
  facet normal 0 -1 0
    outer loop
      vertex 44.5 44.5 9.8
      vertex 44.5 44.5 11.8
      vertex -44.5 44.5 11.8
    endloop
  endfacet
  facet normal -0 -1 -0
    outer loop
      vertex -44.5 44.5 9.8
      vertex 44.5 44.5 9.8
      vertex -44.5 44.5 11.8
    endloop
  endfacet
  facet normal -0 -0 -1
    outer loop
      vertex -44 -44 -2.19
      vertex -44 44 -2.19
      vertex 44 -44 -2.19
    endloop
  endfacet
  facet normal 0 0 -1
    outer loop
      vertex 44 -44 -2.19
      vertex -44 44 -2.19
      vertex 44 44 -2.19
    endloop
  endfacet
  facet normal 0 0 1
    outer loop
      vertex 44.5 -44.5 9.8
      vertex 44.5 44.5 9.8
      vertex -44.5 44.5 9.8
    endloop
  endfacet
  facet normal 0 0 1
    outer loop
      vertex -44.5 -44.5 9.8
      vertex 44.5 -44.5 9.8
      vertex -44.5 44.5 9.8
    endloop
  endfacet
endsolid OpenSCAD_Model
