solid OpenSCAD_Model
  facet normal 0 -0 -1
    outer loop
      vertex 0 -59.5114 -20
      vertex 0 -51.4532 -20
      vertex 1.30383 -59.3506 -20
    endloop
  endfacet
  facet normal 0 0 -1
    outer loop
      vertex 1.30383 -59.3506 -20
      vertex 0 -51.4532 -20
      vertex 0.129985 -51.4372 -20
    endloop
  endfacet
  facet normal 0 -0 -1
    outer loop
      vertex 1.30383 -59.3506 -20
      vertex 0.129985 -51.4372 -20
      vertex 2.6447 -51.0008 -20
    endloop
  endfacet
  facet normal -0 0 -1
    outer loop
      vertex 2.6447 -51.0008 -20
      vertex 5.13497 -50.4416 -20
      vertex 1.30383 -59.3506 -20
    endloop
  endfacet
  facet normal -0 0 -1
    outer loop
      vertex 5.13497 -50.4416 -20
      vertex 7.5948 -49.7609 -20
      vertex 1.30383 -59.3506 -20
    endloop
  endfacet
  facet normal -0 0 -1
    outer loop
      vertex 7.5948 -49.7609 -20
      vertex 10.0183 -48.9603 -20
      vertex 1.30383 -59.3506 -20
    endloop
  endfacet
  facet normal -0 0 -1
    outer loop
      vertex 10.0183 -48.9603 -20
      vertex 12.3995 -48.0417 -20
      vertex 1.30383 -59.3506 -20
    endloop
  endfacet
  facet normal -0 0 -1
    outer loop
      vertex 12.3995 -48.0417 -20
      vertex 14.7329 -47.0074 -20
      vertex 1.30383 -59.3506 -20
    endloop
  endfacet
  facet normal -0 0 -1
    outer loop
      vertex 14.7329 -47.0074 -20
      vertex 17.0126 -45.8599 -20
      vertex 1.30383 -59.3506 -20
    endloop
  endfacet
  facet normal -0 0 -1
    outer loop
      vertex 17.0126 -45.8599 -20
      vertex 19.2333 -44.6019 -20
      vertex 1.30383 -59.3506 -20
    endloop
  endfacet
  facet normal -0 0 -1
    outer loop
      vertex 19.2333 -44.6019 -20
      vertex 21.3897 -43.2364 -20
      vertex 1.30383 -59.3506 -20
    endloop
  endfacet
  facet normal -0 0 -1
    outer loop
      vertex 21.3897 -43.2364 -20
      vertex 23.4764 -41.7668 -20
      vertex 1.30383 -59.3506 -20
    endloop
  endfacet
  facet normal -0 0 -1
    outer loop
      vertex 23.4764 -41.7668 -20
      vertex 25.4885 -40.1965 -20
      vertex 1.30383 -59.3506 -20
    endloop
  endfacet
  facet normal -0 -0 -1
    outer loop
      vertex 21.3897 43.2364 -20
      vertex 0 59.5114 -20
      vertex 23.4764 41.7668 -20
    endloop
  endfacet
  facet normal -0 -0 -1
    outer loop
      vertex 19.2333 44.6019 -20
      vertex 0 59.5114 -20
      vertex 21.3897 43.2364 -20
    endloop
  endfacet
  facet normal -0 -0 -1
    outer loop
      vertex 17.0126 45.8599 -20
      vertex 0 59.5114 -20
      vertex 19.2333 44.6019 -20
    endloop
  endfacet
  facet normal -0 -0 -1
    outer loop
      vertex 14.7329 47.0074 -20
      vertex 0 59.5114 -20
      vertex 17.0126 45.8599 -20
    endloop
  endfacet
  facet normal -0 -0 -1
    outer loop
      vertex 12.3995 48.0417 -20
      vertex 0 59.5114 -20
      vertex 14.7329 47.0074 -20
    endloop
  endfacet
  facet normal -0 -0 -1
    outer loop
      vertex 10.0183 48.9603 -20
      vertex 0 59.5114 -20
      vertex 12.3995 48.0417 -20
    endloop
  endfacet
  facet normal -0 -0 -1
    outer loop
      vertex 7.5948 49.7609 -20
      vertex 0 59.5114 -20
      vertex 10.0183 48.9603 -20
    endloop
  endfacet
  facet normal -0 -0 -1
    outer loop
      vertex 5.13497 50.4416 -20
      vertex 0 59.5114 -20
      vertex 7.5948 49.7609 -20
    endloop
  endfacet
  facet normal -0 -0 -1
    outer loop
      vertex 2.6447 51.0008 -20
      vertex 0 59.5114 -20
      vertex 5.13497 50.4416 -20
    endloop
  endfacet
  facet normal 0 0 -1
    outer loop
      vertex 0.129985 51.4372 -20
      vertex 0 51.4532 -20
      vertex 0 59.5114 -20
    endloop
  endfacet
  facet normal -0 -0 -1
    outer loop
      vertex 0.129985 51.4372 -20
      vertex 0 59.5114 -20
      vertex 2.6447 51.0008 -20
    endloop
  endfacet
  facet normal 0 0 -1
    outer loop
      vertex 23.4764 41.7668 -20
      vertex 0 59.5114 -20
      vertex 1.30383 59.3506 -20
    endloop
  endfacet
  facet normal -0 -0 -1
    outer loop
      vertex 23.4764 41.7668 -20
      vertex 1.30383 59.3506 -20
      vertex 25.4885 40.1965 -20
    endloop
  endfacet
  facet normal 0 0 -1
    outer loop
      vertex 25.4885 40.1965 -20
      vertex 1.30383 59.3506 -20
      vertex 4.20542 58.8471 -20
    endloop
  endfacet
  facet normal -0 -0 -1
    outer loop
      vertex 25.4885 40.1965 -20
      vertex 4.20542 58.8471 -20
      vertex 27.4211 38.5295 -20
    endloop
  endfacet
  facet normal 0 0 -1
    outer loop
      vertex 27.4211 38.5295 -20
      vertex 4.20542 58.8471 -20
      vertex 7.07881 58.2019 -20
    endloop
  endfacet
  facet normal -0 -0 -1
    outer loop
      vertex 27.4211 38.5295 -20
      vertex 7.07881 58.2019 -20
      vertex 29.2696 36.7696 -20
    endloop
  endfacet
  facet normal 0 0 -1
    outer loop
      vertex 29.2696 36.7696 -20
      vertex 7.07881 58.2019 -20
      vertex 9.91708 57.4164 -20
    endloop
  endfacet
  facet normal -0 -0 -1
    outer loop
      vertex 29.2696 36.7696 -20
      vertex 9.91708 57.4164 -20
      vertex 31.0295 34.9211 -20
    endloop
  endfacet
  facet normal 0 0 -1
    outer loop
      vertex 31.0295 34.9211 -20
      vertex 9.91708 57.4164 -20
      vertex 12.7134 56.4926 -20
    endloop
  endfacet
  facet normal -0 -0 -1
    outer loop
      vertex 31.0295 34.9211 -20
      vertex 12.7134 56.4926 -20
      vertex 32.6965 32.9885 -20
    endloop
  endfacet
  facet normal 0 0 -1
    outer loop
      vertex 32.6965 32.9885 -20
      vertex 12.7134 56.4926 -20
      vertex 15.461 55.4328 -20
    endloop
  endfacet
  facet normal -0 -0 -1
    outer loop
      vertex 32.6965 32.9885 -20
      vertex 15.461 55.4328 -20
      vertex 34.2668 30.9764 -20
    endloop
  endfacet
  facet normal 0 0 -1
    outer loop
      vertex 34.2668 30.9764 -20
      vertex 15.461 55.4328 -20
      vertex 18.1533 54.2394 -20
    endloop
  endfacet
  facet normal -0 -0 -1
    outer loop
      vertex 34.2668 30.9764 -20
      vertex 18.1533 54.2394 -20
      vertex 35.7364 28.8897 -20
    endloop
  endfacet
  facet normal 0 0 -1
    outer loop
      vertex 35.7364 28.8897 -20
      vertex 18.1533 54.2394 -20
      vertex 20.7838 52.9153 -20
    endloop
  endfacet
  facet normal -0 -0 -1
    outer loop
      vertex 35.7364 28.8897 -20
      vertex 20.7838 52.9153 -20
      vertex 37.1019 26.7333 -20
    endloop
  endfacet
  facet normal 0 0 -1
    outer loop
      vertex 37.1019 26.7333 -20
      vertex 20.7838 52.9153 -20
      vertex 23.3462 51.4637 -20
    endloop
  endfacet
  facet normal -0 -0 -1
    outer loop
      vertex 37.1019 26.7333 -20
      vertex 23.3462 51.4637 -20
      vertex 38.3599 24.5126 -20
    endloop
  endfacet
  facet normal 0 0 -1
    outer loop
      vertex 38.3599 24.5126 -20
      vertex 23.3462 51.4637 -20
      vertex 25.8342 49.8882 -20
    endloop
  endfacet
  facet normal -0 -0 -1
    outer loop
      vertex 38.3599 24.5126 -20
      vertex 25.8342 49.8882 -20
      vertex 39.5074 22.2329 -20
    endloop
  endfacet
  facet normal 0 0 -1
    outer loop
      vertex 39.5074 22.2329 -20
      vertex 25.8342 49.8882 -20
      vertex 28.242 48.1925 -20
    endloop
  endfacet
  facet normal -0 -0 -1
    outer loop
      vertex 39.5074 22.2329 -20
      vertex 28.242 48.1925 -20
      vertex 40.5417 19.8995 -20
    endloop
  endfacet
  facet normal 0 0 -1
    outer loop
      vertex 40.5417 19.8995 -20
      vertex 28.242 48.1925 -20
      vertex 30.5636 46.3806 -20
    endloop
  endfacet
  facet normal -0 -0 -1
    outer loop
      vertex 40.5417 19.8995 -20
      vertex 30.5636 46.3806 -20
      vertex 41.4603 17.5183 -20
    endloop
  endfacet
  facet normal 0 0 -1
    outer loop
      vertex 41.4603 17.5183 -20
      vertex 30.5636 46.3806 -20
      vertex 32.7935 44.4571 -20
    endloop
  endfacet
  facet normal -0 -0 -1
    outer loop
      vertex 41.4603 17.5183 -20
      vertex 32.7935 44.4571 -20
      vertex 42.2609 15.0948 -20
    endloop
  endfacet
  facet normal 0 0 -1
    outer loop
      vertex 42.2609 15.0948 -20
      vertex 32.7935 44.4571 -20
      vertex 34.9264 42.4264 -20
    endloop
  endfacet
  facet normal -0 -0 -1
    outer loop
      vertex 42.2609 15.0948 -20
      vertex 34.9264 42.4264 -20
      vertex 42.9416 12.635 -20
    endloop
  endfacet
  facet normal 0 0 -1
    outer loop
      vertex 42.9416 12.635 -20
      vertex 34.9264 42.4264 -20
      vertex 36.9571 40.2935 -20
    endloop
  endfacet
  facet normal -0 -0 -1
    outer loop
      vertex 42.9416 12.635 -20
      vertex 36.9571 40.2935 -20
      vertex 43.5008 10.1447 -20
    endloop
  endfacet
  facet normal 0 0 -1
    outer loop
      vertex 43.5008 10.1447 -20
      vertex 36.9571 40.2935 -20
      vertex 38.8806 38.0636 -20
    endloop
  endfacet
  facet normal -0 -0 -1
    outer loop
      vertex 43.5008 10.1447 -20
      vertex 38.8806 38.0636 -20
      vertex 43.9372 7.62998 -20
    endloop
  endfacet
  facet normal 0 0 -1
    outer loop
      vertex 43.9372 7.62998 -20
      vertex 38.8806 38.0636 -20
      vertex 40.6925 35.742 -20
    endloop
  endfacet
  facet normal -0 -0 -1
    outer loop
      vertex 43.9372 7.62998 -20
      vertex 40.6925 35.742 -20
      vertex 44.2496 5.09689 -20
    endloop
  endfacet
  facet normal 0 0 -1
    outer loop
      vertex 44.2496 5.09689 -20
      vertex 40.6925 35.742 -20
      vertex 42.3882 33.3342 -20
    endloop
  endfacet
  facet normal -0 -0 -1
    outer loop
      vertex 44.2496 5.09689 -20
      vertex 42.3882 33.3342 -20
      vertex 44.4374 2.55152 -20
    endloop
  endfacet
  facet normal 0 0 -1
    outer loop
      vertex 44.4374 2.55152 -20
      vertex 42.3882 33.3342 -20
      vertex 43.9637 30.8462 -20
    endloop
  endfacet
  facet normal -0 -0 -1
    outer loop
      vertex 44.4374 2.55152 -20
      vertex 43.9637 30.8462 -20
      vertex 44.5 0 -20
    endloop
  endfacet
  facet normal 0 -0 -1
    outer loop
      vertex 44.5 0 -20
      vertex 43.9637 30.8462 -20
      vertex 45.4153 28.2838 -20
    endloop
  endfacet
  facet normal -0 0 -1
    outer loop
      vertex 44.5 0 -20
      vertex 45.4153 28.2838 -20
      vertex 44.4374 -2.55152 -20
    endloop
  endfacet
  facet normal 0 0 -1
    outer loop
      vertex 44.4374 -2.55152 -20
      vertex 45.4153 28.2838 -20
      vertex 46.7394 25.6533 -20
    endloop
  endfacet
  facet normal -0 0 -1
    outer loop
      vertex 44.4374 -2.55152 -20
      vertex 46.7394 25.6533 -20
      vertex 44.2496 -5.09689 -20
    endloop
  endfacet
  facet normal 0 0 -1
    outer loop
      vertex 44.2496 -5.09689 -20
      vertex 46.7394 25.6533 -20
      vertex 47.9328 22.961 -20
    endloop
  endfacet
  facet normal -0 0 -1
    outer loop
      vertex 44.2496 -5.09689 -20
      vertex 47.9328 22.961 -20
      vertex 43.9372 -7.62998 -20
    endloop
  endfacet
  facet normal 0 0 -1
    outer loop
      vertex 43.9372 -7.62998 -20
      vertex 47.9328 22.961 -20
      vertex 48.9926 20.2134 -20
    endloop
  endfacet
  facet normal -0 0 -1
    outer loop
      vertex 43.9372 -7.62998 -20
      vertex 48.9926 20.2134 -20
      vertex 43.5008 -10.1447 -20
    endloop
  endfacet
  facet normal 0 0 -1
    outer loop
      vertex 43.5008 -10.1447 -20
      vertex 48.9926 20.2134 -20
      vertex 49.9164 17.4171 -20
    endloop
  endfacet
  facet normal -0 0 -1
    outer loop
      vertex 43.5008 -10.1447 -20
      vertex 49.9164 17.4171 -20
      vertex 42.9416 -12.635 -20
    endloop
  endfacet
  facet normal 0 0 -1
    outer loop
      vertex 42.9416 -12.635 -20
      vertex 49.9164 17.4171 -20
      vertex 50.7019 14.5788 -20
    endloop
  endfacet
  facet normal -0 0 -1
    outer loop
      vertex 42.9416 -12.635 -20
      vertex 50.7019 14.5788 -20
      vertex 42.2609 -15.0948 -20
    endloop
  endfacet
  facet normal 0 0 -1
    outer loop
      vertex 42.2609 -15.0948 -20
      vertex 50.7019 14.5788 -20
      vertex 51.3471 11.7054 -20
    endloop
  endfacet
  facet normal -0 0 -1
    outer loop
      vertex 42.2609 -15.0948 -20
      vertex 51.3471 11.7054 -20
      vertex 41.4603 -17.5183 -20
    endloop
  endfacet
  facet normal 0 0 -1
    outer loop
      vertex 41.4603 -17.5183 -20
      vertex 51.3471 11.7054 -20
      vertex 51.8506 8.80383 -20
    endloop
  endfacet
  facet normal -0 0 -1
    outer loop
      vertex 41.4603 -17.5183 -20
      vertex 51.8506 8.80383 -20
      vertex 40.5417 -19.8995 -20
    endloop
  endfacet
  facet normal 0 0 -1
    outer loop
      vertex 40.5417 -19.8995 -20
      vertex 51.8506 8.80383 -20
      vertex 52.2111 5.88103 -20
    endloop
  endfacet
  facet normal -0 0 -1
    outer loop
      vertex 40.5417 -19.8995 -20
      vertex 52.2111 5.88103 -20
      vertex 39.5074 -22.2329 -20
    endloop
  endfacet
  facet normal 0 0 -1
    outer loop
      vertex 39.5074 -22.2329 -20
      vertex 52.2111 5.88103 -20
      vertex 52.4277 2.94406 -20
    endloop
  endfacet
  facet normal -0 0 -1
    outer loop
      vertex 39.5074 -22.2329 -20
      vertex 52.4277 2.94406 -20
      vertex 38.3599 -24.5126 -20
    endloop
  endfacet
  facet normal 0 0 -1
    outer loop
      vertex 38.3599 -24.5126 -20
      vertex 52.4277 2.94406 -20
      vertex 52.5 0 -20
    endloop
  endfacet
  facet normal -0 0 -1
    outer loop
      vertex 38.3599 -24.5126 -20
      vertex 52.5 0 -20
      vertex 37.1019 -26.7333 -20
    endloop
  endfacet
  facet normal 0 0 -1
    outer loop
      vertex 37.1019 -26.7333 -20
      vertex 52.5 0 -20
      vertex 52.4277 -2.94406 -20
    endloop
  endfacet
  facet normal -0 0 -1
    outer loop
      vertex 37.1019 -26.7333 -20
      vertex 52.4277 -2.94406 -20
      vertex 35.7364 -28.8897 -20
    endloop
  endfacet
  facet normal 0 0 -1
    outer loop
      vertex 35.7364 -28.8897 -20
      vertex 52.4277 -2.94406 -20
      vertex 52.2111 -5.88103 -20
    endloop
  endfacet
  facet normal -0 0 -1
    outer loop
      vertex 35.7364 -28.8897 -20
      vertex 52.2111 -5.88103 -20
      vertex 34.2668 -30.9764 -20
    endloop
  endfacet
  facet normal 0 0 -1
    outer loop
      vertex 34.2668 -30.9764 -20
      vertex 52.2111 -5.88103 -20
      vertex 51.8506 -8.80383 -20
    endloop
  endfacet
  facet normal -0 0 -1
    outer loop
      vertex 34.2668 -30.9764 -20
      vertex 51.8506 -8.80383 -20
      vertex 32.6965 -32.9885 -20
    endloop
  endfacet
  facet normal 0 0 -1
    outer loop
      vertex 32.6965 -32.9885 -20
      vertex 51.8506 -8.80383 -20
      vertex 51.3471 -11.7054 -20
    endloop
  endfacet
  facet normal -0 0 -1
    outer loop
      vertex 32.6965 -32.9885 -20
      vertex 51.3471 -11.7054 -20
      vertex 31.0295 -34.9211 -20
    endloop
  endfacet
  facet normal 0 0 -1
    outer loop
      vertex 31.0295 -34.9211 -20
      vertex 51.3471 -11.7054 -20
      vertex 50.7019 -14.5788 -20
    endloop
  endfacet
  facet normal -0 0 -1
    outer loop
      vertex 31.0295 -34.9211 -20
      vertex 50.7019 -14.5788 -20
      vertex 29.2696 -36.7696 -20
    endloop
  endfacet
  facet normal 0 0 -1
    outer loop
      vertex 29.2696 -36.7696 -20
      vertex 50.7019 -14.5788 -20
      vertex 49.9164 -17.4171 -20
    endloop
  endfacet
  facet normal -0 0 -1
    outer loop
      vertex 29.2696 -36.7696 -20
      vertex 49.9164 -17.4171 -20
      vertex 27.4211 -38.5295 -20
    endloop
  endfacet
  facet normal 0 0 -1
    outer loop
      vertex 27.4211 -38.5295 -20
      vertex 49.9164 -17.4171 -20
      vertex 48.9926 -20.2134 -20
    endloop
  endfacet
  facet normal -0 0 -1
    outer loop
      vertex 27.4211 -38.5295 -20
      vertex 48.9926 -20.2134 -20
      vertex 25.4885 -40.1965 -20
    endloop
  endfacet
  facet normal 0 0 -1
    outer loop
      vertex 25.4885 -40.1965 -20
      vertex 48.9926 -20.2134 -20
      vertex 47.9328 -22.961 -20
    endloop
  endfacet
  facet normal -0 0 -1
    outer loop
      vertex 25.4885 -40.1965 -20
      vertex 47.9328 -22.961 -20
      vertex 1.30383 -59.3506 -20
    endloop
  endfacet
  facet normal 0 0 -1
    outer loop
      vertex 1.30383 -59.3506 -20
      vertex 47.9328 -22.961 -20
      vertex 46.7394 -25.6533 -20
    endloop
  endfacet
  facet normal 0 0 -1
    outer loop
      vertex 1.30383 -59.3506 -20
      vertex 46.7394 -25.6533 -20
      vertex 45.4153 -28.2838 -20
    endloop
  endfacet
  facet normal 0 0 -1
    outer loop
      vertex 1.30383 -59.3506 -20
      vertex 45.4153 -28.2838 -20
      vertex 43.9637 -30.8462 -20
    endloop
  endfacet
  facet normal 0 0 -1
    outer loop
      vertex 1.30383 -59.3506 -20
      vertex 43.9637 -30.8462 -20
      vertex 42.3882 -33.3342 -20
    endloop
  endfacet
  facet normal 0 0 -1
    outer loop
      vertex 1.30383 -59.3506 -20
      vertex 42.3882 -33.3342 -20
      vertex 40.6925 -35.742 -20
    endloop
  endfacet
  facet normal 0 0 -1
    outer loop
      vertex 1.30383 -59.3506 -20
      vertex 40.6925 -35.742 -20
      vertex 38.8806 -38.0636 -20
    endloop
  endfacet
  facet normal 0 0 -1
    outer loop
      vertex 1.30383 -59.3506 -20
      vertex 38.8806 -38.0636 -20
      vertex 36.9571 -40.2935 -20
    endloop
  endfacet
  facet normal 0 0 -1
    outer loop
      vertex 1.30383 -59.3506 -20
      vertex 36.9571 -40.2935 -20
      vertex 34.9264 -42.4264 -20
    endloop
  endfacet
  facet normal 0 0 -1
    outer loop
      vertex 1.30383 -59.3506 -20
      vertex 34.9264 -42.4264 -20
      vertex 32.7935 -44.4571 -20
    endloop
  endfacet
  facet normal 0 0 -1
    outer loop
      vertex 1.30383 -59.3506 -20
      vertex 32.7935 -44.4571 -20
      vertex 30.5636 -46.3806 -20
    endloop
  endfacet
  facet normal 0 0 -1
    outer loop
      vertex 1.30383 -59.3506 -20
      vertex 30.5636 -46.3806 -20
      vertex 28.242 -48.1925 -20
    endloop
  endfacet
  facet normal 0 0 -1
    outer loop
      vertex 1.30383 -59.3506 -20
      vertex 28.242 -48.1925 -20
      vertex 25.8342 -49.8882 -20
    endloop
  endfacet
  facet normal 0 0 -1
    outer loop
      vertex 1.30383 -59.3506 -20
      vertex 25.8342 -49.8882 -20
      vertex 23.3462 -51.4637 -20
    endloop
  endfacet
  facet normal 0 0 -1
    outer loop
      vertex 1.30383 -59.3506 -20
      vertex 23.3462 -51.4637 -20
      vertex 20.7838 -52.9153 -20
    endloop
  endfacet
  facet normal 0 0 -1
    outer loop
      vertex 1.30383 -59.3506 -20
      vertex 20.7838 -52.9153 -20
      vertex 18.1533 -54.2394 -20
    endloop
  endfacet
  facet normal 0 0 -1
    outer loop
      vertex 1.30383 -59.3506 -20
      vertex 18.1533 -54.2394 -20
      vertex 15.461 -55.4328 -20
    endloop
  endfacet
  facet normal 0 0 -1
    outer loop
      vertex 1.30383 -59.3506 -20
      vertex 15.461 -55.4328 -20
      vertex 12.7134 -56.4926 -20
    endloop
  endfacet
  facet normal 0 0 -1
    outer loop
      vertex 1.30383 -59.3506 -20
      vertex 12.7134 -56.4926 -20
      vertex 9.91708 -57.4164 -20
    endloop
  endfacet
  facet normal 0 0 -1
    outer loop
      vertex 1.30383 -59.3506 -20
      vertex 9.91708 -57.4164 -20
      vertex 7.07881 -58.2019 -20
    endloop
  endfacet
  facet normal 0 0 -1
    outer loop
      vertex 1.30383 -59.3506 -20
      vertex 7.07881 -58.2019 -20
      vertex 4.20542 -58.8471 -20
    endloop
  endfacet
  facet normal -1 0 0
    outer loop
      vertex 0 -51.4532 0
      vertex 0 -51.4532 -20
      vertex 0 -59.5114 0
    endloop
  endfacet
  facet normal -1 0 0
    outer loop
      vertex 0 -59.5114 0
      vertex 0 -51.4532 -20
      vertex 0 -59.5114 -20
    endloop
  endfacet
  facet normal 0.122411 -0.99248 0
    outer loop
      vertex 0 -59.5114 0
      vertex 0 -59.5114 -20
      vertex 1.30383 -59.3506 -20
    endloop
  endfacet
  facet normal 0.122411 -0.99248 0
    outer loop
      vertex 1.30383 -59.3506 -0.117281
      vertex 0 -59.5114 0
      vertex 1.30383 -59.3506 -20
    endloop
  endfacet
  facet normal 0.170962 -0.985278 0
    outer loop
      vertex 1.30383 -59.3506 -0.117281
      vertex 1.30383 -59.3506 -20
      vertex 4.20542 -58.8471 -20
    endloop
  endfacet
  facet normal 0.170962 -0.985278 0
    outer loop
      vertex 4.20542 -58.8471 -0.378283
      vertex 1.30383 -59.3506 -0.117281
      vertex 4.20542 -58.8471 -20
    endloop
  endfacet
  facet normal 0.219101 -0.975702 0
    outer loop
      vertex 4.20542 -58.8471 -0.378283
      vertex 4.20542 -58.8471 -20
      vertex 7.07881 -58.2019 -20
    endloop
  endfacet
  facet normal 0.219101 -0.975702 0
    outer loop
      vertex 7.07881 -58.2019 -0.636749
      vertex 4.20542 -58.8471 -0.378283
      vertex 7.07881 -58.2019 -20
    endloop
  endfacet
  facet normal 0.266713 -0.963776 0
    outer loop
      vertex 7.07881 -58.2019 -0.636749
      vertex 7.07881 -58.2019 -20
      vertex 9.91708 -57.4164 -20
    endloop
  endfacet
  facet normal 0.266713 -0.963776 0
    outer loop
      vertex 9.91708 -57.4164 -0.892055
      vertex 7.07881 -58.2019 -0.636749
      vertex 9.91708 -57.4164 -20
    endloop
  endfacet
  facet normal 0.313682 -0.949528 0
    outer loop
      vertex 9.91708 -57.4164 -0.892055
      vertex 9.91708 -57.4164 -20
      vertex 12.7134 -56.4926 -20
    endloop
  endfacet
  facet normal 0.313682 -0.949528 0
    outer loop
      vertex 12.7134 -56.4926 -1.14359
      vertex 9.91708 -57.4164 -0.892055
      vertex 12.7134 -56.4926 -20
    endloop
  endfacet
  facet normal 0.359895 -0.932993 0
    outer loop
      vertex 12.7134 -56.4926 -1.14359
      vertex 12.7134 -56.4926 -20
      vertex 15.461 -55.4328 -20
    endloop
  endfacet
  facet normal 0.359895 -0.932993 0
    outer loop
      vertex 15.461 -55.4328 -1.39074
      vertex 12.7134 -56.4926 -1.14359
      vertex 15.461 -55.4328 -20
    endloop
  endfacet
  facet normal 0.405241 -0.91421 0
    outer loop
      vertex 15.461 -55.4328 -1.39074
      vertex 15.461 -55.4328 -20
      vertex 18.1533 -54.2394 -20
    endloop
  endfacet
  facet normal 0.405241 -0.91421 0
    outer loop
      vertex 18.1533 -54.2394 -1.63291
      vertex 15.461 -55.4328 -1.39074
      vertex 18.1533 -54.2394 -20
    endloop
  endfacet
  facet normal 0.449611 -0.893224 0
    outer loop
      vertex 18.1533 -54.2394 -1.63291
      vertex 18.1533 -54.2394 -20
      vertex 20.7838 -52.9153 -20
    endloop
  endfacet
  facet normal 0.449611 -0.893224 0
    outer loop
      vertex 20.7838 -52.9153 -1.86953
      vertex 18.1533 -54.2394 -1.63291
      vertex 20.7838 -52.9153 -20
    endloop
  endfacet
  facet normal 0.492898 -0.870087 0
    outer loop
      vertex 20.7838 -52.9153 -1.86953
      vertex 20.7838 -52.9153 -20
      vertex 23.3462 -51.4637 -20
    endloop
  endfacet
  facet normal 0.492898 -0.870087 0
    outer loop
      vertex 23.3462 -51.4637 -2.10002
      vertex 20.7838 -52.9153 -1.86953
      vertex 23.3462 -51.4637 -20
    endloop
  endfacet
  facet normal 0.534998 -0.844854 0
    outer loop
      vertex 23.3462 -51.4637 -2.10002
      vertex 23.3462 -51.4637 -20
      vertex 25.8342 -49.8882 -20
    endloop
  endfacet
  facet normal 0.534998 -0.844854 0
    outer loop
      vertex 25.8342 -49.8882 -2.32382
      vertex 23.3462 -51.4637 -2.10002
      vertex 25.8342 -49.8882 -20
    endloop
  endfacet
  facet normal 0.575808 -0.817585 0
    outer loop
      vertex 25.8342 -49.8882 -2.32382
      vertex 25.8342 -49.8882 -20
      vertex 28.242 -48.1925 -20
    endloop
  endfacet
  facet normal 0.575808 -0.817585 0
    outer loop
      vertex 28.242 -48.1925 -2.5404
      vertex 25.8342 -49.8882 -2.32382
      vertex 28.242 -48.1925 -20
    endloop
  endfacet
  facet normal 0.615232 -0.788346 0
    outer loop
      vertex 28.242 -48.1925 -2.5404
      vertex 28.242 -48.1925 -20
      vertex 30.5636 -46.3806 -20
    endloop
  endfacet
  facet normal 0.615232 -0.788346 0
    outer loop
      vertex 30.5636 -46.3806 -2.74924
      vertex 28.242 -48.1925 -2.5404
      vertex 30.5636 -46.3806 -20
    endloop
  endfacet
  facet normal 0.653173 -0.757209 0
    outer loop
      vertex 30.5636 -46.3806 -2.74924
      vertex 30.5636 -46.3806 -20
      vertex 32.7935 -44.4571 -20
    endloop
  endfacet
  facet normal 0.653173 -0.757209 0
    outer loop
      vertex 32.7935 -44.4571 -2.94982
      vertex 30.5636 -46.3806 -2.74924
      vertex 32.7935 -44.4571 -20
    endloop
  endfacet
  facet normal 0.689541 -0.724247 0
    outer loop
      vertex 32.7935 -44.4571 -2.94982
      vertex 32.7935 -44.4571 -20
      vertex 34.9264 -42.4264 -20
    endloop
  endfacet
  facet normal 0.689541 -0.724247 0
    outer loop
      vertex 34.9264 -42.4264 -3.14168
      vertex 32.7935 -44.4571 -2.94982
      vertex 34.9264 -42.4264 -20
    endloop
  endfacet
  facet normal 0.724247 -0.689541 0
    outer loop
      vertex 34.9264 -42.4264 -3.14168
      vertex 34.9264 -42.4264 -20
      vertex 36.9571 -40.2935 -20
    endloop
  endfacet
  facet normal 0.724247 -0.689541 0
    outer loop
      vertex 36.9571 -40.2935 -3.32434
      vertex 34.9264 -42.4264 -3.14168
      vertex 36.9571 -40.2935 -20
    endloop
  endfacet
  facet normal 0.757209 -0.653173 0
    outer loop
      vertex 36.9571 -40.2935 -3.32434
      vertex 36.9571 -40.2935 -20
      vertex 38.8806 -38.0636 -20
    endloop
  endfacet
  facet normal 0.757209 -0.653173 0
    outer loop
      vertex 38.8806 -38.0636 -3.49737
      vertex 36.9571 -40.2935 -3.32434
      vertex 38.8806 -38.0636 -20
    endloop
  endfacet
  facet normal 0.788346 -0.615232 0
    outer loop
      vertex 38.8806 -38.0636 -3.49737
      vertex 38.8806 -38.0636 -20
      vertex 40.6925 -35.742 -20
    endloop
  endfacet
  facet normal 0.788346 -0.615232 0
    outer loop
      vertex 40.6925 -35.742 -3.66034
      vertex 38.8806 -38.0636 -3.49737
      vertex 40.6925 -35.742 -20
    endloop
  endfacet
  facet normal 0.817585 -0.575808 0
    outer loop
      vertex 40.6925 -35.742 -3.66034
      vertex 40.6925 -35.742 -20
      vertex 42.3882 -33.3342 -20
    endloop
  endfacet
  facet normal 0.817585 -0.575808 0
    outer loop
      vertex 42.3882 -33.3342 -3.81287
      vertex 40.6925 -35.742 -3.66034
      vertex 42.3882 -33.3342 -20
    endloop
  endfacet
  facet normal 0.844854 -0.534998 0
    outer loop
      vertex 42.3882 -33.3342 -3.81287
      vertex 42.3882 -33.3342 -20
      vertex 43.9637 -30.8462 -20
    endloop
  endfacet
  facet normal 0.844854 -0.534998 0
    outer loop
      vertex 43.9637 -30.8462 -3.9546
      vertex 42.3882 -33.3342 -3.81287
      vertex 43.9637 -30.8462 -20
    endloop
  endfacet
  facet normal 0.870087 -0.492898 0
    outer loop
      vertex 43.9637 -30.8462 -3.9546
      vertex 43.9637 -30.8462 -20
      vertex 45.4153 -28.2838 -20
    endloop
  endfacet
  facet normal 0.870087 -0.492898 0
    outer loop
      vertex 45.4153 -28.2838 -4.08517
      vertex 43.9637 -30.8462 -3.9546
      vertex 45.4153 -28.2838 -20
    endloop
  endfacet
  facet normal 0.893224 -0.449611 0
    outer loop
      vertex 45.4153 -28.2838 -4.08517
      vertex 45.4153 -28.2838 -20
      vertex 46.7394 -25.6533 -20
    endloop
  endfacet
  facet normal 0.893224 -0.449611 0
    outer loop
      vertex 46.7394 -25.6533 -4.20427
      vertex 45.4153 -28.2838 -4.08517
      vertex 46.7394 -25.6533 -20
    endloop
  endfacet
  facet normal 0.91421 -0.405241 0
    outer loop
      vertex 46.7394 -25.6533 -4.20427
      vertex 46.7394 -25.6533 -20
      vertex 47.9328 -22.961 -20
    endloop
  endfacet
  facet normal 0.91421 -0.405241 0
    outer loop
      vertex 47.9328 -22.961 -4.31162
      vertex 46.7394 -25.6533 -4.20427
      vertex 47.9328 -22.961 -20
    endloop
  endfacet
  facet normal 0.932993 -0.359895 0
    outer loop
      vertex 47.9328 -22.961 -4.31162
      vertex 47.9328 -22.961 -20
      vertex 48.9926 -20.2134 -20
    endloop
  endfacet
  facet normal 0.932993 -0.359895 0
    outer loop
      vertex 48.9926 -20.2134 -4.40695
      vertex 47.9328 -22.961 -4.31162
      vertex 48.9926 -20.2134 -20
    endloop
  endfacet
  facet normal 0.949528 -0.313682 0
    outer loop
      vertex 48.9926 -20.2134 -4.40695
      vertex 48.9926 -20.2134 -20
      vertex 49.9164 -17.4171 -20
    endloop
  endfacet
  facet normal 0.949528 -0.313682 0
    outer loop
      vertex 49.9164 -17.4171 -4.49005
      vertex 48.9926 -20.2134 -4.40695
      vertex 49.9164 -17.4171 -20
    endloop
  endfacet
  facet normal 0.963776 -0.266713 0
    outer loop
      vertex 49.9164 -17.4171 -4.49005
      vertex 49.9164 -17.4171 -20
      vertex 50.7019 -14.5788 -20
    endloop
  endfacet
  facet normal 0.963776 -0.266713 0
    outer loop
      vertex 50.7019 -14.5788 -4.5607
      vertex 49.9164 -17.4171 -4.49005
      vertex 50.7019 -14.5788 -20
    endloop
  endfacet
  facet normal 0.975702 -0.219101 0
    outer loop
      vertex 50.7019 -14.5788 -4.5607
      vertex 50.7019 -14.5788 -20
      vertex 51.3471 -11.7054 -20
    endloop
  endfacet
  facet normal 0.975702 -0.219101 0
    outer loop
      vertex 51.3471 -11.7054 -4.61874
      vertex 50.7019 -14.5788 -4.5607
      vertex 51.3471 -11.7054 -20
    endloop
  endfacet
  facet normal 0.985278 -0.170962 0
    outer loop
      vertex 51.3471 -11.7054 -4.61874
      vertex 51.3471 -11.7054 -20
      vertex 51.8506 -8.80383 -20
    endloop
  endfacet
  facet normal 0.985278 -0.170962 0
    outer loop
      vertex 51.8506 -8.80383 -4.66403
      vertex 51.3471 -11.7054 -4.61874
      vertex 51.8506 -8.80383 -20
    endloop
  endfacet
  facet normal 0.99248 -0.122411 0
    outer loop
      vertex 51.8506 -8.80383 -4.66403
      vertex 51.8506 -8.80383 -20
      vertex 52.2111 -5.88103 -20
    endloop
  endfacet
  facet normal 0.99248 -0.122411 0
    outer loop
      vertex 52.2111 -5.88103 -4.69646
      vertex 51.8506 -8.80383 -4.66403
      vertex 52.2111 -5.88103 -20
    endloop
  endfacet
  facet normal 0.99729 -0.0735643 0
    outer loop
      vertex 52.2111 -5.88103 -4.69646
      vertex 52.2111 -5.88103 -20
      vertex 52.4277 -2.94406 -20
    endloop
  endfacet
  facet normal 0.99729 -0.0735643 0
    outer loop
      vertex 52.4277 -2.94406 -4.71595
      vertex 52.2111 -5.88103 -4.69646
      vertex 52.4277 -2.94406 -20
    endloop
  endfacet
  facet normal 0.999699 -0.0245414 0
    outer loop
      vertex 52.4277 -2.94406 -4.71595
      vertex 52.4277 -2.94406 -20
      vertex 52.5 0 -20
    endloop
  endfacet
  facet normal 0.999699 -0.0245414 0
    outer loop
      vertex 52.5 0 -4.72245
      vertex 52.4277 -2.94406 -4.71595
      vertex 52.5 0 -20
    endloop
  endfacet
  facet normal 0.999699 0.0245414 0
    outer loop
      vertex 52.5 0 -20
      vertex 52.4277 2.94406 -20
      vertex 52.4277 2.94406 -4.71595
    endloop
  endfacet
  facet normal 0.999699 0.0245414 -0
    outer loop
      vertex 52.5 0 -4.72245
      vertex 52.5 0 -20
      vertex 52.4277 2.94406 -4.71595
    endloop
  endfacet
  facet normal 0.99729 0.0735643 0
    outer loop
      vertex 52.4277 2.94406 -20
      vertex 52.2111 5.88103 -20
      vertex 52.2111 5.88103 -4.69646
    endloop
  endfacet
  facet normal 0.99729 0.0735643 -0
    outer loop
      vertex 52.4277 2.94406 -4.71595
      vertex 52.4277 2.94406 -20
      vertex 52.2111 5.88103 -4.69646
    endloop
  endfacet
  facet normal 0.99248 0.122411 0
    outer loop
      vertex 52.2111 5.88103 -20
      vertex 51.8506 8.80383 -20
      vertex 51.8506 8.80383 -4.66403
    endloop
  endfacet
  facet normal 0.99248 0.122411 -0
    outer loop
      vertex 52.2111 5.88103 -4.69646
      vertex 52.2111 5.88103 -20
      vertex 51.8506 8.80383 -4.66403
    endloop
  endfacet
  facet normal 0.985278 0.170962 0
    outer loop
      vertex 51.8506 8.80383 -20
      vertex 51.3471 11.7054 -20
      vertex 51.3471 11.7054 -4.61874
    endloop
  endfacet
  facet normal 0.985278 0.170962 -0
    outer loop
      vertex 51.8506 8.80383 -4.66403
      vertex 51.8506 8.80383 -20
      vertex 51.3471 11.7054 -4.61874
    endloop
  endfacet
  facet normal 0.975702 0.219101 0
    outer loop
      vertex 51.3471 11.7054 -20
      vertex 50.7019 14.5788 -20
      vertex 50.7019 14.5788 -4.5607
    endloop
  endfacet
  facet normal 0.975702 0.219101 -0
    outer loop
      vertex 51.3471 11.7054 -4.61874
      vertex 51.3471 11.7054 -20
      vertex 50.7019 14.5788 -4.5607
    endloop
  endfacet
  facet normal 0.963776 0.266713 0
    outer loop
      vertex 50.7019 14.5788 -20
      vertex 49.9164 17.4171 -20
      vertex 49.9164 17.4171 -4.49005
    endloop
  endfacet
  facet normal 0.963776 0.266713 -0
    outer loop
      vertex 50.7019 14.5788 -4.5607
      vertex 50.7019 14.5788 -20
      vertex 49.9164 17.4171 -4.49005
    endloop
  endfacet
  facet normal 0.949528 0.313682 0
    outer loop
      vertex 49.9164 17.4171 -20
      vertex 48.9926 20.2134 -20
      vertex 48.9926 20.2134 -4.40695
    endloop
  endfacet
  facet normal 0.949528 0.313682 -0
    outer loop
      vertex 49.9164 17.4171 -4.49005
      vertex 49.9164 17.4171 -20
      vertex 48.9926 20.2134 -4.40695
    endloop
  endfacet
  facet normal 0.932993 0.359895 0
    outer loop
      vertex 48.9926 20.2134 -20
      vertex 47.9328 22.961 -20
      vertex 47.9328 22.961 -4.31162
    endloop
  endfacet
  facet normal 0.932993 0.359895 -0
    outer loop
      vertex 48.9926 20.2134 -4.40695
      vertex 48.9926 20.2134 -20
      vertex 47.9328 22.961 -4.31162
    endloop
  endfacet
  facet normal 0.91421 0.405241 0
    outer loop
      vertex 47.9328 22.961 -20
      vertex 46.7394 25.6533 -20
      vertex 46.7394 25.6533 -4.20427
    endloop
  endfacet
  facet normal 0.91421 0.405241 -0
    outer loop
      vertex 47.9328 22.961 -4.31162
      vertex 47.9328 22.961 -20
      vertex 46.7394 25.6533 -4.20427
    endloop
  endfacet
  facet normal 0.893224 0.449611 0
    outer loop
      vertex 46.7394 25.6533 -20
      vertex 45.4153 28.2838 -20
      vertex 45.4153 28.2838 -4.08517
    endloop
  endfacet
  facet normal 0.893224 0.449611 -0
    outer loop
      vertex 46.7394 25.6533 -4.20427
      vertex 46.7394 25.6533 -20
      vertex 45.4153 28.2838 -4.08517
    endloop
  endfacet
  facet normal 0.870087 0.492898 0
    outer loop
      vertex 45.4153 28.2838 -20
      vertex 43.9637 30.8462 -20
      vertex 43.9637 30.8462 -3.9546
    endloop
  endfacet
  facet normal 0.870087 0.492898 -0
    outer loop
      vertex 45.4153 28.2838 -4.08517
      vertex 45.4153 28.2838 -20
      vertex 43.9637 30.8462 -3.9546
    endloop
  endfacet
  facet normal 0.844854 0.534998 0
    outer loop
      vertex 43.9637 30.8462 -20
      vertex 42.3882 33.3342 -20
      vertex 42.3882 33.3342 -3.81287
    endloop
  endfacet
  facet normal 0.844854 0.534998 -0
    outer loop
      vertex 43.9637 30.8462 -3.9546
      vertex 43.9637 30.8462 -20
      vertex 42.3882 33.3342 -3.81287
    endloop
  endfacet
  facet normal 0.817585 0.575808 0
    outer loop
      vertex 42.3882 33.3342 -20
      vertex 40.6925 35.742 -20
      vertex 40.6925 35.742 -3.66034
    endloop
  endfacet
  facet normal 0.817585 0.575808 -0
    outer loop
      vertex 42.3882 33.3342 -3.81287
      vertex 42.3882 33.3342 -20
      vertex 40.6925 35.742 -3.66034
    endloop
  endfacet
  facet normal 0.788346 0.615232 0
    outer loop
      vertex 40.6925 35.742 -20
      vertex 38.8806 38.0636 -20
      vertex 38.8806 38.0636 -3.49737
    endloop
  endfacet
  facet normal 0.788346 0.615232 -0
    outer loop
      vertex 40.6925 35.742 -3.66034
      vertex 40.6925 35.742 -20
      vertex 38.8806 38.0636 -3.49737
    endloop
  endfacet
  facet normal 0.757209 0.653173 0
    outer loop
      vertex 38.8806 38.0636 -20
      vertex 36.9571 40.2935 -20
      vertex 36.9571 40.2935 -3.32434
    endloop
  endfacet
  facet normal 0.757209 0.653173 -0
    outer loop
      vertex 38.8806 38.0636 -3.49737
      vertex 38.8806 38.0636 -20
      vertex 36.9571 40.2935 -3.32434
    endloop
  endfacet
  facet normal 0.724247 0.689541 0
    outer loop
      vertex 36.9571 40.2935 -20
      vertex 34.9264 42.4264 -20
      vertex 34.9264 42.4264 -3.14168
    endloop
  endfacet
  facet normal 0.724247 0.689541 -0
    outer loop
      vertex 36.9571 40.2935 -3.32434
      vertex 36.9571 40.2935 -20
      vertex 34.9264 42.4264 -3.14168
    endloop
  endfacet
  facet normal 0.689541 0.724247 0
    outer loop
      vertex 32.7935 44.4571 -20
      vertex 32.7935 44.4571 -2.94982
      vertex 34.9264 42.4264 -20
    endloop
  endfacet
  facet normal 0.689541 0.724247 0
    outer loop
      vertex 34.9264 42.4264 -20
      vertex 32.7935 44.4571 -2.94982
      vertex 34.9264 42.4264 -3.14168
    endloop
  endfacet
  facet normal 0.653173 0.757209 0
    outer loop
      vertex 30.5636 46.3806 -20
      vertex 30.5636 46.3806 -2.74924
      vertex 32.7935 44.4571 -20
    endloop
  endfacet
  facet normal 0.653173 0.757209 0
    outer loop
      vertex 32.7935 44.4571 -20
      vertex 30.5636 46.3806 -2.74924
      vertex 32.7935 44.4571 -2.94982
    endloop
  endfacet
  facet normal 0.615232 0.788346 0
    outer loop
      vertex 28.242 48.1925 -20
      vertex 28.242 48.1925 -2.5404
      vertex 30.5636 46.3806 -20
    endloop
  endfacet
  facet normal 0.615232 0.788346 0
    outer loop
      vertex 30.5636 46.3806 -20
      vertex 28.242 48.1925 -2.5404
      vertex 30.5636 46.3806 -2.74924
    endloop
  endfacet
  facet normal 0.575808 0.817585 0
    outer loop
      vertex 25.8342 49.8882 -20
      vertex 25.8342 49.8882 -2.32382
      vertex 28.242 48.1925 -20
    endloop
  endfacet
  facet normal 0.575808 0.817585 0
    outer loop
      vertex 28.242 48.1925 -20
      vertex 25.8342 49.8882 -2.32382
      vertex 28.242 48.1925 -2.5404
    endloop
  endfacet
  facet normal 0.534998 0.844854 0
    outer loop
      vertex 23.3462 51.4637 -20
      vertex 23.3462 51.4637 -2.10002
      vertex 25.8342 49.8882 -20
    endloop
  endfacet
  facet normal 0.534998 0.844854 0
    outer loop
      vertex 25.8342 49.8882 -20
      vertex 23.3462 51.4637 -2.10002
      vertex 25.8342 49.8882 -2.32382
    endloop
  endfacet
  facet normal 0.492898 0.870087 0
    outer loop
      vertex 20.7838 52.9153 -20
      vertex 20.7838 52.9153 -1.86953
      vertex 23.3462 51.4637 -20
    endloop
  endfacet
  facet normal 0.492898 0.870087 0
    outer loop
      vertex 23.3462 51.4637 -20
      vertex 20.7838 52.9153 -1.86953
      vertex 23.3462 51.4637 -2.10002
    endloop
  endfacet
  facet normal 0.449611 0.893224 0
    outer loop
      vertex 18.1533 54.2394 -20
      vertex 18.1533 54.2394 -1.63291
      vertex 20.7838 52.9153 -20
    endloop
  endfacet
  facet normal 0.449611 0.893224 0
    outer loop
      vertex 20.7838 52.9153 -20
      vertex 18.1533 54.2394 -1.63291
      vertex 20.7838 52.9153 -1.86953
    endloop
  endfacet
  facet normal 0.405241 0.91421 0
    outer loop
      vertex 15.461 55.4328 -20
      vertex 15.461 55.4328 -1.39074
      vertex 18.1533 54.2394 -20
    endloop
  endfacet
  facet normal 0.405241 0.91421 0
    outer loop
      vertex 18.1533 54.2394 -20
      vertex 15.461 55.4328 -1.39074
      vertex 18.1533 54.2394 -1.63291
    endloop
  endfacet
  facet normal 0.359895 0.932993 0
    outer loop
      vertex 12.7134 56.4926 -20
      vertex 12.7134 56.4926 -1.14359
      vertex 15.461 55.4328 -20
    endloop
  endfacet
  facet normal 0.359895 0.932993 0
    outer loop
      vertex 15.461 55.4328 -20
      vertex 12.7134 56.4926 -1.14359
      vertex 15.461 55.4328 -1.39074
    endloop
  endfacet
  facet normal 0.313682 0.949528 0
    outer loop
      vertex 9.91708 57.4164 -20
      vertex 9.91708 57.4164 -0.892055
      vertex 12.7134 56.4926 -20
    endloop
  endfacet
  facet normal 0.313682 0.949528 0
    outer loop
      vertex 12.7134 56.4926 -20
      vertex 9.91708 57.4164 -0.892055
      vertex 12.7134 56.4926 -1.14359
    endloop
  endfacet
  facet normal 0.266713 0.963776 0
    outer loop
      vertex 7.07881 58.2019 -20
      vertex 7.07881 58.2019 -0.636749
      vertex 9.91708 57.4164 -20
    endloop
  endfacet
  facet normal 0.266713 0.963776 0
    outer loop
      vertex 9.91708 57.4164 -20
      vertex 7.07881 58.2019 -0.636749
      vertex 9.91708 57.4164 -0.892055
    endloop
  endfacet
  facet normal 0.219101 0.975702 0
    outer loop
      vertex 4.20542 58.8471 -20
      vertex 4.20542 58.8471 -0.378283
      vertex 7.07881 58.2019 -20
    endloop
  endfacet
  facet normal 0.219101 0.975702 0
    outer loop
      vertex 7.07881 58.2019 -20
      vertex 4.20542 58.8471 -0.378283
      vertex 7.07881 58.2019 -0.636749
    endloop
  endfacet
  facet normal 0.170962 0.985278 0
    outer loop
      vertex 1.30383 59.3506 -20
      vertex 1.30383 59.3506 -0.117281
      vertex 4.20542 58.8471 -20
    endloop
  endfacet
  facet normal 0.170962 0.985278 0
    outer loop
      vertex 4.20542 58.8471 -20
      vertex 1.30383 59.3506 -0.117281
      vertex 4.20542 58.8471 -0.378283
    endloop
  endfacet
  facet normal 0.122411 0.99248 0
    outer loop
      vertex 0 59.5114 -20
      vertex 0 59.5114 0
      vertex 1.30383 59.3506 -20
    endloop
  endfacet
  facet normal 0.122411 0.99248 0
    outer loop
      vertex 1.30383 59.3506 -20
      vertex 0 59.5114 0
      vertex 1.30383 59.3506 -0.117281
    endloop
  endfacet
  facet normal -1 0 0
    outer loop
      vertex 0 59.5114 0
      vertex 0 59.5114 -20
      vertex 0 51.4532 0
    endloop
  endfacet
  facet normal -1 0 0
    outer loop
      vertex 0 51.4532 0
      vertex 0 59.5114 -20
      vertex 0 51.4532 -20
    endloop
  endfacet
  facet normal -0.122411 -0.99248 -0
    outer loop
      vertex 0.129985 51.4372 -20
      vertex 0.129985 51.4372 -0.0116923
      vertex 0 51.4532 0
    endloop
  endfacet
  facet normal -0.122411 -0.99248 -0
    outer loop
      vertex 0 51.4532 -20
      vertex 0.129985 51.4372 -20
      vertex 0 51.4532 0
    endloop
  endfacet
  facet normal -0.170962 -0.985278 -0
    outer loop
      vertex 2.6447 51.0008 -20
      vertex 2.6447 51.0008 -0.237894
      vertex 0.129985 51.4372 -0.0116923
    endloop
  endfacet
  facet normal -0.170962 -0.985278 -0
    outer loop
      vertex 0.129985 51.4372 -20
      vertex 2.6447 51.0008 -20
      vertex 0.129985 51.4372 -0.0116923
    endloop
  endfacet
  facet normal -0.219102 -0.975702 -0
    outer loop
      vertex 5.13497 50.4416 -20
      vertex 5.13497 50.4416 -0.461897
      vertex 2.6447 51.0008 -0.237894
    endloop
  endfacet
  facet normal -0.219102 -0.975702 -0
    outer loop
      vertex 2.6447 51.0008 -20
      vertex 5.13497 50.4416 -20
      vertex 2.6447 51.0008 -0.237894
    endloop
  endfacet
  facet normal -0.266713 -0.963776 -0
    outer loop
      vertex 7.5948 49.7609 -20
      vertex 7.5948 49.7609 -0.683163
      vertex 5.13497 50.4416 -0.461897
    endloop
  endfacet
  facet normal -0.266713 -0.963776 -0
    outer loop
      vertex 5.13497 50.4416 -20
      vertex 7.5948 49.7609 -20
      vertex 5.13497 50.4416 -0.461897
    endloop
  endfacet
  facet normal -0.313682 -0.949528 -0
    outer loop
      vertex 10.0183 48.9603 -20
      vertex 10.0183 48.9603 -0.901157
      vertex 7.5948 49.7609 -0.683163
    endloop
  endfacet
  facet normal -0.313682 -0.949528 -0
    outer loop
      vertex 7.5948 49.7609 -20
      vertex 10.0183 48.9603 -20
      vertex 7.5948 49.7609 -0.683163
    endloop
  endfacet
  facet normal -0.359895 -0.932993 -0
    outer loop
      vertex 12.3995 48.0417 -20
      vertex 12.3995 48.0417 -1.11536
      vertex 10.0183 48.9603 -0.901157
    endloop
  endfacet
  facet normal -0.359895 -0.932993 -0
    outer loop
      vertex 10.0183 48.9603 -20
      vertex 12.3995 48.0417 -20
      vertex 10.0183 48.9603 -0.901157
    endloop
  endfacet
  facet normal -0.405241 -0.91421 -0
    outer loop
      vertex 14.7329 47.0074 -20
      vertex 14.7329 47.0074 -1.32524
      vertex 12.3995 48.0417 -1.11536
    endloop
  endfacet
  facet normal -0.405241 -0.91421 -0
    outer loop
      vertex 12.3995 48.0417 -20
      vertex 14.7329 47.0074 -20
      vertex 12.3995 48.0417 -1.11536
    endloop
  endfacet
  facet normal -0.449611 -0.893224 -0
    outer loop
      vertex 17.0126 45.8599 -20
      vertex 17.0126 45.8599 -1.53031
      vertex 14.7329 47.0074 -1.32524
    endloop
  endfacet
  facet normal -0.449611 -0.893224 -0
    outer loop
      vertex 14.7329 47.0074 -20
      vertex 17.0126 45.8599 -20
      vertex 14.7329 47.0074 -1.32524
    endloop
  endfacet
  facet normal -0.492898 -0.870087 -0
    outer loop
      vertex 19.2333 44.6019 -20
      vertex 19.2333 44.6019 -1.73007
      vertex 17.0126 45.8599 -1.53031
    endloop
  endfacet
  facet normal -0.492898 -0.870087 -0
    outer loop
      vertex 17.0126 45.8599 -20
      vertex 19.2333 44.6019 -20
      vertex 17.0126 45.8599 -1.53031
    endloop
  endfacet
  facet normal -0.534998 -0.844853 -0
    outer loop
      vertex 21.3897 43.2364 -20
      vertex 21.3897 43.2364 -1.92403
      vertex 19.2333 44.6019 -1.73007
    endloop
  endfacet
  facet normal -0.534998 -0.844853 -0
    outer loop
      vertex 19.2333 44.6019 -20
      vertex 21.3897 43.2364 -20
      vertex 19.2333 44.6019 -1.73007
    endloop
  endfacet
  facet normal -0.575808 -0.817585 -0
    outer loop
      vertex 23.4764 41.7668 -20
      vertex 23.4764 41.7668 -2.11173
      vertex 21.3897 43.2364 -1.92403
    endloop
  endfacet
  facet normal -0.575808 -0.817585 -0
    outer loop
      vertex 21.3897 43.2364 -20
      vertex 23.4764 41.7668 -20
      vertex 21.3897 43.2364 -1.92403
    endloop
  endfacet
  facet normal -0.615232 -0.788346 -0
    outer loop
      vertex 25.4885 40.1965 -20
      vertex 25.4885 40.1965 -2.29272
      vertex 23.4764 41.7668 -2.11173
    endloop
  endfacet
  facet normal -0.615232 -0.788346 -0
    outer loop
      vertex 23.4764 41.7668 -20
      vertex 25.4885 40.1965 -20
      vertex 23.4764 41.7668 -2.11173
    endloop
  endfacet
  facet normal -0.653173 -0.757209 -0
    outer loop
      vertex 27.4211 38.5295 -20
      vertex 27.4211 38.5295 -2.46656
      vertex 25.4885 40.1965 -2.29272
    endloop
  endfacet
  facet normal -0.653173 -0.757209 -0
    outer loop
      vertex 25.4885 40.1965 -20
      vertex 27.4211 38.5295 -20
      vertex 25.4885 40.1965 -2.29272
    endloop
  endfacet
  facet normal -0.689541 -0.724247 -0
    outer loop
      vertex 29.2696 36.7696 -20
      vertex 29.2696 36.7696 -2.63284
      vertex 27.4211 38.5295 -2.46656
    endloop
  endfacet
  facet normal -0.689541 -0.724247 -0
    outer loop
      vertex 27.4211 38.5295 -20
      vertex 29.2696 36.7696 -20
      vertex 27.4211 38.5295 -2.46656
    endloop
  endfacet
  facet normal -0.724247 -0.689541 0
    outer loop
      vertex 31.0295 34.9211 -2.79114
      vertex 29.2696 36.7696 -2.63284
      vertex 31.0295 34.9211 -20
    endloop
  endfacet
  facet normal -0.724247 -0.689541 0
    outer loop
      vertex 31.0295 34.9211 -20
      vertex 29.2696 36.7696 -2.63284
      vertex 29.2696 36.7696 -20
    endloop
  endfacet
  facet normal -0.757209 -0.653173 0
    outer loop
      vertex 32.6965 32.9885 -2.9411
      vertex 31.0295 34.9211 -2.79114
      vertex 32.6965 32.9885 -20
    endloop
  endfacet
  facet normal -0.757209 -0.653173 0
    outer loop
      vertex 32.6965 32.9885 -20
      vertex 31.0295 34.9211 -2.79114
      vertex 31.0295 34.9211 -20
    endloop
  endfacet
  facet normal -0.788346 -0.615232 0
    outer loop
      vertex 34.2668 30.9764 -3.08234
      vertex 32.6965 32.9885 -2.9411
      vertex 34.2668 30.9764 -20
    endloop
  endfacet
  facet normal -0.788346 -0.615232 0
    outer loop
      vertex 34.2668 30.9764 -20
      vertex 32.6965 32.9885 -2.9411
      vertex 32.6965 32.9885 -20
    endloop
  endfacet
  facet normal -0.817585 -0.575808 0
    outer loop
      vertex 35.7364 28.8897 -3.21454
      vertex 34.2668 30.9764 -3.08234
      vertex 35.7364 28.8897 -20
    endloop
  endfacet
  facet normal -0.817585 -0.575808 0
    outer loop
      vertex 35.7364 28.8897 -20
      vertex 34.2668 30.9764 -3.08234
      vertex 34.2668 30.9764 -20
    endloop
  endfacet
  facet normal -0.844853 -0.534998 0
    outer loop
      vertex 37.1019 26.7333 -3.33737
      vertex 35.7364 28.8897 -3.21454
      vertex 37.1019 26.7333 -20
    endloop
  endfacet
  facet normal -0.844853 -0.534998 0
    outer loop
      vertex 37.1019 26.7333 -20
      vertex 35.7364 28.8897 -3.21454
      vertex 35.7364 28.8897 -20
    endloop
  endfacet
  facet normal -0.870087 -0.492898 0
    outer loop
      vertex 38.3599 24.5126 -3.45053
      vertex 37.1019 26.7333 -3.33737
      vertex 38.3599 24.5126 -20
    endloop
  endfacet
  facet normal -0.870087 -0.492898 0
    outer loop
      vertex 38.3599 24.5126 -20
      vertex 37.1019 26.7333 -3.33737
      vertex 37.1019 26.7333 -20
    endloop
  endfacet
  facet normal -0.893224 -0.449611 0
    outer loop
      vertex 39.5074 22.2329 -3.55375
      vertex 38.3599 24.5126 -3.45053
      vertex 39.5074 22.2329 -20
    endloop
  endfacet
  facet normal -0.893224 -0.449611 0
    outer loop
      vertex 39.5074 22.2329 -20
      vertex 38.3599 24.5126 -3.45053
      vertex 38.3599 24.5126 -20
    endloop
  endfacet
  facet normal -0.91421 -0.405241 0
    outer loop
      vertex 40.5417 19.8995 -3.64678
      vertex 39.5074 22.2329 -3.55375
      vertex 40.5417 19.8995 -20
    endloop
  endfacet
  facet normal -0.91421 -0.405241 0
    outer loop
      vertex 40.5417 19.8995 -20
      vertex 39.5074 22.2329 -3.55375
      vertex 39.5074 22.2329 -20
    endloop
  endfacet
  facet normal -0.932993 -0.359895 0
    outer loop
      vertex 41.4603 17.5183 -3.72941
      vertex 40.5417 19.8995 -3.64678
      vertex 41.4603 17.5183 -20
    endloop
  endfacet
  facet normal -0.932993 -0.359895 0
    outer loop
      vertex 41.4603 17.5183 -20
      vertex 40.5417 19.8995 -3.64678
      vertex 40.5417 19.8995 -20
    endloop
  endfacet
  facet normal -0.949528 -0.313682 0
    outer loop
      vertex 42.2609 15.0948 -3.80143
      vertex 41.4603 17.5183 -3.72941
      vertex 42.2609 15.0948 -20
    endloop
  endfacet
  facet normal -0.949528 -0.313682 0
    outer loop
      vertex 42.2609 15.0948 -20
      vertex 41.4603 17.5183 -3.72941
      vertex 41.4603 17.5183 -20
    endloop
  endfacet
  facet normal -0.963776 -0.266713 0
    outer loop
      vertex 42.9416 12.635 -3.86266
      vertex 42.2609 15.0948 -3.80143
      vertex 42.9416 12.635 -20
    endloop
  endfacet
  facet normal -0.963776 -0.266713 0
    outer loop
      vertex 42.9416 12.635 -20
      vertex 42.2609 15.0948 -3.80143
      vertex 42.2609 15.0948 -20
    endloop
  endfacet
  facet normal -0.975702 -0.219102 0
    outer loop
      vertex 43.5008 10.1447 -3.91296
      vertex 42.9416 12.635 -3.86266
      vertex 43.5008 10.1447 -20
    endloop
  endfacet
  facet normal -0.975702 -0.219102 0
    outer loop
      vertex 43.5008 10.1447 -20
      vertex 42.9416 12.635 -3.86266
      vertex 42.9416 12.635 -20
    endloop
  endfacet
  facet normal -0.985278 -0.170962 0
    outer loop
      vertex 43.9372 7.62998 -3.95221
      vertex 43.5008 10.1447 -3.91296
      vertex 43.9372 7.62998 -20
    endloop
  endfacet
  facet normal -0.985278 -0.170962 0
    outer loop
      vertex 43.9372 7.62998 -20
      vertex 43.5008 10.1447 -3.91296
      vertex 43.5008 10.1447 -20
    endloop
  endfacet
  facet normal -0.99248 -0.122411 0
    outer loop
      vertex 44.2496 5.09689 -3.98031
      vertex 43.9372 7.62998 -3.95221
      vertex 44.2496 5.09689 -20
    endloop
  endfacet
  facet normal -0.99248 -0.122411 0
    outer loop
      vertex 44.2496 5.09689 -20
      vertex 43.9372 7.62998 -3.95221
      vertex 43.9372 7.62998 -20
    endloop
  endfacet
  facet normal -0.99729 -0.0735646 0
    outer loop
      vertex 44.4374 2.55152 -3.9972
      vertex 44.2496 5.09689 -3.98031
      vertex 44.4374 2.55152 -20
    endloop
  endfacet
  facet normal -0.99729 -0.0735646 0
    outer loop
      vertex 44.4374 2.55152 -20
      vertex 44.2496 5.09689 -3.98031
      vertex 44.2496 5.09689 -20
    endloop
  endfacet
  facet normal -0.999699 -0.0245411 0
    outer loop
      vertex 44.5 0 -4.00284
      vertex 44.4374 2.55152 -3.9972
      vertex 44.5 0 -20
    endloop
  endfacet
  facet normal -0.999699 -0.0245411 0
    outer loop
      vertex 44.5 0 -20
      vertex 44.4374 2.55152 -3.9972
      vertex 44.4374 2.55152 -20
    endloop
  endfacet
  facet normal -0.999699 0.0245411 0
    outer loop
      vertex 44.5 0 -4.00284
      vertex 44.5 0 -20
      vertex 44.4374 -2.55152 -3.9972
    endloop
  endfacet
  facet normal -0.999699 0.0245411 0
    outer loop
      vertex 44.4374 -2.55152 -3.9972
      vertex 44.5 0 -20
      vertex 44.4374 -2.55152 -20
    endloop
  endfacet
  facet normal -0.99729 0.0735646 0
    outer loop
      vertex 44.4374 -2.55152 -3.9972
      vertex 44.4374 -2.55152 -20
      vertex 44.2496 -5.09689 -3.98031
    endloop
  endfacet
  facet normal -0.99729 0.0735646 0
    outer loop
      vertex 44.2496 -5.09689 -3.98031
      vertex 44.4374 -2.55152 -20
      vertex 44.2496 -5.09689 -20
    endloop
  endfacet
  facet normal -0.99248 0.122411 0
    outer loop
      vertex 44.2496 -5.09689 -3.98031
      vertex 44.2496 -5.09689 -20
      vertex 43.9372 -7.62998 -3.95221
    endloop
  endfacet
  facet normal -0.99248 0.122411 0
    outer loop
      vertex 43.9372 -7.62998 -3.95221
      vertex 44.2496 -5.09689 -20
      vertex 43.9372 -7.62998 -20
    endloop
  endfacet
  facet normal -0.985278 0.170962 0
    outer loop
      vertex 43.9372 -7.62998 -3.95221
      vertex 43.9372 -7.62998 -20
      vertex 43.5008 -10.1447 -3.91296
    endloop
  endfacet
  facet normal -0.985278 0.170962 0
    outer loop
      vertex 43.5008 -10.1447 -3.91296
      vertex 43.9372 -7.62998 -20
      vertex 43.5008 -10.1447 -20
    endloop
  endfacet
  facet normal -0.975702 0.219102 0
    outer loop
      vertex 43.5008 -10.1447 -3.91296
      vertex 43.5008 -10.1447 -20
      vertex 42.9416 -12.635 -3.86266
    endloop
  endfacet
  facet normal -0.975702 0.219102 0
    outer loop
      vertex 42.9416 -12.635 -3.86266
      vertex 43.5008 -10.1447 -20
      vertex 42.9416 -12.635 -20
    endloop
  endfacet
  facet normal -0.963776 0.266713 0
    outer loop
      vertex 42.9416 -12.635 -3.86266
      vertex 42.9416 -12.635 -20
      vertex 42.2609 -15.0948 -3.80143
    endloop
  endfacet
  facet normal -0.963776 0.266713 0
    outer loop
      vertex 42.2609 -15.0948 -3.80143
      vertex 42.9416 -12.635 -20
      vertex 42.2609 -15.0948 -20
    endloop
  endfacet
  facet normal -0.949528 0.313682 0
    outer loop
      vertex 42.2609 -15.0948 -3.80143
      vertex 42.2609 -15.0948 -20
      vertex 41.4603 -17.5183 -3.72941
    endloop
  endfacet
  facet normal -0.949528 0.313682 0
    outer loop
      vertex 41.4603 -17.5183 -3.72941
      vertex 42.2609 -15.0948 -20
      vertex 41.4603 -17.5183 -20
    endloop
  endfacet
  facet normal -0.932993 0.359895 0
    outer loop
      vertex 41.4603 -17.5183 -3.72941
      vertex 41.4603 -17.5183 -20
      vertex 40.5417 -19.8995 -3.64678
    endloop
  endfacet
  facet normal -0.932993 0.359895 0
    outer loop
      vertex 40.5417 -19.8995 -3.64678
      vertex 41.4603 -17.5183 -20
      vertex 40.5417 -19.8995 -20
    endloop
  endfacet
  facet normal -0.91421 0.405241 0
    outer loop
      vertex 40.5417 -19.8995 -3.64678
      vertex 40.5417 -19.8995 -20
      vertex 39.5074 -22.2329 -3.55375
    endloop
  endfacet
  facet normal -0.91421 0.405241 0
    outer loop
      vertex 39.5074 -22.2329 -3.55375
      vertex 40.5417 -19.8995 -20
      vertex 39.5074 -22.2329 -20
    endloop
  endfacet
  facet normal -0.893224 0.449611 0
    outer loop
      vertex 39.5074 -22.2329 -3.55375
      vertex 39.5074 -22.2329 -20
      vertex 38.3599 -24.5126 -3.45053
    endloop
  endfacet
  facet normal -0.893224 0.449611 0
    outer loop
      vertex 38.3599 -24.5126 -3.45053
      vertex 39.5074 -22.2329 -20
      vertex 38.3599 -24.5126 -20
    endloop
  endfacet
  facet normal -0.870087 0.492898 0
    outer loop
      vertex 38.3599 -24.5126 -3.45053
      vertex 38.3599 -24.5126 -20
      vertex 37.1019 -26.7333 -3.33737
    endloop
  endfacet
  facet normal -0.870087 0.492898 0
    outer loop
      vertex 37.1019 -26.7333 -3.33737
      vertex 38.3599 -24.5126 -20
      vertex 37.1019 -26.7333 -20
    endloop
  endfacet
  facet normal -0.844853 0.534998 0
    outer loop
      vertex 37.1019 -26.7333 -3.33737
      vertex 37.1019 -26.7333 -20
      vertex 35.7364 -28.8897 -3.21454
    endloop
  endfacet
  facet normal -0.844853 0.534998 0
    outer loop
      vertex 35.7364 -28.8897 -3.21454
      vertex 37.1019 -26.7333 -20
      vertex 35.7364 -28.8897 -20
    endloop
  endfacet
  facet normal -0.817585 0.575808 0
    outer loop
      vertex 35.7364 -28.8897 -3.21454
      vertex 35.7364 -28.8897 -20
      vertex 34.2668 -30.9764 -3.08234
    endloop
  endfacet
  facet normal -0.817585 0.575808 0
    outer loop
      vertex 34.2668 -30.9764 -3.08234
      vertex 35.7364 -28.8897 -20
      vertex 34.2668 -30.9764 -20
    endloop
  endfacet
  facet normal -0.788346 0.615232 0
    outer loop
      vertex 34.2668 -30.9764 -3.08234
      vertex 34.2668 -30.9764 -20
      vertex 32.6965 -32.9885 -2.9411
    endloop
  endfacet
  facet normal -0.788346 0.615232 0
    outer loop
      vertex 32.6965 -32.9885 -2.9411
      vertex 34.2668 -30.9764 -20
      vertex 32.6965 -32.9885 -20
    endloop
  endfacet
  facet normal -0.757209 0.653173 0
    outer loop
      vertex 32.6965 -32.9885 -2.9411
      vertex 32.6965 -32.9885 -20
      vertex 31.0295 -34.9211 -2.79114
    endloop
  endfacet
  facet normal -0.757209 0.653173 0
    outer loop
      vertex 31.0295 -34.9211 -2.79114
      vertex 32.6965 -32.9885 -20
      vertex 31.0295 -34.9211 -20
    endloop
  endfacet
  facet normal -0.724247 0.689541 0
    outer loop
      vertex 31.0295 -34.9211 -2.79114
      vertex 31.0295 -34.9211 -20
      vertex 29.2696 -36.7696 -2.63284
    endloop
  endfacet
  facet normal -0.724247 0.689541 0
    outer loop
      vertex 29.2696 -36.7696 -2.63284
      vertex 31.0295 -34.9211 -20
      vertex 29.2696 -36.7696 -20
    endloop
  endfacet
  facet normal -0.689541 0.724247 0
    outer loop
      vertex 29.2696 -36.7696 -2.63284
      vertex 29.2696 -36.7696 -20
      vertex 27.4211 -38.5295 -2.46656
    endloop
  endfacet
  facet normal -0.689541 0.724247 0
    outer loop
      vertex 27.4211 -38.5295 -2.46656
      vertex 29.2696 -36.7696 -20
      vertex 27.4211 -38.5295 -20
    endloop
  endfacet
  facet normal -0.653173 0.757209 0
    outer loop
      vertex 27.4211 -38.5295 -2.46656
      vertex 27.4211 -38.5295 -20
      vertex 25.4885 -40.1965 -2.29272
    endloop
  endfacet
  facet normal -0.653173 0.757209 0
    outer loop
      vertex 25.4885 -40.1965 -2.29272
      vertex 27.4211 -38.5295 -20
      vertex 25.4885 -40.1965 -20
    endloop
  endfacet
  facet normal -0.615232 0.788346 0
    outer loop
      vertex 25.4885 -40.1965 -2.29272
      vertex 25.4885 -40.1965 -20
      vertex 23.4764 -41.7668 -2.11173
    endloop
  endfacet
  facet normal -0.615232 0.788346 0
    outer loop
      vertex 23.4764 -41.7668 -2.11173
      vertex 25.4885 -40.1965 -20
      vertex 23.4764 -41.7668 -20
    endloop
  endfacet
  facet normal -0.575808 0.817585 0
    outer loop
      vertex 23.4764 -41.7668 -2.11173
      vertex 23.4764 -41.7668 -20
      vertex 21.3897 -43.2364 -1.92403
    endloop
  endfacet
  facet normal -0.575808 0.817585 0
    outer loop
      vertex 21.3897 -43.2364 -1.92403
      vertex 23.4764 -41.7668 -20
      vertex 21.3897 -43.2364 -20
    endloop
  endfacet
  facet normal -0.534998 0.844853 0
    outer loop
      vertex 21.3897 -43.2364 -1.92403
      vertex 21.3897 -43.2364 -20
      vertex 19.2333 -44.6019 -1.73007
    endloop
  endfacet
  facet normal -0.534998 0.844853 0
    outer loop
      vertex 19.2333 -44.6019 -1.73007
      vertex 21.3897 -43.2364 -20
      vertex 19.2333 -44.6019 -20
    endloop
  endfacet
  facet normal -0.492898 0.870087 0
    outer loop
      vertex 19.2333 -44.6019 -1.73007
      vertex 19.2333 -44.6019 -20
      vertex 17.0126 -45.8599 -1.53031
    endloop
  endfacet
  facet normal -0.492898 0.870087 0
    outer loop
      vertex 17.0126 -45.8599 -1.53031
      vertex 19.2333 -44.6019 -20
      vertex 17.0126 -45.8599 -20
    endloop
  endfacet
  facet normal -0.449611 0.893224 0
    outer loop
      vertex 17.0126 -45.8599 -1.53031
      vertex 17.0126 -45.8599 -20
      vertex 14.7329 -47.0074 -1.32524
    endloop
  endfacet
  facet normal -0.449611 0.893224 0
    outer loop
      vertex 14.7329 -47.0074 -1.32524
      vertex 17.0126 -45.8599 -20
      vertex 14.7329 -47.0074 -20
    endloop
  endfacet
  facet normal -0.405241 0.91421 0
    outer loop
      vertex 14.7329 -47.0074 -1.32524
      vertex 14.7329 -47.0074 -20
      vertex 12.3995 -48.0417 -1.11536
    endloop
  endfacet
  facet normal -0.405241 0.91421 0
    outer loop
      vertex 12.3995 -48.0417 -1.11536
      vertex 14.7329 -47.0074 -20
      vertex 12.3995 -48.0417 -20
    endloop
  endfacet
  facet normal -0.359895 0.932993 0
    outer loop
      vertex 12.3995 -48.0417 -1.11536
      vertex 12.3995 -48.0417 -20
      vertex 10.0183 -48.9603 -0.901157
    endloop
  endfacet
  facet normal -0.359895 0.932993 0
    outer loop
      vertex 10.0183 -48.9603 -0.901157
      vertex 12.3995 -48.0417 -20
      vertex 10.0183 -48.9603 -20
    endloop
  endfacet
  facet normal -0.313682 0.949528 0
    outer loop
      vertex 10.0183 -48.9603 -0.901157
      vertex 10.0183 -48.9603 -20
      vertex 7.5948 -49.7609 -0.683163
    endloop
  endfacet
  facet normal -0.313682 0.949528 0
    outer loop
      vertex 7.5948 -49.7609 -0.683163
      vertex 10.0183 -48.9603 -20
      vertex 7.5948 -49.7609 -20
    endloop
  endfacet
  facet normal -0.266713 0.963776 0
    outer loop
      vertex 7.5948 -49.7609 -0.683163
      vertex 7.5948 -49.7609 -20
      vertex 5.13497 -50.4416 -0.461897
    endloop
  endfacet
  facet normal -0.266713 0.963776 0
    outer loop
      vertex 5.13497 -50.4416 -0.461897
      vertex 7.5948 -49.7609 -20
      vertex 5.13497 -50.4416 -20
    endloop
  endfacet
  facet normal -0.219102 0.975702 0
    outer loop
      vertex 5.13497 -50.4416 -0.461897
      vertex 5.13497 -50.4416 -20
      vertex 2.6447 -51.0008 -0.237894
    endloop
  endfacet
  facet normal -0.219102 0.975702 0
    outer loop
      vertex 2.6447 -51.0008 -0.237894
      vertex 5.13497 -50.4416 -20
      vertex 2.6447 -51.0008 -20
    endloop
  endfacet
  facet normal -0.170962 0.985278 0
    outer loop
      vertex 2.6447 -51.0008 -0.237894
      vertex 2.6447 -51.0008 -20
      vertex 0.129985 -51.4372 -0.0116923
    endloop
  endfacet
  facet normal -0.170962 0.985278 0
    outer loop
      vertex 0.129985 -51.4372 -0.0116923
      vertex 2.6447 -51.0008 -20
      vertex 0.129985 -51.4372 -20
    endloop
  endfacet
  facet normal -0.122411 0.99248 0
    outer loop
      vertex 0.129985 -51.4372 -0.0116923
      vertex 0.129985 -51.4372 -20
      vertex 0 -51.4532 0
    endloop
  endfacet
  facet normal -0.122411 0.99248 0
    outer loop
      vertex 0 -51.4532 0
      vertex 0.129985 -51.4372 -20
      vertex 0 -51.4532 -20
    endloop
  endfacet
  facet normal 0.0895896 5.41615e-16 0.995979
    outer loop
      vertex 1.30383 -59.3506 -0.117281
      vertex 4.20542 -58.8471 -0.378283
      vertex 7.07881 -58.2019 -0.636749
    endloop
  endfacet
  facet normal 0.0895896 -3.53061e-16 0.995979
    outer loop
      vertex 12.7134 -56.4926 -1.14359
      vertex 1.30383 -59.3506 -0.117281
      vertex 9.91708 -57.4164 -0.892055
    endloop
  endfacet
  facet normal 0.0895896 2.00966e-16 0.995979
    outer loop
      vertex 9.91708 -57.4164 -0.892055
      vertex 1.30383 -59.3506 -0.117281
      vertex 7.07881 -58.2019 -0.636749
    endloop
  endfacet
  facet normal 0.0895896 3.26673e-16 0.995979
    outer loop
      vertex 15.461 -55.4328 -1.39074
      vertex 1.30383 -59.3506 -0.117281
      vertex 12.7134 -56.4926 -1.14359
    endloop
  endfacet
  facet normal 0.0895896 -1.54556e-16 0.995979
    outer loop
      vertex 18.1533 -54.2394 -1.63291
      vertex 1.30383 -59.3506 -0.117281
      vertex 15.461 -55.4328 -1.39074
    endloop
  endfacet
  facet normal 0.0895896 -7.39568e-17 0.995979
    outer loop
      vertex 20.7838 -52.9153 -1.86953
      vertex 1.30383 -59.3506 -0.117281
      vertex 18.1533 -54.2394 -1.63291
    endloop
  endfacet
  facet normal 0.0895896 1.4244e-16 0.995979
    outer loop
      vertex 23.3462 -51.4637 -2.10002
      vertex 1.30383 -59.3506 -0.117281
      vertex 20.7838 -52.9153 -1.86953
    endloop
  endfacet
  facet normal 0.0895896 1.37651e-16 0.995979
    outer loop
      vertex 25.8342 -49.8882 -2.32382
      vertex 1.30383 -59.3506 -0.117281
      vertex 23.3462 -51.4637 -2.10002
    endloop
  endfacet
  facet normal 0.0895896 -2.66563e-16 0.995979
    outer loop
      vertex 28.242 -48.1925 -2.5404
      vertex 1.30383 -59.3506 -0.117281
      vertex 25.8342 -49.8882 -2.32382
    endloop
  endfacet
  facet normal 0.0895896 1.93763e-16 0.995979
    outer loop
      vertex 30.5636 -46.3806 -2.74924
      vertex 1.30383 -59.3506 -0.117281
      vertex 28.242 -48.1925 -2.5404
    endloop
  endfacet
  facet normal 0.0895896 -3.44393e-16 0.995979
    outer loop
      vertex 32.7935 -44.4571 -2.94982
      vertex 1.30383 -59.3506 -0.117281
      vertex 30.5636 -46.3806 -2.74924
    endloop
  endfacet
  facet normal 0.0895896 9.10461e-17 0.995979
    outer loop
      vertex 34.9264 -42.4264 -3.14168
      vertex 1.30383 -59.3506 -0.117281
      vertex 32.7935 -44.4571 -2.94982
    endloop
  endfacet
  facet normal 0.0895896 2.6464e-16 0.995979
    outer loop
      vertex 36.9571 -40.2935 -3.32434
      vertex 1.30383 -59.3506 -0.117281
      vertex 34.9264 -42.4264 -3.14168
    endloop
  endfacet
  facet normal 0.0895896 -5.69374e-17 0.995979
    outer loop
      vertex 38.8806 -38.0636 -3.49737
      vertex 1.30383 -59.3506 -0.117281
      vertex 36.9571 -40.2935 -3.32434
    endloop
  endfacet
  facet normal 0.0895896 -2.75371e-16 0.995979
    outer loop
      vertex 40.6925 -35.742 -3.66034
      vertex 1.30383 -59.3506 -0.117281
      vertex 38.8806 -38.0636 -3.49737
    endloop
  endfacet
  facet normal 0.0895896 2.52764e-16 0.995979
    outer loop
      vertex 42.3882 -33.3342 -3.81287
      vertex 1.30383 -59.3506 -0.117281
      vertex 40.6925 -35.742 -3.66034
    endloop
  endfacet
  facet normal 0.0895896 -1.02704e-16 0.995979
    outer loop
      vertex 43.9637 -30.8462 -3.9546
      vertex 1.30383 -59.3506 -0.117281
      vertex 42.3882 -33.3342 -3.81287
    endloop
  endfacet
  facet normal 0.0895896 -3.46412e-16 0.995979
    outer loop
      vertex 45.4153 -28.2838 -4.08517
      vertex 1.30383 -59.3506 -0.117281
      vertex 43.9637 -30.8462 -3.9546
    endloop
  endfacet
  facet normal 0.0895896 3.92865e-16 0.995979
    outer loop
      vertex 46.7394 -25.6533 -4.20427
      vertex 1.30383 -59.3506 -0.117281
      vertex 45.4153 -28.2838 -4.08517
    endloop
  endfacet
  facet normal 0.0895896 2.28749e-17 0.995979
    outer loop
      vertex 47.9328 -22.961 -4.31162
      vertex 1.30383 -59.3506 -0.117281
      vertex 46.7394 -25.6533 -4.20427
    endloop
  endfacet
  facet normal 0.0895896 -1.23761e-15 0.995979
    outer loop
      vertex 25.4885 -40.1965 -2.29272
      vertex 1.30383 -59.3506 -0.117281
      vertex 47.9328 -22.961 -4.31162
    endloop
  endfacet
  facet normal 0.0895896 8.27279e-16 0.995979
    outer loop
      vertex 23.4764 -41.7668 -2.11173
      vertex 21.3897 -43.2364 -1.92403
      vertex 1.30383 -59.3506 -0.117281
    endloop
  endfacet
  facet normal 0.0895896 2.28466e-16 0.995979
    outer loop
      vertex 31.0295 -34.9211 -2.79114
      vertex 29.2696 -36.7696 -2.63284
      vertex 48.9926 -20.2134 -4.40695
    endloop
  endfacet
  facet normal 0.0895896 1.91043e-16 0.995979
    outer loop
      vertex 35.7364 -28.8897 -3.21454
      vertex 34.2668 -30.9764 -3.08234
      vertex 49.9164 -17.4171 -4.49005
    endloop
  endfacet
  facet normal 0.0895896 0 0.995979
    outer loop
      vertex 37.1019 -26.7333 -3.33737
      vertex 35.7364 -28.8897 -3.21454
      vertex 50.7019 -14.5788 -4.5607
    endloop
  endfacet
  facet normal 0.0895896 0 0.995979
    outer loop
      vertex 39.5074 -22.2329 -3.55375
      vertex 38.3599 -24.5126 -3.45053
      vertex 51.3471 -11.7054 -4.61874
    endloop
  endfacet
  facet normal 0.0895896 -1.77824e-16 0.995979
    outer loop
      vertex 40.5417 -19.8995 -3.64678
      vertex 39.5074 -22.2329 -3.55375
      vertex 51.8506 -8.80383 -4.66403
    endloop
  endfacet
  facet normal 0.0895896 4.08805e-17 0.995979
    outer loop
      vertex 42.2609 -15.0948 -3.80143
      vertex 41.4603 -17.5183 -3.72941
      vertex 52.2111 -5.88103 -4.69646
    endloop
  endfacet
  facet normal 0.0895896 8.72499e-17 0.995979
    outer loop
      vertex 42.9416 -12.635 -3.86266
      vertex 42.2609 -15.0948 -3.80143
      vertex 52.4277 -2.94406 -4.71595
    endloop
  endfacet
  facet normal 0.0895896 -9.56124e-17 0.995979
    outer loop
      vertex 43.5008 -10.1447 -3.91296
      vertex 42.9416 -12.635 -3.86266
      vertex 52.5 0 -4.72245
    endloop
  endfacet
  facet normal 0.0895896 -1.69805e-16 0.995979
    outer loop
      vertex 44.2496 -5.09689 -3.98031
      vertex 43.9372 -7.62998 -3.95221
      vertex 52.4277 2.94406 -4.71595
    endloop
  endfacet
  facet normal 0.0895896 1.51852e-16 0.995979
    outer loop
      vertex 44.4374 -2.55152 -3.9972
      vertex 44.2496 -5.09689 -3.98031
      vertex 52.2111 5.88103 -4.69646
    endloop
  endfacet
  facet normal 0.0895896 -1.8207e-16 0.995979
    outer loop
      vertex 44.5 0 -4.00284
      vertex 44.4374 -2.55152 -3.9972
      vertex 51.8506 8.80383 -4.66403
    endloop
  endfacet
  facet normal 0.0895896 1.70493e-16 0.995979
    outer loop
      vertex 44.4374 2.55152 -3.9972
      vertex 44.5 0 -4.00284
      vertex 51.3471 11.7054 -4.61874
    endloop
  endfacet
  facet normal 0.0895896 -1.22665e-16 0.995979
    outer loop
      vertex 44.2496 5.09689 -3.98031
      vertex 44.4374 2.55152 -3.9972
      vertex 50.7019 14.5788 -4.5607
    endloop
  endfacet
  facet normal 0.0895896 -7.8093e-17 0.995979
    outer loop
      vertex 43.5008 10.1447 -3.91296
      vertex 43.9372 7.62998 -3.95221
      vertex 49.9164 17.4171 -4.49005
    endloop
  endfacet
  facet normal 0.0895896 5.91057e-17 0.995979
    outer loop
      vertex 42.9416 12.635 -3.86266
      vertex 43.5008 10.1447 -3.91296
      vertex 48.9926 20.2134 -4.40695
    endloop
  endfacet
  facet normal 0.0895896 -2.76869e-17 0.995979
    outer loop
      vertex 42.2609 15.0948 -3.80143
      vertex 42.9416 12.635 -3.86266
      vertex 47.9328 22.961 -4.31162
    endloop
  endfacet
  facet normal 0.0895896 -8.8835e-18 0.995979
    outer loop
      vertex 41.4603 17.5183 -3.72941
      vertex 42.2609 15.0948 -3.80143
      vertex 46.7394 25.6533 -4.20427
    endloop
  endfacet
  facet normal 0.0895896 -4.40355e-17 0.995979
    outer loop
      vertex 40.5417 19.8995 -3.64678
      vertex 41.4603 17.5183 -3.72941
      vertex 45.4153 28.2838 -4.08517
    endloop
  endfacet
  facet normal 0.0895896 4.64741e-17 0.995979
    outer loop
      vertex 39.5074 22.2329 -3.55375
      vertex 40.5417 19.8995 -3.64678
      vertex 43.9637 30.8462 -3.9546
    endloop
  endfacet
  facet normal 0.0895896 -3.48207e-18 0.995979
    outer loop
      vertex 38.3599 24.5126 -3.45053
      vertex 39.5074 22.2329 -3.55375
      vertex 42.3882 33.3342 -3.81287
    endloop
  endfacet
  facet normal 0.0895896 -8.09494e-18 0.995979
    outer loop
      vertex 35.7364 28.8897 -3.21454
      vertex 37.1019 26.7333 -3.33737
      vertex 40.6925 35.742 -3.66034
    endloop
  endfacet
  facet normal 0.0895896 -1.29893e-17 0.995979
    outer loop
      vertex 34.2668 30.9764 -3.08234
      vertex 35.7364 28.8897 -3.21454
      vertex 38.8806 38.0636 -3.49737
    endloop
  endfacet
  facet normal 0.0895896 4.14003e-17 0.995979
    outer loop
      vertex 32.6965 32.9885 -2.9411
      vertex 34.2668 30.9764 -3.08234
      vertex 36.9571 40.2935 -3.32434
    endloop
  endfacet
  facet normal 0.0895896 1.94228e-17 0.995979
    outer loop
      vertex 31.0295 34.9211 -2.79114
      vertex 32.6965 32.9885 -2.9411
      vertex 34.9264 42.4264 -3.14168
    endloop
  endfacet
  facet normal 0.0895896 -3.56599e-17 0.995979
    outer loop
      vertex 29.2696 36.7696 -2.63284
      vertex 31.0295 34.9211 -2.79114
      vertex 32.7935 44.4571 -2.94982
    endloop
  endfacet
  facet normal 0.0895896 1.59404e-17 0.995979
    outer loop
      vertex 27.4211 38.5295 -2.46656
      vertex 29.2696 36.7696 -2.63284
      vertex 30.5636 46.3806 -2.74924
    endloop
  endfacet
  facet normal 0.0895896 -2.48004e-17 0.995979
    outer loop
      vertex 25.4885 40.1965 -2.29272
      vertex 27.4211 38.5295 -2.46656
      vertex 28.242 48.1925 -2.5404
    endloop
  endfacet
  facet normal 0.0895896 3.97987e-17 0.995979
    outer loop
      vertex 23.4764 41.7668 -2.11173
      vertex 25.4885 40.1965 -2.29272
      vertex 25.8342 49.8882 -2.32382
    endloop
  endfacet
  facet normal 0.0895896 8.75217e-18 0.995979
    outer loop
      vertex 21.3897 43.2364 -1.92403
      vertex 23.4764 41.7668 -2.11173
      vertex 23.3462 51.4637 -2.10002
    endloop
  endfacet
  facet normal 0.0895896 -1.19151e-17 0.995979
    outer loop
      vertex 19.2333 44.6019 -1.73007
      vertex 21.3897 43.2364 -1.92403
      vertex 20.7838 52.9153 -1.86953
    endloop
  endfacet
  facet normal 0.0895896 2.21344e-17 0.995979
    outer loop
      vertex 14.7329 47.0074 -1.32524
      vertex 17.0126 45.8599 -1.53031
      vertex 18.1533 54.2394 -1.63291
    endloop
  endfacet
  facet normal 0.0895896 -9.24766e-18 0.995979
    outer loop
      vertex 12.3995 48.0417 -1.11536
      vertex 14.7329 47.0074 -1.32524
      vertex 15.461 55.4328 -1.39074
    endloop
  endfacet
  facet normal 0.0895896 9.60468e-18 0.995979
    outer loop
      vertex 10.0183 48.9603 -0.901157
      vertex 12.3995 48.0417 -1.11536
      vertex 12.7134 56.4926 -1.14359
    endloop
  endfacet
  facet normal 0.0895896 4.96068e-18 0.995979
    outer loop
      vertex 7.5948 49.7609 -0.683163
      vertex 10.0183 48.9603 -0.901157
      vertex 9.91708 57.4164 -0.892055
    endloop
  endfacet
  facet normal 0.0895896 7.646e-18 0.995979
    outer loop
      vertex 5.13497 50.4416 -0.461897
      vertex 7.5948 49.7609 -0.683163
      vertex 7.07881 58.2019 -0.636749
    endloop
  endfacet
  facet normal 0.0895896 -2.60549e-18 0.995979
    outer loop
      vertex 2.6447 51.0008 -0.237894
      vertex 5.13497 50.4416 -0.461897
      vertex 4.20542 58.8471 -0.378283
    endloop
  endfacet
  facet normal 0.0895896 0 0.995979
    outer loop
      vertex 0.129985 51.4372 -0.0116923
      vertex 2.6447 51.0008 -0.237894
      vertex 1.30383 59.3506 -0.117281
    endloop
  endfacet
  facet normal 0.0895896 -1.67511e-19 0.995979
    outer loop
      vertex 0 59.5114 0
      vertex 0.129985 51.4372 -0.0116923
      vertex 1.30383 59.3506 -0.117281
    endloop
  endfacet
  facet normal 0.0895896 0 0.995979
    outer loop
      vertex 1.30383 59.3506 -0.117281
      vertex 2.6447 51.0008 -0.237894
      vertex 4.20542 58.8471 -0.378283
    endloop
  endfacet
  facet normal 0.0895896 1.29572e-18 0.995979
    outer loop
      vertex 4.20542 58.8471 -0.378283
      vertex 5.13497 50.4416 -0.461897
      vertex 7.07881 58.2019 -0.636749
    endloop
  endfacet
  facet normal 0.0895896 9.14676e-18 0.995979
    outer loop
      vertex 7.07881 58.2019 -0.636749
      vertex 7.5948 49.7609 -0.683163
      vertex 9.91708 57.4164 -0.892055
    endloop
  endfacet
  facet normal 0.0895896 2.29491e-18 0.995979
    outer loop
      vertex 9.91708 57.4164 -0.892055
      vertex 10.0183 48.9603 -0.901157
      vertex 12.7134 56.4926 -1.14359
    endloop
  endfacet
  facet normal 0.0895896 9.16829e-18 0.995979
    outer loop
      vertex 12.7134 56.4926 -1.14359
      vertex 12.3995 48.0417 -1.11536
      vertex 15.461 55.4328 -1.39074
    endloop
  endfacet
  facet normal 0.0895896 0 0.995979
    outer loop
      vertex 15.461 55.4328 -1.39074
      vertex 14.7329 47.0074 -1.32524
      vertex 18.1533 54.2394 -1.63291
    endloop
  endfacet
  facet normal 0.0895896 1.2877e-17 0.995979
    outer loop
      vertex 18.1533 54.2394 -1.63291
      vertex 17.0126 45.8599 -1.53031
      vertex 20.7838 52.9153 -1.86953
    endloop
  endfacet
  facet normal 0.0895896 -4.21338e-18 0.995979
    outer loop
      vertex 17.0126 45.8599 -1.53031
      vertex 19.2333 44.6019 -1.73007
      vertex 20.7838 52.9153 -1.86953
    endloop
  endfacet
  facet normal 0.0895896 -1.18408e-17 0.995979
    outer loop
      vertex 20.7838 52.9153 -1.86953
      vertex 21.3897 43.2364 -1.92403
      vertex 23.3462 51.4637 -2.10002
    endloop
  endfacet
  facet normal 0.0895896 1.16728e-17 0.995979
    outer loop
      vertex 23.3462 51.4637 -2.10002
      vertex 23.4764 41.7668 -2.11173
      vertex 25.8342 49.8882 -2.32382
    endloop
  endfacet
  facet normal 0.0895896 4.02804e-17 0.995979
    outer loop
      vertex 25.8342 49.8882 -2.32382
      vertex 25.4885 40.1965 -2.29272
      vertex 28.242 48.1925 -2.5404
    endloop
  endfacet
  facet normal 0.0895896 -1.68601e-17 0.995979
    outer loop
      vertex 28.242 48.1925 -2.5404
      vertex 27.4211 38.5295 -2.46656
      vertex 30.5636 46.3806 -2.74924
    endloop
  endfacet
  facet normal 0.0895896 2.6687e-17 0.995979
    outer loop
      vertex 30.5636 46.3806 -2.74924
      vertex 29.2696 36.7696 -2.63284
      vertex 32.7935 44.4571 -2.94982
    endloop
  endfacet
  facet normal 0.0895896 -2.79137e-17 0.995979
    outer loop
      vertex 32.7935 44.4571 -2.94982
      vertex 31.0295 34.9211 -2.79114
      vertex 34.9264 42.4264 -3.14168
    endloop
  endfacet
  facet normal 0.0895896 -2.57342e-17 0.995979
    outer loop
      vertex 34.9264 42.4264 -3.14168
      vertex 32.6965 32.9885 -2.9411
      vertex 36.9571 40.2935 -3.32434
    endloop
  endfacet
  facet normal 0.0895896 3.44847e-17 0.995979
    outer loop
      vertex 36.9571 40.2935 -3.32434
      vertex 34.2668 30.9764 -3.08234
      vertex 38.8806 38.0636 -3.49737
    endloop
  endfacet
  facet normal 0.0895896 0 0.995979
    outer loop
      vertex 2.6447 -51.0008 -0.237894
      vertex 0.129985 -51.4372 -0.0116923
      vertex 1.30383 -59.3506 -0.117281
    endloop
  endfacet
  facet normal 0.0895896 5.47079e-17 0.995979
    outer loop
      vertex 38.8806 38.0636 -3.49737
      vertex 35.7364 28.8897 -3.21454
      vertex 40.6925 35.742 -3.66034
    endloop
  endfacet
  facet normal 0.0895896 -6.15462e-17 0.995979
    outer loop
      vertex 40.6925 35.742 -3.66034
      vertex 37.1019 26.7333 -3.33737
      vertex 42.3882 33.3342 -3.81287
    endloop
  endfacet
  facet normal 0.0895896 -3.3803e-17 0.995979
    outer loop
      vertex 37.1019 26.7333 -3.33737
      vertex 38.3599 24.5126 -3.45053
      vertex 42.3882 33.3342 -3.81287
    endloop
  endfacet
  facet normal 0.0895896 1.94293e-17 0.995979
    outer loop
      vertex 42.3882 33.3342 -3.81287
      vertex 39.5074 22.2329 -3.55375
      vertex 43.9637 30.8462 -3.9546
    endloop
  endfacet
  facet normal 0.0895896 7.76648e-17 0.995979
    outer loop
      vertex 43.9637 30.8462 -3.9546
      vertex 40.5417 19.8995 -3.64678
      vertex 45.4153 28.2838 -4.08517
    endloop
  endfacet
  facet normal 0.0895896 -1.33991e-16 0.995979
    outer loop
      vertex 45.4153 28.2838 -4.08517
      vertex 41.4603 17.5183 -3.72941
      vertex 46.7394 25.6533 -4.20427
    endloop
  endfacet
  facet normal 0.0895896 -7.81136e-18 0.995979
    outer loop
      vertex 46.7394 25.6533 -4.20427
      vertex 42.2609 15.0948 -3.80143
      vertex 47.9328 22.961 -4.31162
    endloop
  endfacet
  facet normal 0.0895896 2.24135e-17 0.995979
    outer loop
      vertex 47.9328 22.961 -4.31162
      vertex 42.9416 12.635 -3.86266
      vertex 48.9926 20.2134 -4.40695
    endloop
  endfacet
  facet normal 0.0895896 2.13103e-17 0.995979
    outer loop
      vertex 48.9926 20.2134 -4.40695
      vertex 43.5008 10.1447 -3.91296
      vertex 49.9164 17.4171 -4.49005
    endloop
  endfacet
  facet normal 0.0895896 3.69141e-17 0.995979
    outer loop
      vertex 49.9164 17.4171 -4.49005
      vertex 43.9372 7.62998 -3.95221
      vertex 50.7019 14.5788 -4.5607
    endloop
  endfacet
  facet normal 0.0895896 1.29634e-16 0.995979
    outer loop
      vertex 43.9372 7.62998 -3.95221
      vertex 44.2496 5.09689 -3.98031
      vertex 50.7019 14.5788 -4.5607
    endloop
  endfacet
  facet normal 0.0895896 -1.33401e-16 0.995979
    outer loop
      vertex 50.7019 14.5788 -4.5607
      vertex 44.4374 2.55152 -3.9972
      vertex 51.3471 11.7054 -4.61874
    endloop
  endfacet
  facet normal 0.0895896 8.27057e-17 0.995979
    outer loop
      vertex 51.3471 11.7054 -4.61874
      vertex 44.5 0 -4.00284
      vertex 51.8506 8.80383 -4.66403
    endloop
  endfacet
  facet normal 0.0895896 7.45898e-17 0.995979
    outer loop
      vertex 51.8506 8.80383 -4.66403
      vertex 44.4374 -2.55152 -3.9972
      vertex 52.2111 5.88103 -4.69646
    endloop
  endfacet
  facet normal 0.0895896 6.56724e-17 0.995979
    outer loop
      vertex 52.2111 5.88103 -4.69646
      vertex 44.2496 -5.09689 -3.98031
      vertex 52.4277 2.94406 -4.71595
    endloop
  endfacet
  facet normal 0.0895896 -7.96766e-18 0.995979
    outer loop
      vertex 52.4277 2.94406 -4.71595
      vertex 43.9372 -7.62998 -3.95221
      vertex 52.5 0 -4.72245
    endloop
  endfacet
  facet normal 0.0895896 1.25264e-16 0.995979
    outer loop
      vertex 43.9372 -7.62998 -3.95221
      vertex 43.5008 -10.1447 -3.91296
      vertex 52.5 0 -4.72245
    endloop
  endfacet
  facet normal 0.0895896 8.23091e-18 0.995979
    outer loop
      vertex 52.5 0 -4.72245
      vertex 42.9416 -12.635 -3.86266
      vertex 52.4277 -2.94406 -4.71595
    endloop
  endfacet
  facet normal 0.0895896 -7.72922e-17 0.995979
    outer loop
      vertex 52.4277 -2.94406 -4.71595
      vertex 42.2609 -15.0948 -3.80143
      vertex 52.2111 -5.88103 -4.69646
    endloop
  endfacet
  facet normal 0.0895896 -1.00975e-16 0.995979
    outer loop
      vertex 52.2111 -5.88103 -4.69646
      vertex 41.4603 -17.5183 -3.72941
      vertex 51.8506 -8.80383 -4.66403
    endloop
  endfacet
  facet normal 0.0895896 6.68653e-17 0.995979
    outer loop
      vertex 41.4603 -17.5183 -3.72941
      vertex 40.5417 -19.8995 -3.64678
      vertex 51.8506 -8.80383 -4.66403
    endloop
  endfacet
  facet normal 0.0895896 -1.09924e-16 0.995979
    outer loop
      vertex 51.8506 -8.80383 -4.66403
      vertex 39.5074 -22.2329 -3.55375
      vertex 51.3471 -11.7054 -4.61874
    endloop
  endfacet
  facet normal 0.0895896 2.20666e-16 0.995979
    outer loop
      vertex 51.3471 -11.7054 -4.61874
      vertex 38.3599 -24.5126 -3.45053
      vertex 50.7019 -14.5788 -4.5607
    endloop
  endfacet
  facet normal 0.0895896 1.76499e-16 0.995979
    outer loop
      vertex 38.3599 -24.5126 -3.45053
      vertex 37.1019 -26.7333 -3.33737
      vertex 50.7019 -14.5788 -4.5607
    endloop
  endfacet
  facet normal 0.0895896 -8.67182e-17 0.995979
    outer loop
      vertex 50.7019 -14.5788 -4.5607
      vertex 35.7364 -28.8897 -3.21454
      vertex 49.9164 -17.4171 -4.49005
    endloop
  endfacet
  facet normal 0.0895896 -4.06407e-17 0.995979
    outer loop
      vertex 49.9164 -17.4171 -4.49005
      vertex 34.2668 -30.9764 -3.08234
      vertex 48.9926 -20.2134 -4.40695
    endloop
  endfacet
  facet normal 0.0895896 -1.08937e-16 0.995979
    outer loop
      vertex 19.2333 -44.6019 -1.73007
      vertex 17.0126 -45.8599 -1.53031
      vertex 1.30383 -59.3506 -0.117281
    endloop
  endfacet
  facet normal 0.0895896 -1.17734e-16 0.995979
    outer loop
      vertex 34.2668 -30.9764 -3.08234
      vertex 32.6965 -32.9885 -2.9411
      vertex 48.9926 -20.2134 -4.40695
    endloop
  endfacet
  facet normal 0.0895896 -3.14974e-16 0.995979
    outer loop
      vertex 32.6965 -32.9885 -2.9411
      vertex 31.0295 -34.9211 -2.79114
      vertex 48.9926 -20.2134 -4.40695
    endloop
  endfacet
  facet normal 0.0895896 -7.33646e-17 0.995979
    outer loop
      vertex 48.9926 -20.2134 -4.40695
      vertex 29.2696 -36.7696 -2.63284
      vertex 47.9328 -22.961 -4.31162
    endloop
  endfacet
  facet normal 0.0895896 -1.64413e-16 0.995979
    outer loop
      vertex 29.2696 -36.7696 -2.63284
      vertex 27.4211 -38.5295 -2.46656
      vertex 47.9328 -22.961 -4.31162
    endloop
  endfacet
  facet normal 0.0895896 1.59297e-15 0.995979
    outer loop
      vertex 27.4211 -38.5295 -2.46656
      vertex 25.4885 -40.1965 -2.29272
      vertex 47.9328 -22.961 -4.31162
    endloop
  endfacet
  facet normal 0.0895896 4.52005e-15 0.995979
    outer loop
      vertex 23.4764 -41.7668 -2.11173
      vertex 1.30383 -59.3506 -0.117281
      vertex 25.4885 -40.1965 -2.29272
    endloop
  endfacet
  facet normal 0.0895896 -1.67168e-16 0.995979
    outer loop
      vertex 14.7329 -47.0074 -1.32524
      vertex 12.3995 -48.0417 -1.11536
      vertex 1.30383 -59.3506 -0.117281
    endloop
  endfacet
  facet normal 0.0895896 -3.21489e-18 0.995979
    outer loop
      vertex 0 -51.4532 0
      vertex 1.30383 -59.3506 -0.117281
      vertex 0.129985 -51.4372 -0.0116923
    endloop
  endfacet
  facet normal 0.0895896 0 0.995979
    outer loop
      vertex 0 -59.5114 0
      vertex 1.30383 -59.3506 -0.117281
      vertex 0 -51.4532 0
    endloop
  endfacet
  facet normal 0.0895896 0 0.995979
    outer loop
      vertex 0 51.4532 0
      vertex 0.129985 51.4372 -0.0116923
      vertex 0 59.5114 0
    endloop
  endfacet
  facet normal 0.0895896 -2.85651e-16 0.995979
    outer loop
      vertex 21.3897 -43.2364 -1.92403
      vertex 19.2333 -44.6019 -1.73007
      vertex 1.30383 -59.3506 -0.117281
    endloop
  endfacet
  facet normal 0.0895896 1.6747e-16 0.995979
    outer loop
      vertex 17.0126 -45.8599 -1.53031
      vertex 14.7329 -47.0074 -1.32524
      vertex 1.30383 -59.3506 -0.117281
    endloop
  endfacet
  facet normal 0.0895896 7.92103e-17 0.995979
    outer loop
      vertex 12.3995 -48.0417 -1.11536
      vertex 10.0183 -48.9603 -0.901157
      vertex 1.30383 -59.3506 -0.117281
    endloop
  endfacet
  facet normal 0.0895896 -2.0493e-17 0.995979
    outer loop
      vertex 10.0183 -48.9603 -0.901157
      vertex 7.5948 -49.7609 -0.683163
      vertex 1.30383 -59.3506 -0.117281
    endloop
  endfacet
  facet normal 0.0895896 0 0.995979
    outer loop
      vertex 7.5948 -49.7609 -0.683163
      vertex 5.13497 -50.4416 -0.461897
      vertex 1.30383 -59.3506 -0.117281
    endloop
  endfacet
  facet normal 0.0895896 0 0.995979
    outer loop
      vertex 5.13497 -50.4416 -0.461897
      vertex 2.6447 -51.0008 -0.237894
      vertex 1.30383 -59.3506 -0.117281
    endloop
  endfacet
endsolid OpenSCAD_Model
