solid OpenSCAD_Model
  facet normal -1 0 0
    outer loop
      vertex 0 0 0
      vertex 0 50 40
      vertex 0 50 0
    endloop
  endfacet
  facet normal -1 -0 0
    outer loop
      vertex 0 50 40
      vertex 0 0 0
      vertex 0 0 40
    endloop
  endfacet
  facet normal 0 0 -1
    outer loop
      vertex 53 -3 40
      vertex 50 0 40
      vertex 53 53 40
    endloop
  endfacet
  facet normal 0 0 -1
    outer loop
      vertex 53 -3 40
      vertex 0 0 40
      vertex 50 0 40
    endloop
  endfacet
  facet normal -0 0 -1
    outer loop
      vertex 0 0 40
      vertex -3 -3 40
      vertex 0 50 40
    endloop
  endfacet
  facet normal 0 0 -1
    outer loop
      vertex -3 -3 40
      vertex 0 0 40
      vertex 53 -3 40
    endloop
  endfacet
  facet normal 0 0 -1
    outer loop
      vertex 50 50 40
      vertex 53 53 40
      vertex 50 0 40
    endloop
  endfacet
  facet normal 0 0 -1
    outer loop
      vertex 0 50 40
      vertex 53 53 40
      vertex 50 50 40
    endloop
  endfacet
  facet normal 0 0 -1
    outer loop
      vertex 0 50 40
      vertex -3 53 40
      vertex 53 53 40
    endloop
  endfacet
  facet normal 0 0 -1
    outer loop
      vertex -3 53 40
      vertex 0 50 40
      vertex -3 -3 40
    endloop
  endfacet
  facet normal 0 0 -1
    outer loop
      vertex 2 2 40
      vertex 48 48 40
      vertex 48 2 40
    endloop
  endfacet
  facet normal -0 0 -1
    outer loop
      vertex 48 48 40
      vertex 2 2 40
      vertex 2 48 40
    endloop
  endfacet
  facet normal 1 -0 0
    outer loop
      vertex 50 0 40
      vertex 50 50 0
      vertex 50 50 40
    endloop
  endfacet
  facet normal 1 0 0
    outer loop
      vertex 50 50 0
      vertex 50 0 40
      vertex 50 0 0
    endloop
  endfacet
  facet normal 0 1 -0
    outer loop
      vertex 50 50 0
      vertex 0 50 40
      vertex 50 50 40
    endloop
  endfacet
  facet normal 0 1 0
    outer loop
      vertex 0 50 40
      vertex 50 50 0
      vertex 0 50 0
    endloop
  endfacet
  facet normal 0 0 -1
    outer loop
      vertex 0 0 0
      vertex 50 50 0
      vertex 50 0 0
    endloop
  endfacet
  facet normal -0 0 -1
    outer loop
      vertex 50 50 0
      vertex 0 0 0
      vertex 0 50 0
    endloop
  endfacet
  facet normal 0 -1 0
    outer loop
      vertex 0 0 40
      vertex 22.5 0 17
      vertex 50 0 40
    endloop
  endfacet
  facet normal 0 -1 0
    outer loop
      vertex 0 0 0
      vertex 22.5 0 17
      vertex 0 0 40
    endloop
  endfacet
  facet normal 0 -1 -0
    outer loop
      vertex 22.5 0 2
      vertex 0 0 0
      vertex 27.5 0 2
    endloop
  endfacet
  facet normal 0 -1 -0
    outer loop
      vertex 22.5 0 17
      vertex 0 0 0
      vertex 22.5 0 2
    endloop
  endfacet
  facet normal 0 -1 0
    outer loop
      vertex 27.5 0 17
      vertex 50 0 40
      vertex 22.5 0 17
    endloop
  endfacet
  facet normal 0 -1 0
    outer loop
      vertex 50 0 0
      vertex 27.5 0 17
      vertex 27.5 0 2
    endloop
  endfacet
  facet normal 0 -1 0
    outer loop
      vertex 27.5 0 17
      vertex 50 0 0
      vertex 50 0 40
    endloop
  endfacet
  facet normal 0 -1 0
    outer loop
      vertex 50 0 0
      vertex 27.5 0 2
      vertex 0 0 0
    endloop
  endfacet
  facet normal 0 1 0
    outer loop
      vertex 53 53 40
      vertex -3 53 40
      vertex 25 53 60
    endloop
  endfacet
  facet normal 0.581238 0 0.813733
    outer loop
      vertex 25 53 60
      vertex 53 -3 40
      vertex 53 53 40
    endloop
  endfacet
  facet normal 0.581238 0 0.813733
    outer loop
      vertex 53 -3 40
      vertex 25 53 60
      vertex 25 -3 60
    endloop
  endfacet
  facet normal 0 -1 -0
    outer loop
      vertex 25 -3 60
      vertex -3 -3 40
      vertex 53 -3 40
    endloop
  endfacet
  facet normal -0.581238 0 0.813733
    outer loop
      vertex -3 53 40
      vertex 25 -3 60
      vertex 25 53 60
    endloop
  endfacet
  facet normal -0.581238 0 0.813733
    outer loop
      vertex 25 -3 60
      vertex -3 53 40
      vertex -3 -3 40
    endloop
  endfacet
  facet normal 1 -0 0
    outer loop
      vertex 2 2 40
      vertex 2 48 2
      vertex 2 48 40
    endloop
  endfacet
  facet normal 1 0 0
    outer loop
      vertex 2 48 2
      vertex 2 2 40
      vertex 2 2 2
    endloop
  endfacet
  facet normal -1 0 0
    outer loop
      vertex 48 2 2
      vertex 48 48 40
      vertex 48 48 2
    endloop
  endfacet
  facet normal -1 -0 0
    outer loop
      vertex 48 48 40
      vertex 48 2 2
      vertex 48 2 40
    endloop
  endfacet
  facet normal 0 -1 0
    outer loop
      vertex 2 48 2
      vertex 48 48 40
      vertex 2 48 40
    endloop
  endfacet
  facet normal 0 -1 -0
    outer loop
      vertex 48 48 40
      vertex 2 48 2
      vertex 48 48 2
    endloop
  endfacet
  facet normal 0 0 1
    outer loop
      vertex 48 48 2
      vertex 27.5 2 2
      vertex 48 2 2
    endloop
  endfacet
  facet normal 0 0 1
    outer loop
      vertex 27.5 2 2
      vertex 22.5 2 2
      vertex 27.5 0 2
    endloop
  endfacet
  facet normal 0 0 1
    outer loop
      vertex 48 48 2
      vertex 22.5 2 2
      vertex 27.5 2 2
    endloop
  endfacet
  facet normal -0 0 1
    outer loop
      vertex 2 48 2
      vertex 22.5 2 2
      vertex 48 48 2
    endloop
  endfacet
  facet normal 0 0 1
    outer loop
      vertex 22.5 2 2
      vertex 2 48 2
      vertex 2 2 2
    endloop
  endfacet
  facet normal 0 0 1
    outer loop
      vertex 27.5 0 2
      vertex 22.5 2 2
      vertex 22.5 0 2
    endloop
  endfacet
  facet normal 0 1 0
    outer loop
      vertex 48 2 40
      vertex 27.5 2 17
      vertex 2 2 40
    endloop
  endfacet
  facet normal 0 1 -0
    outer loop
      vertex 48 2 2
      vertex 27.5 2 17
      vertex 48 2 40
    endloop
  endfacet
  facet normal 0 1 0
    outer loop
      vertex 27.5 2 17
      vertex 48 2 2
      vertex 27.5 2 2
    endloop
  endfacet
  facet normal 0 1 -0
    outer loop
      vertex 22.5 2 17
      vertex 2 2 40
      vertex 27.5 2 17
    endloop
  endfacet
  facet normal 0 1 0
    outer loop
      vertex 2 2 2
      vertex 22.5 2 17
      vertex 22.5 2 2
    endloop
  endfacet
  facet normal 0 1 0
    outer loop
      vertex 22.5 2 17
      vertex 2 2 2
      vertex 2 2 40
    endloop
  endfacet
  facet normal 1 -0 0
    outer loop
      vertex 22.5 0 17
      vertex 22.5 2 2
      vertex 22.5 2 17
    endloop
  endfacet
  facet normal 1 0 0
    outer loop
      vertex 22.5 2 2
      vertex 22.5 0 17
      vertex 22.5 0 2
    endloop
  endfacet
  facet normal 0 0 -1
    outer loop
      vertex 22.5 0 17
      vertex 27.5 2 17
      vertex 27.5 0 17
    endloop
  endfacet
  facet normal -0 0 -1
    outer loop
      vertex 27.5 2 17
      vertex 22.5 0 17
      vertex 22.5 2 17
    endloop
  endfacet
  facet normal -1 0 0
    outer loop
      vertex 27.5 0 2
      vertex 27.5 2 17
      vertex 27.5 2 2
    endloop
  endfacet
  facet normal -1 -0 0
    outer loop
      vertex 27.5 2 17
      vertex 27.5 0 2
      vertex 27.5 0 17
    endloop
  endfacet
endsolid OpenSCAD_Model
