<?xml version="1.0" standalone="no"?>
<!DOCTYPE svg PUBLIC "-//W3C//DTD SVG 20010904//EN"
 "http://www.w3.org/TR/2001/REC-SVG-20010904/DTD/svg10.dtd">
<svg version="1.0" xmlns="http://www.w3.org/2000/svg"
 width="700.000000pt" height="700.000000pt" viewBox="0 0 700.000000 700.000000"
 preserveAspectRatio="xMidYMid meet">
<metadata>
Created by potrace 1.16, written by Peter Selinger 2001-2019
</metadata>
<g transform="translate(0.000000,700.000000) scale(0.100000,-0.100000)"
fill="#000000" stroke="none">
<path d="M0 3500 l0 -3500 3500 0 3500 0 0 3500 0 3500 -3500 0 -3500 0 0
-3500z m4144 833 c-78 -68 -207 -91 -310 -56 -67 23 -154 110 -177 177 -32 92
-18 202 35 278 l19 28 235 -198 236 -197 -38 -32z m1087 327 c53 -140 -11
-298 -151 -371 -37 -20 -60 -24 -135 -24 -81 0 -95 3 -142 29 -29 16 -61 39
-73 51 l-21 22 233 196 c233 196 233 196 250 174 10 -12 27 -47 39 -77z
m-2246 -1080 l0 -1085 -141 -3 c-105 -2 -144 1 -151 10 -5 7 -18 41 -28 76
-15 52 -22 62 -40 62 -13 0 -29 -8 -36 -17 -26 -31 -130 -92 -197 -115 -97
-33 -284 -33 -392 0 -131 41 -206 87 -306 186 -102 103 -156 194 -196 332 -20
67 -23 102 -23 234 0 181 12 235 82 380 39 81 59 107 137 185 64 64 112 101
161 127 243 125 527 114 702 -29 l53 -43 0 388 c0 214 3 392 7 396 4 3 88 5
187 4 l181 -3 0 -1085z m546 390 l176 -44 98 -350 c54 -193 107 -379 117 -413
34 -115 38 -108 198 315 78 207 147 383 152 390 15 17 333 17 345 0 4 -7 72
-182 150 -388 116 -309 145 -376 161 -378 17 -3 23 6 35 50 9 29 61 215 117
413 l101 361 191 47 c105 26 193 45 196 43 8 -8 -389 -1510 -402 -1518 -15
-10 -398 -10 -414 0 -7 5 -75 195 -151 423 -114 344 -141 414 -156 414 -15 0
-42 -71 -159 -415 -77 -228 -145 -418 -150 -422 -17 -12 -414 -10 -421 2 -8
13 -395 1490 -395 1508 0 9 7 13 18 10 9 -3 96 -24 193 -48z"/>
<path d="M2157 3650 c-49 -13 -113 -45 -158 -81 -148 -116 -174 -403 -51 -564
130 -172 421 -195 557 -43 80 88 117 233 96 375 -30 200 -143 311 -325 319
-45 2 -98 -1 -119 -6z"/>
</g>
</svg>
