solid OpenSCAD_Model
  facet normal 0 0 -1
    outer loop
      vertex -10.8171 0.680556 -10.8385
      vertex -10.7531 1.35843 -10.8385
      vertex -10.8385 0 -10.8385
    endloop
  endfacet
  facet normal 0 0 -1
    outer loop
      vertex -10.8385 0 -10.8385
      vertex -10.7531 1.35843 -10.8385
      vertex -10.6465 2.03094 -10.8385
    endloop
  endfacet
  facet normal 0 0 -1
    outer loop
      vertex -10.8385 0 -10.8385
      vertex -10.6465 2.03094 -10.8385
      vertex -10.498 2.69543 -10.8385
    endloop
  endfacet
  facet normal 0 0 -1
    outer loop
      vertex -10.8385 0 -10.8385
      vertex -10.498 2.69543 -10.8385
      vertex -10.308 3.34929 -10.8385
    endloop
  endfacet
  facet normal 0 0 -1
    outer loop
      vertex -10.8385 0 -10.8385
      vertex -10.308 3.34929 -10.8385
      vertex -10.0774 3.98993 -10.8385
    endloop
  endfacet
  facet normal 0 0 -1
    outer loop
      vertex -10.8385 0 -10.8385
      vertex -10.0774 3.98993 -10.8385
      vertex -9.80699 4.61482 -10.8385
    endloop
  endfacet
  facet normal 0 0 -1
    outer loop
      vertex -10.8385 0 -10.8385
      vertex -9.80699 4.61482 -10.8385
      vertex -9.49787 5.2215 -10.8385
    endloop
  endfacet
  facet normal 0 0 -1
    outer loop
      vertex -10.8385 0 -10.8385
      vertex -9.49787 5.2215 -10.8385
      vertex -9.15127 5.80757 -10.8385
    endloop
  endfacet
  facet normal 0 0 -1
    outer loop
      vertex -10.8385 0 -10.8385
      vertex -9.15127 5.80757 -10.8385
      vertex -8.76855 6.37072 -10.8385
    endloop
  endfacet
  facet normal 0 0 -1
    outer loop
      vertex -10.8385 0 -10.8385
      vertex -8.76855 6.37072 -10.8385
      vertex -8.35122 6.90873 -10.8385
    endloop
  endfacet
  facet normal 0 0 -1
    outer loop
      vertex -10.8385 0 -10.8385
      vertex -8.35122 6.90873 -10.8385
      vertex -7.90094 7.41948 -10.8385
    endloop
  endfacet
  facet normal 0 0 -1
    outer loop
      vertex -10.8385 0 -10.8385
      vertex -7.90094 7.41948 -10.8385
      vertex -7.41948 7.90094 -10.8385
    endloop
  endfacet
  facet normal 0 0 -1
    outer loop
      vertex -10.8385 0 -10.8385
      vertex -7.41948 7.90094 -10.8385
      vertex -6.90873 8.35122 -10.8385
    endloop
  endfacet
  facet normal 0 0 -1
    outer loop
      vertex -10.8385 0 -10.8385
      vertex -6.90873 8.35122 -10.8385
      vertex -6.37072 8.76855 -10.8385
    endloop
  endfacet
  facet normal 0 0 -1
    outer loop
      vertex -10.8385 0 -10.8385
      vertex -6.37072 8.76855 -10.8385
      vertex -5.80757 9.15127 -10.8385
    endloop
  endfacet
  facet normal 0 0 -1
    outer loop
      vertex -10.8385 0 -10.8385
      vertex -5.80757 9.15127 -10.8385
      vertex -5.2215 9.49787 -10.8385
    endloop
  endfacet
  facet normal 0 0 -1
    outer loop
      vertex -10.8385 0 -10.8385
      vertex -5.2215 9.49787 -10.8385
      vertex -4.61482 9.80699 -10.8385
    endloop
  endfacet
  facet normal 0 0 -1
    outer loop
      vertex -10.8385 0 -10.8385
      vertex -4.61482 9.80699 -10.8385
      vertex -3.98993 10.0774 -10.8385
    endloop
  endfacet
  facet normal 0 0 -1
    outer loop
      vertex -10.8385 0 -10.8385
      vertex -3.98993 10.0774 -10.8385
      vertex -3.34929 10.308 -10.8385
    endloop
  endfacet
  facet normal 0 0 -1
    outer loop
      vertex -10.8385 0 -10.8385
      vertex -3.34929 10.308 -10.8385
      vertex -2.69543 10.498 -10.8385
    endloop
  endfacet
  facet normal 0 0 -1
    outer loop
      vertex -10.8385 0 -10.8385
      vertex -2.69543 10.498 -10.8385
      vertex -2.03094 10.6465 -10.8385
    endloop
  endfacet
  facet normal 0 0 -1
    outer loop
      vertex -10.8385 0 -10.8385
      vertex -2.03094 10.6465 -10.8385
      vertex -1.35843 10.7531 -10.8385
    endloop
  endfacet
  facet normal 0 0 -1
    outer loop
      vertex -10.8385 0 -10.8385
      vertex -1.35843 10.7531 -10.8385
      vertex -0.680556 10.8171 -10.8385
    endloop
  endfacet
  facet normal 0 0 -1
    outer loop
      vertex -10.8385 0 -10.8385
      vertex -0.680556 10.8171 -10.8385
      vertex 0 10.8385 -10.8385
    endloop
  endfacet
  facet normal 0 0 -1
    outer loop
      vertex -10.8385 0 -10.8385
      vertex 0 10.8385 -10.8385
      vertex 0.680556 10.8171 -10.8385
    endloop
  endfacet
  facet normal 0 0 -1
    outer loop
      vertex -10.8385 0 -10.8385
      vertex 0.680556 10.8171 -10.8385
      vertex 1.35843 10.7531 -10.8385
    endloop
  endfacet
  facet normal 0 0 -1
    outer loop
      vertex -10.8385 0 -10.8385
      vertex 1.35843 10.7531 -10.8385
      vertex 2.03094 10.6465 -10.8385
    endloop
  endfacet
  facet normal 0 0 -1
    outer loop
      vertex -10.8385 0 -10.8385
      vertex 2.03094 10.6465 -10.8385
      vertex 2.69543 10.498 -10.8385
    endloop
  endfacet
  facet normal 0 0 -1
    outer loop
      vertex -10.8385 0 -10.8385
      vertex 2.69543 10.498 -10.8385
      vertex 3.34929 10.308 -10.8385
    endloop
  endfacet
  facet normal 0 0 -1
    outer loop
      vertex -10.8385 0 -10.8385
      vertex 3.34929 10.308 -10.8385
      vertex 3.98993 10.0774 -10.8385
    endloop
  endfacet
  facet normal 0 0 -1
    outer loop
      vertex -10.8385 0 -10.8385
      vertex 3.98993 10.0774 -10.8385
      vertex 4.61482 9.80699 -10.8385
    endloop
  endfacet
  facet normal 0 0 -1
    outer loop
      vertex -10.8385 0 -10.8385
      vertex 4.61482 9.80699 -10.8385
      vertex 5.2215 9.49787 -10.8385
    endloop
  endfacet
  facet normal 0 0 -1
    outer loop
      vertex -10.8385 0 -10.8385
      vertex 5.2215 9.49787 -10.8385
      vertex 5.80757 9.15127 -10.8385
    endloop
  endfacet
  facet normal 0 0 -1
    outer loop
      vertex -10.8385 0 -10.8385
      vertex 5.80757 9.15127 -10.8385
      vertex 6.37072 8.76855 -10.8385
    endloop
  endfacet
  facet normal 0 0 -1
    outer loop
      vertex -10.8385 0 -10.8385
      vertex 6.37072 8.76855 -10.8385
      vertex 6.90873 8.35122 -10.8385
    endloop
  endfacet
  facet normal 0 0 -1
    outer loop
      vertex -10.8385 0 -10.8385
      vertex 6.90873 8.35122 -10.8385
      vertex 7.41948 7.90094 -10.8385
    endloop
  endfacet
  facet normal 0 0 -1
    outer loop
      vertex -10.8385 0 -10.8385
      vertex 7.41948 7.90094 -10.8385
      vertex 7.90094 7.41948 -10.8385
    endloop
  endfacet
  facet normal 0 0 -1
    outer loop
      vertex -10.8385 0 -10.8385
      vertex 7.90094 7.41948 -10.8385
      vertex 8.35122 6.90873 -10.8385
    endloop
  endfacet
  facet normal 0 0 -1
    outer loop
      vertex -10.8385 0 -10.8385
      vertex 8.35122 6.90873 -10.8385
      vertex 8.76855 6.37072 -10.8385
    endloop
  endfacet
  facet normal 0 0 -1
    outer loop
      vertex -10.8385 0 -10.8385
      vertex 8.76855 6.37072 -10.8385
      vertex 9.15127 5.80757 -10.8385
    endloop
  endfacet
  facet normal 0 0 -1
    outer loop
      vertex -10.8385 0 -10.8385
      vertex 9.15127 5.80757 -10.8385
      vertex 9.49787 5.2215 -10.8385
    endloop
  endfacet
  facet normal 0 0 -1
    outer loop
      vertex -10.8385 0 -10.8385
      vertex 9.49787 5.2215 -10.8385
      vertex 9.80699 4.61482 -10.8385
    endloop
  endfacet
  facet normal 0 0 -1
    outer loop
      vertex -10.8385 0 -10.8385
      vertex 9.80699 4.61482 -10.8385
      vertex 10.0774 3.98993 -10.8385
    endloop
  endfacet
  facet normal 0 0 -1
    outer loop
      vertex -10.8385 0 -10.8385
      vertex 10.0774 3.98993 -10.8385
      vertex 10.308 3.34929 -10.8385
    endloop
  endfacet
  facet normal 0 0 -1
    outer loop
      vertex -10.8385 0 -10.8385
      vertex 10.308 3.34929 -10.8385
      vertex 10.498 2.69543 -10.8385
    endloop
  endfacet
  facet normal 0 0 -1
    outer loop
      vertex -10.8385 0 -10.8385
      vertex 10.498 2.69543 -10.8385
      vertex 10.6465 2.03094 -10.8385
    endloop
  endfacet
  facet normal 0 0 -1
    outer loop
      vertex -10.8385 0 -10.8385
      vertex 10.6465 2.03094 -10.8385
      vertex 10.7531 1.35843 -10.8385
    endloop
  endfacet
  facet normal 0 0 -1
    outer loop
      vertex -10.8385 0 -10.8385
      vertex 10.7531 1.35843 -10.8385
      vertex 10.8171 0.680556 -10.8385
    endloop
  endfacet
  facet normal 0 0 -1
    outer loop
      vertex -10.8385 0 -10.8385
      vertex 10.8171 0.680556 -10.8385
      vertex 10.8385 0 -10.8385
    endloop
  endfacet
  facet normal 0 0 -1
    outer loop
      vertex -10.8385 0 -10.8385
      vertex 10.8385 0 -10.8385
      vertex 10.8171 -0.680556 -10.8385
    endloop
  endfacet
  facet normal 0 0 -1
    outer loop
      vertex -10.8385 0 -10.8385
      vertex 10.8171 -0.680556 -10.8385
      vertex 10.7531 -1.35843 -10.8385
    endloop
  endfacet
  facet normal 0 0 -1
    outer loop
      vertex -10.8385 0 -10.8385
      vertex 10.7531 -1.35843 -10.8385
      vertex 10.6465 -2.03094 -10.8385
    endloop
  endfacet
  facet normal 0 0 -1
    outer loop
      vertex -10.8385 0 -10.8385
      vertex 10.6465 -2.03094 -10.8385
      vertex 10.498 -2.69543 -10.8385
    endloop
  endfacet
  facet normal 0 0 -1
    outer loop
      vertex -10.8385 0 -10.8385
      vertex 10.498 -2.69543 -10.8385
      vertex 10.308 -3.34929 -10.8385
    endloop
  endfacet
  facet normal 0 0 -1
    outer loop
      vertex -10.8385 0 -10.8385
      vertex 10.308 -3.34929 -10.8385
      vertex 10.0774 -3.98993 -10.8385
    endloop
  endfacet
  facet normal 0 0 -1
    outer loop
      vertex -10.8385 0 -10.8385
      vertex 10.0774 -3.98993 -10.8385
      vertex 9.80699 -4.61482 -10.8385
    endloop
  endfacet
  facet normal 0 0 -1
    outer loop
      vertex -10.8385 0 -10.8385
      vertex 9.80699 -4.61482 -10.8385
      vertex 9.49787 -5.2215 -10.8385
    endloop
  endfacet
  facet normal 0 0 -1
    outer loop
      vertex -10.8385 0 -10.8385
      vertex 9.49787 -5.2215 -10.8385
      vertex 9.15127 -5.80757 -10.8385
    endloop
  endfacet
  facet normal 0 0 -1
    outer loop
      vertex -10.8385 0 -10.8385
      vertex 9.15127 -5.80757 -10.8385
      vertex 8.76855 -6.37072 -10.8385
    endloop
  endfacet
  facet normal 0 0 -1
    outer loop
      vertex -10.8385 0 -10.8385
      vertex 8.76855 -6.37072 -10.8385
      vertex 8.35122 -6.90873 -10.8385
    endloop
  endfacet
  facet normal 0 0 -1
    outer loop
      vertex -10.8385 0 -10.8385
      vertex 8.35122 -6.90873 -10.8385
      vertex 7.90094 -7.41948 -10.8385
    endloop
  endfacet
  facet normal 0 0 -1
    outer loop
      vertex -10.8385 0 -10.8385
      vertex 7.90094 -7.41948 -10.8385
      vertex 7.41948 -7.90094 -10.8385
    endloop
  endfacet
  facet normal 0 0 -1
    outer loop
      vertex -10.8385 0 -10.8385
      vertex 7.41948 -7.90094 -10.8385
      vertex 6.90873 -8.35122 -10.8385
    endloop
  endfacet
  facet normal 0 0 -1
    outer loop
      vertex -10.8385 0 -10.8385
      vertex 6.90873 -8.35122 -10.8385
      vertex 6.37072 -8.76855 -10.8385
    endloop
  endfacet
  facet normal 0 0 -1
    outer loop
      vertex -10.8385 0 -10.8385
      vertex 6.37072 -8.76855 -10.8385
      vertex 5.80757 -9.15127 -10.8385
    endloop
  endfacet
  facet normal 0 0 -1
    outer loop
      vertex -10.8385 0 -10.8385
      vertex 5.80757 -9.15127 -10.8385
      vertex 5.2215 -9.49787 -10.8385
    endloop
  endfacet
  facet normal 0 0 -1
    outer loop
      vertex -10.8385 0 -10.8385
      vertex 5.2215 -9.49787 -10.8385
      vertex 4.61482 -9.80699 -10.8385
    endloop
  endfacet
  facet normal 0 0 -1
    outer loop
      vertex -10.8385 0 -10.8385
      vertex 4.61482 -9.80699 -10.8385
      vertex 3.98993 -10.0774 -10.8385
    endloop
  endfacet
  facet normal 0 0 -1
    outer loop
      vertex -10.8385 0 -10.8385
      vertex 3.98993 -10.0774 -10.8385
      vertex 3.34929 -10.308 -10.8385
    endloop
  endfacet
  facet normal 0 0 -1
    outer loop
      vertex -10.8385 0 -10.8385
      vertex 3.34929 -10.308 -10.8385
      vertex 2.69543 -10.498 -10.8385
    endloop
  endfacet
  facet normal 0 0 -1
    outer loop
      vertex -10.8385 0 -10.8385
      vertex 2.69543 -10.498 -10.8385
      vertex 2.03094 -10.6465 -10.8385
    endloop
  endfacet
  facet normal 0 0 -1
    outer loop
      vertex -10.8385 0 -10.8385
      vertex 2.03094 -10.6465 -10.8385
      vertex 1.35843 -10.7531 -10.8385
    endloop
  endfacet
  facet normal 0 0 -1
    outer loop
      vertex -10.8385 0 -10.8385
      vertex 1.35843 -10.7531 -10.8385
      vertex 0.680556 -10.8171 -10.8385
    endloop
  endfacet
  facet normal 0 0 -1
    outer loop
      vertex -10.8385 0 -10.8385
      vertex 0.680556 -10.8171 -10.8385
      vertex 0 -10.8385 -10.8385
    endloop
  endfacet
  facet normal 0 0 -1
    outer loop
      vertex -10.8385 0 -10.8385
      vertex 0 -10.8385 -10.8385
      vertex -0.680556 -10.8171 -10.8385
    endloop
  endfacet
  facet normal 0 0 -1
    outer loop
      vertex -10.8385 0 -10.8385
      vertex -0.680556 -10.8171 -10.8385
      vertex -1.35843 -10.7531 -10.8385
    endloop
  endfacet
  facet normal 0 0 -1
    outer loop
      vertex -10.8385 0 -10.8385
      vertex -1.35843 -10.7531 -10.8385
      vertex -2.03094 -10.6465 -10.8385
    endloop
  endfacet
  facet normal 0 0 -1
    outer loop
      vertex -10.8385 0 -10.8385
      vertex -2.03094 -10.6465 -10.8385
      vertex -2.69543 -10.498 -10.8385
    endloop
  endfacet
  facet normal 0 0 -1
    outer loop
      vertex -10.8385 0 -10.8385
      vertex -2.69543 -10.498 -10.8385
      vertex -3.34929 -10.308 -10.8385
    endloop
  endfacet
  facet normal 0 0 -1
    outer loop
      vertex -10.8385 0 -10.8385
      vertex -3.34929 -10.308 -10.8385
      vertex -3.98993 -10.0774 -10.8385
    endloop
  endfacet
  facet normal 0 0 -1
    outer loop
      vertex -10.8385 0 -10.8385
      vertex -3.98993 -10.0774 -10.8385
      vertex -4.61482 -9.80699 -10.8385
    endloop
  endfacet
  facet normal 0 0 -1
    outer loop
      vertex -10.8385 0 -10.8385
      vertex -4.61482 -9.80699 -10.8385
      vertex -5.2215 -9.49787 -10.8385
    endloop
  endfacet
  facet normal 0 0 -1
    outer loop
      vertex -10.8385 0 -10.8385
      vertex -5.2215 -9.49787 -10.8385
      vertex -5.80757 -9.15127 -10.8385
    endloop
  endfacet
  facet normal 0 0 -1
    outer loop
      vertex -10.8385 0 -10.8385
      vertex -5.80757 -9.15127 -10.8385
      vertex -6.37072 -8.76855 -10.8385
    endloop
  endfacet
  facet normal 0 0 -1
    outer loop
      vertex -10.8385 0 -10.8385
      vertex -6.37072 -8.76855 -10.8385
      vertex -6.90873 -8.35122 -10.8385
    endloop
  endfacet
  facet normal 0 0 -1
    outer loop
      vertex -10.8385 0 -10.8385
      vertex -6.90873 -8.35122 -10.8385
      vertex -7.41948 -7.90094 -10.8385
    endloop
  endfacet
  facet normal 0 0 -1
    outer loop
      vertex -10.8385 0 -10.8385
      vertex -7.41948 -7.90094 -10.8385
      vertex -7.90094 -7.41948 -10.8385
    endloop
  endfacet
  facet normal 0 0 -1
    outer loop
      vertex -10.8385 0 -10.8385
      vertex -7.90094 -7.41948 -10.8385
      vertex -8.35122 -6.90873 -10.8385
    endloop
  endfacet
  facet normal 0 0 -1
    outer loop
      vertex -10.8385 0 -10.8385
      vertex -8.35122 -6.90873 -10.8385
      vertex -8.76855 -6.37072 -10.8385
    endloop
  endfacet
  facet normal 0 0 -1
    outer loop
      vertex -10.8385 0 -10.8385
      vertex -8.76855 -6.37072 -10.8385
      vertex -9.15127 -5.80757 -10.8385
    endloop
  endfacet
  facet normal 0 0 -1
    outer loop
      vertex -10.8385 0 -10.8385
      vertex -9.15127 -5.80757 -10.8385
      vertex -9.49787 -5.2215 -10.8385
    endloop
  endfacet
  facet normal 0 0 -1
    outer loop
      vertex -10.8385 0 -10.8385
      vertex -9.49787 -5.2215 -10.8385
      vertex -9.80699 -4.61482 -10.8385
    endloop
  endfacet
  facet normal 0 0 -1
    outer loop
      vertex -10.8385 0 -10.8385
      vertex -9.80699 -4.61482 -10.8385
      vertex -10.0774 -3.98993 -10.8385
    endloop
  endfacet
  facet normal 0 0 -1
    outer loop
      vertex -10.8385 0 -10.8385
      vertex -10.0774 -3.98993 -10.8385
      vertex -10.308 -3.34929 -10.8385
    endloop
  endfacet
  facet normal 0 0 -1
    outer loop
      vertex -10.8385 0 -10.8385
      vertex -10.308 -3.34929 -10.8385
      vertex -10.498 -2.69543 -10.8385
    endloop
  endfacet
  facet normal 0 0 -1
    outer loop
      vertex -10.8385 0 -10.8385
      vertex -10.498 -2.69543 -10.8385
      vertex -10.6465 -2.03094 -10.8385
    endloop
  endfacet
  facet normal 0 0 -1
    outer loop
      vertex -10.8385 0 -10.8385
      vertex -10.6465 -2.03094 -10.8385
      vertex -10.7531 -1.35843 -10.8385
    endloop
  endfacet
  facet normal 0 0 -1
    outer loop
      vertex -10.8385 0 -10.8385
      vertex -10.7531 -1.35843 -10.8385
      vertex -10.8171 -0.680556 -10.8385
    endloop
  endfacet
  facet normal 0.999507 0.0314103 0
    outer loop
      vertex 10.8171 0.680556 -10.8385
      vertex 10.8171 0.680556 10.8385
      vertex 10.8385 0 10.8385
    endloop
  endfacet
  facet normal 0.999507 0.0314103 0
    outer loop
      vertex 10.8385 0 -10.8385
      vertex 10.8171 0.680556 -10.8385
      vertex 10.8385 0 10.8385
    endloop
  endfacet
  facet normal 0.995562 0.0941088 0
    outer loop
      vertex 10.7531 1.35843 -10.8385
      vertex 10.7531 1.35843 10.8385
      vertex 10.8171 0.680556 10.8385
    endloop
  endfacet
  facet normal 0.995562 0.0941088 0
    outer loop
      vertex 10.8171 0.680556 -10.8385
      vertex 10.7531 1.35843 -10.8385
      vertex 10.8171 0.680556 10.8385
    endloop
  endfacet
  facet normal -0.999507 0.0314103 0
    outer loop
      vertex -10.8385 0 10.8385
      vertex -10.8171 0.680556 10.8385
      vertex -10.8385 0 -10.8385
    endloop
  endfacet
  facet normal -0.999507 0.0314103 0
    outer loop
      vertex -10.8385 0 -10.8385
      vertex -10.8171 0.680556 10.8385
      vertex -10.8171 0.680556 -10.8385
    endloop
  endfacet
  facet normal -0.999507 -0.0314103 0
    outer loop
      vertex -10.8171 -0.680556 -10.8385
      vertex -10.8171 -0.680556 10.8385
      vertex -10.8385 0 -10.8385
    endloop
  endfacet
  facet normal -0.999507 -0.0314103 0
    outer loop
      vertex -10.8385 0 -10.8385
      vertex -10.8171 -0.680556 10.8385
      vertex -10.8385 0 10.8385
    endloop
  endfacet
  facet normal -0.995562 -0.0941088 0
    outer loop
      vertex -10.7531 -1.35843 -10.8385
      vertex -10.7531 -1.35843 10.8385
      vertex -10.8171 -0.680556 -10.8385
    endloop
  endfacet
  facet normal -0.995562 -0.0941088 0
    outer loop
      vertex -10.8171 -0.680556 -10.8385
      vertex -10.7531 -1.35843 10.8385
      vertex -10.8171 -0.680556 10.8385
    endloop
  endfacet
  facet normal -0.987688 -0.156435 0
    outer loop
      vertex -10.6465 -2.03094 -10.8385
      vertex -10.6465 -2.03094 10.8385
      vertex -10.7531 -1.35843 -10.8385
    endloop
  endfacet
  facet normal -0.987688 -0.156435 0
    outer loop
      vertex -10.7531 -1.35843 -10.8385
      vertex -10.6465 -2.03094 10.8385
      vertex -10.7531 -1.35843 10.8385
    endloop
  endfacet
  facet normal -0.975917 -0.218143 0
    outer loop
      vertex -10.498 -2.69543 -10.8385
      vertex -10.498 -2.69543 10.8385
      vertex -10.6465 -2.03094 -10.8385
    endloop
  endfacet
  facet normal -0.975917 -0.218143 0
    outer loop
      vertex -10.6465 -2.03094 -10.8385
      vertex -10.498 -2.69543 10.8385
      vertex -10.6465 -2.03094 10.8385
    endloop
  endfacet
  facet normal -0.960294 -0.278991 0
    outer loop
      vertex -10.308 -3.34929 -10.8385
      vertex -10.308 -3.34929 10.8385
      vertex -10.498 -2.69543 -10.8385
    endloop
  endfacet
  facet normal -0.960294 -0.278991 0
    outer loop
      vertex -10.498 -2.69543 -10.8385
      vertex -10.308 -3.34929 10.8385
      vertex -10.498 -2.69543 10.8385
    endloop
  endfacet
  facet normal -0.940881 -0.338738 0
    outer loop
      vertex -10.0774 -3.98993 -10.8385
      vertex -10.0774 -3.98993 10.8385
      vertex -10.308 -3.34929 -10.8385
    endloop
  endfacet
  facet normal -0.940881 -0.338738 0
    outer loop
      vertex -10.308 -3.34929 -10.8385
      vertex -10.0774 -3.98993 10.8385
      vertex -10.308 -3.34929 10.8385
    endloop
  endfacet
  facet normal -0.917755 -0.397148 0
    outer loop
      vertex -9.80699 -4.61482 -10.8385
      vertex -9.80699 -4.61482 10.8385
      vertex -10.0774 -3.98993 -10.8385
    endloop
  endfacet
  facet normal -0.917755 -0.397148 0
    outer loop
      vertex -10.0774 -3.98993 -10.8385
      vertex -9.80699 -4.61482 10.8385
      vertex -10.0774 -3.98993 10.8385
    endloop
  endfacet
  facet normal -0.891007 -0.453989 0
    outer loop
      vertex -9.49787 -5.2215 -10.8385
      vertex -9.49787 -5.2215 10.8385
      vertex -9.80699 -4.61482 -10.8385
    endloop
  endfacet
  facet normal -0.891007 -0.453989 0
    outer loop
      vertex -9.80699 -4.61482 -10.8385
      vertex -9.49787 -5.2215 10.8385
      vertex -9.80699 -4.61482 10.8385
    endloop
  endfacet
  facet normal -0.860741 -0.509042 0
    outer loop
      vertex -9.15127 -5.80757 -10.8385
      vertex -9.15127 -5.80757 10.8385
      vertex -9.49787 -5.2215 -10.8385
    endloop
  endfacet
  facet normal -0.860741 -0.509042 0
    outer loop
      vertex -9.49787 -5.2215 -10.8385
      vertex -9.15127 -5.80757 10.8385
      vertex -9.49787 -5.2215 10.8385
    endloop
  endfacet
  facet normal -0.827081 -0.562083 0
    outer loop
      vertex -8.76855 -6.37072 -10.8385
      vertex -8.76855 -6.37072 10.8385
      vertex -9.15127 -5.80757 -10.8385
    endloop
  endfacet
  facet normal -0.827081 -0.562083 0
    outer loop
      vertex -9.15127 -5.80757 -10.8385
      vertex -8.76855 -6.37072 10.8385
      vertex -9.15127 -5.80757 10.8385
    endloop
  endfacet
  facet normal -0.790155 -0.612907 0
    outer loop
      vertex -8.35122 -6.90873 -10.8385
      vertex -8.35122 -6.90873 10.8385
      vertex -8.76855 -6.37072 -10.8385
    endloop
  endfacet
  facet normal -0.790155 -0.612907 0
    outer loop
      vertex -8.76855 -6.37072 -10.8385
      vertex -8.35122 -6.90873 10.8385
      vertex -8.76855 -6.37072 10.8385
    endloop
  endfacet
  facet normal -0.750111 -0.661312 0
    outer loop
      vertex -7.90094 -7.41948 -10.8385
      vertex -7.90094 -7.41948 10.8385
      vertex -8.35122 -6.90873 -10.8385
    endloop
  endfacet
  facet normal -0.750111 -0.661312 0
    outer loop
      vertex -8.35122 -6.90873 -10.8385
      vertex -7.90094 -7.41948 10.8385
      vertex -8.35122 -6.90873 10.8385
    endloop
  endfacet
  facet normal -0.707107 -0.707107 0
    outer loop
      vertex -7.90094 -7.41948 -10.8385
      vertex -7.41948 -7.90094 -10.8385
      vertex -7.41948 -7.90094 10.8385
    endloop
  endfacet
  facet normal -0.707107 -0.707107 0
    outer loop
      vertex -7.90094 -7.41948 10.8385
      vertex -7.90094 -7.41948 -10.8385
      vertex -7.41948 -7.90094 10.8385
    endloop
  endfacet
  facet normal -0.661312 -0.750111 0
    outer loop
      vertex -7.41948 -7.90094 -10.8385
      vertex -6.90873 -8.35122 -10.8385
      vertex -6.90873 -8.35122 10.8385
    endloop
  endfacet
  facet normal -0.661312 -0.750111 0
    outer loop
      vertex -7.41948 -7.90094 10.8385
      vertex -7.41948 -7.90094 -10.8385
      vertex -6.90873 -8.35122 10.8385
    endloop
  endfacet
  facet normal -0.612907 -0.790155 0
    outer loop
      vertex -6.90873 -8.35122 -10.8385
      vertex -6.37072 -8.76855 -10.8385
      vertex -6.37072 -8.76855 10.8385
    endloop
  endfacet
  facet normal -0.612907 -0.790155 0
    outer loop
      vertex -6.90873 -8.35122 10.8385
      vertex -6.90873 -8.35122 -10.8385
      vertex -6.37072 -8.76855 10.8385
    endloop
  endfacet
  facet normal -0.562083 -0.827081 0
    outer loop
      vertex -6.37072 -8.76855 -10.8385
      vertex -5.80757 -9.15127 -10.8385
      vertex -5.80757 -9.15127 10.8385
    endloop
  endfacet
  facet normal -0.562083 -0.827081 0
    outer loop
      vertex -6.37072 -8.76855 10.8385
      vertex -6.37072 -8.76855 -10.8385
      vertex -5.80757 -9.15127 10.8385
    endloop
  endfacet
  facet normal -0.509042 -0.860741 0
    outer loop
      vertex -5.80757 -9.15127 -10.8385
      vertex -5.2215 -9.49787 -10.8385
      vertex -5.2215 -9.49787 10.8385
    endloop
  endfacet
  facet normal -0.509042 -0.860741 0
    outer loop
      vertex -5.80757 -9.15127 10.8385
      vertex -5.80757 -9.15127 -10.8385
      vertex -5.2215 -9.49787 10.8385
    endloop
  endfacet
  facet normal -0.453989 -0.891007 0
    outer loop
      vertex -5.2215 -9.49787 -10.8385
      vertex -4.61482 -9.80699 -10.8385
      vertex -4.61482 -9.80699 10.8385
    endloop
  endfacet
  facet normal -0.453989 -0.891007 0
    outer loop
      vertex -5.2215 -9.49787 10.8385
      vertex -5.2215 -9.49787 -10.8385
      vertex -4.61482 -9.80699 10.8385
    endloop
  endfacet
  facet normal -0.397148 -0.917755 0
    outer loop
      vertex -4.61482 -9.80699 -10.8385
      vertex -3.98993 -10.0774 -10.8385
      vertex -3.98993 -10.0774 10.8385
    endloop
  endfacet
  facet normal -0.397148 -0.917755 0
    outer loop
      vertex -4.61482 -9.80699 10.8385
      vertex -4.61482 -9.80699 -10.8385
      vertex -3.98993 -10.0774 10.8385
    endloop
  endfacet
  facet normal -0.338738 -0.940881 0
    outer loop
      vertex -3.98993 -10.0774 -10.8385
      vertex -3.34929 -10.308 -10.8385
      vertex -3.34929 -10.308 10.8385
    endloop
  endfacet
  facet normal -0.338738 -0.940881 0
    outer loop
      vertex -3.98993 -10.0774 10.8385
      vertex -3.98993 -10.0774 -10.8385
      vertex -3.34929 -10.308 10.8385
    endloop
  endfacet
  facet normal -0.278991 -0.960294 0
    outer loop
      vertex -3.34929 -10.308 -10.8385
      vertex -2.69543 -10.498 -10.8385
      vertex -2.69543 -10.498 10.8385
    endloop
  endfacet
  facet normal -0.278991 -0.960294 0
    outer loop
      vertex -3.34929 -10.308 10.8385
      vertex -3.34929 -10.308 -10.8385
      vertex -2.69543 -10.498 10.8385
    endloop
  endfacet
  facet normal -0.218143 -0.975917 0
    outer loop
      vertex -2.69543 -10.498 -10.8385
      vertex -2.03094 -10.6465 -10.8385
      vertex -2.03094 -10.6465 10.8385
    endloop
  endfacet
  facet normal -0.218143 -0.975917 0
    outer loop
      vertex -2.69543 -10.498 10.8385
      vertex -2.69543 -10.498 -10.8385
      vertex -2.03094 -10.6465 10.8385
    endloop
  endfacet
  facet normal -0.156435 -0.987688 0
    outer loop
      vertex -2.03094 -10.6465 -10.8385
      vertex -1.35843 -10.7531 -10.8385
      vertex -1.35843 -10.7531 10.8385
    endloop
  endfacet
  facet normal -0.156435 -0.987688 0
    outer loop
      vertex -2.03094 -10.6465 10.8385
      vertex -2.03094 -10.6465 -10.8385
      vertex -1.35843 -10.7531 10.8385
    endloop
  endfacet
  facet normal -0.0941088 -0.995562 0
    outer loop
      vertex -1.35843 -10.7531 -10.8385
      vertex -0.680556 -10.8171 -10.8385
      vertex -0.680556 -10.8171 10.8385
    endloop
  endfacet
  facet normal -0.0941088 -0.995562 0
    outer loop
      vertex -1.35843 -10.7531 10.8385
      vertex -1.35843 -10.7531 -10.8385
      vertex -0.680556 -10.8171 10.8385
    endloop
  endfacet
  facet normal -0.0314103 -0.999507 0
    outer loop
      vertex -0.680556 -10.8171 -10.8385
      vertex 0 -10.8385 -10.8385
      vertex 0 -10.8385 10.8385
    endloop
  endfacet
  facet normal -0.0314103 -0.999507 0
    outer loop
      vertex -0.680556 -10.8171 10.8385
      vertex -0.680556 -10.8171 -10.8385
      vertex 0 -10.8385 10.8385
    endloop
  endfacet
  facet normal 0.0314103 -0.999507 0
    outer loop
      vertex 0 -10.8385 -10.8385
      vertex 0.680556 -10.8171 -10.8385
      vertex 0.680556 -10.8171 10.8385
    endloop
  endfacet
  facet normal 0.0314103 -0.999507 0
    outer loop
      vertex 0 -10.8385 10.8385
      vertex 0 -10.8385 -10.8385
      vertex 0.680556 -10.8171 10.8385
    endloop
  endfacet
  facet normal 0.0941088 -0.995562 0
    outer loop
      vertex 0.680556 -10.8171 -10.8385
      vertex 1.35843 -10.7531 -10.8385
      vertex 1.35843 -10.7531 10.8385
    endloop
  endfacet
  facet normal 0.0941088 -0.995562 0
    outer loop
      vertex 0.680556 -10.8171 10.8385
      vertex 0.680556 -10.8171 -10.8385
      vertex 1.35843 -10.7531 10.8385
    endloop
  endfacet
  facet normal 0.156435 -0.987688 0
    outer loop
      vertex 1.35843 -10.7531 -10.8385
      vertex 2.03094 -10.6465 -10.8385
      vertex 2.03094 -10.6465 10.8385
    endloop
  endfacet
  facet normal 0.156435 -0.987688 0
    outer loop
      vertex 1.35843 -10.7531 10.8385
      vertex 1.35843 -10.7531 -10.8385
      vertex 2.03094 -10.6465 10.8385
    endloop
  endfacet
  facet normal 0.218143 -0.975917 0
    outer loop
      vertex 2.03094 -10.6465 -10.8385
      vertex 2.69543 -10.498 -10.8385
      vertex 2.69543 -10.498 10.8385
    endloop
  endfacet
  facet normal 0.218143 -0.975917 0
    outer loop
      vertex 2.03094 -10.6465 10.8385
      vertex 2.03094 -10.6465 -10.8385
      vertex 2.69543 -10.498 10.8385
    endloop
  endfacet
  facet normal 0.278991 -0.960294 0
    outer loop
      vertex 2.69543 -10.498 -10.8385
      vertex 3.34929 -10.308 -10.8385
      vertex 3.34929 -10.308 10.8385
    endloop
  endfacet
  facet normal 0.278991 -0.960294 0
    outer loop
      vertex 2.69543 -10.498 10.8385
      vertex 2.69543 -10.498 -10.8385
      vertex 3.34929 -10.308 10.8385
    endloop
  endfacet
  facet normal 0.338738 -0.940881 0
    outer loop
      vertex 3.34929 -10.308 -10.8385
      vertex 3.98993 -10.0774 -10.8385
      vertex 3.98993 -10.0774 10.8385
    endloop
  endfacet
  facet normal 0.338738 -0.940881 0
    outer loop
      vertex 3.34929 -10.308 10.8385
      vertex 3.34929 -10.308 -10.8385
      vertex 3.98993 -10.0774 10.8385
    endloop
  endfacet
  facet normal 0.397148 -0.917755 0
    outer loop
      vertex 3.98993 -10.0774 -10.8385
      vertex 4.61482 -9.80699 -10.8385
      vertex 4.61482 -9.80699 10.8385
    endloop
  endfacet
  facet normal 0.397148 -0.917755 0
    outer loop
      vertex 3.98993 -10.0774 10.8385
      vertex 3.98993 -10.0774 -10.8385
      vertex 4.61482 -9.80699 10.8385
    endloop
  endfacet
  facet normal 0.453989 -0.891007 0
    outer loop
      vertex 4.61482 -9.80699 -10.8385
      vertex 5.2215 -9.49787 -10.8385
      vertex 5.2215 -9.49787 10.8385
    endloop
  endfacet
  facet normal 0.453989 -0.891007 0
    outer loop
      vertex 4.61482 -9.80699 10.8385
      vertex 4.61482 -9.80699 -10.8385
      vertex 5.2215 -9.49787 10.8385
    endloop
  endfacet
  facet normal 0.509042 -0.860741 0
    outer loop
      vertex 5.2215 -9.49787 -10.8385
      vertex 5.80757 -9.15127 -10.8385
      vertex 5.80757 -9.15127 10.8385
    endloop
  endfacet
  facet normal 0.509042 -0.860741 0
    outer loop
      vertex 5.2215 -9.49787 10.8385
      vertex 5.2215 -9.49787 -10.8385
      vertex 5.80757 -9.15127 10.8385
    endloop
  endfacet
  facet normal 0.562083 -0.827081 0
    outer loop
      vertex 5.80757 -9.15127 -10.8385
      vertex 6.37072 -8.76855 -10.8385
      vertex 6.37072 -8.76855 10.8385
    endloop
  endfacet
  facet normal 0.562083 -0.827081 0
    outer loop
      vertex 5.80757 -9.15127 10.8385
      vertex 5.80757 -9.15127 -10.8385
      vertex 6.37072 -8.76855 10.8385
    endloop
  endfacet
  facet normal 0.612907 -0.790155 0
    outer loop
      vertex 6.37072 -8.76855 -10.8385
      vertex 6.90873 -8.35122 -10.8385
      vertex 6.90873 -8.35122 10.8385
    endloop
  endfacet
  facet normal 0.612907 -0.790155 0
    outer loop
      vertex 6.37072 -8.76855 10.8385
      vertex 6.37072 -8.76855 -10.8385
      vertex 6.90873 -8.35122 10.8385
    endloop
  endfacet
  facet normal 0.661312 -0.750111 0
    outer loop
      vertex 6.90873 -8.35122 -10.8385
      vertex 7.41948 -7.90094 -10.8385
      vertex 7.41948 -7.90094 10.8385
    endloop
  endfacet
  facet normal 0.661312 -0.750111 0
    outer loop
      vertex 6.90873 -8.35122 10.8385
      vertex 6.90873 -8.35122 -10.8385
      vertex 7.41948 -7.90094 10.8385
    endloop
  endfacet
  facet normal 0.707107 -0.707107 0
    outer loop
      vertex 7.41948 -7.90094 -10.8385
      vertex 7.90094 -7.41948 -10.8385
      vertex 7.90094 -7.41948 10.8385
    endloop
  endfacet
  facet normal 0.707107 -0.707107 0
    outer loop
      vertex 7.41948 -7.90094 10.8385
      vertex 7.41948 -7.90094 -10.8385
      vertex 7.90094 -7.41948 10.8385
    endloop
  endfacet
  facet normal 0.750111 -0.661312 0
    outer loop
      vertex 7.90094 -7.41948 -10.8385
      vertex 8.35122 -6.90873 -10.8385
      vertex 8.35122 -6.90873 10.8385
    endloop
  endfacet
  facet normal 0.750111 -0.661312 0
    outer loop
      vertex 7.90094 -7.41948 10.8385
      vertex 7.90094 -7.41948 -10.8385
      vertex 8.35122 -6.90873 10.8385
    endloop
  endfacet
  facet normal 0.790155 -0.612907 0
    outer loop
      vertex 8.35122 -6.90873 -10.8385
      vertex 8.76855 -6.37072 -10.8385
      vertex 8.76855 -6.37072 10.8385
    endloop
  endfacet
  facet normal 0.790155 -0.612907 0
    outer loop
      vertex 8.35122 -6.90873 10.8385
      vertex 8.35122 -6.90873 -10.8385
      vertex 8.76855 -6.37072 10.8385
    endloop
  endfacet
  facet normal 0.827081 -0.562083 0
    outer loop
      vertex 8.76855 -6.37072 -10.8385
      vertex 9.15127 -5.80757 -10.8385
      vertex 9.15127 -5.80757 10.8385
    endloop
  endfacet
  facet normal 0.827081 -0.562083 0
    outer loop
      vertex 8.76855 -6.37072 10.8385
      vertex 8.76855 -6.37072 -10.8385
      vertex 9.15127 -5.80757 10.8385
    endloop
  endfacet
  facet normal 0.860741 -0.509042 0
    outer loop
      vertex 9.15127 -5.80757 -10.8385
      vertex 9.49787 -5.2215 -10.8385
      vertex 9.49787 -5.2215 10.8385
    endloop
  endfacet
  facet normal 0.860741 -0.509042 0
    outer loop
      vertex 9.15127 -5.80757 10.8385
      vertex 9.15127 -5.80757 -10.8385
      vertex 9.49787 -5.2215 10.8385
    endloop
  endfacet
  facet normal 0.891007 -0.453989 0
    outer loop
      vertex 9.49787 -5.2215 -10.8385
      vertex 9.80699 -4.61482 -10.8385
      vertex 9.80699 -4.61482 10.8385
    endloop
  endfacet
  facet normal 0.891007 -0.453989 0
    outer loop
      vertex 9.49787 -5.2215 10.8385
      vertex 9.49787 -5.2215 -10.8385
      vertex 9.80699 -4.61482 10.8385
    endloop
  endfacet
  facet normal 0.917755 -0.397148 0
    outer loop
      vertex 9.80699 -4.61482 -10.8385
      vertex 10.0774 -3.98993 -10.8385
      vertex 10.0774 -3.98993 10.8385
    endloop
  endfacet
  facet normal 0.917755 -0.397148 0
    outer loop
      vertex 9.80699 -4.61482 10.8385
      vertex 9.80699 -4.61482 -10.8385
      vertex 10.0774 -3.98993 10.8385
    endloop
  endfacet
  facet normal 0.940881 -0.338738 0
    outer loop
      vertex 10.0774 -3.98993 -10.8385
      vertex 10.308 -3.34929 -10.8385
      vertex 10.308 -3.34929 10.8385
    endloop
  endfacet
  facet normal 0.940881 -0.338738 0
    outer loop
      vertex 10.0774 -3.98993 10.8385
      vertex 10.0774 -3.98993 -10.8385
      vertex 10.308 -3.34929 10.8385
    endloop
  endfacet
  facet normal 0.960294 -0.278991 0
    outer loop
      vertex 10.308 -3.34929 -10.8385
      vertex 10.498 -2.69543 -10.8385
      vertex 10.498 -2.69543 10.8385
    endloop
  endfacet
  facet normal 0.960294 -0.278991 0
    outer loop
      vertex 10.308 -3.34929 10.8385
      vertex 10.308 -3.34929 -10.8385
      vertex 10.498 -2.69543 10.8385
    endloop
  endfacet
  facet normal 0.975917 -0.218143 0
    outer loop
      vertex 10.498 -2.69543 -10.8385
      vertex 10.6465 -2.03094 -10.8385
      vertex 10.6465 -2.03094 10.8385
    endloop
  endfacet
  facet normal 0.975917 -0.218143 0
    outer loop
      vertex 10.498 -2.69543 10.8385
      vertex 10.498 -2.69543 -10.8385
      vertex 10.6465 -2.03094 10.8385
    endloop
  endfacet
  facet normal 0.987688 -0.156435 0
    outer loop
      vertex 10.6465 -2.03094 -10.8385
      vertex 10.7531 -1.35843 -10.8385
      vertex 10.7531 -1.35843 10.8385
    endloop
  endfacet
  facet normal 0.987688 -0.156435 0
    outer loop
      vertex 10.6465 -2.03094 10.8385
      vertex 10.6465 -2.03094 -10.8385
      vertex 10.7531 -1.35843 10.8385
    endloop
  endfacet
  facet normal 0.995562 -0.0941088 0
    outer loop
      vertex 10.7531 -1.35843 -10.8385
      vertex 10.8171 -0.680556 -10.8385
      vertex 10.8171 -0.680556 10.8385
    endloop
  endfacet
  facet normal 0.995562 -0.0941088 0
    outer loop
      vertex 10.7531 -1.35843 10.8385
      vertex 10.7531 -1.35843 -10.8385
      vertex 10.8171 -0.680556 10.8385
    endloop
  endfacet
  facet normal 0.999507 -0.0314103 0
    outer loop
      vertex 10.8171 -0.680556 -10.8385
      vertex 10.8385 0 -10.8385
      vertex 10.8385 0 10.8385
    endloop
  endfacet
  facet normal 0.999507 -0.0314103 0
    outer loop
      vertex 10.8171 -0.680556 10.8385
      vertex 10.8171 -0.680556 -10.8385
      vertex 10.8385 0 10.8385
    endloop
  endfacet
  facet normal 0.987688 0.156435 0
    outer loop
      vertex 10.6465 2.03094 -10.8385
      vertex 10.6465 2.03094 10.8385
      vertex 10.7531 1.35843 10.8385
    endloop
  endfacet
  facet normal 0.987688 0.156435 0
    outer loop
      vertex 10.7531 1.35843 -10.8385
      vertex 10.6465 2.03094 -10.8385
      vertex 10.7531 1.35843 10.8385
    endloop
  endfacet
  facet normal 0.975917 0.218143 0
    outer loop
      vertex 10.498 2.69543 -10.8385
      vertex 10.498 2.69543 10.8385
      vertex 10.6465 2.03094 10.8385
    endloop
  endfacet
  facet normal 0.975917 0.218143 0
    outer loop
      vertex 10.6465 2.03094 -10.8385
      vertex 10.498 2.69543 -10.8385
      vertex 10.6465 2.03094 10.8385
    endloop
  endfacet
  facet normal 0.960294 0.278991 0
    outer loop
      vertex 10.308 3.34929 -10.8385
      vertex 10.308 3.34929 10.8385
      vertex 10.498 2.69543 10.8385
    endloop
  endfacet
  facet normal 0.960294 0.278991 0
    outer loop
      vertex 10.498 2.69543 -10.8385
      vertex 10.308 3.34929 -10.8385
      vertex 10.498 2.69543 10.8385
    endloop
  endfacet
  facet normal 0.940881 0.338738 0
    outer loop
      vertex 10.0774 3.98993 -10.8385
      vertex 10.0774 3.98993 10.8385
      vertex 10.308 3.34929 10.8385
    endloop
  endfacet
  facet normal 0.940881 0.338738 0
    outer loop
      vertex 10.308 3.34929 -10.8385
      vertex 10.0774 3.98993 -10.8385
      vertex 10.308 3.34929 10.8385
    endloop
  endfacet
  facet normal 0.917755 0.397148 0
    outer loop
      vertex 9.80699 4.61482 -10.8385
      vertex 9.80699 4.61482 10.8385
      vertex 10.0774 3.98993 10.8385
    endloop
  endfacet
  facet normal 0.917755 0.397148 0
    outer loop
      vertex 10.0774 3.98993 -10.8385
      vertex 9.80699 4.61482 -10.8385
      vertex 10.0774 3.98993 10.8385
    endloop
  endfacet
  facet normal 0.891007 0.453989 0
    outer loop
      vertex 9.49787 5.2215 -10.8385
      vertex 9.49787 5.2215 10.8385
      vertex 9.80699 4.61482 10.8385
    endloop
  endfacet
  facet normal 0.891007 0.453989 0
    outer loop
      vertex 9.80699 4.61482 -10.8385
      vertex 9.49787 5.2215 -10.8385
      vertex 9.80699 4.61482 10.8385
    endloop
  endfacet
  facet normal 0.860741 0.509042 0
    outer loop
      vertex 9.15127 5.80757 -10.8385
      vertex 9.15127 5.80757 10.8385
      vertex 9.49787 5.2215 10.8385
    endloop
  endfacet
  facet normal 0.860741 0.509042 0
    outer loop
      vertex 9.49787 5.2215 -10.8385
      vertex 9.15127 5.80757 -10.8385
      vertex 9.49787 5.2215 10.8385
    endloop
  endfacet
  facet normal 0.827081 0.562083 0
    outer loop
      vertex 8.76855 6.37072 -10.8385
      vertex 8.76855 6.37072 10.8385
      vertex 9.15127 5.80757 10.8385
    endloop
  endfacet
  facet normal 0.827081 0.562083 0
    outer loop
      vertex 9.15127 5.80757 -10.8385
      vertex 8.76855 6.37072 -10.8385
      vertex 9.15127 5.80757 10.8385
    endloop
  endfacet
  facet normal 0.790155 0.612907 0
    outer loop
      vertex 8.35122 6.90873 -10.8385
      vertex 8.35122 6.90873 10.8385
      vertex 8.76855 6.37072 10.8385
    endloop
  endfacet
  facet normal 0.790155 0.612907 0
    outer loop
      vertex 8.76855 6.37072 -10.8385
      vertex 8.35122 6.90873 -10.8385
      vertex 8.76855 6.37072 10.8385
    endloop
  endfacet
  facet normal 0.750111 0.661312 0
    outer loop
      vertex 7.90094 7.41948 -10.8385
      vertex 7.90094 7.41948 10.8385
      vertex 8.35122 6.90873 10.8385
    endloop
  endfacet
  facet normal 0.750111 0.661312 0
    outer loop
      vertex 8.35122 6.90873 -10.8385
      vertex 7.90094 7.41948 -10.8385
      vertex 8.35122 6.90873 10.8385
    endloop
  endfacet
  facet normal 0.707107 0.707107 0
    outer loop
      vertex 7.41948 7.90094 10.8385
      vertex 7.90094 7.41948 10.8385
      vertex 7.41948 7.90094 -10.8385
    endloop
  endfacet
  facet normal 0.707107 0.707107 0
    outer loop
      vertex 7.41948 7.90094 -10.8385
      vertex 7.90094 7.41948 10.8385
      vertex 7.90094 7.41948 -10.8385
    endloop
  endfacet
  facet normal 0.661312 0.750111 0
    outer loop
      vertex 6.90873 8.35122 10.8385
      vertex 7.41948 7.90094 10.8385
      vertex 6.90873 8.35122 -10.8385
    endloop
  endfacet
  facet normal 0.661312 0.750111 0
    outer loop
      vertex 6.90873 8.35122 -10.8385
      vertex 7.41948 7.90094 10.8385
      vertex 7.41948 7.90094 -10.8385
    endloop
  endfacet
  facet normal 0.612907 0.790155 0
    outer loop
      vertex 6.37072 8.76855 10.8385
      vertex 6.90873 8.35122 10.8385
      vertex 6.37072 8.76855 -10.8385
    endloop
  endfacet
  facet normal 0.612907 0.790155 0
    outer loop
      vertex 6.37072 8.76855 -10.8385
      vertex 6.90873 8.35122 10.8385
      vertex 6.90873 8.35122 -10.8385
    endloop
  endfacet
  facet normal 0.562083 0.827081 0
    outer loop
      vertex 5.80757 9.15127 10.8385
      vertex 6.37072 8.76855 10.8385
      vertex 5.80757 9.15127 -10.8385
    endloop
  endfacet
  facet normal 0.562083 0.827081 0
    outer loop
      vertex 5.80757 9.15127 -10.8385
      vertex 6.37072 8.76855 10.8385
      vertex 6.37072 8.76855 -10.8385
    endloop
  endfacet
  facet normal 0.509042 0.860741 0
    outer loop
      vertex 5.2215 9.49787 10.8385
      vertex 5.80757 9.15127 10.8385
      vertex 5.2215 9.49787 -10.8385
    endloop
  endfacet
  facet normal 0.509042 0.860741 0
    outer loop
      vertex 5.2215 9.49787 -10.8385
      vertex 5.80757 9.15127 10.8385
      vertex 5.80757 9.15127 -10.8385
    endloop
  endfacet
  facet normal 0.453989 0.891007 0
    outer loop
      vertex 4.61482 9.80699 10.8385
      vertex 5.2215 9.49787 10.8385
      vertex 4.61482 9.80699 -10.8385
    endloop
  endfacet
  facet normal 0.453989 0.891007 0
    outer loop
      vertex 4.61482 9.80699 -10.8385
      vertex 5.2215 9.49787 10.8385
      vertex 5.2215 9.49787 -10.8385
    endloop
  endfacet
  facet normal 0.397148 0.917755 0
    outer loop
      vertex 3.98993 10.0774 10.8385
      vertex 4.61482 9.80699 10.8385
      vertex 3.98993 10.0774 -10.8385
    endloop
  endfacet
  facet normal 0.397148 0.917755 0
    outer loop
      vertex 3.98993 10.0774 -10.8385
      vertex 4.61482 9.80699 10.8385
      vertex 4.61482 9.80699 -10.8385
    endloop
  endfacet
  facet normal 0.338738 0.940881 0
    outer loop
      vertex 3.34929 10.308 10.8385
      vertex 3.98993 10.0774 10.8385
      vertex 3.34929 10.308 -10.8385
    endloop
  endfacet
  facet normal 0.338738 0.940881 0
    outer loop
      vertex 3.34929 10.308 -10.8385
      vertex 3.98993 10.0774 10.8385
      vertex 3.98993 10.0774 -10.8385
    endloop
  endfacet
  facet normal 0.278991 0.960294 0
    outer loop
      vertex 2.69543 10.498 10.8385
      vertex 3.34929 10.308 10.8385
      vertex 2.69543 10.498 -10.8385
    endloop
  endfacet
  facet normal 0.278991 0.960294 0
    outer loop
      vertex 2.69543 10.498 -10.8385
      vertex 3.34929 10.308 10.8385
      vertex 3.34929 10.308 -10.8385
    endloop
  endfacet
  facet normal 0.218143 0.975917 0
    outer loop
      vertex 2.03094 10.6465 10.8385
      vertex 2.69543 10.498 10.8385
      vertex 2.03094 10.6465 -10.8385
    endloop
  endfacet
  facet normal 0.218143 0.975917 0
    outer loop
      vertex 2.03094 10.6465 -10.8385
      vertex 2.69543 10.498 10.8385
      vertex 2.69543 10.498 -10.8385
    endloop
  endfacet
  facet normal 0.156435 0.987688 0
    outer loop
      vertex 1.35843 10.7531 10.8385
      vertex 2.03094 10.6465 10.8385
      vertex 1.35843 10.7531 -10.8385
    endloop
  endfacet
  facet normal 0.156435 0.987688 0
    outer loop
      vertex 1.35843 10.7531 -10.8385
      vertex 2.03094 10.6465 10.8385
      vertex 2.03094 10.6465 -10.8385
    endloop
  endfacet
  facet normal 0.0941088 0.995562 0
    outer loop
      vertex 0.680556 10.8171 10.8385
      vertex 1.35843 10.7531 10.8385
      vertex 0.680556 10.8171 -10.8385
    endloop
  endfacet
  facet normal 0.0941088 0.995562 0
    outer loop
      vertex 0.680556 10.8171 -10.8385
      vertex 1.35843 10.7531 10.8385
      vertex 1.35843 10.7531 -10.8385
    endloop
  endfacet
  facet normal 0.0314103 0.999507 0
    outer loop
      vertex 0 10.8385 10.8385
      vertex 0.680556 10.8171 10.8385
      vertex 0 10.8385 -10.8385
    endloop
  endfacet
  facet normal 0.0314103 0.999507 0
    outer loop
      vertex 0 10.8385 -10.8385
      vertex 0.680556 10.8171 10.8385
      vertex 0.680556 10.8171 -10.8385
    endloop
  endfacet
  facet normal -0.0314103 0.999507 0
    outer loop
      vertex -0.680556 10.8171 10.8385
      vertex 0 10.8385 10.8385
      vertex -0.680556 10.8171 -10.8385
    endloop
  endfacet
  facet normal -0.0314103 0.999507 0
    outer loop
      vertex -0.680556 10.8171 -10.8385
      vertex 0 10.8385 10.8385
      vertex 0 10.8385 -10.8385
    endloop
  endfacet
  facet normal -0.0941088 0.995562 0
    outer loop
      vertex -1.35843 10.7531 10.8385
      vertex -0.680556 10.8171 10.8385
      vertex -1.35843 10.7531 -10.8385
    endloop
  endfacet
  facet normal -0.0941088 0.995562 0
    outer loop
      vertex -1.35843 10.7531 -10.8385
      vertex -0.680556 10.8171 10.8385
      vertex -0.680556 10.8171 -10.8385
    endloop
  endfacet
  facet normal -0.156435 0.987688 0
    outer loop
      vertex -2.03094 10.6465 10.8385
      vertex -1.35843 10.7531 10.8385
      vertex -2.03094 10.6465 -10.8385
    endloop
  endfacet
  facet normal -0.156435 0.987688 0
    outer loop
      vertex -2.03094 10.6465 -10.8385
      vertex -1.35843 10.7531 10.8385
      vertex -1.35843 10.7531 -10.8385
    endloop
  endfacet
  facet normal -0.218143 0.975917 0
    outer loop
      vertex -2.69543 10.498 10.8385
      vertex -2.03094 10.6465 10.8385
      vertex -2.69543 10.498 -10.8385
    endloop
  endfacet
  facet normal -0.218143 0.975917 0
    outer loop
      vertex -2.69543 10.498 -10.8385
      vertex -2.03094 10.6465 10.8385
      vertex -2.03094 10.6465 -10.8385
    endloop
  endfacet
  facet normal -0.278991 0.960294 0
    outer loop
      vertex -3.34929 10.308 10.8385
      vertex -2.69543 10.498 10.8385
      vertex -3.34929 10.308 -10.8385
    endloop
  endfacet
  facet normal -0.278991 0.960294 0
    outer loop
      vertex -3.34929 10.308 -10.8385
      vertex -2.69543 10.498 10.8385
      vertex -2.69543 10.498 -10.8385
    endloop
  endfacet
  facet normal -0.338738 0.940881 0
    outer loop
      vertex -3.98993 10.0774 10.8385
      vertex -3.34929 10.308 10.8385
      vertex -3.98993 10.0774 -10.8385
    endloop
  endfacet
  facet normal -0.338738 0.940881 0
    outer loop
      vertex -3.98993 10.0774 -10.8385
      vertex -3.34929 10.308 10.8385
      vertex -3.34929 10.308 -10.8385
    endloop
  endfacet
  facet normal -0.397148 0.917755 0
    outer loop
      vertex -4.61482 9.80699 10.8385
      vertex -3.98993 10.0774 10.8385
      vertex -4.61482 9.80699 -10.8385
    endloop
  endfacet
  facet normal -0.397148 0.917755 0
    outer loop
      vertex -4.61482 9.80699 -10.8385
      vertex -3.98993 10.0774 10.8385
      vertex -3.98993 10.0774 -10.8385
    endloop
  endfacet
  facet normal -0.453989 0.891007 0
    outer loop
      vertex -5.2215 9.49787 10.8385
      vertex -4.61482 9.80699 10.8385
      vertex -5.2215 9.49787 -10.8385
    endloop
  endfacet
  facet normal -0.453989 0.891007 0
    outer loop
      vertex -5.2215 9.49787 -10.8385
      vertex -4.61482 9.80699 10.8385
      vertex -4.61482 9.80699 -10.8385
    endloop
  endfacet
  facet normal -0.509042 0.860741 0
    outer loop
      vertex -5.80757 9.15127 10.8385
      vertex -5.2215 9.49787 10.8385
      vertex -5.80757 9.15127 -10.8385
    endloop
  endfacet
  facet normal -0.509042 0.860741 0
    outer loop
      vertex -5.80757 9.15127 -10.8385
      vertex -5.2215 9.49787 10.8385
      vertex -5.2215 9.49787 -10.8385
    endloop
  endfacet
  facet normal -0.562083 0.827081 0
    outer loop
      vertex -6.37072 8.76855 10.8385
      vertex -5.80757 9.15127 10.8385
      vertex -6.37072 8.76855 -10.8385
    endloop
  endfacet
  facet normal -0.562083 0.827081 0
    outer loop
      vertex -6.37072 8.76855 -10.8385
      vertex -5.80757 9.15127 10.8385
      vertex -5.80757 9.15127 -10.8385
    endloop
  endfacet
  facet normal -0.612907 0.790155 0
    outer loop
      vertex -6.90873 8.35122 10.8385
      vertex -6.37072 8.76855 10.8385
      vertex -6.90873 8.35122 -10.8385
    endloop
  endfacet
  facet normal -0.612907 0.790155 0
    outer loop
      vertex -6.90873 8.35122 -10.8385
      vertex -6.37072 8.76855 10.8385
      vertex -6.37072 8.76855 -10.8385
    endloop
  endfacet
  facet normal -0.661312 0.750111 0
    outer loop
      vertex -7.41948 7.90094 10.8385
      vertex -6.90873 8.35122 10.8385
      vertex -7.41948 7.90094 -10.8385
    endloop
  endfacet
  facet normal -0.661312 0.750111 0
    outer loop
      vertex -7.41948 7.90094 -10.8385
      vertex -6.90873 8.35122 10.8385
      vertex -6.90873 8.35122 -10.8385
    endloop
  endfacet
  facet normal -0.707107 0.707107 0
    outer loop
      vertex -7.90094 7.41948 10.8385
      vertex -7.41948 7.90094 10.8385
      vertex -7.90094 7.41948 -10.8385
    endloop
  endfacet
  facet normal -0.707107 0.707107 0
    outer loop
      vertex -7.90094 7.41948 -10.8385
      vertex -7.41948 7.90094 10.8385
      vertex -7.41948 7.90094 -10.8385
    endloop
  endfacet
  facet normal -0.750111 0.661312 0
    outer loop
      vertex -8.35122 6.90873 10.8385
      vertex -7.90094 7.41948 10.8385
      vertex -8.35122 6.90873 -10.8385
    endloop
  endfacet
  facet normal -0.750111 0.661312 0
    outer loop
      vertex -8.35122 6.90873 -10.8385
      vertex -7.90094 7.41948 10.8385
      vertex -7.90094 7.41948 -10.8385
    endloop
  endfacet
  facet normal -0.790155 0.612907 0
    outer loop
      vertex -8.76855 6.37072 10.8385
      vertex -8.35122 6.90873 10.8385
      vertex -8.76855 6.37072 -10.8385
    endloop
  endfacet
  facet normal -0.790155 0.612907 0
    outer loop
      vertex -8.76855 6.37072 -10.8385
      vertex -8.35122 6.90873 10.8385
      vertex -8.35122 6.90873 -10.8385
    endloop
  endfacet
  facet normal -0.827081 0.562083 0
    outer loop
      vertex -9.15127 5.80757 10.8385
      vertex -8.76855 6.37072 10.8385
      vertex -9.15127 5.80757 -10.8385
    endloop
  endfacet
  facet normal -0.827081 0.562083 0
    outer loop
      vertex -9.15127 5.80757 -10.8385
      vertex -8.76855 6.37072 10.8385
      vertex -8.76855 6.37072 -10.8385
    endloop
  endfacet
  facet normal -0.860741 0.509042 0
    outer loop
      vertex -9.49787 5.2215 10.8385
      vertex -9.15127 5.80757 10.8385
      vertex -9.49787 5.2215 -10.8385
    endloop
  endfacet
  facet normal -0.860741 0.509042 0
    outer loop
      vertex -9.49787 5.2215 -10.8385
      vertex -9.15127 5.80757 10.8385
      vertex -9.15127 5.80757 -10.8385
    endloop
  endfacet
  facet normal -0.891007 0.453989 0
    outer loop
      vertex -9.80699 4.61482 10.8385
      vertex -9.49787 5.2215 10.8385
      vertex -9.80699 4.61482 -10.8385
    endloop
  endfacet
  facet normal -0.891007 0.453989 0
    outer loop
      vertex -9.80699 4.61482 -10.8385
      vertex -9.49787 5.2215 10.8385
      vertex -9.49787 5.2215 -10.8385
    endloop
  endfacet
  facet normal -0.917755 0.397148 0
    outer loop
      vertex -10.0774 3.98993 10.8385
      vertex -9.80699 4.61482 10.8385
      vertex -10.0774 3.98993 -10.8385
    endloop
  endfacet
  facet normal -0.917755 0.397148 0
    outer loop
      vertex -10.0774 3.98993 -10.8385
      vertex -9.80699 4.61482 10.8385
      vertex -9.80699 4.61482 -10.8385
    endloop
  endfacet
  facet normal -0.940881 0.338738 0
    outer loop
      vertex -10.308 3.34929 10.8385
      vertex -10.0774 3.98993 10.8385
      vertex -10.308 3.34929 -10.8385
    endloop
  endfacet
  facet normal -0.940881 0.338738 0
    outer loop
      vertex -10.308 3.34929 -10.8385
      vertex -10.0774 3.98993 10.8385
      vertex -10.0774 3.98993 -10.8385
    endloop
  endfacet
  facet normal -0.960294 0.278991 0
    outer loop
      vertex -10.498 2.69543 10.8385
      vertex -10.308 3.34929 10.8385
      vertex -10.498 2.69543 -10.8385
    endloop
  endfacet
  facet normal -0.960294 0.278991 0
    outer loop
      vertex -10.498 2.69543 -10.8385
      vertex -10.308 3.34929 10.8385
      vertex -10.308 3.34929 -10.8385
    endloop
  endfacet
  facet normal -0.975917 0.218143 0
    outer loop
      vertex -10.6465 2.03094 10.8385
      vertex -10.498 2.69543 10.8385
      vertex -10.6465 2.03094 -10.8385
    endloop
  endfacet
  facet normal -0.975917 0.218143 0
    outer loop
      vertex -10.6465 2.03094 -10.8385
      vertex -10.498 2.69543 10.8385
      vertex -10.498 2.69543 -10.8385
    endloop
  endfacet
  facet normal -0.987688 0.156435 0
    outer loop
      vertex -10.7531 1.35843 10.8385
      vertex -10.6465 2.03094 10.8385
      vertex -10.7531 1.35843 -10.8385
    endloop
  endfacet
  facet normal -0.987688 0.156435 0
    outer loop
      vertex -10.7531 1.35843 -10.8385
      vertex -10.6465 2.03094 10.8385
      vertex -10.6465 2.03094 -10.8385
    endloop
  endfacet
  facet normal -0.995562 0.0941088 0
    outer loop
      vertex -10.8171 0.680556 10.8385
      vertex -10.7531 1.35843 10.8385
      vertex -10.8171 0.680556 -10.8385
    endloop
  endfacet
  facet normal -0.995562 0.0941088 0
    outer loop
      vertex -10.8171 0.680556 -10.8385
      vertex -10.7531 1.35843 10.8385
      vertex -10.7531 1.35843 -10.8385
    endloop
  endfacet
  facet normal 0 0 1
    outer loop
      vertex -10.8385 0 10.8385
      vertex -10.8171 -0.680556 10.8385
      vertex -10.7531 -1.35843 10.8385
    endloop
  endfacet
  facet normal 0 0 1
    outer loop
      vertex -10.498 -2.69543 10.8385
      vertex -10.8385 0 10.8385
      vertex -10.6465 -2.03094 10.8385
    endloop
  endfacet
  facet normal 0 0 1
    outer loop
      vertex -10.6465 -2.03094 10.8385
      vertex -10.8385 0 10.8385
      vertex -10.7531 -1.35843 10.8385
    endloop
  endfacet
  facet normal 0 0 1
    outer loop
      vertex -10.308 -3.34929 10.8385
      vertex -10.8385 0 10.8385
      vertex -10.498 -2.69543 10.8385
    endloop
  endfacet
  facet normal 0 0 1
    outer loop
      vertex -10.0774 -3.98993 10.8385
      vertex -10.8385 0 10.8385
      vertex -10.308 -3.34929 10.8385
    endloop
  endfacet
  facet normal 0 0 1
    outer loop
      vertex -9.80699 -4.61482 10.8385
      vertex -10.8385 0 10.8385
      vertex -10.0774 -3.98993 10.8385
    endloop
  endfacet
  facet normal 0 0 1
    outer loop
      vertex -9.49787 -5.2215 10.8385
      vertex -10.8385 0 10.8385
      vertex -9.80699 -4.61482 10.8385
    endloop
  endfacet
  facet normal 0 0 1
    outer loop
      vertex -9.15127 -5.80757 10.8385
      vertex -10.8385 0 10.8385
      vertex -9.49787 -5.2215 10.8385
    endloop
  endfacet
  facet normal 0 0 1
    outer loop
      vertex -8.76855 -6.37072 10.8385
      vertex -10.8385 0 10.8385
      vertex -9.15127 -5.80757 10.8385
    endloop
  endfacet
  facet normal 0 0 1
    outer loop
      vertex -8.35122 -6.90873 10.8385
      vertex -10.8385 0 10.8385
      vertex -8.76855 -6.37072 10.8385
    endloop
  endfacet
  facet normal 0 0 1
    outer loop
      vertex -7.90094 -7.41948 10.8385
      vertex -10.8385 0 10.8385
      vertex -8.35122 -6.90873 10.8385
    endloop
  endfacet
  facet normal 0 0 1
    outer loop
      vertex -7.41948 -7.90094 10.8385
      vertex -10.8385 0 10.8385
      vertex -7.90094 -7.41948 10.8385
    endloop
  endfacet
  facet normal 0 0 1
    outer loop
      vertex -6.90873 -8.35122 10.8385
      vertex -10.8385 0 10.8385
      vertex -7.41948 -7.90094 10.8385
    endloop
  endfacet
  facet normal 0 0 1
    outer loop
      vertex -6.37072 -8.76855 10.8385
      vertex -10.8385 0 10.8385
      vertex -6.90873 -8.35122 10.8385
    endloop
  endfacet
  facet normal 0 0 1
    outer loop
      vertex -5.80757 -9.15127 10.8385
      vertex -10.8385 0 10.8385
      vertex -6.37072 -8.76855 10.8385
    endloop
  endfacet
  facet normal 0 0 1
    outer loop
      vertex -5.2215 -9.49787 10.8385
      vertex -10.8385 0 10.8385
      vertex -5.80757 -9.15127 10.8385
    endloop
  endfacet
  facet normal 0 0 1
    outer loop
      vertex -4.61482 -9.80699 10.8385
      vertex -10.8385 0 10.8385
      vertex -5.2215 -9.49787 10.8385
    endloop
  endfacet
  facet normal 0 0 1
    outer loop
      vertex -3.98993 -10.0774 10.8385
      vertex -10.8385 0 10.8385
      vertex -4.61482 -9.80699 10.8385
    endloop
  endfacet
  facet normal 0 0 1
    outer loop
      vertex -3.34929 -10.308 10.8385
      vertex -10.8385 0 10.8385
      vertex -3.98993 -10.0774 10.8385
    endloop
  endfacet
  facet normal 0 0 1
    outer loop
      vertex -2.69543 -10.498 10.8385
      vertex -10.8385 0 10.8385
      vertex -3.34929 -10.308 10.8385
    endloop
  endfacet
  facet normal 0 0 1
    outer loop
      vertex -2.03094 -10.6465 10.8385
      vertex -10.8385 0 10.8385
      vertex -2.69543 -10.498 10.8385
    endloop
  endfacet
  facet normal 0 0 1
    outer loop
      vertex -1.35843 -10.7531 10.8385
      vertex -10.8385 0 10.8385
      vertex -2.03094 -10.6465 10.8385
    endloop
  endfacet
  facet normal 0 0 1
    outer loop
      vertex -0.680556 -10.8171 10.8385
      vertex -10.8385 0 10.8385
      vertex -1.35843 -10.7531 10.8385
    endloop
  endfacet
  facet normal 0 0 1
    outer loop
      vertex 0 -10.8385 10.8385
      vertex -10.8385 0 10.8385
      vertex -0.680556 -10.8171 10.8385
    endloop
  endfacet
  facet normal 0 0 1
    outer loop
      vertex 0.680556 -10.8171 10.8385
      vertex -10.8385 0 10.8385
      vertex 0 -10.8385 10.8385
    endloop
  endfacet
  facet normal 0 0 1
    outer loop
      vertex 1.35843 -10.7531 10.8385
      vertex -10.8385 0 10.8385
      vertex 0.680556 -10.8171 10.8385
    endloop
  endfacet
  facet normal 0 0 1
    outer loop
      vertex 2.03094 -10.6465 10.8385
      vertex -10.8385 0 10.8385
      vertex 1.35843 -10.7531 10.8385
    endloop
  endfacet
  facet normal 0 0 1
    outer loop
      vertex 2.69543 -10.498 10.8385
      vertex -10.8385 0 10.8385
      vertex 2.03094 -10.6465 10.8385
    endloop
  endfacet
  facet normal 0 0 1
    outer loop
      vertex 3.34929 -10.308 10.8385
      vertex -10.8385 0 10.8385
      vertex 2.69543 -10.498 10.8385
    endloop
  endfacet
  facet normal 0 0 1
    outer loop
      vertex 3.98993 -10.0774 10.8385
      vertex -10.8385 0 10.8385
      vertex 3.34929 -10.308 10.8385
    endloop
  endfacet
  facet normal 0 0 1
    outer loop
      vertex 4.61482 -9.80699 10.8385
      vertex -10.8385 0 10.8385
      vertex 3.98993 -10.0774 10.8385
    endloop
  endfacet
  facet normal 0 0 1
    outer loop
      vertex 5.2215 -9.49787 10.8385
      vertex -10.8385 0 10.8385
      vertex 4.61482 -9.80699 10.8385
    endloop
  endfacet
  facet normal 0 0 1
    outer loop
      vertex 5.80757 -9.15127 10.8385
      vertex -10.8385 0 10.8385
      vertex 5.2215 -9.49787 10.8385
    endloop
  endfacet
  facet normal 0 0 1
    outer loop
      vertex 6.37072 -8.76855 10.8385
      vertex -10.8385 0 10.8385
      vertex 5.80757 -9.15127 10.8385
    endloop
  endfacet
  facet normal 0 0 1
    outer loop
      vertex 6.90873 -8.35122 10.8385
      vertex -10.8385 0 10.8385
      vertex 6.37072 -8.76855 10.8385
    endloop
  endfacet
  facet normal 0 0 1
    outer loop
      vertex 7.41948 -7.90094 10.8385
      vertex -10.8385 0 10.8385
      vertex 6.90873 -8.35122 10.8385
    endloop
  endfacet
  facet normal 0 0 1
    outer loop
      vertex 7.90094 -7.41948 10.8385
      vertex -10.8385 0 10.8385
      vertex 7.41948 -7.90094 10.8385
    endloop
  endfacet
  facet normal 0 0 1
    outer loop
      vertex 8.35122 -6.90873 10.8385
      vertex -10.8385 0 10.8385
      vertex 7.90094 -7.41948 10.8385
    endloop
  endfacet
  facet normal 0 0 1
    outer loop
      vertex 8.76855 -6.37072 10.8385
      vertex -10.8385 0 10.8385
      vertex 8.35122 -6.90873 10.8385
    endloop
  endfacet
  facet normal 0 0 1
    outer loop
      vertex 9.15127 -5.80757 10.8385
      vertex -10.8385 0 10.8385
      vertex 8.76855 -6.37072 10.8385
    endloop
  endfacet
  facet normal 0 0 1
    outer loop
      vertex 9.49787 -5.2215 10.8385
      vertex -10.8385 0 10.8385
      vertex 9.15127 -5.80757 10.8385
    endloop
  endfacet
  facet normal 0 0 1
    outer loop
      vertex 9.80699 -4.61482 10.8385
      vertex -10.8385 0 10.8385
      vertex 9.49787 -5.2215 10.8385
    endloop
  endfacet
  facet normal 0 0 1
    outer loop
      vertex 10.0774 -3.98993 10.8385
      vertex -10.8385 0 10.8385
      vertex 9.80699 -4.61482 10.8385
    endloop
  endfacet
  facet normal 0 0 1
    outer loop
      vertex 10.308 -3.34929 10.8385
      vertex -10.8385 0 10.8385
      vertex 10.0774 -3.98993 10.8385
    endloop
  endfacet
  facet normal 0 0 1
    outer loop
      vertex 10.498 -2.69543 10.8385
      vertex -10.8385 0 10.8385
      vertex 10.308 -3.34929 10.8385
    endloop
  endfacet
  facet normal 0 0 1
    outer loop
      vertex 10.6465 -2.03094 10.8385
      vertex -10.8385 0 10.8385
      vertex 10.498 -2.69543 10.8385
    endloop
  endfacet
  facet normal 0 0 1
    outer loop
      vertex 10.7531 -1.35843 10.8385
      vertex -10.8385 0 10.8385
      vertex 10.6465 -2.03094 10.8385
    endloop
  endfacet
  facet normal 0 0 1
    outer loop
      vertex 10.8171 -0.680556 10.8385
      vertex -10.8385 0 10.8385
      vertex 10.7531 -1.35843 10.8385
    endloop
  endfacet
  facet normal 0 0 1
    outer loop
      vertex 10.8385 0 10.8385
      vertex -10.8385 0 10.8385
      vertex 10.8171 -0.680556 10.8385
    endloop
  endfacet
  facet normal 0 0 1
    outer loop
      vertex 10.8171 0.680556 10.8385
      vertex -10.8385 0 10.8385
      vertex 10.8385 0 10.8385
    endloop
  endfacet
  facet normal 0 0 1
    outer loop
      vertex 10.7531 1.35843 10.8385
      vertex -10.8385 0 10.8385
      vertex 10.8171 0.680556 10.8385
    endloop
  endfacet
  facet normal 0 0 1
    outer loop
      vertex 10.6465 2.03094 10.8385
      vertex -10.8385 0 10.8385
      vertex 10.7531 1.35843 10.8385
    endloop
  endfacet
  facet normal 0 0 1
    outer loop
      vertex 10.498 2.69543 10.8385
      vertex -10.8385 0 10.8385
      vertex 10.6465 2.03094 10.8385
    endloop
  endfacet
  facet normal 0 0 1
    outer loop
      vertex 10.308 3.34929 10.8385
      vertex -10.8385 0 10.8385
      vertex 10.498 2.69543 10.8385
    endloop
  endfacet
  facet normal 0 0 1
    outer loop
      vertex 10.0774 3.98993 10.8385
      vertex -10.8385 0 10.8385
      vertex 10.308 3.34929 10.8385
    endloop
  endfacet
  facet normal 0 0 1
    outer loop
      vertex 9.80699 4.61482 10.8385
      vertex -10.8385 0 10.8385
      vertex 10.0774 3.98993 10.8385
    endloop
  endfacet
  facet normal 0 0 1
    outer loop
      vertex 9.49787 5.2215 10.8385
      vertex -10.8385 0 10.8385
      vertex 9.80699 4.61482 10.8385
    endloop
  endfacet
  facet normal 0 0 1
    outer loop
      vertex 9.15127 5.80757 10.8385
      vertex -10.8385 0 10.8385
      vertex 9.49787 5.2215 10.8385
    endloop
  endfacet
  facet normal 0 0 1
    outer loop
      vertex 8.76855 6.37072 10.8385
      vertex -10.8385 0 10.8385
      vertex 9.15127 5.80757 10.8385
    endloop
  endfacet
  facet normal 0 0 1
    outer loop
      vertex 8.35122 6.90873 10.8385
      vertex -10.8385 0 10.8385
      vertex 8.76855 6.37072 10.8385
    endloop
  endfacet
  facet normal 0 0 1
    outer loop
      vertex 7.90094 7.41948 10.8385
      vertex -10.8385 0 10.8385
      vertex 8.35122 6.90873 10.8385
    endloop
  endfacet
  facet normal 0 0 1
    outer loop
      vertex 7.41948 7.90094 10.8385
      vertex -10.8385 0 10.8385
      vertex 7.90094 7.41948 10.8385
    endloop
  endfacet
  facet normal 0 0 1
    outer loop
      vertex 6.90873 8.35122 10.8385
      vertex -10.8385 0 10.8385
      vertex 7.41948 7.90094 10.8385
    endloop
  endfacet
  facet normal 0 0 1
    outer loop
      vertex 6.37072 8.76855 10.8385
      vertex -10.8385 0 10.8385
      vertex 6.90873 8.35122 10.8385
    endloop
  endfacet
  facet normal 0 0 1
    outer loop
      vertex 5.80757 9.15127 10.8385
      vertex -10.8385 0 10.8385
      vertex 6.37072 8.76855 10.8385
    endloop
  endfacet
  facet normal 0 0 1
    outer loop
      vertex 5.2215 9.49787 10.8385
      vertex -10.8385 0 10.8385
      vertex 5.80757 9.15127 10.8385
    endloop
  endfacet
  facet normal 0 0 1
    outer loop
      vertex 4.61482 9.80699 10.8385
      vertex -10.8385 0 10.8385
      vertex 5.2215 9.49787 10.8385
    endloop
  endfacet
  facet normal 0 0 1
    outer loop
      vertex 3.98993 10.0774 10.8385
      vertex -10.8385 0 10.8385
      vertex 4.61482 9.80699 10.8385
    endloop
  endfacet
  facet normal 0 0 1
    outer loop
      vertex 3.34929 10.308 10.8385
      vertex -10.8385 0 10.8385
      vertex 3.98993 10.0774 10.8385
    endloop
  endfacet
  facet normal 0 0 1
    outer loop
      vertex 2.69543 10.498 10.8385
      vertex -10.8385 0 10.8385
      vertex 3.34929 10.308 10.8385
    endloop
  endfacet
  facet normal 0 0 1
    outer loop
      vertex 2.03094 10.6465 10.8385
      vertex -10.8385 0 10.8385
      vertex 2.69543 10.498 10.8385
    endloop
  endfacet
  facet normal 0 0 1
    outer loop
      vertex 1.35843 10.7531 10.8385
      vertex -10.8385 0 10.8385
      vertex 2.03094 10.6465 10.8385
    endloop
  endfacet
  facet normal 0 0 1
    outer loop
      vertex 0.680556 10.8171 10.8385
      vertex -10.8385 0 10.8385
      vertex 1.35843 10.7531 10.8385
    endloop
  endfacet
  facet normal 0 0 1
    outer loop
      vertex 0 10.8385 10.8385
      vertex -10.8385 0 10.8385
      vertex 0.680556 10.8171 10.8385
    endloop
  endfacet
  facet normal 0 0 1
    outer loop
      vertex -0.680556 10.8171 10.8385
      vertex -10.8385 0 10.8385
      vertex 0 10.8385 10.8385
    endloop
  endfacet
  facet normal 0 0 1
    outer loop
      vertex -1.35843 10.7531 10.8385
      vertex -10.8385 0 10.8385
      vertex -0.680556 10.8171 10.8385
    endloop
  endfacet
  facet normal 0 0 1
    outer loop
      vertex -2.03094 10.6465 10.8385
      vertex -10.8385 0 10.8385
      vertex -1.35843 10.7531 10.8385
    endloop
  endfacet
  facet normal 0 0 1
    outer loop
      vertex -2.69543 10.498 10.8385
      vertex -10.8385 0 10.8385
      vertex -2.03094 10.6465 10.8385
    endloop
  endfacet
  facet normal 0 0 1
    outer loop
      vertex -3.34929 10.308 10.8385
      vertex -10.8385 0 10.8385
      vertex -2.69543 10.498 10.8385
    endloop
  endfacet
  facet normal 0 0 1
    outer loop
      vertex -3.98993 10.0774 10.8385
      vertex -10.8385 0 10.8385
      vertex -3.34929 10.308 10.8385
    endloop
  endfacet
  facet normal 0 0 1
    outer loop
      vertex -4.61482 9.80699 10.8385
      vertex -10.8385 0 10.8385
      vertex -3.98993 10.0774 10.8385
    endloop
  endfacet
  facet normal 0 0 1
    outer loop
      vertex -5.2215 9.49787 10.8385
      vertex -10.8385 0 10.8385
      vertex -4.61482 9.80699 10.8385
    endloop
  endfacet
  facet normal 0 0 1
    outer loop
      vertex -5.80757 9.15127 10.8385
      vertex -10.8385 0 10.8385
      vertex -5.2215 9.49787 10.8385
    endloop
  endfacet
  facet normal 0 0 1
    outer loop
      vertex -6.37072 8.76855 10.8385
      vertex -10.8385 0 10.8385
      vertex -5.80757 9.15127 10.8385
    endloop
  endfacet
  facet normal 0 0 1
    outer loop
      vertex -6.90873 8.35122 10.8385
      vertex -10.8385 0 10.8385
      vertex -6.37072 8.76855 10.8385
    endloop
  endfacet
  facet normal 0 0 1
    outer loop
      vertex -7.41948 7.90094 10.8385
      vertex -10.8385 0 10.8385
      vertex -6.90873 8.35122 10.8385
    endloop
  endfacet
  facet normal 0 0 1
    outer loop
      vertex -7.90094 7.41948 10.8385
      vertex -10.8385 0 10.8385
      vertex -7.41948 7.90094 10.8385
    endloop
  endfacet
  facet normal 0 0 1
    outer loop
      vertex -8.35122 6.90873 10.8385
      vertex -10.8385 0 10.8385
      vertex -7.90094 7.41948 10.8385
    endloop
  endfacet
  facet normal 0 0 1
    outer loop
      vertex -8.76855 6.37072 10.8385
      vertex -10.8385 0 10.8385
      vertex -8.35122 6.90873 10.8385
    endloop
  endfacet
  facet normal 0 0 1
    outer loop
      vertex -9.15127 5.80757 10.8385
      vertex -10.8385 0 10.8385
      vertex -8.76855 6.37072 10.8385
    endloop
  endfacet
  facet normal 0 0 1
    outer loop
      vertex -9.49787 5.2215 10.8385
      vertex -10.8385 0 10.8385
      vertex -9.15127 5.80757 10.8385
    endloop
  endfacet
  facet normal 0 0 1
    outer loop
      vertex -9.80699 4.61482 10.8385
      vertex -10.8385 0 10.8385
      vertex -9.49787 5.2215 10.8385
    endloop
  endfacet
  facet normal 0 0 1
    outer loop
      vertex -10.0774 3.98993 10.8385
      vertex -10.8385 0 10.8385
      vertex -9.80699 4.61482 10.8385
    endloop
  endfacet
  facet normal 0 0 1
    outer loop
      vertex -10.308 3.34929 10.8385
      vertex -10.8385 0 10.8385
      vertex -10.0774 3.98993 10.8385
    endloop
  endfacet
  facet normal 0 0 1
    outer loop
      vertex -10.498 2.69543 10.8385
      vertex -10.8385 0 10.8385
      vertex -10.308 3.34929 10.8385
    endloop
  endfacet
  facet normal 0 0 1
    outer loop
      vertex -10.6465 2.03094 10.8385
      vertex -10.8385 0 10.8385
      vertex -10.498 2.69543 10.8385
    endloop
  endfacet
  facet normal 0 0 1
    outer loop
      vertex -10.7531 1.35843 10.8385
      vertex -10.8385 0 10.8385
      vertex -10.6465 2.03094 10.8385
    endloop
  endfacet
  facet normal 0 0 1
    outer loop
      vertex -10.8171 0.680556 10.8385
      vertex -10.8385 0 10.8385
      vertex -10.7531 1.35843 10.8385
    endloop
  endfacet
endsolid OpenSCAD_Model
