solid OpenSCAD_Model
  facet normal -0.866044 -0.499967 0
    outer loop
      vertex -5.774 -10 0
      vertex -5.774 -10 23.094
      vertex -11.547 0 0
    endloop
  endfacet
  facet normal -0.866044 -0.499967 0
    outer loop
      vertex -11.547 0 0
      vertex -5.774 -10 23.094
      vertex -11.547 0 23.094
    endloop
  endfacet
  facet normal 0 0 -1
    outer loop
      vertex -5.774 10 0
      vertex 5.774 10 0
      vertex -11.547 0 0
    endloop
  endfacet
  facet normal 0 0 -1
    outer loop
      vertex -11.547 0 0
      vertex 5.774 10 0
      vertex 11.547 0 0
    endloop
  endfacet
  facet normal 0 0 -1
    outer loop
      vertex -11.547 0 0
      vertex 11.547 0 0
      vertex 5.774 -10 0
    endloop
  endfacet
  facet normal 0 0 -1
    outer loop
      vertex -11.547 0 0
      vertex 5.774 -10 0
      vertex -5.774 -10 0
    endloop
  endfacet
  facet normal -0.866044 0.499967 0
    outer loop
      vertex -11.547 0 23.094
      vertex -5.774 10 23.094
      vertex -11.547 0 0
    endloop
  endfacet
  facet normal -0.866044 0.499967 0
    outer loop
      vertex -11.547 0 0
      vertex -5.774 10 23.094
      vertex -5.774 10 0
    endloop
  endfacet
  facet normal 0 0 1
    outer loop
      vertex -11.547 0 23.094
      vertex -5.774 -10 23.094
      vertex 5.774 -10 23.094
    endloop
  endfacet
  facet normal 0 0 1
    outer loop
      vertex 5.774 10 23.094
      vertex -11.547 0 23.094
      vertex 11.547 0 23.094
    endloop
  endfacet
  facet normal 0 0 1
    outer loop
      vertex 11.547 0 23.094
      vertex -11.547 0 23.094
      vertex 5.774 -10 23.094
    endloop
  endfacet
  facet normal 0 0 1
    outer loop
      vertex -5.774 10 23.094
      vertex -11.547 0 23.094
      vertex 5.774 10 23.094
    endloop
  endfacet
  facet normal 0 -1 0
    outer loop
      vertex -5.774 -10 0
      vertex 5.774 -10 0
      vertex 5.774 -10 23.094
    endloop
  endfacet
  facet normal 0 -1 0
    outer loop
      vertex -5.774 -10 23.094
      vertex -5.774 -10 0
      vertex 5.774 -10 23.094
    endloop
  endfacet
  facet normal 0.866044 -0.499967 0
    outer loop
      vertex 5.774 -10 0
      vertex 11.547 0 0
      vertex 11.547 0 23.094
    endloop
  endfacet
  facet normal 0.866044 -0.499967 0
    outer loop
      vertex 5.774 -10 23.094
      vertex 5.774 -10 0
      vertex 11.547 0 23.094
    endloop
  endfacet
  facet normal 0.866044 0.499967 0
    outer loop
      vertex 5.774 10 0
      vertex 5.774 10 23.094
      vertex 11.547 0 23.094
    endloop
  endfacet
  facet normal 0.866044 0.499967 0
    outer loop
      vertex 11.547 0 0
      vertex 5.774 10 0
      vertex 11.547 0 23.094
    endloop
  endfacet
  facet normal 0 1 0
    outer loop
      vertex -5.774 10 23.094
      vertex 5.774 10 23.094
      vertex -5.774 10 0
    endloop
  endfacet
  facet normal 0 1 0
    outer loop
      vertex -5.774 10 0
      vertex 5.774 10 23.094
      vertex 5.774 10 0
    endloop
  endfacet
endsolid OpenSCAD_Model
