solid OpenSCAD_Model
  facet normal -1 0 0
    outer loop
      vertex -7.937 -15.874 7.937
      vertex -7.937 15.874 7.937
      vertex -7.937 -15.874 -7.937
    endloop
  endfacet
  facet normal -1 0 0
    outer loop
      vertex -7.937 -15.874 -7.937
      vertex -7.937 15.874 7.937
      vertex -7.937 15.874 -7.937
    endloop
  endfacet
  facet normal 0 0 1
    outer loop
      vertex -7.937 -15.874 7.937
      vertex 7.937 -15.874 7.937
      vertex 7.937 15.874 7.937
    endloop
  endfacet
  facet normal 0 0 1
    outer loop
      vertex -7.937 15.874 7.937
      vertex -7.937 -15.874 7.937
      vertex 7.937 15.874 7.937
    endloop
  endfacet
  facet normal 0 -1 0
    outer loop
      vertex -7.937 -15.874 -7.937
      vertex 7.937 -15.874 -7.937
      vertex 7.937 -15.874 7.937
    endloop
  endfacet
  facet normal 0 -1 0
    outer loop
      vertex -7.937 -15.874 7.937
      vertex -7.937 -15.874 -7.937
      vertex 7.937 -15.874 7.937
    endloop
  endfacet
  facet normal 0 0 -1
    outer loop
      vertex -7.937 15.874 -7.937
      vertex 7.937 15.874 -7.937
      vertex -7.937 -15.874 -7.937
    endloop
  endfacet
  facet normal 0 0 -1
    outer loop
      vertex -7.937 -15.874 -7.937
      vertex 7.937 15.874 -7.937
      vertex 7.937 -15.874 -7.937
    endloop
  endfacet
  facet normal 0 1 0
    outer loop
      vertex -7.937 15.874 7.937
      vertex 7.937 15.874 7.937
      vertex -7.937 15.874 -7.937
    endloop
  endfacet
  facet normal 0 1 0
    outer loop
      vertex -7.937 15.874 -7.937
      vertex 7.937 15.874 7.937
      vertex 7.937 15.874 -7.937
    endloop
  endfacet
  facet normal 1 0 0
    outer loop
      vertex 7.937 -15.874 -7.937
      vertex 7.937 15.874 -7.937
      vertex 7.937 15.874 7.937
    endloop
  endfacet
  facet normal 1 0 0
    outer loop
      vertex 7.937 -15.874 7.937
      vertex 7.937 -15.874 -7.937
      vertex 7.937 15.874 7.937
    endloop
  endfacet
endsolid OpenSCAD_Model
