solid Default
  facet normal 4.499279e-32 2.449293e-16 -1.000000e+00
    outer loop
      vertex -9.826542e+01 -1.593845e+01 0.000000e+00
      vertex -9.942500e+01 -1.598754e+01 0.000000e+00
      vertex -1.052450e+02 -1.593845e+01 0.000000e+00
    endloop
  endfacet
  facet normal 4.499279e-32 2.449293e-16 -1.000000e+00
    outer loop
      vertex -9.360999e+01 -1.574136e+01 0.000000e+00
      vertex 1.052450e+02 -1.593845e+01 0.000000e+00
      vertex -9.826542e+01 -1.593845e+01 0.000000e+00
    endloop
  endfacet
  facet normal 4.499279e-32 2.449293e-16 -1.000000e+00
    outer loop
      vertex 1.052450e+02 -1.593845e+01 0.000000e+00
      vertex -9.360999e+01 -1.574136e+01 0.000000e+00
      vertex -8.781496e+01 -1.520056e+01 0.000000e+00
    endloop
  endfacet
  facet normal 4.499279e-32 2.449293e-16 -1.000000e+00
    outer loop
      vertex 1.052450e+02 -1.593845e+01 0.000000e+00
      vertex -8.781496e+01 -1.520056e+01 0.000000e+00
      vertex -8.205482e+01 -1.436652e+01 0.000000e+00
    endloop
  endfacet
  facet normal 4.499279e-32 2.449293e-16 -1.000000e+00
    outer loop
      vertex 1.052450e+02 -1.593845e+01 0.000000e+00
      vertex -8.205482e+01 -1.436652e+01 0.000000e+00
      vertex -7.634440e+01 -1.324140e+01 0.000000e+00
    endloop
  endfacet
  facet normal 4.499279e-32 2.449293e-16 -1.000000e+00
    outer loop
      vertex 1.052450e+02 -1.593845e+01 0.000000e+00
      vertex -7.634440e+01 -1.324140e+01 0.000000e+00
      vertex -7.069839e+01 -1.182808e+01 0.000000e+00
    endloop
  endfacet
  facet normal 4.499279e-32 2.449293e-16 -1.000000e+00
    outer loop
      vertex 1.052450e+02 -1.593845e+01 0.000000e+00
      vertex -7.069839e+01 -1.182808e+01 0.000000e+00
      vertex -6.513134e+01 -1.013020e+01 0.000000e+00
    endloop
  endfacet
  facet normal 4.499279e-32 2.449293e-16 -1.000000e+00
    outer loop
      vertex 1.052450e+02 -1.593845e+01 0.000000e+00
      vertex -6.513134e+01 -1.013020e+01 0.000000e+00
      vertex -5.965757e+01 -8.152144e+00 0.000000e+00
    endloop
  endfacet
  facet normal 4.499279e-32 2.449293e-16 -1.000000e+00
    outer loop
      vertex 1.052450e+02 -1.593845e+01 0.000000e+00
      vertex -5.965757e+01 -8.152144e+00 0.000000e+00
      vertex -5.429118e+01 -5.898995e+00 0.000000e+00
    endloop
  endfacet
  facet normal 4.499279e-32 2.449293e-16 -1.000000e+00
    outer loop
      vertex 1.052450e+02 -1.593845e+01 0.000000e+00
      vertex -5.429118e+01 -5.898995e+00 0.000000e+00
      vertex 1.003862e+02 -1.560774e+01 0.000000e+00
    endloop
  endfacet
  facet normal 4.499279e-32 2.449293e-16 -1.000000e+00
    outer loop
      vertex 1.003862e+02 -1.560774e+01 0.000000e+00
      vertex -5.429118e+01 -5.898995e+00 0.000000e+00
      vertex -4.904598e+01 -3.376555e+00 0.000000e+00
    endloop
  endfacet
  facet normal 4.499279e-32 2.449293e-16 -1.000000e+00
    outer loop
      vertex 1.003862e+02 -1.560774e+01 0.000000e+00
      vertex -4.904598e+01 -3.376555e+00 0.000000e+00
      vertex -4.393546e+01 -5.913153e-01 0.000000e+00
    endloop
  endfacet
  facet normal 4.499279e-32 2.449293e-16 -1.000000e+00
    outer loop
      vertex 1.003862e+02 -1.560774e+01 0.000000e+00
      vertex -4.393546e+01 -5.913153e-01 0.000000e+00
      vertex 9.554810e+01 -1.505091e+01 0.000000e+00
    endloop
  endfacet
  facet normal 4.499279e-32 2.449293e-16 -1.000000e+00
    outer loop
      vertex 9.554810e+01 -1.505091e+01 0.000000e+00
      vertex -4.393546e+01 -5.913153e-01 0.000000e+00
      vertex -3.897280e+01 2.449545e+00 0.000000e+00
    endloop
  endfacet
  facet normal 4.499279e-32 2.449293e-16 -1.000000e+00
    outer loop
      vertex 9.554810e+01 -1.505091e+01 0.000000e+00
      vertex -3.897280e+01 2.449545e+00 0.000000e+00
      vertex -3.532125e+01 4.686754e+00 0.000000e+00
    endloop
  endfacet
  facet normal 4.499279e-32 2.449293e-16 -1.000000e+00
    outer loop
      vertex 9.554810e+01 -1.505091e+01 0.000000e+00
      vertex -3.532125e+01 4.686754e+00 0.000000e+00
      vertex 9.074121e+01 -1.426918e+01 0.000000e+00
    endloop
  endfacet
  facet normal 4.499279e-32 2.449293e-16 -1.000000e+00
    outer loop
      vertex 9.074121e+01 -1.426918e+01 0.000000e+00
      vertex -3.532125e+01 4.686754e+00 0.000000e+00
      vertex -3.156070e+01 6.735464e+00 0.000000e+00
    endloop
  endfacet
  facet normal 4.499279e-32 2.449293e-16 -1.000000e+00
    outer loop
      vertex 9.074121e+01 -1.426918e+01 0.000000e+00
      vertex -3.156070e+01 6.735464e+00 0.000000e+00
      vertex -2.770087e+01 8.590364e+00 0.000000e+00
    endloop
  endfacet
  facet normal 4.499279e-32 2.449293e-16 -1.000000e+00
    outer loop
      vertex 9.074121e+01 -1.426918e+01 0.000000e+00
      vertex -2.770087e+01 8.590364e+00 0.000000e+00
      vertex 8.597600e+01 -1.326423e+01 0.000000e+00
    endloop
  endfacet
  facet normal 4.499279e-32 2.449293e-16 -1.000000e+00
    outer loop
      vertex 8.597600e+01 -1.326423e+01 0.000000e+00
      vertex -2.770087e+01 8.590364e+00 0.000000e+00
      vertex -2.375174e+01 1.024667e+01 0.000000e+00
    endloop
  endfacet
  facet normal 4.499279e-32 2.449293e-16 -1.000000e+00
    outer loop
      vertex 8.597600e+01 -1.326423e+01 0.000000e+00
      vertex -2.375174e+01 1.024667e+01 0.000000e+00
      vertex -1.972353e+01 1.170009e+01 0.000000e+00
    endloop
  endfacet
  facet normal 4.499279e-32 2.449293e-16 -1.000000e+00
    outer loop
      vertex 8.597600e+01 -1.326423e+01 0.000000e+00
      vertex -1.972353e+01 1.170009e+01 0.000000e+00
      vertex -1.562664e+01 1.294688e+01 0.000000e+00
    endloop
  endfacet
  facet normal 4.499279e-32 2.449293e-16 -1.000000e+00
    outer loop
      vertex 8.597600e+01 -1.326423e+01 0.000000e+00
      vertex -1.562664e+01 1.294688e+01 0.000000e+00
      vertex 8.126279e+01 -1.203826e+01 0.000000e+00
    endloop
  endfacet
  facet normal 4.499279e-32 2.449293e-16 -1.000000e+00
    outer loop
      vertex 8.126279e+01 -1.203826e+01 0.000000e+00
      vertex -1.562664e+01 1.294688e+01 0.000000e+00
      vertex -1.147167e+01 1.398380e+01 0.000000e+00
    endloop
  endfacet
  facet normal 4.499279e-32 2.449293e-16 -1.000000e+00
    outer loop
      vertex 8.126279e+01 -1.203826e+01 0.000000e+00
      vertex -1.147167e+01 1.398380e+01 0.000000e+00
      vertex -7.269370e+00 1.480818e+01 0.000000e+00
    endloop
  endfacet
  facet normal 4.499279e-32 2.449293e-16 -1.000000e+00
    outer loop
      vertex 8.126279e+01 -1.203826e+01 0.000000e+00
      vertex -7.269370e+00 1.480818e+01 0.000000e+00
      vertex 7.661187e+01 -1.059392e+01 0.000000e+00
    endloop
  endfacet
  facet normal 4.499279e-32 2.449293e-16 -1.000000e+00
    outer loop
      vertex 7.661187e+01 -1.059392e+01 0.000000e+00
      vertex -7.269370e+00 1.480818e+01 0.000000e+00
      vertex -3.030601e+00 1.541789e+01 0.000000e+00
    endloop
  endfacet
  facet normal 4.499279e-32 2.449293e-16 -1.000000e+00
    outer loop
      vertex 7.661187e+01 -1.059392e+01 0.000000e+00
      vertex -3.030601e+00 1.541789e+01 0.000000e+00
      vertex 1.233691e+00 1.581135e+01 0.000000e+00
    endloop
  endfacet
  facet normal 4.499279e-32 2.449293e-16 -1.000000e+00
    outer loop
      vertex 7.661187e+01 -1.059392e+01 0.000000e+00
      vertex 1.233691e+00 1.581135e+01 0.000000e+00
      vertex 7.203330e+01 -8.934365e+00 0.000000e+00
    endloop
  endfacet
  facet normal 4.499279e-32 2.449293e-16 -1.000000e+00
    outer loop
      vertex 7.203330e+01 -8.934365e+00 0.000000e+00
      vertex 1.233691e+00 1.581135e+01 0.000000e+00
      vertex 5.512461e+00 1.598754e+01 0.000000e+00
    endloop
  endfacet
  facet normal 4.499279e-32 2.449293e-16 -1.000000e+00
    outer loop
      vertex 7.203330e+01 -8.934365e+00 0.000000e+00
      vertex 5.512461e+00 1.598754e+01 0.000000e+00
      vertex 9.794658e+00 1.594600e+01 0.000000e+00
    endloop
  endfacet
  facet normal 4.499279e-32 2.449293e-16 -1.000000e+00
    outer loop
      vertex 7.203330e+01 -8.934365e+00 0.000000e+00
      vertex 9.794658e+00 1.594600e+01 0.000000e+00
      vertex 6.753710e+01 -7.063196e+00 0.000000e+00
    endloop
  endfacet
  facet normal 4.499279e-32 2.449293e-16 -1.000000e+00
    outer loop
      vertex 6.753710e+01 -7.063196e+00 0.000000e+00
      vertex 9.794658e+00 1.594600e+01 0.000000e+00
      vertex 1.341588e+01 1.573269e+01 0.000000e+00
    endloop
  endfacet
  facet normal 4.499279e-32 2.449293e-16 -1.000000e+00
    outer loop
      vertex 6.753710e+01 -7.063196e+00 0.000000e+00
      vertex 1.341588e+01 1.573269e+01 0.000000e+00
      vertex 1.702291e+01 1.534797e+01 0.000000e+00
    endloop
  endfacet
  facet normal 4.499279e-32 2.449293e-16 -1.000000e+00
    outer loop
      vertex 6.753710e+01 -7.063196e+00 0.000000e+00
      vertex 1.702291e+01 1.534797e+01 0.000000e+00
      vertex 2.060765e+01 1.479268e+01 0.000000e+00
    endloop
  endfacet
  facet normal 4.499279e-32 2.449293e-16 -1.000000e+00
    outer loop
      vertex 6.753710e+01 -7.063196e+00 0.000000e+00
      vertex 2.060765e+01 1.479268e+01 0.000000e+00
      vertex 6.313298e+01 -4.984486e+00 0.000000e+00
    endloop
  endfacet
  facet normal 4.499279e-32 2.449293e-16 -1.000000e+00
    outer loop
      vertex 6.313298e+01 -4.984486e+00 0.000000e+00
      vertex 2.060765e+01 1.479268e+01 0.000000e+00
      vertex 2.416203e+01 1.406808e+01 0.000000e+00
    endloop
  endfacet
  facet normal 4.499279e-32 2.449293e-16 -1.000000e+00
    outer loop
      vertex 6.313298e+01 -4.984486e+00 0.000000e+00
      vertex 2.416203e+01 1.406808e+01 0.000000e+00
      vertex 2.767808e+01 1.317580e+01 0.000000e+00
    endloop
  endfacet
  facet normal 4.499279e-32 2.449293e-16 -1.000000e+00
    outer loop
      vertex 6.313298e+01 -4.984486e+00 0.000000e+00
      vertex 2.767808e+01 1.317580e+01 0.000000e+00
      vertex 5.883054e+01 -2.702745e+00 0.000000e+00
    endloop
  endfacet
  facet normal 4.499279e-32 2.449293e-16 -1.000000e+00
    outer loop
      vertex 5.883054e+01 -2.702745e+00 0.000000e+00
      vertex 2.767808e+01 1.317580e+01 0.000000e+00
      vertex 3.114786e+01 1.211786e+01 0.000000e+00
    endloop
  endfacet
  facet normal 4.499279e-32 2.449293e-16 -1.000000e+00
    outer loop
      vertex 5.883054e+01 -2.702745e+00 0.000000e+00
      vertex 3.114786e+01 1.211786e+01 0.000000e+00
      vertex 3.456360e+01 1.089660e+01 0.000000e+00
    endloop
  endfacet
  facet normal 4.499279e-32 2.449293e-16 -1.000000e+00
    outer loop
      vertex 5.883054e+01 -2.702745e+00 0.000000e+00
      vertex 3.456360e+01 1.089660e+01 0.000000e+00
      vertex 3.791761e+01 9.514814e+00 0.000000e+00
    endloop
  endfacet
  facet normal 4.499279e-32 2.449293e-16 -1.000000e+00
    outer loop
      vertex 5.883054e+01 -2.702745e+00 0.000000e+00
      vertex 3.791761e+01 9.514814e+00 0.000000e+00
      vertex 5.463915e+01 -2.229357e-01 0.000000e+00
    endloop
  endfacet
  facet normal 4.499279e-32 2.449293e-16 -1.000000e+00
    outer loop
      vertex 5.463915e+01 -2.229357e-01 0.000000e+00
      vertex 3.791761e+01 9.514814e+00 0.000000e+00
      vertex 4.120233e+01 7.975574e+00 0.000000e+00
    endloop
  endfacet
  facet normal 4.499279e-32 2.449293e-16 -1.000000e+00
    outer loop
      vertex 5.463915e+01 -2.229357e-01 0.000000e+00
      vertex 4.120233e+01 7.975574e+00 0.000000e+00
      vertex 4.441040e+01 6.282364e+00 0.000000e+00
    endloop
  endfacet
  facet normal 4.499279e-32 2.449293e-16 -1.000000e+00
    outer loop
      vertex 5.463915e+01 -2.229357e-01 0.000000e+00
      vertex 4.441040e+01 6.282364e+00 0.000000e+00
      vertex 4.753460e+01 4.438974e+00 0.000000e+00
    endloop
  endfacet
  facet normal 4.499279e-32 2.449293e-16 -1.000000e+00
    outer loop
      vertex 5.463915e+01 -2.229357e-01 0.000000e+00
      vertex 4.753460e+01 4.438974e+00 0.000000e+00
      vertex 5.056789e+01 2.449545e+00 0.000000e+00
    endloop
  endfacet
  facet normal -4.499279e-32 -2.449293e-16 1.000000e+00
    outer loop
      vertex 1.052450e+02 -1.593845e+01 8.832360e+01
      vertex -9.360999e+01 -1.574136e+01 8.832360e+01
      vertex -9.826542e+01 -1.593845e+01 8.832360e+01
    endloop
  endfacet
  facet normal -4.499279e-32 -2.449293e-16 1.000000e+00
    outer loop
      vertex -9.360999e+01 -1.574136e+01 8.832360e+01
      vertex 1.052450e+02 -1.593845e+01 8.832360e+01
      vertex -8.781496e+01 -1.520056e+01 8.832360e+01
    endloop
  endfacet
  facet normal -4.499279e-32 -2.449293e-16 1.000000e+00
    outer loop
      vertex -8.781496e+01 -1.520056e+01 8.832360e+01
      vertex 1.052450e+02 -1.593845e+01 8.832360e+01
      vertex -8.205482e+01 -1.436652e+01 8.832360e+01
    endloop
  endfacet
  facet normal -4.499279e-32 -2.449293e-16 1.000000e+00
    outer loop
      vertex -8.205482e+01 -1.436652e+01 8.832360e+01
      vertex 1.052450e+02 -1.593845e+01 8.832360e+01
      vertex -7.634440e+01 -1.324140e+01 8.832360e+01
    endloop
  endfacet
  facet normal -4.499279e-32 -2.449293e-16 1.000000e+00
    outer loop
      vertex -7.634440e+01 -1.324140e+01 8.832360e+01
      vertex 1.052450e+02 -1.593845e+01 8.832360e+01
      vertex -7.069839e+01 -1.182808e+01 8.832360e+01
    endloop
  endfacet
  facet normal -4.499279e-32 -2.449293e-16 1.000000e+00
    outer loop
      vertex -7.069839e+01 -1.182808e+01 8.832360e+01
      vertex 1.052450e+02 -1.593845e+01 8.832360e+01
      vertex -6.513134e+01 -1.013020e+01 8.832360e+01
    endloop
  endfacet
  facet normal -4.499279e-32 -2.449293e-16 1.000000e+00
    outer loop
      vertex -6.513134e+01 -1.013020e+01 8.832360e+01
      vertex 1.052450e+02 -1.593845e+01 8.832360e+01
      vertex -5.965757e+01 -8.152144e+00 8.832360e+01
    endloop
  endfacet
  facet normal -4.499279e-32 -2.449293e-16 1.000000e+00
    outer loop
      vertex -5.965757e+01 -8.152144e+00 8.832360e+01
      vertex 1.052450e+02 -1.593845e+01 8.832360e+01
      vertex -5.429118e+01 -5.898995e+00 8.832360e+01
    endloop
  endfacet
  facet normal -4.499279e-32 -2.449293e-16 1.000000e+00
    outer loop
      vertex -5.429118e+01 -5.898995e+00 8.832360e+01
      vertex 1.052450e+02 -1.593845e+01 8.832360e+01
      vertex 1.003862e+02 -1.560774e+01 8.832360e+01
    endloop
  endfacet
  facet normal -4.499279e-32 -2.449293e-16 1.000000e+00
    outer loop
      vertex -5.429118e+01 -5.898995e+00 8.832360e+01
      vertex 1.003862e+02 -1.560774e+01 8.832360e+01
      vertex -4.904598e+01 -3.376555e+00 8.832360e+01
    endloop
  endfacet
  facet normal -4.499279e-32 -2.449293e-16 1.000000e+00
    outer loop
      vertex -4.904598e+01 -3.376555e+00 8.832360e+01
      vertex 1.003862e+02 -1.560774e+01 8.832360e+01
      vertex -4.393546e+01 -5.913153e-01 8.832360e+01
    endloop
  endfacet
  facet normal -4.499279e-32 -2.449293e-16 1.000000e+00
    outer loop
      vertex -4.393546e+01 -5.913153e-01 8.832360e+01
      vertex 1.003862e+02 -1.560774e+01 8.832360e+01
      vertex 9.554810e+01 -1.505091e+01 8.832360e+01
    endloop
  endfacet
  facet normal -4.499279e-32 -2.449293e-16 1.000000e+00
    outer loop
      vertex -4.393546e+01 -5.913153e-01 8.832360e+01
      vertex 9.554810e+01 -1.505091e+01 8.832360e+01
      vertex -3.897280e+01 2.449545e+00 8.832360e+01
    endloop
  endfacet
  facet normal -4.499279e-32 -2.449293e-16 1.000000e+00
    outer loop
      vertex -3.897280e+01 2.449545e+00 8.832360e+01
      vertex 9.554810e+01 -1.505091e+01 8.832360e+01
      vertex -3.532125e+01 4.686754e+00 8.832360e+01
    endloop
  endfacet
  facet normal -4.499279e-32 -2.449293e-16 1.000000e+00
    outer loop
      vertex -3.532125e+01 4.686754e+00 8.832360e+01
      vertex 9.554810e+01 -1.505091e+01 8.832360e+01
      vertex 9.074121e+01 -1.426918e+01 8.832360e+01
    endloop
  endfacet
  facet normal -4.499279e-32 -2.449293e-16 1.000000e+00
    outer loop
      vertex -3.532125e+01 4.686754e+00 8.832360e+01
      vertex 9.074121e+01 -1.426918e+01 8.832360e+01
      vertex -3.156070e+01 6.735464e+00 8.832360e+01
    endloop
  endfacet
  facet normal -4.499279e-32 -2.449293e-16 1.000000e+00
    outer loop
      vertex -3.156070e+01 6.735464e+00 8.832360e+01
      vertex 9.074121e+01 -1.426918e+01 8.832360e+01
      vertex -2.770087e+01 8.590364e+00 8.832360e+01
    endloop
  endfacet
  facet normal -4.499279e-32 -2.449293e-16 1.000000e+00
    outer loop
      vertex -2.770087e+01 8.590364e+00 8.832360e+01
      vertex 9.074121e+01 -1.426918e+01 8.832360e+01
      vertex 8.597600e+01 -1.326423e+01 8.832360e+01
    endloop
  endfacet
  facet normal -4.499279e-32 -2.449293e-16 1.000000e+00
    outer loop
      vertex -2.770087e+01 8.590364e+00 8.832360e+01
      vertex 8.597600e+01 -1.326423e+01 8.832360e+01
      vertex -2.375174e+01 1.024667e+01 8.832360e+01
    endloop
  endfacet
  facet normal -4.499279e-32 -2.449293e-16 1.000000e+00
    outer loop
      vertex -2.375174e+01 1.024667e+01 8.832360e+01
      vertex 8.597600e+01 -1.326423e+01 8.832360e+01
      vertex -1.972353e+01 1.170009e+01 8.832360e+01
    endloop
  endfacet
  facet normal -4.499279e-32 -2.449293e-16 1.000000e+00
    outer loop
      vertex -1.972353e+01 1.170009e+01 8.832360e+01
      vertex 8.597600e+01 -1.326423e+01 8.832360e+01
      vertex -1.562664e+01 1.294688e+01 8.832360e+01
    endloop
  endfacet
  facet normal -4.499279e-32 -2.449293e-16 1.000000e+00
    outer loop
      vertex -1.562664e+01 1.294688e+01 8.832360e+01
      vertex 8.597600e+01 -1.326423e+01 8.832360e+01
      vertex 8.126279e+01 -1.203826e+01 8.832360e+01
    endloop
  endfacet
  facet normal -4.499279e-32 -2.449293e-16 1.000000e+00
    outer loop
      vertex -1.562664e+01 1.294688e+01 8.832360e+01
      vertex 8.126279e+01 -1.203826e+01 8.832360e+01
      vertex -1.147167e+01 1.398380e+01 8.832360e+01
    endloop
  endfacet
  facet normal -4.499279e-32 -2.449293e-16 1.000000e+00
    outer loop
      vertex -1.147167e+01 1.398380e+01 8.832360e+01
      vertex 8.126279e+01 -1.203826e+01 8.832360e+01
      vertex -7.269370e+00 1.480818e+01 8.832360e+01
    endloop
  endfacet
  facet normal -4.499279e-32 -2.449293e-16 1.000000e+00
    outer loop
      vertex -7.269370e+00 1.480818e+01 8.832360e+01
      vertex 8.126279e+01 -1.203826e+01 8.832360e+01
      vertex 7.661187e+01 -1.059392e+01 8.832360e+01
    endloop
  endfacet
  facet normal -4.499279e-32 -2.449293e-16 1.000000e+00
    outer loop
      vertex -7.269370e+00 1.480818e+01 8.832360e+01
      vertex 7.661187e+01 -1.059392e+01 8.832360e+01
      vertex -3.030601e+00 1.541789e+01 8.832360e+01
    endloop
  endfacet
  facet normal -4.499279e-32 -2.449293e-16 1.000000e+00
    outer loop
      vertex -3.030601e+00 1.541789e+01 8.832360e+01
      vertex 7.661187e+01 -1.059392e+01 8.832360e+01
      vertex 1.233691e+00 1.581135e+01 8.832360e+01
    endloop
  endfacet
  facet normal -4.499279e-32 -2.449293e-16 1.000000e+00
    outer loop
      vertex 1.233691e+00 1.581135e+01 8.832360e+01
      vertex 7.661187e+01 -1.059392e+01 8.832360e+01
      vertex 7.203330e+01 -8.934365e+00 8.832360e+01
    endloop
  endfacet
  facet normal -4.499279e-32 -2.449293e-16 1.000000e+00
    outer loop
      vertex 1.233691e+00 1.581135e+01 8.832360e+01
      vertex 7.203330e+01 -8.934365e+00 8.832360e+01
      vertex 5.512461e+00 1.598754e+01 8.832360e+01
    endloop
  endfacet
  facet normal -4.499279e-32 -2.449293e-16 1.000000e+00
    outer loop
      vertex 5.512461e+00 1.598754e+01 8.832360e+01
      vertex 7.203330e+01 -8.934365e+00 8.832360e+01
      vertex 9.794658e+00 1.594600e+01 8.832360e+01
    endloop
  endfacet
  facet normal -4.499279e-32 -2.449293e-16 1.000000e+00
    outer loop
      vertex 9.794658e+00 1.594600e+01 8.832360e+01
      vertex 7.203330e+01 -8.934365e+00 8.832360e+01
      vertex 6.753710e+01 -7.063196e+00 8.832360e+01
    endloop
  endfacet
  facet normal -4.499279e-32 -2.449293e-16 1.000000e+00
    outer loop
      vertex 9.794658e+00 1.594600e+01 8.832360e+01
      vertex 6.753710e+01 -7.063196e+00 8.832360e+01
      vertex 1.341588e+01 1.573269e+01 8.832360e+01
    endloop
  endfacet
  facet normal -4.499279e-32 -2.449293e-16 1.000000e+00
    outer loop
      vertex 1.341588e+01 1.573269e+01 8.832360e+01
      vertex 6.753710e+01 -7.063196e+00 8.832360e+01
      vertex 1.702291e+01 1.534797e+01 8.832360e+01
    endloop
  endfacet
  facet normal -4.499279e-32 -2.449293e-16 1.000000e+00
    outer loop
      vertex 1.702291e+01 1.534797e+01 8.832360e+01
      vertex 6.753710e+01 -7.063196e+00 8.832360e+01
      vertex 2.060765e+01 1.479268e+01 8.832360e+01
    endloop
  endfacet
  facet normal -4.499279e-32 -2.449293e-16 1.000000e+00
    outer loop
      vertex 2.060765e+01 1.479268e+01 8.832360e+01
      vertex 6.753710e+01 -7.063196e+00 8.832360e+01
      vertex 6.313298e+01 -4.984486e+00 8.832360e+01
    endloop
  endfacet
  facet normal -4.499279e-32 -2.449293e-16 1.000000e+00
    outer loop
      vertex 2.060765e+01 1.479268e+01 8.832360e+01
      vertex 6.313298e+01 -4.984486e+00 8.832360e+01
      vertex 2.416203e+01 1.406808e+01 8.832360e+01
    endloop
  endfacet
  facet normal -4.499279e-32 -2.449293e-16 1.000000e+00
    outer loop
      vertex 2.416203e+01 1.406808e+01 8.832360e+01
      vertex 6.313298e+01 -4.984486e+00 8.832360e+01
      vertex 2.767808e+01 1.317580e+01 8.832360e+01
    endloop
  endfacet
  facet normal -4.499279e-32 -2.449293e-16 1.000000e+00
    outer loop
      vertex 2.767808e+01 1.317580e+01 8.832360e+01
      vertex 6.313298e+01 -4.984486e+00 8.832360e+01
      vertex 5.883054e+01 -2.702745e+00 8.832360e+01
    endloop
  endfacet
  facet normal -4.499279e-32 -2.449293e-16 1.000000e+00
    outer loop
      vertex 2.767808e+01 1.317580e+01 8.832360e+01
      vertex 5.883054e+01 -2.702745e+00 8.832360e+01
      vertex 3.114786e+01 1.211786e+01 8.832360e+01
    endloop
  endfacet
  facet normal -4.499279e-32 -2.449293e-16 1.000000e+00
    outer loop
      vertex 3.114786e+01 1.211786e+01 8.832360e+01
      vertex 5.883054e+01 -2.702745e+00 8.832360e+01
      vertex 3.456360e+01 1.089660e+01 8.832360e+01
    endloop
  endfacet
  facet normal -4.499279e-32 -2.449293e-16 1.000000e+00
    outer loop
      vertex 3.456360e+01 1.089660e+01 8.832360e+01
      vertex 5.883054e+01 -2.702745e+00 8.832360e+01
      vertex 3.791761e+01 9.514814e+00 8.832360e+01
    endloop
  endfacet
  facet normal -4.499279e-32 -2.449293e-16 1.000000e+00
    outer loop
      vertex 3.791761e+01 9.514814e+00 8.832360e+01
      vertex 5.883054e+01 -2.702745e+00 8.832360e+01
      vertex 5.463915e+01 -2.229357e-01 8.832360e+01
    endloop
  endfacet
  facet normal -4.499279e-32 -2.449293e-16 1.000000e+00
    outer loop
      vertex 3.791761e+01 9.514814e+00 8.832360e+01
      vertex 5.463915e+01 -2.229357e-01 8.832360e+01
      vertex 4.120233e+01 7.975574e+00 8.832360e+01
    endloop
  endfacet
  facet normal -4.499279e-32 -2.449293e-16 1.000000e+00
    outer loop
      vertex 4.120233e+01 7.975574e+00 8.832360e+01
      vertex 5.463915e+01 -2.229357e-01 8.832360e+01
      vertex 4.441040e+01 6.282364e+00 8.832360e+01
    endloop
  endfacet
  facet normal -4.499279e-32 -2.449293e-16 1.000000e+00
    outer loop
      vertex 4.441040e+01 6.282364e+00 8.832360e+01
      vertex 5.463915e+01 -2.229357e-01 8.832360e+01
      vertex 4.753460e+01 4.438974e+00 8.832360e+01
    endloop
  endfacet
  facet normal -4.499279e-32 -2.449293e-16 1.000000e+00
    outer loop
      vertex 4.753460e+01 4.438974e+00 8.832360e+01
      vertex 5.463915e+01 -2.229357e-01 8.832360e+01
      vertex 5.056789e+01 2.449545e+00 8.832360e+01
    endloop
  endfacet
  facet normal -1.369733e-16 -1.000000e+00 -2.449293e-16
    outer loop
      vertex 1.052450e+02 -1.593845e+01 8.832360e+01
      vertex -9.826542e+01 -1.593845e+01 0.000000e+00
      vertex 1.052450e+02 -1.593845e+01 0.000000e+00
    endloop
  endfacet
  facet normal -1.369733e-16 -1.000000e+00 -2.449293e-16
    outer loop
      vertex -9.826542e+01 -1.593845e+01 0.000000e+00
      vertex 1.052450e+02 -1.593845e+01 8.832360e+01
      vertex -9.826542e+01 -1.593845e+01 8.832360e+01
    endloop
  endfacet
  facet normal -4.229618e-02 9.991051e-01 2.447101e-16
    outer loop
      vertex -9.826542e+01 -1.593845e+01 8.832360e+01
      vertex -9.360999e+01 -1.574136e+01 0.000000e+00
      vertex -9.826542e+01 -1.593845e+01 0.000000e+00
    endloop
  endfacet
  facet normal -4.229618e-02 9.991051e-01 2.447101e-16
    outer loop
      vertex -9.360999e+01 -1.574136e+01 0.000000e+00
      vertex -9.826542e+01 -1.593845e+01 8.832360e+01
      vertex -9.360999e+01 -1.574136e+01 8.832360e+01
    endloop
  endfacet
  facet normal -9.291781e-02 9.956738e-01 2.438697e-16
    outer loop
      vertex -9.360999e+01 -1.574136e+01 8.832360e+01
      vertex -8.781496e+01 -1.520056e+01 0.000000e+00
      vertex -9.360999e+01 -1.574136e+01 0.000000e+00
    endloop
  endfacet
  facet normal -9.291781e-02 9.956738e-01 2.438697e-16
    outer loop
      vertex -8.781496e+01 -1.520056e+01 0.000000e+00
      vertex -9.360999e+01 -1.574136e+01 8.832360e+01
      vertex -8.781496e+01 -1.520056e+01 8.832360e+01
    endloop
  endfacet
  facet normal -1.433003e-01 9.896793e-01 2.424015e-16
    outer loop
      vertex -8.781496e+01 -1.520056e+01 8.832360e+01
      vertex -8.205482e+01 -1.436652e+01 0.000000e+00
      vertex -8.781496e+01 -1.520056e+01 0.000000e+00
    endloop
  endfacet
  facet normal -1.433003e-01 9.896793e-01 2.424015e-16
    outer loop
      vertex -8.205482e+01 -1.436652e+01 0.000000e+00
      vertex -8.781496e+01 -1.520056e+01 8.832360e+01
      vertex -8.205482e+01 -1.436652e+01 8.832360e+01
    endloop
  endfacet
  facet normal -1.933138e-01 9.811370e-01 2.403092e-16
    outer loop
      vertex -8.205482e+01 -1.436652e+01 8.832360e+01
      vertex -7.634440e+01 -1.324140e+01 0.000000e+00
      vertex -8.205482e+01 -1.436652e+01 0.000000e+00
    endloop
  endfacet
  facet normal -1.933138e-01 9.811370e-01 2.403092e-16
    outer loop
      vertex -7.634440e+01 -1.324140e+01 0.000000e+00
      vertex -8.205482e+01 -1.436652e+01 8.832360e+01
      vertex -7.634440e+01 -1.324140e+01 8.832360e+01
    endloop
  endfacet
  facet normal -2.428297e-01 9.700690e-01 2.375984e-16
    outer loop
      vertex -7.634440e+01 -1.324140e+01 8.832360e+01
      vertex -7.069839e+01 -1.182808e+01 0.000000e+00
      vertex -7.634440e+01 -1.324140e+01 0.000000e+00
    endloop
  endfacet
  facet normal -2.428297e-01 9.700690e-01 2.375984e-16
    outer loop
      vertex -7.069839e+01 -1.182808e+01 0.000000e+00
      vertex -7.634440e+01 -1.324140e+01 8.832360e+01
      vertex -7.069839e+01 -1.182808e+01 8.832360e+01
    endloop
  endfacet
  facet normal -2.917204e-01 9.565036e-01 2.342759e-16
    outer loop
      vertex -7.069839e+01 -1.182808e+01 8.832360e+01
      vertex -6.513134e+01 -1.013020e+01 0.000000e+00
      vertex -7.069839e+01 -1.182808e+01 0.000000e+00
    endloop
  endfacet
  facet normal -2.917204e-01 9.565036e-01 2.342759e-16
    outer loop
      vertex -6.513134e+01 -1.013020e+01 0.000000e+00
      vertex -7.069839e+01 -1.182808e+01 8.832360e+01
      vertex -6.513134e+01 -1.013020e+01 8.832360e+01
    endloop
  endfacet
  facet normal -3.398602e-01 9.404760e-01 2.303502e-16
    outer loop
      vertex -6.513134e+01 -1.013020e+01 8.832360e+01
      vertex -5.965757e+01 -8.152144e+00 0.000000e+00
      vertex -6.513134e+01 -1.013020e+01 0.000000e+00
    endloop
  endfacet
  facet normal -3.398602e-01 9.404760e-01 2.303502e-16
    outer loop
      vertex -5.965757e+01 -8.152144e+00 0.000000e+00
      vertex -6.513134e+01 -1.013020e+01 8.832360e+01
      vertex -5.965757e+01 -8.152144e+00 8.832360e+01
    endloop
  endfacet
  facet normal -3.871250e-01 9.220273e-01 2.258316e-16
    outer loop
      vertex -5.965757e+01 -8.152144e+00 8.832360e+01
      vertex -5.429118e+01 -5.898995e+00 0.000000e+00
      vertex -5.965757e+01 -8.152144e+00 0.000000e+00
    endloop
  endfacet
  facet normal -3.871250e-01 9.220273e-01 2.258316e-16
    outer loop
      vertex -5.429118e+01 -5.898995e+00 0.000000e+00
      vertex -5.965757e+01 -8.152144e+00 8.832360e+01
      vertex -5.429118e+01 -5.898995e+00 8.832360e+01
    endloop
  endfacet
  facet normal -4.333934e-01 9.012048e-01 2.207316e-16
    outer loop
      vertex -5.429118e+01 -5.898995e+00 8.832360e+01
      vertex -4.904598e+01 -3.376555e+00 0.000000e+00
      vertex -5.429118e+01 -5.898995e+00 0.000000e+00
    endloop
  endfacet
  facet normal -4.333934e-01 9.012048e-01 2.207316e-16
    outer loop
      vertex -4.904598e+01 -3.376555e+00 0.000000e+00
      vertex -5.429118e+01 -5.898995e+00 8.832360e+01
      vertex -4.904598e+01 -3.376555e+00 8.832360e+01
    endloop
  endfacet
  facet normal -4.785460e-01 8.780626e-01 2.150634e-16
    outer loop
      vertex -4.904598e+01 -3.376555e+00 8.832360e+01
      vertex -4.393546e+01 -5.913153e-01 0.000000e+00
      vertex -4.904598e+01 -3.376555e+00 0.000000e+00
    endloop
  endfacet
  facet normal -4.785460e-01 8.780626e-01 2.150634e-16
    outer loop
      vertex -4.393546e+01 -5.913153e-01 0.000000e+00
      vertex -4.904598e+01 -3.376555e+00 8.832360e+01
      vertex -4.393546e+01 -5.913153e-01 8.832360e+01
    endloop
  endfacet
  facet normal -5.224665e-01 8.526598e-01 2.088415e-16
    outer loop
      vertex -4.393546e+01 -5.913153e-01 8.832360e+01
      vertex -3.897280e+01 2.449545e+00 0.000000e+00
      vertex -4.393546e+01 -5.913153e-01 0.000000e+00
    endloop
  endfacet
  facet normal -5.224665e-01 8.526598e-01 2.088415e-16
    outer loop
      vertex -3.897280e+01 2.449545e+00 0.000000e+00
      vertex -4.393546e+01 -5.913153e-01 8.832360e+01
      vertex -3.897280e+01 2.449545e+00 8.832360e+01
    endloop
  endfacet
  facet normal -5.224197e-01 8.526885e-01 2.088484e-16
    outer loop
      vertex -3.897280e+01 2.449545e+00 8.832360e+01
      vertex -3.532125e+01 4.686754e+00 0.000000e+00
      vertex -3.897280e+01 2.449545e+00 0.000000e+00
    endloop
  endfacet
  facet normal -5.224197e-01 8.526885e-01 2.088484e-16
    outer loop
      vertex -3.532125e+01 4.686754e+00 0.000000e+00
      vertex -3.897280e+01 2.449545e+00 8.832360e+01
      vertex -3.532125e+01 4.686754e+00 8.832360e+01
    endloop
  endfacet
  facet normal -4.784011e-01 8.781415e-01 2.150826e-16
    outer loop
      vertex -3.532125e+01 4.686754e+00 8.832360e+01
      vertex -3.156070e+01 6.735464e+00 0.000000e+00
      vertex -3.532125e+01 4.686754e+00 0.000000e+00
    endloop
  endfacet
  facet normal -4.784011e-01 8.781415e-01 2.150826e-16
    outer loop
      vertex -3.156070e+01 6.735464e+00 0.000000e+00
      vertex -3.532125e+01 4.686754e+00 8.832360e+01
      vertex -3.156070e+01 6.735464e+00 8.832360e+01
    endloop
  endfacet
  facet normal -4.331456e-01 9.013240e-01 2.207607e-16
    outer loop
      vertex -3.156070e+01 6.735464e+00 8.832360e+01
      vertex -2.770087e+01 8.590364e+00 0.000000e+00
      vertex -3.156070e+01 6.735464e+00 0.000000e+00
    endloop
  endfacet
  facet normal -4.331456e-01 9.013240e-01 2.207607e-16
    outer loop
      vertex -2.770087e+01 8.590364e+00 0.000000e+00
      vertex -3.156070e+01 6.735464e+00 8.832360e+01
      vertex -2.770087e+01 8.590364e+00 8.832360e+01
    endloop
  endfacet
  facet normal -3.867702e-01 9.221762e-01 2.258680e-16
    outer loop
      vertex -2.770087e+01 8.590364e+00 8.832360e+01
      vertex -2.375174e+01 1.024667e+01 0.000000e+00
      vertex -2.770087e+01 8.590364e+00 0.000000e+00
    endloop
  endfacet
  facet normal -3.867702e-01 9.221762e-01 2.258680e-16
    outer loop
      vertex -2.375174e+01 1.024667e+01 0.000000e+00
      vertex -2.770087e+01 8.590364e+00 8.832360e+01
      vertex -2.375174e+01 1.024667e+01 8.832360e+01
    endloop
  endfacet
  facet normal -3.393947e-01 9.406440e-01 2.303913e-16
    outer loop
      vertex -2.375174e+01 1.024667e+01 8.832360e+01
      vertex -1.972353e+01 1.170009e+01 0.000000e+00
      vertex -2.375174e+01 1.024667e+01 0.000000e+00
    endloop
  endfacet
  facet normal -3.393947e-01 9.406440e-01 2.303913e-16
    outer loop
      vertex -1.972353e+01 1.170009e+01 0.000000e+00
      vertex -2.375174e+01 1.024667e+01 8.832360e+01
      vertex -1.972353e+01 1.170009e+01 8.832360e+01
    endloop
  endfacet
  facet normal -2.911418e-01 9.566799e-01 2.343190e-16
    outer loop
      vertex -1.972353e+01 1.170009e+01 8.832360e+01
      vertex -1.562664e+01 1.294688e+01 0.000000e+00
      vertex -1.972353e+01 1.170009e+01 0.000000e+00
    endloop
  endfacet
  facet normal -2.911418e-01 9.566799e-01 2.343190e-16
    outer loop
      vertex -1.562664e+01 1.294688e+01 0.000000e+00
      vertex -1.972353e+01 1.170009e+01 8.832360e+01
      vertex -1.562664e+01 1.294688e+01 8.832360e+01
    endloop
  endfacet
  facet normal -2.421362e-01 9.702423e-01 2.376408e-16
    outer loop
      vertex -1.562664e+01 1.294688e+01 8.832360e+01
      vertex -1.147167e+01 1.398380e+01 0.000000e+00
      vertex -1.562664e+01 1.294688e+01 0.000000e+00
    endloop
  endfacet
  facet normal -2.421362e-01 9.702423e-01 2.376408e-16
    outer loop
      vertex -1.147167e+01 1.398380e+01 0.000000e+00
      vertex -1.562664e+01 1.294688e+01 8.832360e+01
      vertex -1.147167e+01 1.398380e+01 8.832360e+01
    endloop
  endfacet
  facet normal -1.925045e-01 9.812961e-01 2.403482e-16
    outer loop
      vertex -1.147167e+01 1.398380e+01 8.832360e+01
      vertex -7.269370e+00 1.480818e+01 0.000000e+00
      vertex -1.147167e+01 1.398380e+01 0.000000e+00
    endloop
  endfacet
  facet normal -1.925045e-01 9.812961e-01 2.403482e-16
    outer loop
      vertex -7.269370e+00 1.480818e+01 0.000000e+00
      vertex -1.147167e+01 1.398380e+01 8.832360e+01
      vertex -7.269370e+00 1.480818e+01 8.832360e+01
    endloop
  endfacet
  facet normal -1.423751e-01 9.898128e-01 2.424342e-16
    outer loop
      vertex -7.269370e+00 1.480818e+01 8.832360e+01
      vertex -3.030601e+00 1.541789e+01 0.000000e+00
      vertex -7.269370e+00 1.480818e+01 0.000000e+00
    endloop
  endfacet
  facet normal -1.423751e-01 9.898128e-01 2.424342e-16
    outer loop
      vertex -3.030601e+00 1.541789e+01 0.000000e+00
      vertex -7.269370e+00 1.480818e+01 8.832360e+01
      vertex -3.030601e+00 1.541789e+01 8.832360e+01
    endloop
  endfacet
  facet normal -9.187759e-02 9.957703e-01 2.438933e-16
    outer loop
      vertex -3.030601e+00 1.541789e+01 8.832360e+01
      vertex 1.233691e+00 1.581135e+01 0.000000e+00
      vertex -3.030601e+00 1.541789e+01 0.000000e+00
    endloop
  endfacet
  facet normal -9.187759e-02 9.957703e-01 2.438933e-16
    outer loop
      vertex 1.233691e+00 1.581135e+01 0.000000e+00
      vertex -3.030601e+00 1.541789e+01 8.832360e+01
      vertex 1.233691e+00 1.581135e+01 8.832360e+01
    endloop
  endfacet
  facet normal -4.114253e-02 9.991533e-01 2.447220e-16
    outer loop
      vertex 1.233691e+00 1.581135e+01 8.832360e+01
      vertex 5.512461e+00 1.598754e+01 0.000000e+00
      vertex 1.233691e+00 1.581135e+01 0.000000e+00
    endloop
  endfacet
  facet normal -4.114253e-02 9.991533e-01 2.447220e-16
    outer loop
      vertex 5.512461e+00 1.598754e+01 0.000000e+00
      vertex 1.233691e+00 1.581135e+01 8.832360e+01
      vertex 5.512461e+00 1.598754e+01 8.832360e+01
    endloop
  endfacet
  facet normal 9.698898e-03 9.999530e-01 2.449179e-16
    outer loop
      vertex 5.512461e+00 1.598754e+01 8.832360e+01
      vertex 9.794658e+00 1.594600e+01 0.000000e+00
      vertex 5.512461e+00 1.598754e+01 0.000000e+00
    endloop
  endfacet
  facet normal 9.698898e-03 9.999530e-01 2.449179e-16
    outer loop
      vertex 9.794658e+00 1.594600e+01 0.000000e+00
      vertex 5.512461e+00 1.598754e+01 8.832360e+01
      vertex 9.794658e+00 1.594600e+01 8.832360e+01
    endloop
  endfacet
  facet normal 5.880295e-02 9.982696e-01 2.445056e-16
    outer loop
      vertex 9.794658e+00 1.594600e+01 8.832360e+01
      vertex 1.341588e+01 1.573269e+01 0.000000e+00
      vertex 9.794658e+00 1.594600e+01 0.000000e+00
    endloop
  endfacet
  facet normal 5.880295e-02 9.982696e-01 2.445056e-16
    outer loop
      vertex 1.341588e+01 1.573269e+01 0.000000e+00
      vertex 9.794658e+00 1.594600e+01 8.832360e+01
      vertex 1.341588e+01 1.573269e+01 8.832360e+01
    endloop
  endfacet
  facet normal 1.060595e-01 9.943598e-01 2.435479e-16
    outer loop
      vertex 1.341588e+01 1.573269e+01 8.832360e+01
      vertex 1.702291e+01 1.534797e+01 0.000000e+00
      vertex 1.341588e+01 1.573269e+01 0.000000e+00
    endloop
  endfacet
  facet normal 1.060595e-01 9.943598e-01 2.435479e-16
    outer loop
      vertex 1.702291e+01 1.534797e+01 0.000000e+00
      vertex 1.341588e+01 1.573269e+01 8.832360e+01
      vertex 1.702291e+01 1.534797e+01 8.832360e+01
    endloop
  endfacet
  facet normal 1.530776e-01 9.882142e-01 2.420427e-16
    outer loop
      vertex 1.702291e+01 1.534797e+01 8.832360e+01
      vertex 2.060765e+01 1.479268e+01 0.000000e+00
      vertex 1.702291e+01 1.534797e+01 0.000000e+00
    endloop
  endfacet
  facet normal 1.530776e-01 9.882142e-01 2.420427e-16
    outer loop
      vertex 2.060765e+01 1.479268e+01 0.000000e+00
      vertex 1.702291e+01 1.534797e+01 8.832360e+01
      vertex 2.060765e+01 1.479268e+01 8.832360e+01
    endloop
  endfacet
  facet normal 1.997515e-01 9.798466e-01 2.399932e-16
    outer loop
      vertex 2.060765e+01 1.479268e+01 8.832360e+01
      vertex 2.416203e+01 1.406808e+01 0.000000e+00
      vertex 2.060765e+01 1.479268e+01 0.000000e+00
    endloop
  endfacet
  facet normal 1.997515e-01 9.798466e-01 2.399932e-16
    outer loop
      vertex 2.416203e+01 1.406808e+01 0.000000e+00
      vertex 2.060765e+01 1.479268e+01 8.832360e+01
      vertex 2.416203e+01 1.406808e+01 8.832360e+01
    endloop
  endfacet
  facet normal 2.459762e-01 9.692759e-01 2.374041e-16
    outer loop
      vertex 2.416203e+01 1.406808e+01 8.832360e+01
      vertex 2.767808e+01 1.317580e+01 0.000000e+00
      vertex 2.416203e+01 1.406808e+01 0.000000e+00
    endloop
  endfacet
  facet normal 2.459762e-01 9.692759e-01 2.374041e-16
    outer loop
      vertex 2.767808e+01 1.317580e+01 0.000000e+00
      vertex 2.416203e+01 1.406808e+01 8.832360e+01
      vertex 2.767808e+01 1.317580e+01 8.832360e+01
    endloop
  endfacet
  facet normal 2.916479e-01 9.565258e-01 2.342812e-16
    outer loop
      vertex 2.767808e+01 1.317580e+01 8.832360e+01
      vertex 3.114786e+01 1.211786e+01 0.000000e+00
      vertex 2.767808e+01 1.317580e+01 0.000000e+00
    endloop
  endfacet
  facet normal 2.916479e-01 9.565258e-01 2.342812e-16
    outer loop
      vertex 3.114786e+01 1.211786e+01 0.000000e+00
      vertex 2.767808e+01 1.317580e+01 8.832360e+01
      vertex 3.114786e+01 1.211786e+01 8.832360e+01
    endloop
  endfacet
  facet normal 3.366639e-01 9.416249e-01 2.306316e-16
    outer loop
      vertex 3.114786e+01 1.211786e+01 8.832360e+01
      vertex 3.456360e+01 1.089660e+01 0.000000e+00
      vertex 3.114786e+01 1.211786e+01 0.000000e+00
    endloop
  endfacet
  facet normal 3.366639e-01 9.416249e-01 2.306316e-16
    outer loop
      vertex 3.456360e+01 1.089660e+01 0.000000e+00
      vertex 3.114786e+01 1.211786e+01 8.832360e+01
      vertex 3.456360e+01 1.089660e+01 8.832360e+01
    endloop
  endfacet
  facet normal 3.809228e-01 9.246069e-01 2.264633e-16
    outer loop
      vertex 3.456360e+01 1.089660e+01 8.832360e+01
      vertex 3.791761e+01 9.514814e+00 0.000000e+00
      vertex 3.456360e+01 1.089660e+01 0.000000e+00
    endloop
  endfacet
  facet normal 3.809228e-01 9.246069e-01 2.264633e-16
    outer loop
      vertex 3.791761e+01 9.514814e+00 0.000000e+00
      vertex 3.456360e+01 1.089660e+01 8.832360e+01
      vertex 3.791761e+01 9.514814e+00 8.832360e+01
    endloop
  endfacet
  facet normal 4.243252e-01 9.055098e-01 2.217860e-16
    outer loop
      vertex 3.791761e+01 9.514814e+00 8.832360e+01
      vertex 4.120233e+01 7.975574e+00 0.000000e+00
      vertex 3.791761e+01 9.514814e+00 0.000000e+00
    endloop
  endfacet
  facet normal 4.243252e-01 9.055098e-01 2.217860e-16
    outer loop
      vertex 4.120233e+01 7.975574e+00 0.000000e+00
      vertex 3.791761e+01 9.514814e+00 8.832360e+01
      vertex 4.120233e+01 7.975574e+00 8.832360e+01
    endloop
  endfacet
  facet normal 4.667737e-01 8.843768e-01 2.166099e-16
    outer loop
      vertex 4.120233e+01 7.975574e+00 8.832360e+01
      vertex 4.441040e+01 6.282364e+00 0.000000e+00
      vertex 4.120233e+01 7.975574e+00 0.000000e+00
    endloop
  endfacet
  facet normal 4.667737e-01 8.843768e-01 2.166099e-16
    outer loop
      vertex 4.441040e+01 6.282364e+00 0.000000e+00
      vertex 4.120233e+01 7.975574e+00 8.832360e+01
      vertex 4.441040e+01 6.282364e+00 8.832360e+01
    endloop
  endfacet
  facet normal 5.081725e-01 8.612553e-01 2.109467e-16
    outer loop
      vertex 4.441040e+01 6.282364e+00 8.832360e+01
      vertex 4.753460e+01 4.438974e+00 0.000000e+00
      vertex 4.441040e+01 6.282364e+00 0.000000e+00
    endloop
  endfacet
  facet normal 5.081725e-01 8.612553e-01 2.109467e-16
    outer loop
      vertex 4.753460e+01 4.438974e+00 0.000000e+00
      vertex 4.441040e+01 6.282364e+00 8.832360e+01
      vertex 4.753460e+01 4.438974e+00 8.832360e+01
    endloop
  endfacet
  facet normal 5.484287e-01 8.361973e-01 2.048093e-16
    outer loop
      vertex 4.753460e+01 4.438974e+00 8.832360e+01
      vertex 5.056789e+01 2.449545e+00 0.000000e+00
      vertex 4.753460e+01 4.438974e+00 0.000000e+00
    endloop
  endfacet
  facet normal 5.484287e-01 8.361973e-01 2.048093e-16
    outer loop
      vertex 5.056789e+01 2.449545e+00 0.000000e+00
      vertex 4.753460e+01 4.438974e+00 8.832360e+01
      vertex 5.056789e+01 2.449545e+00 8.832360e+01
    endloop
  endfacet
  facet normal 5.487602e-01 8.359798e-01 2.047560e-16
    outer loop
      vertex 5.056789e+01 2.449545e+00 8.832360e+01
      vertex 5.463915e+01 -2.229357e-01 0.000000e+00
      vertex 5.056789e+01 2.449545e+00 0.000000e+00
    endloop
  endfacet
  facet normal 5.487602e-01 8.359798e-01 2.047560e-16
    outer loop
      vertex 5.463915e+01 -2.229357e-01 0.000000e+00
      vertex 5.056789e+01 2.449545e+00 8.832360e+01
      vertex 5.463915e+01 -2.229357e-01 8.832360e+01
    endloop
  endfacet
  facet normal 5.091968e-01 8.606501e-01 2.107985e-16
    outer loop
      vertex 5.463915e+01 -2.229357e-01 8.832360e+01
      vertex 5.883054e+01 -2.702745e+00 0.000000e+00
      vertex 5.463915e+01 -2.229357e-01 0.000000e+00
    endloop
  endfacet
  facet normal 5.091968e-01 8.606501e-01 2.107985e-16
    outer loop
      vertex 5.883054e+01 -2.702745e+00 0.000000e+00
      vertex 5.463915e+01 -2.229357e-01 8.832360e+01
      vertex 5.883054e+01 -2.702745e+00 8.832360e+01
    endloop
  endfacet
  facet normal 4.685264e-01 8.834495e-01 2.163827e-16
    outer loop
      vertex 5.883054e+01 -2.702745e+00 8.832360e+01
      vertex 6.313298e+01 -4.984486e+00 0.000000e+00
      vertex 5.883054e+01 -2.702745e+00 0.000000e+00
    endloop
  endfacet
  facet normal 4.685264e-01 8.834495e-01 2.163827e-16
    outer loop
      vertex 6.313298e+01 -4.984486e+00 0.000000e+00
      vertex 5.883054e+01 -2.702745e+00 8.832360e+01
      vertex 6.313298e+01 -4.984486e+00 8.832360e+01
    endloop
  endfacet
  facet normal 4.268376e-01 9.043284e-01 2.214966e-16
    outer loop
      vertex 6.313298e+01 -4.984486e+00 8.832360e+01
      vertex 6.753710e+01 -7.063196e+00 0.000000e+00
      vertex 6.313298e+01 -4.984486e+00 0.000000e+00
    endloop
  endfacet
  facet normal 4.268376e-01 9.043284e-01 2.214966e-16
    outer loop
      vertex 6.753710e+01 -7.063196e+00 0.000000e+00
      vertex 6.313298e+01 -4.984486e+00 8.832360e+01
      vertex 6.753710e+01 -7.063196e+00 8.832360e+01
    endloop
  endfacet
  facet normal 3.842206e-01 9.232413e-01 2.261289e-16
    outer loop
      vertex 6.753710e+01 -7.063196e+00 8.832360e+01
      vertex 7.203330e+01 -8.934365e+00 0.000000e+00
      vertex 6.753710e+01 -7.063196e+00 0.000000e+00
    endloop
  endfacet
  facet normal 3.842206e-01 9.232413e-01 2.261289e-16
    outer loop
      vertex 7.203330e+01 -8.934365e+00 0.000000e+00
      vertex 6.753710e+01 -7.063196e+00 8.832360e+01
      vertex 7.203330e+01 -8.934365e+00 8.832360e+01
    endloop
  endfacet
  facet normal 3.407685e-01 9.401472e-01 2.302696e-16
    outer loop
      vertex 7.203330e+01 -8.934365e+00 8.832360e+01
      vertex 7.661187e+01 -1.059392e+01 0.000000e+00
      vertex 7.203330e+01 -8.934365e+00 0.000000e+00
    endloop
  endfacet
  facet normal 3.407685e-01 9.401472e-01 2.302696e-16
    outer loop
      vertex 7.661187e+01 -1.059392e+01 0.000000e+00
      vertex 7.203330e+01 -8.934365e+00 8.832360e+01
      vertex 7.661187e+01 -1.059392e+01 8.832360e+01
    endloop
  endfacet
  facet normal 2.965757e-01 9.550093e-01 2.339098e-16
    outer loop
      vertex 7.661187e+01 -1.059392e+01 8.832360e+01
      vertex 8.126279e+01 -1.203826e+01 0.000000e+00
      vertex 7.661187e+01 -1.059392e+01 0.000000e+00
    endloop
  endfacet
  facet normal 2.965757e-01 9.550093e-01 2.339098e-16
    outer loop
      vertex 8.126279e+01 -1.203826e+01 0.000000e+00
      vertex 7.661187e+01 -1.059392e+01 8.832360e+01
      vertex 8.126279e+01 -1.203826e+01 8.832360e+01
    endloop
  endfacet
  facet normal 2.517380e-01 9.677955e-01 2.370415e-16
    outer loop
      vertex 8.126279e+01 -1.203826e+01 8.832360e+01
      vertex 8.597600e+01 -1.326423e+01 0.000000e+00
      vertex 8.126279e+01 -1.203826e+01 0.000000e+00
    endloop
  endfacet
  facet normal 2.517380e-01 9.677955e-01 2.370415e-16
    outer loop
      vertex 8.597600e+01 -1.326423e+01 0.000000e+00
      vertex 8.126279e+01 -1.203826e+01 8.832360e+01
      vertex 8.597600e+01 -1.326423e+01 8.832360e+01
    endloop
  endfacet
  facet normal 2.063531e-01 9.784776e-01 2.396579e-16
    outer loop
      vertex 8.597600e+01 -1.326423e+01 8.832360e+01
      vertex 9.074121e+01 -1.426918e+01 0.000000e+00
      vertex 8.597600e+01 -1.326423e+01 0.000000e+00
    endloop
  endfacet
  facet normal 2.063531e-01 9.784776e-01 2.396579e-16
    outer loop
      vertex 9.074121e+01 -1.426918e+01 0.000000e+00
      vertex 8.597600e+01 -1.326423e+01 8.832360e+01
      vertex 9.074121e+01 -1.426918e+01 8.832360e+01
    endloop
  endfacet
  facet normal 1.605197e-01 9.870327e-01 2.417532e-16
    outer loop
      vertex 9.074121e+01 -1.426918e+01 8.832360e+01
      vertex 9.554810e+01 -1.505091e+01 0.000000e+00
      vertex 9.074121e+01 -1.426918e+01 0.000000e+00
    endloop
  endfacet
  facet normal 1.605197e-01 9.870327e-01 2.417532e-16
    outer loop
      vertex 9.554810e+01 -1.505091e+01 0.000000e+00
      vertex 9.074121e+01 -1.426918e+01 8.832360e+01
      vertex 9.554810e+01 -1.505091e+01 8.832360e+01
    endloop
  endfacet
  facet normal 1.143373e-01 9.934420e-01 2.433231e-16
    outer loop
      vertex 9.554810e+01 -1.505091e+01 8.832360e+01
      vertex 1.003862e+02 -1.560774e+01 0.000000e+00
      vertex 9.554810e+01 -1.505091e+01 0.000000e+00
    endloop
  endfacet
  facet normal 1.143373e-01 9.934420e-01 2.433231e-16
    outer loop
      vertex 1.003862e+02 -1.560774e+01 0.000000e+00
      vertex 9.554810e+01 -1.505091e+01 8.832360e+01
      vertex 1.003862e+02 -1.560774e+01 8.832360e+01
    endloop
  endfacet
  facet normal 6.790629e-02 9.976917e-01 2.443640e-16
    outer loop
      vertex 1.003862e+02 -1.560774e+01 8.832360e+01
      vertex 1.052450e+02 -1.593845e+01 0.000000e+00
      vertex 1.003862e+02 -1.560774e+01 0.000000e+00
    endloop
  endfacet
  facet normal 6.790629e-02 9.976917e-01 2.443640e-16
    outer loop
      vertex 1.052450e+02 -1.593845e+01 0.000000e+00
      vertex 1.003862e+02 -1.560774e+01 8.832360e+01
      vertex 1.052450e+02 -1.593845e+01 8.832360e+01
    endloop
  endfacet
endsolid Default
