solid Default
  facet normal 0.000000e+00 0.000000e+00 -1.000000e+00
    outer loop
      vertex -1.028660e+02 6.900000e+01 0.000000e+00
      vertex 1.028660e+02 -2.727528e+01 0.000000e+00
      vertex -1.083680e+02 5.484818e+01 0.000000e+00
    endloop
  endfacet
  facet normal 0.000000e+00 0.000000e+00 -1.000000e+00
    outer loop
      vertex 1.028660e+02 -2.727528e+01 0.000000e+00
      vertex -1.028660e+02 6.900000e+01 0.000000e+00
      vertex 1.083680e+02 -1.312346e+01 0.000000e+00
    endloop
  endfacet
  facet normal 0.000000e+00 0.000000e+00 -1.000000e+00
    outer loop
      vertex -1.083680e+02 5.484818e+01 0.000000e+00
      vertex 3.186888e+00 -6.900000e+01 0.000000e+00
      vertex -6.306066e+01 -4.324431e+01 0.000000e+00
    endloop
  endfacet
  facet normal 0.000000e+00 0.000000e+00 -1.000000e+00
    outer loop
      vertex 3.186888e+00 -6.900000e+01 0.000000e+00
      vertex -1.083680e+02 5.484818e+01 0.000000e+00
      vertex 1.029103e+02 -2.729247e+01 0.000000e+00
    endloop
  endfacet
  facet normal 0.000000e+00 0.000000e+00 -1.000000e+00
    outer loop
      vertex 1.029103e+02 -2.729247e+01 0.000000e+00
      vertex -1.083680e+02 5.484818e+01 0.000000e+00
      vertex 1.028660e+02 -2.727528e+01 0.000000e+00
    endloop
  endfacet
  facet normal -4.787705e-01 -2.211362e-01 8.496338e-01
    outer loop
      vertex -1.083680e+02 5.484818e+01 0.000000e+00
      vertex -6.306066e+01 -4.324431e+01 0.000000e+00
      vertex -3.588072e+01 2.666662e+01 3.351184e+01
    endloop
  endfacet
  facet normal 3.623578e-01 9.320391e-01 0.000000e+00
    outer loop
      vertex -1.028660e+02 6.900000e+01 0.000000e+00
      vertex 1.083680e+02 -1.312346e+01 4.268871e+01
      vertex 1.083680e+02 -1.312346e+01 0.000000e+00
    endloop
  endfacet
  facet normal 3.623578e-01 9.320391e-01 0.000000e+00
    outer loop
      vertex 1.083680e+02 -1.312346e+01 4.268871e+01
      vertex -1.028660e+02 6.900000e+01 0.000000e+00
      vertex -1.028660e+02 6.900000e+01 4.268871e+01
    endloop
  endfacet
  facet normal 2.034298e-01 -4.864040e-01 8.497220e-01
    outer loop
      vertex 1.029103e+02 -2.729247e+01 0.000000e+00
      vertex 3.036682e+01 9.109301e-01 3.351184e+01
      vertex 3.186888e+00 -6.900000e+01 0.000000e+00
    endloop
  endfacet
  facet normal 2.034298e-01 -4.864040e-01 8.497220e-01
    outer loop
      vertex 3.036682e+01 9.109301e-01 3.351184e+01
      vertex 1.029103e+02 -2.729247e+01 0.000000e+00
      vertex 1.028660e+02 -2.727528e+01 2.043836e-02
    endloop
  endfacet
  facet normal -1.478106e-01 -3.801912e-01 9.130206e-01
    outer loop
      vertex 3.036682e+01 9.109301e-01 3.351184e+01
      vertex -6.306066e+01 -4.324431e+01 0.000000e+00
      vertex 3.186888e+00 -6.900000e+01 0.000000e+00
    endloop
  endfacet
  facet normal -1.478106e-01 -3.801912e-01 9.130206e-01
    outer loop
      vertex -6.306066e+01 -4.324431e+01 0.000000e+00
      vertex 3.036682e+01 9.109301e-01 3.351184e+01
      vertex -3.588072e+01 2.666662e+01 3.351184e+01
    endloop
  endfacet
  facet normal 9.320391e-01 -3.623578e-01 0.000000e+00
    outer loop
      vertex 1.083680e+02 -1.312346e+01 4.268871e+01
      vertex 1.028660e+02 -2.727528e+01 0.000000e+00
      vertex 1.083680e+02 -1.312346e+01 0.000000e+00
    endloop
  endfacet
  facet normal 9.320391e-01 -3.623578e-01 0.000000e+00
    outer loop
      vertex 1.028660e+02 -2.727528e+01 0.000000e+00
      vertex 1.083680e+02 -1.312346e+01 4.268871e+01
      vertex 1.028660e+02 -2.727528e+01 2.043836e-02
    endloop
  endfacet
  facet normal 9.320391e-01 -3.623578e-01 0.000000e+00
    outer loop
      vertex 1.028660e+02 -2.727528e+01 2.043836e-02
      vertex 1.083680e+02 -1.312346e+01 4.268871e+01
      vertex 1.028660e+02 -2.727528e+01 4.268871e+01
    endloop
  endfacet
  facet normal -3.623578e-01 -9.320391e-01 0.000000e+00
    outer loop
      vertex 3.036682e+01 9.109301e-01 4.268871e+01
      vertex 1.028660e+02 -2.727528e+01 2.043836e-02
      vertex 1.028660e+02 -2.727528e+01 4.268871e+01
    endloop
  endfacet
  facet normal -3.623578e-01 -9.320391e-01 0.000000e+00
    outer loop
      vertex 1.028660e+02 -2.727528e+01 2.043836e-02
      vertex 3.036682e+01 9.109301e-01 4.268871e+01
      vertex 3.036682e+01 9.109301e-01 3.351184e+01
    endloop
  endfacet
  facet normal -9.320391e-01 3.623578e-01 0.000000e+00
    outer loop
      vertex -1.083680e+02 5.484818e+01 4.268871e+01
      vertex -1.028660e+02 6.900000e+01 0.000000e+00
      vertex -1.083680e+02 5.484818e+01 0.000000e+00
    endloop
  endfacet
  facet normal -9.320391e-01 3.623578e-01 0.000000e+00
    outer loop
      vertex -1.028660e+02 6.900000e+01 0.000000e+00
      vertex -1.083680e+02 5.484818e+01 4.268871e+01
      vertex -1.028660e+02 6.900000e+01 4.268871e+01
    endloop
  endfacet
  facet normal -3.623578e-01 -9.320391e-01 0.000000e+00
    outer loop
      vertex -1.083680e+02 5.484818e+01 4.268871e+01
      vertex -3.588072e+01 2.666662e+01 3.351184e+01
      vertex -3.588072e+01 2.666662e+01 4.268871e+01
    endloop
  endfacet
  facet normal -3.623578e-01 -9.320391e-01 0.000000e+00
    outer loop
      vertex -3.588072e+01 2.666662e+01 3.351184e+01
      vertex -1.083680e+02 5.484818e+01 4.268871e+01
      vertex -1.083680e+02 5.484818e+01 0.000000e+00
    endloop
  endfacet
  facet normal 0.000000e+00 0.000000e+00 1.000000e+00
    outer loop
      vertex 1.083680e+02 -1.312346e+01 4.268871e+01
      vertex 3.036682e+01 9.109301e-01 4.268871e+01
      vertex 1.028660e+02 -2.727528e+01 4.268871e+01
    endloop
  endfacet
  facet normal 0.000000e+00 0.000000e+00 1.000000e+00
    outer loop
      vertex 3.036682e+01 9.109301e-01 4.268871e+01
      vertex 1.083680e+02 -1.312346e+01 4.268871e+01
      vertex -3.588072e+01 2.666662e+01 4.268871e+01
    endloop
  endfacet
  facet normal 0.000000e+00 0.000000e+00 1.000000e+00
    outer loop
      vertex -3.588072e+01 2.666662e+01 4.268871e+01
      vertex 1.083680e+02 -1.312346e+01 4.268871e+01
      vertex -1.083680e+02 5.484818e+01 4.268871e+01
    endloop
  endfacet
  facet normal 0.000000e+00 0.000000e+00 1.000000e+00
    outer loop
      vertex -1.083680e+02 5.484818e+01 4.268871e+01
      vertex 1.083680e+02 -1.312346e+01 4.268871e+01
      vertex -1.028660e+02 6.900000e+01 4.268871e+01
    endloop
  endfacet
  facet normal -3.623578e-01 -9.320391e-01 -0.000000e+00
    outer loop
      vertex -3.588072e+01 2.666662e+01 4.268871e+01
      vertex 3.036682e+01 9.109301e-01 3.351184e+01
      vertex 3.036682e+01 9.109301e-01 4.268871e+01
    endloop
  endfacet
  facet normal -3.623578e-01 -9.320391e-01 -0.000000e+00
    outer loop
      vertex 3.036682e+01 9.109301e-01 3.351184e+01
      vertex -3.588072e+01 2.666662e+01 4.268871e+01
      vertex -3.588072e+01 2.666662e+01 3.351184e+01
    endloop
  endfacet
endsolid Default
